<?xml version="1.0" encoding="UTF-8"?>
<!DOCTYPE svg PUBLIC "-//W3C//DTD SVG 1.1//EN" "http://www.w3.org/Graphics/SVG/1.1/DTD/svg11.dtd">
<!-- Creator: CorelDRAW 2020 (64-Bit) -->
<svg xmlns="http://www.w3.org/2000/svg" xml:space="preserve" width="10mm" height="10mm" version="1.1" style="shape-rendering:geometricPrecision; text-rendering:geometricPrecision; image-rendering:optimizeQuality; fill-rule:evenodd; clip-rule:evenodd"
viewBox="0 0 1000 1000"
 xmlns:xlink="http://www.w3.org/1999/xlink"
 xmlns:xodm="http://www.corel.com/coreldraw/odm/2003">
 <defs>
  <style type="text/css">
   <![CDATA[
    .fil0 {fill:#9D9E9E;fill-rule:nonzero}
   ]]>
  </style>
 </defs>
 <g id="Layer_x0020_1">
  <metadata id="CorelCorpID_0Corel-Layer"/>
  <g id="_1918205412544">
   <path class="fil0" d="M1080.29 883.18c-0.82,0 -1.64,-0.07 -2.46,-0.22l-173.28 -31.92c-31.21,14.48 -64.52,23.5 -99.08,26.84 -45.21,4.36 -89.65,-1.11 -132.09,-16.3 -7.07,-2.52 -10.74,-10.31 -8.22,-17.37 2.54,-7.06 10.32,-10.74 17.38,-8.21 38.65,13.82 79.11,18.8 120.31,14.82 32.47,-3.13 63.7,-11.76 92.87,-25.66 1.75,-0.83 3.66,-1.28 5.61,-1.31l3.79 -0.07c0.84,-0.01 1.79,0.07 2.68,0.22l154.59 28.48 -35.01 -151.74c-0.64,-2.75 -0.4,-5.64 0.69,-8.25l2.96 -7.15c18.93,-43.34 26.48,-91.03 21.93,-138.16 -7.15,-73.96 -42.68,-140.71 -100.03,-187.94 -57.36,-47.24 -129.68,-69.36 -203.64,-62.17 -91.22,8.84 -172.23,62.03 -216.7,142.32 -3.64,6.56 -11.93,8.93 -18.48,5.31 -6.57,-3.63 -8.94,-11.91 -5.31,-18.48 48.81,-88.11 137.74,-146.52 237.87,-156.2 81.2,-7.82 160.58,16.38 223.53,68.23 62.97,51.86 101.96,125.12 109.81,206.31 5,51.73 -3.29,104.1 -23.97,151.43l-1.2 2.89 38.69 167.66c1.03,4.46 -0.25,9.14 -3.42,12.45 -2.59,2.7 -6.14,4.19 -9.82,4.19z"/>
   <path class="fil0" d="M415.19 431.41c-149.55,0 -271.54,117.13 -277.74,266.66 -1.96,47.31 8.2,94.52 29.37,136.53l3.47 7.19c1.18,2.45 1.59,5.19 1.2,7.86l-22.9 157.29 148.64 -40.34c0.99,-0.28 2.01,-0.42 3.03,-0.47l3.78 -0.15c1.97,-0.08 3.9,0.28 5.71,1.02 29.87,12.25 61.54,19.16 94.12,20.51 3.92,0.17 7.8,0.25 11.69,0.25 0,0 0.01,0 0.02,0 149.54,-0.01 271.53,-117.15 277.73,-266.67 6.34,-153.24 -113.17,-283.09 -266.41,-289.43 -3.94,-0.17 -7.83,-0.25 -11.71,-0.25zm-283.03 607.66c-3.28,0 -6.5,-1.18 -9.02,-3.42 -3.42,-3.04 -5.09,-7.59 -4.43,-12.12l25.29 -173.69 -1.56 -3.23c-23.14,-45.92 -34.3,-97.74 -32.15,-149.67 6.97,-168.4 147.9,-299.39 317.73,-292.44 168.21,6.96 299.41,149.51 292.44,317.72 -6.79,164.12 -140.71,292.71 -304.87,292.72 -0.01,0 -0.02,0 -0.03,0 -4.26,0 -8.52,-0.09 -12.81,-0.27 -34.67,-1.44 -68.39,-8.6 -100.31,-21.32l-166.72 45.24c-1.18,0.32 -2.37,0.48 -3.56,0.48z"/>
   <path class="fil0" d="M535.61 689.59c-13.28,0 -24.08,10.81 -24.08,24.09 0,13.27 10.8,24.07 24.08,24.07 13.27,0 24.08,-10.8 24.08,-24.07 0,-13.28 -10.81,-24.09 -24.08,-24.09zm0 75.34c-28.27,0 -51.25,-22.99 -51.25,-51.25 0,-28.27 22.98,-51.27 51.25,-51.27 28.26,0 51.26,23 51.26,51.27 0,28.26 -23,51.25 -51.26,51.25z"/>
   <path class="fil0" d="M410.3 689.59c-13.27,0 -24.07,10.81 -24.07,24.09 0,13.27 10.8,24.07 24.07,24.07 13.28,0 24.09,-10.8 24.09,-24.07 0,-13.28 -10.81,-24.09 -24.09,-24.09zm0 75.34c-28.26,0 -51.25,-22.99 -51.25,-51.25 0,-28.27 22.99,-51.27 51.25,-51.27 28.27,0 51.27,23 51.27,51.27 0,28.26 -23,51.25 -51.27,51.25z"/>
   <path class="fil0" d="M284.99 689.59c-13.27,0 -24.07,10.81 -24.07,24.09 0,13.27 10.8,24.07 24.07,24.07 13.28,0 24.09,-10.8 24.09,-24.07 0,-13.28 -10.81,-24.09 -24.09,-24.09zm0 75.34c-28.26,0 -51.25,-22.99 -51.25,-51.25 0,-28.27 22.99,-51.27 51.25,-51.27 28.26,0 51.27,23 51.27,51.27 0,28.26 -23.01,51.25 -51.27,51.25z"/>
   <path class="fil0" d="M884.9 545.39c-13.29,0 -24.09,10.8 -24.09,24.08 0,13.28 10.8,24.08 24.09,24.08 13.27,0 24.07,-10.8 24.07,-24.08 0,-13.28 -10.8,-24.08 -24.07,-24.08zm0 75.34c-28.27,0 -51.27,-22.99 -51.27,-51.26 0,-28.26 23,-51.26 51.27,-51.26 28.26,0 51.25,23 51.25,51.26 0,28.27 -22.99,51.26 -51.25,51.26z"/>
   <path class="fil0" d="M759.59 545.39c-13.29,0 -24.09,10.8 -24.09,24.08 0,13.28 10.8,24.08 24.09,24.08 13.27,0 24.07,-10.8 24.07,-24.08 0,-13.28 -10.8,-24.08 -24.07,-24.08zm0 75.34c-28.27,0 -51.27,-22.99 -51.27,-51.26 0,-28.26 23,-51.26 51.27,-51.26 28.26,0 51.25,23 51.25,51.26 0,28.27 -22.99,51.26 -51.25,51.26z"/>
  </g>
 </g>
</svg>
