<?xml version="1.0" encoding="UTF-8"?>
<!DOCTYPE svg PUBLIC "-//W3C//DTD SVG 1.1//EN" "http://www.w3.org/Graphics/SVG/1.1/DTD/svg11.dtd">
<!-- Creator: CorelDRAW 2020 (64-Bit) -->
<svg xmlns="http://www.w3.org/2000/svg" xml:space="preserve" width="10mm" height="10mm" version="1.1" style="shape-rendering:geometricPrecision; text-rendering:geometricPrecision; image-rendering:optimizeQuality; fill-rule:evenodd; clip-rule:evenodd"
viewBox="0 0 1000 1000"
 xmlns:xlink="http://www.w3.org/1999/xlink"
 xmlns:xodm="http://www.corel.com/coreldraw/odm/2003">
 <defs>
  <style type="text/css">
   <![CDATA[
    .fil0 {fill:#9D9E9E;fill-rule:nonzero}
   ]]>
  </style>
 </defs>
 <g id="Layer_x0020_1">
  <metadata id="CorelCorpID_0Corel-Layer"/>
  <g id="_1917140304832">
   <path class="fil0" d="M907.94 682.95c-0.08,0 -0.18,0 -0.27,0 -9.02,0.18 -19.15,0.69 -29.94,1.21 -15.9,0.81 -33.94,1.7 -51.94,1.7 -48.07,0 -114.57,-5.84 -136.97,-56.35 -10.44,-23.5 -10.05,-49.16 1.23,-80.75 15.87,-44.45 43.59,-65.85 87.23,-67.38 15.06,-0.53 30.31,-1.3 45.63,-2.07 27.38,-1.39 55.66,-2.81 83.18,-2.81 10.15,0 20.26,0.18 29.96,0.6 47.75,10.7 42.04,73.91 38.27,115.74l-0.86 9.77 -0.54 7.54c-1.71,24.76 -4.28,62.24 -29.03,72 -3,1.18 -7.28,1.74 -13.07,1.74 -4.09,0 -8.33,-0.27 -12.32,-0.53 -3.51,-0.21 -6.79,-0.41 -10.56,-0.41zm-733.17 -452c2.98,0 5.84,0.03 8.57,0.1 55.82,1.71 117.21,2.52 193.23,2.52 18.24,0 36.49,-0.06 54.73,-0.12 32.27,-0.12 64.52,-0.32 96.77,-0.54 48.61,-0.31 97.23,-0.62 145.8,-0.62l2.66 0c37.49,0 74.95,0.18 113.15,0.78 3.49,0 8.46,-0.34 14.01,-0.74 7.07,-0.51 15.11,-1.1 22.46,-1.1 9.25,0 15.57,0.97 18.75,2.9 12.07,7.22 11.25,15.98 10.12,28.08 -0.18,1.99 -0.39,4.04 -0.53,6.15 -10.04,-2.2 -21.04,-3.91 -32.65,-5.06 -58.42,-5.73 -121.38,-8.41 -198.13,-8.41 -48.01,0 -96.87,1.04 -144.11,2.03l-22.75 0.49c-7.53,0.14 -15.07,0.21 -22.56,0.21 -33.62,0 -67.67,-1.42 -100.62,-2.8 -28.55,-1.18 -58.07,-2.42 -87.23,-2.73l-14.71 -0.07c-28.84,0 -57.2,0.82 -86.1,1.73 -5.71,0.18 -11.52,0.52 -17.38,0.89 -8.48,0.53 -17.05,1.05 -25.57,1.05 -16.86,0 -30.02,-2.21 -41.37,-6.97 -13.91,-5.84 -24.14,-16.94 -29.12,-31.52 24.68,13.05 58.82,14.8 86.27,14.8 0,0 0,0 0.02,0 10.68,0 21.22,-0.29 31.19,-0.59 8.92,-0.23 17.38,-0.46 25.1,-0.46zm-110.22 -52.13c11.7,-4.73 27.54,-6.96 49.85,-6.96 10.92,0 22.04,0.51 32.7,1 9.87,0.44 19.33,0.88 27.81,0.88l4.55 -0.06c26.38,-0.54 52.73,-0.78 79.09,-0.78 53.16,0 105.64,0.89 168.09,2.26l58.18 1.31c57.19,1.33 116.36,2.69 174.56,3.18 14.96,0.13 29.95,0.2 44.9,0.2 22.63,0 45.21,-0.16 67.82,-0.56 4.79,-0.09 11.38,-0.87 18.58,-1.73 9.14,-1.09 19.51,-2.31 28.23,-2.31 6.64,0 11.48,0.69 14.79,2.11 17.43,7.54 17.93,19.75 16.02,36.11 -7.93,-1.06 -18.09,-1.38 -31.27,-1.69 -40.32,-0.93 -83.81,-1.37 -136.81,-1.37 -26.46,0 -52.94,0.11 -79.4,0.24 -27.72,0.13 -55.44,0.33 -83.14,0.53 -48.09,0.34 -96.19,0.69 -144.24,0.69 -93.04,0 -168.31,-1.36 -236.97,-4.32 -16.87,-0.72 -33.72,-1.5 -50.58,-2.52 -12.52,-0.75 -31.15,-9.41 -32.37,-16.91 -0.7,-4.19 4.84,-7.37 9.61,-9.3zm95.13 -57.06c9.9,0 19.86,0.18 29.74,0.36 9.79,0.18 19.53,0.37 29.1,0.37l9.43 -0.08c86.32,-1.25 170.86,-2.42 256.44,-2.81 16.01,-0.08 32.03,-0.12 48.03,-0.12 76.2,0 156.25,0.82 244.74,2.52l8.43 0.12c54.12,0.86 110.07,1.72 111.63,71.31 0.53,24.41 -0.94,50.42 -2.38,75.55l-0.74 13.47c-5.9,-3.17 -12.02,-5.88 -18.2,-8.06 0.12,-0.57 0.21,-1.2 0.23,-1.9 0.47,-28.19 0.42,-42.09 -5.84,-48.88 3.91,-31.69 0.91,-52.32 -8.97,-61.35 -6.72,-6.16 -18.17,-9.16 -35.02,-9.16 -11.71,0 -24.06,1.4 -34.95,2.64 -7.6,0.86 -14.35,1.62 -19.32,1.71 -23.16,0.4 -46.36,0.58 -69.51,0.58 -69.8,0 -140.76,-1.63 -209.36,-3.22l-21.18 -0.49c-69.78,-1.58 -141.94,-3.24 -212.94,-3.24 -23.87,0 -47.73,0.18 -71.6,0.62 -9.6,0.16 -19.37,0.2 -29.22,0.22 -31.81,0.09 -64.7,0.18 -95.55,5.28 -10.44,1.74 -18.74,4.09 -25.57,7.33 10.81,-20.49 30.98,-33.41 60.04,-38.44 22.21,-3.84 45.09,-4.33 62.54,-4.33zm390.18 774.91c-37.88,-0.34 -76.37,-1.58 -113.63,-2.78 -42.9,-1.37 -87.23,-2.81 -130.88,-2.88l-2.16 0c-12.5,0 -24.97,0.18 -37.36,0.38 -12.31,0.18 -24.56,0.37 -36.79,0.37 -33.27,0 -72.58,-1.26 -112.02,-10.65 -27.48,-6.53 -46.01,-20.68 -57.99,-44.36 3.68,0.95 7.37,1.44 11.21,1.48 6.85,0 10.49,-5.41 10.51,-10.76 0.03,-5.44 -3.61,-11.01 -10.59,-11.08 -6.48,-0.08 -11.64,-2.04 -16.24,-6.19 -1.64,-1.48 -3.53,-2.35 -5.7,-2.64 -2.51,-9.17 -4.64,-18.78 -6.75,-28.72 -8.55,-40.71 -13.23,-83.63 -14.33,-131.2 -0.69,-31.65 0.57,-63.76 1.79,-94.83 1.29,-33.56 2.66,-68.26 1.55,-102.57 -0.66,-20.95 -1.72,-42.1 -2.77,-63.34 -0.93,-18.75 -1.88,-37.56 -2.55,-56.38 1.55,0.94 3.11,1.87 4.77,2.67 1.62,0.8 3.31,1.22 5,1.22 5.14,0 9.93,-3.97 11.14,-9.23 1.08,-4.6 -0.98,-8.8 -5.38,-10.97 -5.88,-2.9 -11.45,-6.1 -16.22,-8.28 -0.44,-20.17 -0.34,-38.41 0.22,-55.59 16.23,18.15 43.28,27.14 82.52,27.47l21.64 0.09c21.95,0 43.83,-0.24 65.7,-0.47 21.8,-0.24 43.61,-0.48 65.43,-0.48 33.09,0 60.41,0.57 85.96,1.73 17.73,0.82 36.33,1.2 56.9,1.2 32.92,0 66.39,-1.03 98.75,-2.02 18.07,-0.56 36.15,-1.13 54.22,-1.51 18.6,-0.4 37.2,-0.6 55.84,-0.6 65.28,0 129.36,2.57 190.39,7.61l10.37 0.8c28,2.08 56.93,4.22 79.5,22.46 27.16,21.97 29.03,47.3 28.76,83.46l-0.18 17.48c-0.17,15.85 -0.33,31.68 -0.18,47.54l-8.16 -0.06c-21.9,0 -44.3,1.1 -65.96,2.13 -17.61,0.86 -35.2,1.71 -52.67,2 -39.55,0.7 -70.8,1.22 -98.37,34.42 -28.41,34.27 -41.61,85.01 -32.82,126.28 6.35,29.8 23.48,52.38 49.53,65.24 38.13,18.84 81.82,20.42 123.34,20.42l12.08 -0.03 17.17 -0.18 0 0.81c0,6.97 5.49,10.61 10.92,10.61 5.42,0 10.9,-3.64 10.9,-10.61l0 -1.18 26.32 -0.44c-1.73,18.22 -2.33,36.71 -2.92,54.62 -0.56,16.6 -1.12,33.8 -2.58,50.63 -5.15,59.43 -46.57,75 -107.18,80.1 -57.39,4.83 -120.69,7.06 -199.17,7.06 -16.98,0 -33.92,-0.09 -50.88,-0.25zm447.36 -342.64c0.69,-48.5 -2.95,-86.55 -54.93,-97.99 0.14,-10.03 0.78,-20.65 1.44,-31.52 1.8,-30.43 3.67,-61.88 -3.8,-87.36 -4.7,-15.96 -13.11,-29.25 -24.76,-40.64 1.49,-32.29 2.97,-65.01 3.7,-97.32 0.8,-34.41 -6.96,-59.72 -23.08,-75.18 -18.27,-17.53 -44.65,-21.42 -68.03,-22.92 -34.9,-2.25 -70.64,-2.35 -105.2,-2.43 -14.11,-0.04 -28.21,-0.08 -42.26,-0.24 -44.7,-0.57 -89.4,-0.8 -134.1,-0.8 -57.24,0 -114.45,0.38 -171.68,1 -45.92,0.51 -91.88,1.15 -137.8,1.82l-10.12 0.07c-10.81,0 -21.78,-0.22 -32.81,-0.44 -11.2,-0.23 -22.44,-0.45 -33.65,-0.45 -26.67,0 -46.73,1.31 -65,4.26 -47.66,7.62 -80.91,38.78 -86.74,80.97l1.51 1.14 -2.15 0.82c-7.88,59.63 -5,121.33 -2.2,180.99 0.96,20.75 1.93,41.42 2.46,61.97 0.96,37.26 0.18,75.15 -0.58,111.79 -1.8,88.05 -3.72,179.08 18.67,267.43 14.72,58.24 29.12,79.86 85.21,93.2 42.52,10.12 84.58,11.49 120.09,11.49 14.12,0 28.33,-0.24 42.62,-0.49l2.73 -0.06c14.98,-0.25 29.98,-0.36 44.96,-0.36 51.03,0 102.88,1.31 153.02,2.58 50.18,1.28 102.05,2.59 153.12,2.59 36.73,0 69.73,-0.66 100.9,-2.04 8.78,-0.4 17.77,-0.6 26.85,-0.82 54.73,-1.24 111.33,-2.53 151.71,-42.85 28.8,-28.75 27.78,-79.53 26.87,-124.32 -0.31,-15.67 -0.62,-30.5 0.31,-43.73 1.98,0.03 4.04,0.1 6.13,0.2 2.64,0.11 5.35,0.21 8.03,0.21 6.46,0 14.72,-0.59 21.48,-5.29 27.73,-19.26 27.31,-91.89 27.1,-130.92 -0.04,-5.53 -0.08,-10.41 -0.02,-14.36z"/>
   <path class="fil0" d="M777.78 630.95c-5.77,0 -11.79,-1.13 -17.93,-3.37 -19.91,-7.21 -29.65,-23.77 -26.05,-44.28 3.9,-22.19 23.78,-45.16 50.24,-45.16 2.69,0 5.4,0.24 7.92,0.68 14.43,4.84 24.51,13.54 29.17,25.15 4.84,12.05 3.35,26.61 -4.2,41.01 -8.79,16.74 -22.7,25.97 -39.15,25.97zm24.4 -111.26c-1.29,-0.98 -2.8,-1.64 -4.22,-1.88 -0.91,-0.29 -1.83,-0.49 -3.33,-0.49 -0.35,0 -0.76,0.02 -1.2,0.04 -3.01,-0.36 -6.01,-0.53 -9.01,-0.53 -32.25,0 -60.02,19.55 -69.14,48.67 -11.54,36.8 4.29,70.96 38.51,83.07 8.03,2.83 16.11,4.29 23.99,4.29 27.71,0 51.03,-17.44 62.33,-46.63 7.32,-18.8 7.55,-36.85 0.75,-52.2 -6.81,-15.41 -20.35,-27.37 -38.68,-34.34z"/>
   <path class="fil0" d="M133.32 323.91c-0.16,-4.81 -3.29,-9.98 -10.62,-9.98 -0.02,0 -34.33,2.14 -34.33,2.14 -7.1,0.43 -10.63,6.31 -10.47,11.86 0.15,4.8 3.32,9.99 9.89,9.99l35.07 -2.16c7.1,-0.44 10.63,-6.3 10.46,-11.85z"/>
   <path class="fil0" d="M231.46 322.13c-0.22,-4.75 -3.24,-9.56 -10.59,-9.56 -0.04,0 -40.44,3.59 -40.44,3.59 -7.06,0.63 -10.61,6.78 -10.36,12.28 0.24,5.64 4.19,9.59 9.58,9.59l41.44 -3.62c7.04,-0.63 10.61,-6.8 10.37,-12.28z"/>
   <path class="fil0" d="M316.28 327.37c0.05,-5.48 -3.55,-11.1 -10.58,-11.27 -3.44,-0.07 -6.86,-0.11 -10.28,-0.11 -5.35,0 -10.7,0.1 -16.07,0.29 -7.04,0.24 -10.63,5.96 -10.52,11.45 0.07,5 3.29,10.4 10.19,10.4l0.47 0c5.32,-0.21 10.63,-0.3 15.93,-0.3 3.4,0 10.5,0.11 10.5,0.11 6.71,0 10.28,-5.31 10.36,-10.57z"/>
   <path class="fil0" d="M415.76 326.11c-0.13,-4.9 -3.32,-10.15 -10.65,-10.15 -0.02,0 -0.02,0 -0.04,0 -10.57,0.52 -21.15,0.8 -31.74,0.8l-2.49 -0.02c-6.93,0 -10.56,5.48 -10.58,10.88 0,5.42 3.62,10.94 10.62,10.98l2.45 0c10.67,0 21.3,-0.28 31.93,-0.8 7.06,-0.37 10.62,-6.15 10.5,-11.69z"/>
   <path class="fil0" d="M511.16 329.9c0.28,-5.5 -3.29,-11.69 -10.34,-12.34 -11.02,-1.04 -22.24,-1.55 -33.3,-1.55l-3.19 0c-6.98,0.08 -10.61,5.62 -10.59,11.07 0.02,5.37 3.64,10.79 10.63,10.79l3.15 -0.02c10.95,0 22.04,0.51 32.94,1.53l1.18 0.06c6.27,0 9.3,-4.79 9.52,-9.54z"/>
   <path class="fil0" d="M596.41 338.62l0.48 0c6.86,0 10.1,-5.39 10.19,-10.38 0.09,-5.49 -3.5,-11.21 -10.54,-11.48 -3.48,-0.11 -6.9,-0.44 -10.35,-0.79 -4.41,-0.42 -8.82,-0.83 -13.22,-0.83 -4.4,0 -8.32,0.44 -11.96,1.31 -5.4,1.31 -8.46,5.73 -7.79,11.28 0.6,5.04 4.46,10.16 10.69,10.16 0.91,0 1.85,-0.13 2.8,-0.35 2.33,-0.56 4.88,-0.84 7.79,-0.84 3.91,0 7.91,0.48 11.88,0.97 3.37,0.4 6.75,0.82 10.03,0.95z"/>
   <path class="fil0" d="M651.2 335.83c6.25,0.18 12.54,0.26 18.8,0.26 9.62,0 19.23,-0.2 28.86,-0.61 7.06,-0.3 10.63,-6.06 10.52,-11.57 -0.11,-4.95 -3.31,-10.26 -10.65,-10.26l-0.01 0c-9.59,0.39 -19.17,0.59 -28.72,0.59 -6.23,0 -12.47,-0.07 -19.06,-0.25 -6.97,0 -10.23,5.44 -10.3,10.5 -0.07,5.48 3.55,11.16 10.56,11.34z"/>
   <path class="fil0" d="M758.27 335.67l0.01 0c3.61,-0.16 7.21,-0.24 10.8,-0.24 8.55,0 17.22,0.44 25.81,1.27l1.2 0.08c6.22,0 9.24,-4.77 9.48,-9.5 0.25,-5.5 -3.26,-11.7 -10.34,-12.4 -8.68,-0.85 -17.51,-1.29 -26.15,-1.29 -3.64,0 -7.28,0.07 -10.94,0.22 -7.04,0.29 -10.63,6.02 -10.52,11.56 0.11,4.95 3.31,10.3 10.65,10.3z"/>
   <path class="fil0" d="M852.32 366.93c1.92,3.45 5.1,5.43 8.79,5.43 3.97,0 8.03,-2.35 10.09,-5.82 1.95,-3.3 1.97,-7.03 0.04,-10.56 -5.06,-9.21 -11.44,-17.78 -18.93,-25.52 -2.08,-2.15 -4.65,-3.29 -7.35,-3.29 -4.32,0 -8.6,2.98 -10.38,7.22 -1.69,3.99 -0.84,8.29 2.28,11.49 6.05,6.26 11.11,13.14 15.46,21.05z"/>
   <path class="fil0" d="M863.63 402.04c-3.1,0 -5.97,1.17 -7.88,3.17 -1.86,1.93 -2.77,4.53 -2.64,7.85l1.31 30.55c0.29,6.92 5.92,10.52 11.3,10.52 3.1,0 5.99,-1.16 7.9,-3.16 1.86,-1.93 2.75,-4.54 2.64,-7.51l-1.33 -30.88c-0.27,-6.92 -5.9,-10.54 -11.3,-10.54z"/>
   <path class="fil0" d="M156.49 830.84l-26.33 -1.38c-6.68,0 -9.86,5.24 -9.99,10.12 -0.15,5.55 3.4,11.35 10.5,11.73l26.77 1.41c6.72,0 9.88,-5.26 10.03,-10.14 0.15,-5.55 -3.4,-11.36 -10.98,-11.74z"/>
   <path class="fil0" d="M256.74 830l-47.94 -1.62c-6.9,0 -10.14,5.41 -10.22,10.41 -0.1,5.5 3.49,11.2 10.53,11.43l47.96 1.62c6.9,0 10.14,-5.4 10.23,-10.41 0.07,-5.51 -3.51,-11.19 -10.56,-11.43z"/>
   <path class="fil0" d="M357.73 828.34c-0.07,0 -0.14,0.03 -0.21,0.03 -7.32,0.87 -14.73,1.31 -22.03,1.31 -5.99,0 -12.01,-0.3 -19.25,-0.95 -6.23,0 -9.25,4.78 -9.47,9.5 -0.27,5.49 3.24,11.7 10.32,12.39 6.16,0.61 12.29,0.89 18.4,0.89 0.02,0 0.02,0 0.02,0 7.43,0 14.98,-0.45 22.43,-1.34 7.11,-0.84 10.57,-7.19 10.26,-12.72 -0.35,-5.43 -3.95,-9.11 -10.47,-9.11z"/>
   <path class="fil0" d="M447.99 827.11l-29.72 1.16c-7.06,0.3 -10.63,6.01 -10.54,11.52 0.09,4.99 3.33,10.34 10.15,10.34l30.24 -1.18c7.06,-0.27 10.63,-6 10.52,-11.54 -0.11,-4.97 -3.3,-10.3 -10.65,-10.3z"/>
   <path class="fil0" d="M547.87 830.58l-33.29 -0.03c-6.95,0 -10.6,5.5 -10.6,10.92 0,5.42 3.65,10.92 10.6,10.94l33.31 0.03c6.93,0 10.59,-5.49 10.59,-10.92 0,-5.42 -3.66,-10.92 -10.61,-10.94z"/>
   <path class="fil0" d="M641.55 828.37c-0.87,0 -1.77,0.1 -2.62,0.3 -9.26,2.08 -18.98,3.14 -28.92,3.14 -5.21,0 -10.41,-0.3 -16.91,-0.95 -6.1,0 -9.08,4.68 -9.34,9.31 -0.29,5.52 3.2,11.8 10.3,12.6 5.28,0.57 10.63,0.85 15.99,0.85 11.48,0 23.09,-1.29 34.5,-3.83 5.41,-1.22 8.48,-5.57 7.88,-11.07 -0.58,-5.02 -4.57,-10.35 -10.88,-10.35z"/>
   <path class="fil0" d="M727.14 829.91c-0.03,0 -0.07,0 -0.11,0 -2.21,0.18 -4.44,0.28 -6.64,0.28 -5.19,0 -10.37,-0.46 -15.56,-0.9 -5.28,-0.45 -10.57,-0.91 -15.87,-0.91 -2.29,0 -4.61,0.09 -6.92,0.29 -7.06,0.64 -10.61,6.81 -10.37,12.29 0.22,4.75 3.22,9.55 10.57,9.55 0.04,0 0.08,0 0.11,0 2.2,-0.2 4.41,-0.29 6.61,-0.29 5.21,0 10.38,0.46 15.56,0.9 5.28,0.45 10.58,0.91 15.87,0.91 2.33,0 4.64,-0.1 6.97,-0.29 7.06,-0.64 10.61,-6.81 10.36,-12.29 -0.2,-4.75 -3.22,-9.54 -10.58,-9.54z"/>
   <path class="fil0" d="M802.99 846.71c0.03,0 0.07,0 0.11,0l1.8 1.75c6.89,0 10.11,-5.41 10.21,-10.41 0.09,-5.52 -3.48,-11.21 -12.12,-11.47 -5.81,0 -11.53,1.04 -17.02,2.04 -5.35,0.98 -10.89,2 -16.35,2l0 1.71c-0.03,0 -0.07,0 -0.11,0l-1.78 -1.75c-6.9,0 -10.14,5.41 -10.23,10.44 -0.09,5.49 3.51,11.17 10.54,11.42l1.58 0.02c5.83,0 11.52,-1.05 17.04,-2.05 5.35,-0.97 10.86,-1.99 16.33,-1.99l0 -1.71z"/>
   <path class="fil0" d="M838.22 842.16l0.95 -0.04c15.76,-1.21 28.7,-9.17 36.42,-22.38 2.03,-3.44 2.13,-7.14 0.23,-10.41 -2.02,-3.54 -6.12,-5.92 -10.19,-5.92 -3.73,0 -6.88,1.89 -8.88,5.3 -4.04,6.9 -10.38,10.99 -17.86,11.58 -7.12,0.56 -10.62,6.49 -10.39,12.08 0.2,5.77 4.2,9.79 9.72,9.79z"/>
   <path class="fil0" d="M868.67 779.64c5.33,0 11.14,-3.55 11.9,-10.3l2.79 -24.91c0.34,-2.97 -0.4,-5.58 -2.14,-7.5 -1.83,-2.04 -4.65,-3.21 -7.76,-3.21 -5.35,0 -11.16,3.54 -11.93,10.34l-2.78 24.86c-0.33,2.99 0.4,5.57 2.15,7.52 1.8,2.04 4.64,3.2 7.77,3.2z"/>
   <path class="fil0" d="M936.43 523.13c3.51,6.63 4.33,14.81 5.09,22.73 0.41,4.01 0.79,7.95 1.52,11.69 0.94,4.95 4.6,8.02 9.51,8.02 3.55,0 7.14,-1.67 9.38,-4.38 2.09,-2.53 2.89,-5.79 2.25,-9.18 -0.74,-3.86 -1.27,-7.8 -1.76,-11.77 -1.57,-12.29 -3.18,-24.99 -11.98,-35.07 -11.32,-12.96 -27.99,-14.64 -41.27,-14.64 -2.9,0 -5.78,0.09 -8.6,0.22 -7.06,0.33 -10.63,6.1 -10.52,11.65 0.13,4.91 3.33,10.21 10.09,10.21l1.98 -0.09c2.81,-0.13 5.79,-0.27 8.81,-0.27 9.21,0 20.44,1.23 25.5,10.88z"/>
   <path class="fil0" d="M949.22 579.28c-5.42,0 -10.9,3.64 -10.9,11.57 0,6.98 5.48,10.61 10.9,10.61 2.84,0 5.47,-0.93 7.47,-2.63 2.27,-1.95 3.45,-4.72 3.45,-8.94 0,-6.97 -5.49,-10.61 -10.92,-10.61z"/>
  </g>
 </g>
</svg>
