<?xml version="1.0" encoding="UTF-8"?>
<!DOCTYPE svg PUBLIC "-//W3C//DTD SVG 1.1//EN" "http://www.w3.org/Graphics/SVG/1.1/DTD/svg11.dtd">
<!-- Creator: CorelDRAW 2020 (64-Bit) -->
<svg xmlns="http://www.w3.org/2000/svg" xml:space="preserve" width="10mm" height="10mm" version="1.1" style="shape-rendering:geometricPrecision; text-rendering:geometricPrecision; image-rendering:optimizeQuality; fill-rule:evenodd; clip-rule:evenodd"
viewBox="0 0 1000 1000"
 xmlns:xlink="http://www.w3.org/1999/xlink"
 xmlns:xodm="http://www.corel.com/coreldraw/odm/2003">
 <defs>
  <style type="text/css">
   <![CDATA[
    .fil0 {fill:#9D9E9E;fill-rule:nonzero}
   ]]>
  </style>
 </defs>
 <g id="Layer_x0020_1">
  <metadata id="CorelCorpID_0Corel-Layer"/>
  <g id="_1917145836464">
   <g id="_1917261799184">
    <path class="fil0" d="M724.11 703.34l-458.87 0c-4.77,0 -8.64,-3.86 -8.64,-8.63 0,-4.77 3.87,-8.64 8.64,-8.64l458.87 0c0.29,0 1.68,-1.22 1.68,-3.64l0 -101.83c0,-2.32 -1.28,-3.63 -1.68,-3.63l-458.87 0c-4.77,0 -8.64,-3.87 -8.64,-8.65 0,-4.78 3.87,-8.64 8.64,-8.64l458.87 0c10.45,0 18.95,9.38 18.95,20.92l0 101.83c0,11.53 -8.5,20.91 -18.95,20.91z"/>
    <path class="fil0" d="M771.01 829.86l-552.68 0c-11.56,0 -20.98,-9.43 -20.98,-21.02l0 -101.72c0,-11.61 9.42,-21.05 20.98,-21.05l599.13 0c4.77,0 8.65,3.87 8.65,8.64 0,4.77 -3.88,8.63 -8.65,8.63l-599.13 0c-2,0 -3.69,1.73 -3.69,3.78l0 101.72c0,2.03 1.69,3.74 3.69,3.74l552.68 0c4.78,0 8.65,3.87 8.65,8.65 0,4.78 -3.87,8.63 -8.65,8.63z"/>
    <path class="fil0" d="M320.17 758.5c-4.77,0 -8.64,-3.87 -8.64,-8.65l0 -54.54c0,-4.76 3.87,-8.63 8.64,-8.63 4.77,0 8.64,3.87 8.64,8.63l0 54.54c0,4.78 -3.87,8.65 -8.64,8.65z"/>
    <path class="fil0" d="M372.49 758.5c-4.77,0 -8.63,-3.87 -8.63,-8.65l0 -54.54c0,-4.76 3.86,-8.63 8.63,-8.63 4.78,0 8.64,3.87 8.64,8.63l0 54.54c0,4.78 -3.86,8.65 -8.64,8.65z"/>
    <path class="fil0" d="M424.83 758.5c-4.77,0 -8.64,-3.87 -8.64,-8.65l0 -54.54c0,-4.76 3.87,-8.63 8.64,-8.63 4.77,0 8.64,3.87 8.64,8.63l0 54.54c0,4.78 -3.87,8.65 -8.64,8.65z"/>
    <path class="fil0" d="M477.17 758.5c-4.77,0 -8.64,-3.87 -8.64,-8.65l0 -54.54c0,-4.76 3.87,-8.63 8.64,-8.63 4.77,0 8.63,3.87 8.63,8.63l0 54.54c0,4.78 -3.86,8.65 -8.63,8.65z"/>
    <path class="fil0" d="M529.46 758.5c-4.76,0 -8.63,-3.87 -8.63,-8.65l0 -54.54c0,-4.76 3.87,-8.63 8.63,-8.63 4.76,0 8.63,3.87 8.63,8.63l0 54.54c0,4.78 -3.87,8.65 -8.63,8.65z"/>
    <path class="fil0" d="M320.64 630.97c-4.78,0 -8.64,-3.87 -8.64,-8.64l0 -54.01c0,-4.78 3.86,-8.64 8.64,-8.64 4.77,0 8.63,3.86 8.63,8.64l0 54.01c0,4.77 -3.86,8.64 -8.63,8.64z"/>
    <path class="fil0" d="M380.52 630.97c-4.76,0 -8.62,-3.87 -8.62,-8.64l0 -54.01c0,-4.78 3.86,-8.64 8.62,-8.64 4.77,0 8.64,3.86 8.64,8.64l0 54.01c0,4.77 -3.87,8.64 -8.64,8.64z"/>
    <path class="fil0" d="M546.35 893.1l-378.12 0c-4.76,0 -8.63,-3.87 -8.63,-8.65 0,-4.78 3.87,-8.64 8.63,-8.64l378.12 0c4.76,0 8.63,3.86 8.63,8.64 0,4.78 -3.87,8.65 -8.63,8.65zm116.91 0l-73.86 0c-4.76,0 -8.63,-3.87 -8.63,-8.65 0,-4.78 3.87,-8.64 8.63,-8.64l73.86 0c4.77,0 8.64,3.86 8.64,8.64 0,4.78 -3.87,8.65 -8.64,8.65z"/>
    <path class="fil0" d="M506.01 499.51l3.94 2.17c10.2,5.61 26.13,12.26 44.19,12.26 26.55,0 57.19,-15.23 70.16,-34.8 3.33,-8.37 25.16,-66.06 27.83,-73.55 4.05,-19.59 6.1,-39.71 6.1,-59.83 0,-57.44 -46.69,-104.17 -104.09,-104.17 -17.68,0 -33.78,7.34 -44.33,12.84l-3.8 1.99 -3.8 -1.99c-10.56,-5.5 -26.63,-12.84 -44.3,-12.84 -57.42,0 -104.13,46.73 -104.13,104.17 0,92.1 28.18,127.15 33.83,133.24 13.64,17.07 41.16,34.94 70.3,34.94 18.03,0 33.97,-6.65 44.16,-12.26l3.94 -2.17zm48.13 30.84c-19.29,0 -36.27,-6.23 -48.13,-12.2 -11.85,5.97 -28.84,12.2 -48.1,12.2 -34.76,0 -66.58,-20.42 -82.73,-40.66 -8.56,-9.2 -37.8,-48.15 -37.8,-143.93 0,-66.49 54.08,-120.57 120.53,-120.57 19.16,0 36.08,6.81 48.1,12.76 12.01,-5.95 28.95,-12.76 48.13,-12.76 66.44,0 120.49,54.08 120.49,120.57 0,21.43 -2.19,42.85 -6.56,63.72l-8.02 -1.7 7.74 2.66c-1.93,5.68 -26.27,70 -28.62,75.66l-7.57 -3.15 6.91 4.42c-15.7,24.51 -51.98,42.98 -84.37,42.98z"/>
    <path class="fil0" d="M506.01 498.2c1.78,0 3.53,0.44 5.14,1.33 9.94,5.44 25.45,11.96 42.99,11.96 25.71,0 55.34,-14.65 67.97,-33.49 3.57,-9.03 24.81,-65.13 27.64,-73.07 4.01,-19.37 6.04,-39.28 6.04,-59.17 0,-56.09 -45.61,-101.71 -101.65,-101.71 -17.14,0 -32.87,7.15 -43.2,12.57 -3.09,1.59 -6.78,1.59 -9.85,0 -10.34,-5.42 -26.06,-12.57 -43.18,-12.57 -56.05,0 -101.67,45.62 -101.67,101.71 0,91.2 27.64,125.59 33.18,131.57 13.4,16.76 40.17,34.16 68.49,34.16 17.51,0 33.03,-6.52 42.97,-11.96 1.6,-0.89 3.36,-1.33 5.13,-1.33zm48.13 34.6c-19.15,0 -36.07,-5.98 -48.13,-11.92 -12.06,5.94 -28.96,11.92 -48.1,11.92 -35.57,0 -68.14,-20.88 -84.64,-41.58 -8.59,-9.22 -38.35,-48.8 -38.35,-145.46 0,-67.85 55.18,-123.04 122.99,-123.04 19.07,0 35.94,6.56 48.1,12.49 12.17,-5.93 29.04,-12.49 48.13,-12.49 67.8,0 122.95,55.19 122.95,123.04 0,21.55 -2.19,43.09 -6.57,64.03 -0.05,0.29 -0.11,0.58 -0.2,0.85 -0.08,0.28 -0.16,0.54 -0.26,0.8 -2.35,6.73 -25.7,68.43 -28.51,75.35 -0.14,0.38 -0.31,0.75 -0.5,1.11 -0.18,0.37 -0.38,0.67 -0.59,1 -16.19,25.04 -53.26,43.9 -86.32,43.9z"/>
    <path class="fil0" d="M506 257.83c-4.75,0 -9.09,-3.21 -10.32,-8.02l-34.37 -134.33c-1.46,-5.7 1.98,-11.51 7.69,-12.96 5.76,-1.47 11.51,1.98 12.98,7.68l34.37 134.31c1.44,5.71 -2,11.51 -7.69,12.98 -0.89,0.22 -1.79,0.34 -2.66,0.34z"/>
    <path class="fil0" d="M520.4 222.97c1.23,0.04 2.5,0.07 3.79,0.07 16.99,0 30.62,-5.02 40.49,-14.89 12.74,-12.74 15.34,-30.11 14.75,-44.29 -1.23,-0.05 -2.5,-0.08 -3.77,-0.08 -17.01,0 -30.66,5.01 -40.55,14.9 -12.79,12.77 -15.35,30.13 -14.71,44.29zm3.79 16.48c-4.57,0 -8.88,-0.3 -12.6,-0.84l-6.23 -0.94 -0.72 -6.25c-2.16,-18.6 -0.62,-44.89 18.89,-64.33 13.06,-13.07 30.61,-19.72 52.13,-19.72 4.51,0 8.78,0.28 12.58,0.83l6.28 0.91 0.7 6.3c2.09,18.62 0.48,44.9 -18.94,64.33 -13.07,13.08 -30.59,19.71 -52.09,19.71z"/>
   </g>
  </g>
 </g>
</svg>
