<?xml version="1.0" encoding="UTF-8"?>
<!DOCTYPE svg PUBLIC "-//W3C//DTD SVG 1.1//EN" "http://www.w3.org/Graphics/SVG/1.1/DTD/svg11.dtd">
<!-- Creator: CorelDRAW 2020 (64-Bit) -->
<svg xmlns="http://www.w3.org/2000/svg" xml:space="preserve" width="10mm" height="10mm" version="1.1" style="shape-rendering:geometricPrecision; text-rendering:geometricPrecision; image-rendering:optimizeQuality; fill-rule:evenodd; clip-rule:evenodd"
viewBox="0 0 1000 1000"
 xmlns:xlink="http://www.w3.org/1999/xlink"
 xmlns:xodm="http://www.corel.com/coreldraw/odm/2003">
 <defs>
  <style type="text/css">
   <![CDATA[
    .fil0 {fill:#9D9E9E;fill-rule:nonzero}
   ]]>
  </style>
 </defs>
 <g id="Layer_x0020_1">
  <metadata id="CorelCorpID_0Corel-Layer"/>
  <g id="_1917137231008">
   <g id="_1881418459744">
    <path class="fil0" d="M644.46 1012.1l-655.2 0c-41.33,0 -74.95,-35.16 -74.95,-78.36l0 -391.97c0,-7.32 5.92,-13.24 13.24,-13.24 7.3,0 13.23,5.92 13.23,13.24l0 391.97c0,28.61 21.75,51.89 48.48,51.89l655.2 0c26.73,0 48.48,-23.28 48.48,-51.89l0 -391.97c0,-7.32 5.92,-13.24 13.24,-13.24 7.31,0 13.23,5.92 13.23,13.24l0 391.97c0,43.2 -33.63,78.36 -74.95,78.36z"/>
    <path class="fil0" d="M407.49 757.05l-19.26 0c-7.3,0 -13.23,-5.92 -13.23,-13.23 0,-7.31 5.93,-13.24 13.23,-13.24l19.26 0c171.54,0 311.1,-147.6 311.1,-329.05l0 -2.71c0,-28.61 -21.75,-51.89 -48.48,-51.89l-706.5 0c-26.74,0 -48.48,23.28 -48.48,51.89l0 2.71c0,181.45 139.55,329.05 311.1,329.05 7.3,0 13.23,5.93 13.23,13.24 0,7.31 -5.93,13.23 -13.23,13.23 -186.15,0 -337.57,-159.48 -337.57,-355.52l0 -2.71c0,-43.21 33.62,-78.36 74.95,-78.36l706.5 0c41.33,0 74.95,35.15 74.95,78.36l0 2.71c0,196.04 -151.43,355.52 -337.57,355.52z"/>
    <path class="fil0" d="M159.67 319.42l314.37 0c-6.28,-35.37 -37.24,-62.31 -74.37,-62.31l-165.62 0c-37.13,0 -68.09,26.94 -74.38,62.31zm328.94 26.47c-0.06,-0.01 -0.11,0 -0.17,0l-343.16 0c-7.31,0 -13.23,-5.93 -13.23,-13.24 0,-56.25 45.76,-102.01 102,-102.01l165.62 0c55.46,0 100.74,44.52 101.97,99.69 0.14,0.76 0.21,1.53 0.21,2.32 0,7.31 -5.92,13.24 -13.24,13.24z"/>
    <path class="fil0" d="M242.03 779.41l129.54 0 0 -63.99 -129.54 0 0 63.99zm142.78 26.48l-156.02 0c-7.3,0 -13.23,-5.93 -13.23,-13.24l0 -90.47c0,-7.31 5.93,-13.24 13.23,-13.24l156.02 0c7.3,0 13.23,5.93 13.23,13.24l0 90.47c0,7.31 -5.93,13.24 -13.23,13.24z"/>
   </g>
  </g>
 </g>
</svg>
