<?xml version="1.0" encoding="UTF-8"?>
<!DOCTYPE svg PUBLIC "-//W3C//DTD SVG 1.1//EN" "http://www.w3.org/Graphics/SVG/1.1/DTD/svg11.dtd">
<!-- Creator: CorelDRAW 2020 (64-Bit) -->
<svg xmlns="http://www.w3.org/2000/svg" xml:space="preserve" width="10mm" height="10mm" version="1.1" style="shape-rendering:geometricPrecision; text-rendering:geometricPrecision; image-rendering:optimizeQuality; fill-rule:evenodd; clip-rule:evenodd"
viewBox="0 0 1000 1000"
 xmlns:xlink="http://www.w3.org/1999/xlink"
 xmlns:xodm="http://www.corel.com/coreldraw/odm/2003">
 <defs>
  <style type="text/css">
   <![CDATA[
    .fil0 {fill:#9D9E9E;fill-rule:nonzero}
   ]]>
  </style>
 </defs>
 <g id="Layer_x0020_1">
  <metadata id="CorelCorpID_0Corel-Layer"/>
  <g id="_1917140672064">
   <g id="_1917254255344">
    <path class="fil0" d="M104.89 954.37c4.84,36.98 36.54,65.64 74.82,65.64l821.3 0c38.27,0 69.99,-28.66 74.82,-65.64l-970.94 0zm896.12 85.29l-821.3 0c-52.45,0 -95.12,-42.67 -95.12,-95.12 0,-5.43 4.4,-9.84 9.83,-9.84l991.88 0c5.43,0 9.83,4.41 9.83,9.84 0,52.45 -42.67,95.12 -95.12,95.12z"/>
    <path class="fil0" d="M265.12 934.7l138.72 0 0 -16.87 -138.72 0 0 16.87zm148.55 19.67l-158.39 0c-5.43,0 -9.83,-4.41 -9.83,-9.83l0 -36.55c0,-5.43 4.4,-9.83 9.83,-9.83l158.39 0c5.43,0 9.83,4.4 9.83,9.83l0 36.55c0,5.42 -4.4,9.83 -9.83,9.83z"/>
    <path class="fil0" d="M776.88 934.7l138.72 0 0 -16.87 -138.72 0 0 16.87zm148.56 19.67l-158.39 0c-5.43,0 -9.83,-4.41 -9.83,-9.83l0 -36.55c0,-5.43 4.4,-9.83 9.83,-9.83l158.39 0c5.42,0 9.83,4.4 9.83,9.83l0 36.55c0,5.42 -4.41,9.83 -9.83,9.83z"/>
    <path class="fil0" d="M240.19 917.83c-5.43,0 -9.83,-4.41 -9.83,-9.84l0 -71.74c0,-48.26 36.04,-89.71 83.84,-96.42l139.38 -19.54c10.98,-1.55 22.24,0.47 31.69,5.66 8.62,4.75 18.9,15.93 31.91,30.09 21.42,23.31 50.76,55.23 73.51,55.23 22.75,0 52.08,-31.91 73.51,-55.23 13.01,-14.16 23.28,-25.33 31.91,-30.09 9.45,-5.18 20.71,-7.21 31.69,-5.66l139.37 19.54c47.81,6.71 83.85,48.16 83.85,96.42l0 66.55c0,5.43 -4.4,9.83 -9.83,9.83 -5.44,0 -9.84,-4.4 -9.84,-9.83l0 -66.55c0,-38.51 -28.76,-71.59 -66.91,-76.95l-139.37 -19.54c-6.82,-0.94 -13.73,0.25 -19.48,3.42 -5.8,3.2 -16.06,14.35 -26.91,26.17 -25.22,27.43 -56.6,61.59 -87.99,61.59 -31.39,0 -62.77,-34.17 -87.99,-61.6 -10.85,-11.81 -21.11,-22.96 -26.92,-26.16 -5.75,-3.16 -12.65,-4.37 -19.47,-3.42l-139.37 19.54c-38.15,5.36 -66.92,38.44 -66.92,76.95l0 71.74c0,5.43 -4.4,9.84 -9.83,9.84z"/>
    <path class="fil0" d="M591.06 719.84c43.31,1.21 79.36,-25.24 107.6,-78.61 17.14,-32.38 25.62,-75.83 25.95,-132.81 1.67,-40.5 -4.92,-89.83 -17.06,-96.44 -2.23,-1.23 -5.63,-0.25 -10.1,2.91 -42.99,30.29 -64.03,43.68 -112.34,43.68 -28.86,0 -47.95,-10.63 -64.79,-20.02 -11.73,-6.53 -22.81,-12.69 -36.37,-14.96 -7.11,-1.26 -15.32,12.07 -21.43,34.6 -7.39,27.23 -9.03,57.19 -4.88,89.06 5.21,39.97 13.6,69.83 26.37,93.98 28.24,53.38 64.15,79.65 107.05,78.61zm3.33 19.7c-1.11,0 -2.22,-0.01 -3.33,-0.04 -49.61,1.44 -92.84,-29.37 -124.43,-89.08 -13.91,-26.28 -22.96,-58.25 -28.48,-100.63 -4.49,-34.45 -2.68,-67 5.39,-96.75 9.67,-35.62 24.31,-52.08 43.64,-48.84 16.93,2.82 30.03,10.12 42.71,17.18 16.18,9.02 31.46,17.53 55.22,17.53 41.98,0 58.73,-10.31 101.01,-40.1 13.83,-9.75 24.41,-7.6 30.85,-4.09 30.46,16.6 27.7,104.22 27.29,114.16 -0.34,59.88 -9.56,106.3 -28.22,141.54 -30.88,58.38 -72.9,89.11 -121.65,89.12z"/>
    <path class="fil0" d="M705.5 391.76c4.65,0 8.5,1.34 11.47,2.96 27.41,14.94 27.92,87.4 27.45,108.99 17.93,-17.6 45.36,-50.21 49.63,-88.29 2.93,-26.05 -5.55,-51.12 -25.2,-74.5 -5.43,-6.45 -10.79,-12.47 -15.99,-17.98 -38.52,33.15 -97.65,52.23 -100.31,53.08 -4.33,1.37 -9.03,-0.39 -11.38,-4.25 -2.36,-3.87 -1.76,-8.86 1.45,-12.07 34.27,-34.27 38.11,-67.2 37.94,-81.25 -22.59,-1.19 -44.66,10.63 -71.97,25.24 -4.32,2.31 -8.76,4.68 -13.34,7.09 -28.4,14.87 -55.28,18.4 -79.01,21.52 -35.03,4.59 -62.7,8.21 -86.63,44.49 -26.97,40.89 -6.33,78.45 9.27,97.99 1.21,-7.5 2.76,-14.76 4.66,-21.74 9.67,-35.62 24.31,-52.08 43.64,-48.84 16.93,2.82 30.03,10.12 42.71,17.18 16.18,9.02 31.46,17.53 55.22,17.53 41.98,0 58.73,-10.31 101.01,-40.1 7.45,-5.24 13.96,-7.05 19.38,-7.05zm29.15 143.59c-0.34,0 -0.67,-0.02 -1.01,-0.05 -5.15,-0.53 -9.58,-5.03 -9.39,-10.21 0.21,-5.62 0.32,-11.2 0.36,-16.67 1.67,-40.5 -4.92,-89.83 -17.06,-96.44 -2.23,-1.23 -5.63,-0.25 -10.1,2.91 -42.99,30.29 -64.03,43.68 -112.34,43.68 -28.86,0 -47.95,-10.63 -64.79,-20.02 -11.73,-6.53 -22.81,-12.69 -36.37,-14.96 -7.11,-1.26 -15.32,12.07 -21.43,34.6 -3.28,12.08 -5.45,25.14 -6.44,38.82 -0.19,2.65 -1.45,5.1 -3.48,6.81 -2.04,1.72 -4.66,2.51 -7.32,2.27l-0.69 -0.08c-2,-0.21 -3.89,-1.01 -5.41,-2.32 -25.8,-22.15 -64.42,-79.44 -25.97,-137.74 28.86,-43.77 63.65,-48.32 100.47,-53.16 23.18,-3.03 47.15,-6.17 72.45,-19.44 4.53,-2.36 8.91,-4.7 13.18,-7 32.35,-17.3 60.27,-32.2 92.19,-26.36 3.95,0.73 7.06,3.79 7.85,7.73 0.09,0.43 6.54,35.1 -19.12,76.31 21.19,-9.52 47.89,-23.83 66.11,-41.8 3.85,-3.79 10.02,-3.77 13.85,0.05 7.63,7.61 15.61,16.35 23.71,26 23.28,27.69 33.27,57.78 29.68,89.43 -7.41,65.48 -70.34,113.64 -73.02,115.66 -1.71,1.29 -3.79,1.98 -5.91,1.98z"/>
    <path class="fil0" d="M188.41 898.16l803.89 0 0 -480.6c0,-36.57 -29.74,-66.31 -66.31,-66.31l-126.23 0c53.22,95.58 -58,181.21 -59.19,182.12 -1.99,1.49 -4.47,2.16 -6.93,1.93 -5.15,-0.54 -9.57,-5.02 -9.38,-10.21 0.2,-5.62 0.31,-11.19 0.35,-16.67 1.67,-40.5 -4.92,-89.83 -17.06,-96.44 -2.23,-1.23 -5.63,-0.25 -10.1,2.91 -42.99,30.29 -64.03,43.68 -112.34,43.68 -28.86,0 -47.95,-10.63 -64.79,-20.02 -11.73,-6.53 -22.81,-12.69 -36.37,-14.96 -7.11,-1.26 -15.32,12.07 -21.43,34.6 -3.28,12.07 -5.45,25.14 -6.44,38.82 -0.19,2.65 -1.45,5.1 -3.48,6.81 -2.04,1.72 -4.66,2.51 -7.32,2.27l-0.69 -0.08c-2,-0.21 -3.89,-1.01 -5.41,-2.32 -25.8,-22.15 -64.42,-79.44 -25.97,-137.74 3.54,-5.38 7.26,-10.28 11.18,-14.7l-169.66 0c-36.57,0 -66.32,29.74 -66.32,66.31l0 480.6zm813.73 19.67l-823.56 0c-5.43,0 -9.83,-4.41 -9.83,-9.84l0 -490.43c0,-47.41 38.57,-85.98 85.98,-85.98l195.65 0c4.34,0 8.17,2.85 9.41,7 1.25,4.15 -0.37,8.64 -3.99,11.04 -9.85,6.49 -18.41,15.37 -26.19,27.17 -26.97,40.89 -6.33,78.45 9.27,97.99 1.21,-7.5 2.76,-14.76 4.66,-21.74 9.67,-35.62 24.31,-52.08 43.64,-48.84 16.93,2.82 30.03,10.12 42.71,17.18 16.18,9.02 31.46,17.53 55.22,17.53 41.98,0 58.73,-10.31 101.01,-40.1 13.83,-9.75 24.41,-7.6 30.85,-4.09 27.51,14.99 27.93,87.9 27.44,109.21 28.01,-27.11 78.82,-90.37 29.38,-156.64 -2.23,-2.99 -2.58,-6.97 -0.91,-10.29 1.66,-3.33 5.07,-5.42 8.78,-5.42l144.33 0c47.41,0 85.98,38.57 85.98,85.98l0 490.43c0,5.43 -4.39,9.84 -9.83,9.84z"/>
    <path class="fil0" d="M843.18 499.48c-3.92,0 -7.63,-2.36 -9.15,-6.23 -1.99,-5.06 0.5,-10.76 5.56,-12.75l15.24 -6c5.05,-1.98 10.76,0.51 12.75,5.57 1.99,5.05 -0.51,10.75 -5.56,12.74l-15.25 6c-1.17,0.46 -2.39,0.67 -3.59,0.67z"/>
    <path class="fil0" d="M913.22 471.97c-3.92,0 -7.63,-2.36 -9.15,-6.23 -1.99,-5.06 0.5,-10.76 5.56,-12.75l15.24 -6c5.04,-1.99 10.76,0.51 12.75,5.55 1.99,5.06 -0.5,10.77 -5.56,12.76l-15.24 5.99c-1.19,0.47 -2.4,0.68 -3.6,0.68z"/>
    <path class="fil0" d="M859.56 587.82l-16.38 0c-5.43,0 -9.83,-4.41 -9.83,-9.83 0,-5.43 4.4,-9.83 9.83,-9.83l16.38 0c5.44,0 9.84,4.4 9.84,9.83 0,5.42 -4.4,9.83 -9.84,9.83z"/>
    <path class="fil0" d="M910.57 587.82l-17 0c-5.43,0 -9.83,-4.41 -9.83,-9.83 0,-5.43 4.4,-9.83 9.83,-9.83l17 0c5.44,0 9.83,4.4 9.83,9.83 0,5.42 -4.39,9.83 -9.83,9.83z"/>
    <path class="fil0" d="M960.96 587.82l-16.38 0c-5.43,0 -9.83,-4.41 -9.83,-9.83 0,-5.43 4.4,-9.83 9.83,-9.83l16.38 0c5.43,0 9.83,4.4 9.83,9.83 0,5.42 -4.4,9.83 -9.83,9.83z"/>
    <path class="fil0" d="M847.7 663.61c-0.93,0 -1.88,-0.13 -2.82,-0.41l-15.7 -4.72c-5.2,-1.55 -8.15,-7.04 -6.59,-12.24 1.56,-5.2 7.04,-8.15 12.25,-6.59l15.69 4.71c5.2,1.57 8.15,7.04 6.59,12.25 -1.28,4.25 -5.18,7 -9.42,7z"/>
    <path class="fil0" d="M913.25 683.26c-0.94,0 -1.89,-0.12 -2.83,-0.41l-15.7 -4.7c-5.2,-1.57 -8.16,-7.04 -6.59,-12.24 1.56,-5.2 7.05,-8.14 12.24,-6.59l15.7 4.7c5.19,1.56 8.15,7.03 6.59,12.24 -1.28,4.26 -5.19,7 -9.41,7z"/>
    <path class="fil0" d="M337.53 499.48c-1.19,0 -2.41,-0.21 -3.59,-0.67l-15.25 -6c-5.05,-1.99 -7.54,-7.69 -5.55,-12.74 1.98,-5.05 7.68,-7.54 12.74,-5.57l15.25 6c5.06,1.99 7.54,7.69 5.56,12.75 -1.52,3.87 -5.23,6.23 -9.16,6.23z"/>
    <path class="fil0" d="M267.5 471.97c-1.2,0 -2.41,-0.21 -3.59,-0.68l-15.26 -5.99c-5.05,-1.98 -7.54,-7.7 -5.56,-12.76 1.99,-5.04 7.68,-7.53 12.75,-5.55l15.25 6c5.06,1.98 7.55,7.69 5.56,12.75 -1.52,3.87 -5.23,6.23 -9.15,6.23z"/>
    <path class="fil0" d="M337.54 587.82l-16.39 0c-5.43,0 -9.83,-4.41 -9.83,-9.83 0,-5.43 4.4,-9.83 9.83,-9.83l16.39 0c5.43,0 9.83,4.4 9.83,9.83 0,5.42 -4.4,9.83 -9.83,9.83z"/>
    <path class="fil0" d="M287.15 587.82l-17 0c-5.43,0 -9.84,-4.41 -9.84,-9.83 0,-5.43 4.41,-9.83 9.84,-9.83l17 0c5.43,0 9.83,4.4 9.83,9.83 0,5.42 -4.4,9.83 -9.83,9.83z"/>
    <path class="fil0" d="M236.14 587.82l-16.38 0c-5.43,0 -9.83,-4.41 -9.83,-9.83 0,-5.43 4.4,-9.83 9.83,-9.83l16.38 0c5.43,0 9.83,4.4 9.83,9.83 0,5.42 -4.4,9.83 -9.83,9.83z"/>
    <path class="fil0" d="M333.01 663.61c-4.23,0 -8.13,-2.75 -9.41,-7 -1.57,-5.21 1.39,-10.68 6.59,-12.25l15.69 -4.71c5.2,-1.56 10.69,1.39 12.25,6.59 1.56,5.2 -1.39,10.69 -6.59,12.24l-15.7 4.72c-0.94,0.28 -1.9,0.41 -2.83,0.41z"/>
    <path class="fil0" d="M267.47 683.26c-4.23,0 -8.14,-2.74 -9.41,-7 -1.56,-5.21 1.4,-10.68 6.59,-12.24l15.7 -4.7c5.19,-1.56 10.68,1.39 12.24,6.59 1.56,5.2 -1.39,10.67 -6.59,12.24l-15.7 4.7c-0.94,0.29 -1.89,0.41 -2.83,0.41z"/>
   </g>
  </g>
 </g>
</svg>
