<?xml version="1.0" encoding="UTF-8"?>
<!DOCTYPE svg PUBLIC "-//W3C//DTD SVG 1.1//EN" "http://www.w3.org/Graphics/SVG/1.1/DTD/svg11.dtd">
<!-- Creator: CorelDRAW 2020 (64-Bit) -->
<svg xmlns="http://www.w3.org/2000/svg" xml:space="preserve" width="190mm" height="50mm" version="1.1" style="shape-rendering:geometricPrecision; text-rendering:geometricPrecision; image-rendering:optimizeQuality; fill-rule:evenodd; clip-rule:evenodd"
viewBox="0 0 19000 5000"
 xmlns:xlink="http://www.w3.org/1999/xlink"
 xmlns:xodm="http://www.corel.com/coreldraw/odm/2003">
 <defs>
  <style type="text/css">
   <![CDATA[
    .str0 {stroke:#9D9E9E;stroke-width:52.92;stroke-miterlimit:22.9256}
    .str1 {stroke:#2B2A29;stroke-width:35.28;stroke-miterlimit:22.9256}
    .fil5 {fill:none}
    .fil0 {fill:none;fill-rule:nonzero}
    .fil3 {fill:#2B2A29}
    .fil6 {fill:#727271;fill-rule:nonzero}
    .fil4 {fill:#2B2A29;fill-rule:nonzero}
    .fil2 {fill:#20A296;fill-rule:nonzero}
    .fil1 {fill:#EA5822;fill-rule:nonzero}
   ]]>
  </style>
 </defs>
 <g id="Layer_x0020_1">
  <metadata id="CorelCorpID_0Corel-Layer"/>
  <g id="_1646320559328">
   <line class="fil0 str0" x1="5717.75" y1="823.76" x2="5717.75" y2= "4188.51" />
   <path class="fil1" d="M7735.28 3153.38l540.11 90.66c-68.96,197.76 -178.66,348.23 -327.87,452.05 -149.8,103.15 -337.07,155.08 -561.12,155.08 -355.46,0 -618.95,-116.33 -789.14,-348.92 -134.69,-186.6 -202.35,-421.81 -202.35,-706.33 0,-339.02 88.69,-605.15 265.47,-797.02 176.73,-192.5 400.78,-288.42 671.5,-288.42 303.58,0 543.42,100.54 719.46,301.56 175.45,201.09 259.57,509.26 251.65,924.5l-1352.19 0c3.92,160.32 47.27,285.16 130.72,374.52 82.79,89.32 186.65,134.02 310.12,134.02 84.81,0 155.72,-22.98 212.91,-68.98 57.81,-45.99 101.18,-120.24 130.73,-222.72zm31.56 -548.01c-3.94,-157.01 -44.03,-276.63 -120.87,-358.08 -76.94,-82.15 -170.19,-122.9 -280.59,-122.9 -117.62,0 -214.85,43.37 -291.71,129.44 -76.89,86.12 -114.38,203.73 -113,351.54l806.17 0zm2644.37 1194.53l-500.67 0 0 -300.27c-83.4,116.98 -182.63,204.33 -296.32,263.5 -113.66,58.44 -228.66,88.04 -344.3,88.04 -235.87,0 -437.56,-94.63 -605.77,-284.52 -167.58,-189.89 -251.72,-454.02 -251.72,-793.73 0,-346.95 81.53,-611.03 245.13,-791.76 163.57,-180.68 369.9,-270.68 619.62,-270.68 228.61,0 427.11,95.25 593.94,285.14l0 -1018.45 540.09 0 0 2822.73zm-1442.92 -1062.45c0,218.79 30.24,377.13 90.07,475.05 87.38,141.92 208.94,212.89 365.29,212.89 124.25,0 229.97,-53.24 316.75,-159.65 87.36,-106.49 130.72,-264.8 130.72,-476.39 0,-235.89 -42.03,-405.41 -126.79,-509.18 -84.79,-103.87 -192.53,-155.78 -324.61,-155.78 -128.13,0 -235.2,51.29 -321.99,153.78 -86.07,102.48 -129.44,255.59 -129.44,459.28zm3116.24 1062.45l0 -306.19c-74.96,109.07 -172.86,195.81 -294.37,260.88 -121.59,64.37 -249.72,96.58 -384.42,96.58 -137.97,0 -261.51,-30.21 -370.56,-90.71 -109.69,-60.45 -188.58,-145.85 -237.23,-254.93 -49.29,-109.69 -73.58,-260.82 -73.58,-454.02l0 -1297.68 540.09 0 0 942.22c0,288.47 9.9,464.54 30.21,529.6 19.77,65.04 55.86,116.95 109.12,154.42 52.58,38.11 119.57,57.14 201.05,57.14 92.61,0 175.42,-25.62 249,-76.2 73.58,-50.6 123.54,-113.69 150.49,-189.27 26.91,-75.53 40.75,-259.49 40.75,-553.22l0 -864.69 540.14 0 0 2046.07 -500.69 0z"/>
   <path class="fil2" d="M13234.31 2663.62c223.75,0 331.9,-114.36 331.9,-266.01 0,-309.52 -476.1,-221.27 -476.1,-353.02 0,-49.72 42.27,-83.29 118.1,-83.29 84.52,0 174.03,28.59 241.15,90.74l98.21 -129.28c-82.06,-75.82 -191.44,-115.61 -323.2,-115.61 -195.15,0 -314.49,114.38 -314.49,252.34 0,312.01 477.33,211.32 477.33,358 0,47.24 -47.24,91.99 -144.2,91.99 -114.36,0 -205.09,-50.97 -263.53,-111.87l-95.71 134.24c77.08,78.31 191.44,131.77 350.54,131.77zm1133.73 -14.92l-351.78 -440.04 329.41 -389.07 -217.53 0 -293.36 370.43 0 -370.43 -176.52 0 0 829.11 176.52 0 0 -254.82 64.64 -77.08 251.09 331.9 217.53 0zm230.06 0l0 -829.11 -176.52 0 0 829.11 176.52 0zm663.86 0l0 -155.38 -350.53 0 0 -673.73 -176.52 0 0 829.11 527.05 0zm622.84 0l0 -155.38 -350.53 0 0 -673.73 -176.52 0 0 829.11 527.05 0zm272.32 0l0 -829.11 -176.52 0 0 829.11 176.52 0zm878.9 0l0 -829.11 -176.5 0 0 520.83 -384.1 -520.83 -181.49 0 0 829.11 176.52 0 0 -540.72 395.27 540.72 170.3 0zm538.33 16.15c150.4,0 268.49,-62.14 353.02,-156.61l0 -318.22 -395.29 0 0 154.13 218.77 0 0 99.45c-33.56,31.08 -103.16,63.4 -176.5,63.4 -150.42,0 -259.81,-115.61 -259.81,-272.24 0,-156.62 109.39,-272.21 259.81,-272.21 88.24,0 159.1,49.72 196.39,108.14l146.68 -79.56c-62.16,-98.2 -170.29,-185.21 -343.07,-185.21 -242.41,0 -441.29,166.56 -441.29,428.84 0,261.04 198.88,430.09 441.29,430.09z"/>
   <path class="fil2" d="M13838.43 3776.06l0 -829.11 -248.61 0 -201.37 500.95 -201.38 -500.95 -247.36 0 0 829.11 176.52 0 0 -580.5 233.69 580.5 77.07 0 233.69 -580.5 0 580.5 177.75 0zm340.6 0l0 -829.11 -176.52 0 0 829.11 176.52 0zm458.68 14.92c223.75,0 331.9,-114.36 331.9,-266.01 0,-309.53 -476.1,-221.27 -476.1,-353.03 0,-49.72 42.27,-83.28 118.1,-83.28 84.52,0 174.03,28.59 241.15,90.74l98.2 -129.28c-82.05,-75.82 -191.44,-115.61 -323.2,-115.61 -195.15,0 -314.48,114.38 -314.48,252.34 0,312.01 477.33,211.32 477.33,358 0,47.24 -47.24,91.98 -144.2,91.98 -114.36,0 -205.1,-50.96 -263.53,-111.86l-95.71 134.24c77.08,78.31 191.44,131.77 350.54,131.77zm745.82 0c223.75,0 331.9,-114.36 331.9,-266.01 0,-309.53 -476.1,-221.27 -476.1,-353.03 0,-49.72 42.27,-83.28 118.1,-83.28 84.52,0 174.03,28.59 241.15,90.74l98.2 -129.28c-82.05,-75.82 -191.44,-115.61 -323.19,-115.61 -195.16,0 -314.49,114.38 -314.49,252.34 0,312.01 477.33,211.32 477.33,358 0,47.24 -47.24,91.98 -144.2,91.98 -114.36,0 -205.1,-50.96 -263.53,-111.86l-95.71 134.24c77.08,78.31 191.44,131.77 350.54,131.77zm627.74 -14.92l0 -829.11 -176.52 0 0 829.11 176.52 0zm556.87 14.92c251.11,0 433.83,-179 433.83,-428.86 0,-249.84 -182.72,-428.84 -433.83,-428.84 -249.84,0 -432.57,179 -432.57,428.84 0,249.86 182.73,428.86 432.57,428.86zm0 -156.63c-152.88,0 -251.09,-118.08 -251.09,-272.23 0,-155.38 98.21,-272.22 251.09,-272.22 152.9,0 252.34,116.84 252.34,272.22 0,154.15 -99.44,272.23 -252.34,272.23zm1300.23 141.71l0 -829.11 -176.5 0 0 520.83 -384.1 -520.83 -181.49 0 0 829.11 176.52 0 0 -540.72 395.28 540.72 170.29 0z"/>
   <path class="fil3" d="M2990.6 1904.55c12.38,-3.28 -3.78,4.84 11.1,-36.39 -4.01,2.13 -7.71,4 -11.1,5.68l0 30.71z"/>
   <path class="fil3" d="M3839.1 1655.09c221.43,10.88 264.36,257.38 172.2,292.63 -9.14,-18.78 -8.94,-35.36 -6.4,-51.89 3.76,-23.77 -22.49,-37.64 -48.82,-13.67 7.03,-37.3 20.48,-64 8.57,-93.39 -9.28,-22.85 -42.33,-45.85 -63.31,-86.73 68.52,65.95 97.65,82.7 77.58,154.12 30.38,-18.65 39.19,11.44 43.96,33.97 38.07,-63.37 -14.84,-192.66 -183.78,-235.04z"/>
   <path class="fil3" d="M3896.47 1705.85c-15.15,-7.2 -41.35,12.99 -45.67,24.5 -4.33,11.48 11.92,53.45 -6.91,58.25 -18.82,4.78 -61.4,-1.81 -71.77,10.95 -10.35,12.72 10.18,72.25 10.18,72.25 0,0 -10.35,-50.56 8.07,-66.44 18.46,-15.88 79.09,16.84 80.41,-5.37 -4.36,-18.72 -11.77,-43.44 -6.17,-62.25 4.14,-13.69 17.85,-22.51 31.86,-31.89z"/>
   <path class="fil3" d="M3743.76 1818.7c0,0 0.11,22.82 -17.22,47.27 -27.5,38.8 -98.7,44.98 -137.23,25.41 -66.7,-33.84 -56.32,-60.23 -88.59,-85.75 -17.11,-13.54 -40.63,-23.07 -58.8,-29.01 -30.43,-9.92 -29.24,-21.26 -2.11,-44.76 19.3,-16.64 65.52,-37.65 133.08,-4.61 -81.09,-5.07 -125.99,4.29 -134.37,30.65 9.17,-4.18 64.13,3.98 86.26,35.84 38.61,55.66 48.87,79.76 112.83,84.15 66.36,4.56 106.15,-59.19 106.15,-59.19z"/>
   <path class="fil4" d="M3481.36 1637.52c-80.2,-37.03 -173.25,-95.32 -187.61,-185.16 -4.71,-29.47 1.81,-17.58 17.51,0.66 22.3,25.93 50.46,44.94 65.93,55.31l-39.14 -43.89c-16.75,-23.91 -31.15,-42.89 -45.85,-80.72 -12.35,-20.39 -15.83,16.8 -15.67,22.8 1.59,57.51 20.88,107.24 55.2,150.34 37.75,47.44 93.81,86.75 164.68,119.5l-15.05 -38.84z"/>
   <path class="fil3" d="M3581.24 1588.01c0,0 7.29,-5.7 18.82,-8.09 11.52,-2.45 20.87,10.88 30.87,31.47 9.96,20.63 -16.02,-22.72 -30.01,-23.69 -14.02,-1.01 -19.68,0.31 -19.68,0.31z"/>
   <path class="fil3" d="M3614.16 1596.76c0.28,0.92 -2.58,14.82 -14.81,13.05 -8.01,-1.13 -14.79,-12.9 -8.41,-18.79l5.81 -5.26 10.01 0.86c0,0 7.15,9.29 7.4,10.14z"/>
   <path class="fil3" d="M2142.09 1655.09c-221.42,10.88 -264.34,257.38 -172.19,292.63 9.18,-18.78 8.91,-35.36 6.39,-51.89 -3.71,-23.77 22.49,-37.64 48.82,-13.67 -7.02,-37.3 -20.48,-64 -8.56,-93.39 9.27,-22.85 42.31,-45.85 63.33,-86.73 -68.54,65.95 -97.66,82.7 -77.62,154.12 -30.36,-18.65 -39.2,11.44 -43.95,33.97 -38.06,-63.37 14.85,-192.66 183.78,-235.04z"/>
   <path class="fil3" d="M2084.72 1705.85c15.21,-7.2 41.37,12.99 45.7,24.5 4.33,11.48 -11.95,53.45 6.9,58.25 18.82,4.78 61.38,-1.81 71.76,10.95 10.37,12.72 -10.14,72.25 -10.14,72.25 0,0 10.35,-50.56 -8.1,-66.44 -18.44,-15.88 -79.09,16.84 -80.41,-5.37 4.34,-18.72 11.75,-43.44 6.15,-62.25 -4.14,-13.69 -17.82,-22.51 -31.86,-31.89z"/>
   <path class="fil3" d="M2237.43 1818.7c0,0 -0.11,22.82 17.24,47.27 27.48,38.8 98.72,44.98 137.24,25.41 66.66,-33.84 56.29,-60.23 88.57,-85.75 17.15,-13.54 40.59,-23.07 58.86,-29.01 30.36,-9.92 29.23,-21.26 2.06,-44.76 -19.32,-16.64 -65.53,-37.65 -133.08,-4.61 81.1,-5.07 125.97,4.29 134.37,30.65 -9.17,-4.18 -64.19,3.98 -86.28,35.84 -38.64,55.66 -48.84,79.76 -112.84,84.15 -66.35,4.56 -106.14,-59.19 -106.14,-59.19z"/>
   <path class="fil4" d="M2499.89 1637.52c80.2,-37.03 173.19,-95.32 187.55,-185.16 4.71,-29.47 -1.79,-17.58 -17.48,0.66 -22.3,25.93 -50.43,44.94 -65.97,55.31l39.15 -43.89c16.78,-23.91 31.16,-42.89 45.87,-80.72 12.33,-20.39 15.82,16.8 15.65,22.8 -1.57,57.51 -20.86,107.24 -55.18,150.34 -37.78,47.44 -93.83,86.75 -164.68,119.5l15.09 -38.84z"/>
   <path class="fil3" d="M2399.97 1588.01c0,0 -7.3,-5.7 -18.84,-8.09 -11.53,-2.45 -20.83,10.88 -30.85,31.47 -9.97,20.63 15.98,-22.72 30.03,-23.69 13.98,-1.01 19.66,0.31 19.66,0.31z"/>
   <path class="fil3" d="M2367.06 1596.76c-0.25,0.92 2.54,14.82 14.78,13.05 8.03,-1.13 14.79,-12.9 8.39,-18.79l-5.78 -5.26 -10.04 0.86c0,0 -7.13,9.29 -7.35,10.14z"/>
   <path class="fil3" d="M2769.93 1184.52l8.31 0 77.39 92.91c-43.46,6.49 -76.99,43.61 -76.99,88.05l0 0c0,39.35 26.29,72.89 62.43,84.58 0.54,0.2 8.44,0.38 9.03,0.57l-63.4 74.58 -16.77 0 0 -340.69zm80.61 0l277.84 0 -76.4 91.93 -37.32 0 0 -0.59 -1.22 0 -47.94 0 -1.22 0 0 0.59 -37.37 0 -76.37 -91.93zm350.1 0l8.34 0 0 340.69 -16.76 0 -63.39 -74.58c0.58,-0.19 8.43,-0.37 9.02,-0.57 36.12,-11.69 62.41,-45.23 62.41,-84.58l0 0c0,-44.44 -33.5,-81.56 -76.97,-88.05l77.35 -92.91zm-80.72 340.69l-105.26 0 0 -21.72 0 -21.01 0 -155.02 83.83 0c24.85,0 45.2,15.59 45.2,38.02l0 0c0,22.37 -20.35,40.7 -45.2,40.7l-79.43 0 21.55 25.43 79.31 93.6zm-155.64 0l-105.3 0 79.34 -93.6 21.54 -25.43 -79.47 0c-24.83,0 -45.18,-18.33 -45.18,-40.7l0 0c0,-22.43 20.35,-38.02 45.18,-38.02l83.89 0 0 155.02 0 21.01 0 21.72z"/>
   <path class="fil4" d="M3117.44 1086.18c2.2,-32.79 39.97,-88.56 81.22,-92.99 15.84,-12.65 83.28,-0.6 103.69,18.06 34.25,26.49 54.76,90.15 72.24,143.72 19.21,58.73 44.46,130.2 89.25,190.16 51.06,39.31 85.94,-28.67 106.96,58.22 4.76,11.55 1.69,32.72 8.66,36.76 6.99,4 23.93,-9.03 42.22,-7.37 48.25,-16 57.44,17.83 65.33,30.51 5.27,8.56 -1.58,25.25 7.8,30.68 20.76,11.95 56.63,8.55 77.68,7.59 20.1,-0.97 68.29,3.72 90.5,45.02 11.78,22.02 13.84,48.53 6.57,70.55 -6.38,19.43 -51.54,51.99 -74.92,58.32 -17.01,7.13 12.61,9.58 20.27,6.71 9.68,-3.6 22.92,-9.78 33.94,-14.59 34.29,-14.93 73.09,4.22 111.43,1.32 104.75,5.37 248.81,14.29 378.74,61.8 128.53,47.01 262.34,133.31 344.27,298.15 10.35,20.8 33.05,75.32 37.38,136.88 -25.2,-40.86 -56.2,-68.41 -95.89,-94.23 39.12,34.71 81.8,101.3 103.78,153.49 17.94,42.65 26.21,112.56 0.73,162.66 -3.86,67.71 23.8,98.66 35.7,165.15 0,0.06 -12.76,28.99 -9.03,67.94 4.6,47.06 30.95,106.9 27.94,123.59 58.84,-86.12 65.51,-85.49 31.94,-184.73 -4.86,-14.36 -52.68,-63.82 -46.03,-179.66 1.79,-31.35 3.58,-62.72 3.75,-94.97l0 -0.09 0.02 -8.38 0 -0.1c-0.22,-49.15 -6.37,-90.54 -17.97,-130.7 -11.58,-40.05 -28.36,-78.42 -49.91,-121.82 -87.45,-175.96 -219.43,-268.85 -356.9,-319.09 -136.03,-49.72 -276.18,-57.21 -383.62,-62.7 -43.96,-2.21 -54,-56.77 -69.42,-85.43 -34.58,-64.32 -79.75,-81.79 -115.81,-80.04 -29.18,1.32 -55.65,1.07 -71.93,-25.28 -9.57,-17.22 -18.13,-34.45 -48.95,-39.6 -24.18,-4.02 -49.56,11.81 -59.42,-14.39 -7.23,-19.24 -15.7,-41.82 -45.89,-55.69 -14.15,-6.53 -27.01,-9.67 -39.08,-12.64 -14.66,-3.58 -27.81,-6.81 -35.83,-15.94 -44.15,-50.33 -64.01,-110.93 -81.95,-165.92 -19.63,-59.92 -37.27,-113.76 -81.42,-147.87 -16.36,-12.6 -35.72,-21.18 -56.15,-25.41 -23.6,-4.84 -48.63,-3.83 -71.96,3.73 -23.66,7.57 -45.56,21.74 -62.59,43.01 -13.46,16.8 -23.76,38.02 -29.24,63.89l-2.95 21.57c-1.95,14.06 0.69,16.36 11.69,8.22 18.45,-13.67 30.79,-4.3 45.85,-17.06 14.08,11.36 13.67,40.24 33.09,30.45 6.33,-3.19 -9.28,-13.25 0.16,-31.33 18.69,-35.68 60.13,-30.61 69.29,-3.73 14.01,41.29 18.36,137.21 29.44,204.76 6.81,41.16 12.89,78.47 19.38,103.31l0 0.1 0.07 0.1c26.29,100.23 98.89,114.59 152.56,163.09 30.5,27.51 17.63,63.15 24.73,97.49 5.51,26.32 47.2,65.9 111.46,73.12 4.89,-1.89 -52.49,-32.94 -74.44,-58.76 -15.97,-18.8 -18.18,-42.48 -17.77,-50.45l0 -0.05c1.38,-29.29 -1.52,-48.38 -27.28,-71.69 -35.45,-32.01 -107.71,-72.76 -130.17,-109.5 -47.9,-78.31 -41.64,-197.04 -57.7,-286.37 -8.93,-49.66 -21.21,-88.43 -45.15,-98.85 -52.35,-22.89 -87.81,41.79 -120.36,27.3z"/>
   <path class="fil4" d="M4728.95 2383.55c-23.09,52.59 -40.89,145.7 -29.91,188.59 10.82,42.12 27.37,81.66 45.47,124.57l-0.01 0.01 0.09 0.17 0.07 0.07c8.07,19.24 11.1,40.94 11.82,62.15 0.28,8.29 2.07,20.73 -20.36,23.81 -0.16,4.9 20.72,10.29 21.69,15.07 3.38,16.96 12.38,33.02 16.05,47.09l2.43 9.08c6.76,24.45 -19.9,25.45 -26.36,25.24l-97.51 -8.11c-1.79,7.25 -53.3,15.11 -43.44,-19.81 4.32,-15.32 20.1,-33.16 42.54,-24.58 2.56,-11.72 -56.66,-20.73 -57.64,38.03 -0.19,11.02 -34.57,9.78 -34.56,-1.86 6.35,-42.28 17.81,-53.47 42.84,-43.22 1.98,-3.65 -9.03,-14.56 -7.56,-18.07 2.89,-6.93 18.17,-7.15 20.15,-15.03 -44.9,-38.91 10.82,-45.45 5.84,-57.63 -25.02,-61.15 -46.88,-100.64 -88.85,-142.06 -19.3,-19.06 -43.56,-41.59 -59.11,-67.69 -11.42,-19.14 -20.01,-43.31 -28.01,-96.2 -19.58,-60.95 -76.49,-242.28 -142.28,-263.34 7.97,9.3 18,25.2 28.02,43.9 4.83,8.96 9.65,18.54 14.26,28.41 20,42.54 36.09,89.42 30.41,106.52 -4.18,12.76 -11.27,30.67 -9.61,42.58 0.58,4.63 -10.47,19.23 -6.64,16.28 28.14,-21.49 60.11,18.82 59.8,40.66 6.29,92.92 13.29,67.89 102.62,162.25 19.73,20.79 29.17,44.89 42.35,67.96 13.49,23.7 17.98,58.34 14.2,89.65 -0.8,6.69 -1.91,13.03 -3.41,18.96 -1.45,5.77 -3.27,11.28 -5.42,16.4 -1.18,2.82 -2.36,5.2 -3.47,7.24l-3.63 6.67 -0.02 -0.01c-10.96,20.01 -18.81,34.5 -19.31,48.19 -0.99,26.16 15.16,37.37 61.56,39.05l150.02 5.35c37.87,1.36 50.03,-6.35 50.95,-30.44 0.26,-8.18 -1.91,-16.09 -4.86,-26.71 -1.36,-4.97 -1.88,-6.7 -2.41,-8.61 -3.25,-12.42 -13.19,-30.18 -12.63,-49.46 1.7,-53.85 -13.25,-98.22 -30.64,-142.79 -25.44,-65.2 -50.92,-120.91 -25.53,-258.33z"/>
   <path class="fil4" d="M4312.06 2489.52c-16.44,56.64 -44.33,136.5 -22.64,178.01 11.61,23.62 32.06,31.23 23.52,58.96l-0.06 -0.01c-8.68,17.88 -63.15,92.96 -39.28,107.83l-0.02 0.01c3.69,2.31 7.83,3.51 12.54,3.62 73.26,1.35 314.32,54.44 195.85,-90.03 -31.04,-49.67 16.28,-100.54 48.6,-135.55l-23.11 -25.02c-29.24,42.13 -75.33,104.23 -51.09,157.69 2.05,4.51 -15.31,5.71 -12.25,10.62 1.34,2.08 22.52,7.83 23.78,10.21 44.23,80.99 -71.56,55.78 -118.41,55.49 16.29,-15.31 14.65,-30.67 -0.18,-46.04 7.8,37.54 -29.52,52.57 -65.26,47.27 -13.71,-33.13 56.25,-56.75 66.6,-78.77 0,-0.01 -4.87,-36.02 -1.76,-36.91 62,-18.18 -5.35,-15.84 -13.96,-19.5 -69.35,-29.49 -6.12,-164.94 19.73,-204.62l-3.98 -2.56c-12.19,4.04 -25.5,10.84 -38.62,9.3z"/>
   <path class="fil4" d="M4424.41 2463.87c-61.94,14.17 -152.07,31.56 -225.89,1.25 -74.57,-30.58 -111.55,-56.28 -208.59,-125.75 -2.32,-1.66 -29.04,-26.65 -31.41,-28.41l-13.6 26.6c109.55,76.58 164.33,108.04 243.92,140.65 82.07,33.72 177.13,27.94 248.16,11.66l-12.59 -26z"/>
   <path class="fil3" d="M4377.32 2295.33c-17.67,179.86 -201.81,114.54 -338.82,47.9 75.07,66.17 289.1,139.11 362.64,13.41 0,0 -25.42,-62.84 -23.82,-61.31z"/>
   <path class="fil4" d="M4467.71 1835.28c-110.56,-55.97 -217.45,-91.39 -340.81,-137.53 97.25,14.25 244.92,61.15 356.27,130.67 78.69,49.12 161.51,140.1 193.54,227.32 -53.43,-52.24 -94.9,-162.76 -209,-220.46z"/>
   <path class="fil4" d="M3731.49 1939.17c-0.28,13.96 -35.93,140.86 -35.99,154.56 -0.25,132.81 11.14,255.95 46.09,380.7 3.19,11.46 15.49,55.5 23.68,98.36 11.56,60.54 12.24,107.19 -0.16,135.68 -30.08,23.53 -48.78,40.58 -51.12,61.25 -2.43,21.61 -4.65,31.86 6.74,37.39l1.43 -2.48 225.74 0c-1.89,4.3 -3.84,8.59 -5.78,12.87 15.05,-1.07 25.36,-4.11 27.29,-11.14 0.07,-0.16 8.36,-33.2 -10.25,-64.54 -16.86,-51.54 -18.32,-115.69 -11.01,-190.04 5.68,-57.86 6.55,-133.02 -2.42,-179.27 15.93,-10.33 38.72,-67.11 15.13,-172.33 -11.25,-50.35 0.42,-100.27 -1.79,-119.69 -16.22,38.05 -22.23,106.16 -13.22,168.07 4.67,32.25 4.89,54.31 -8.47,86.34 -25.32,37.01 -66.03,10.07 -62.52,-52.94 -23.19,87.59 35.2,94.82 53.04,96.39 8.86,45.82 3.12,188.2 -4.51,247.78 -1.35,16.11 -3.92,30.54 -5.12,44.94 -1.99,23.85 -25.41,32.48 -25.18,36.11 0.43,6.5 25.72,3.84 27.45,10.87 11.23,10.89 13.86,22.71 20.65,35.95 10.19,17.18 2.18,33.97 -5.02,41.37 -12.21,12.61 -88.26,5.27 -105.61,2.46 -71.9,-1.61 -45.61,-52.55 -24.28,-69.02 -17.48,4.73 -60.08,32.69 -32.15,64.9 -32.52,8.07 -41.08,2.51 -45.19,-8.56 11.51,-61.56 49.33,-44.29 59.62,-57.12 6.52,-8.23 9.43,-26.04 9.63,-49.24 0.24,-24.56 21.71,-29.17 15.61,-31.84 -17.18,-7.53 -18.38,-20.82 -19.14,-27.47 -3.92,-35.92 -10.85,-75.4 -18.84,-110.37 -3.59,-15.82 -7.35,-30.76 -11.07,-44.02 -3.78,-13.56 -7.5,-25.35 -10.98,-34.44l-0.04 -0.25 -0.06 -0.07c-21.91,-58.35 -37.47,-255.91 -29.47,-336.82l7.29 -154.34zm22.18 491.16l-22.18 -491.16 22.18 491.16z"/>
   <path class="fil4" d="M3648.22 1955.66c-68.3,99.4 -132.7,212.12 -217.66,293.05 -42.1,40.09 -105.69,99.21 -114.23,137.07l0 0.16 -0.08 0.1c-4.06,18.15 -3.46,45.26 -2.83,72.78 0.72,32.59 1.47,63.99 -0.53,73.81l-4.14 0.37 -0.07 0.14c-2.98,4.1 -5.59,8.35 -7.87,12.67 -2.21,4.26 -4.12,8.56 -5.72,12.79 -25.94,67.67 19.37,59.17 59.54,61.13 22.57,1.13 50.39,2.87 72.77,2.87 44.16,0 81.54,2.37 84.55,-15.37l0.02 -0.18 1.91 -4.71c7.26,-35.69 -14.34,-51.7 -26.13,-71.09 -4.76,-22.14 2.74,-63.53 10.79,-72.69l0.03 -0.08 0.08 -0.02 0 0c1.21,-1.4 -0.26,-9.35 2.93,-12.38 32.47,-30.68 72.64,-69.39 108.16,-99.05 16.09,-13.4 41.11,-34.07 56.06,-36.98 14.81,-2.83 31.39,-4.26 52.04,3.72l13.26 -14.6c-28.38,-10.95 -52.36,-13.91 -75.16,-9.52 -22.66,4.36 -43,15.76 -64.44,33.67 -30.53,25.47 -62.05,65.37 -88.71,89.15 -5,4.43 -20.15,12.41 -24.3,16.38 -4.08,3.77 -9.24,0.44 -11.41,2.93l-0.09 0.05 -0.01 0.07 0 0c-8.84,10.17 5.09,35.39 3.4,56.15 -1.98,24.64 3.8,25.5 -11.15,54.44 19.45,9.44 38.46,19.67 32.92,47.08 -7.07,34.87 -93.55,17.48 -113.6,17.48 -30.44,11.26 -4.99,-22.11 -20.01,-31.91 -9.98,42.79 -36.03,23.32 -43.93,22.71 -27.23,-13.39 -1.64,-54.2 39.37,-60.6 -25.88,-21.46 -14.97,-41.3 0.97,-49.07 -25.69,-3.92 -25.69,-89.09 -1.98,-118.94 41.63,-52.41 62.01,-77.45 98.14,-111.89 11.9,-11.33 47.65,-59 61.7,-61.91 23.41,-4.87 24.93,45.37 30.53,16.06 4.56,-23.71 -5.77,-36.88 3.18,-60.26 22.93,-59.7 75,-127.27 106.15,-172.86l-4.45 -22.72z"/>
   <path class="fil3" d="M3576.19 1885.33c0,0 63.06,23.43 69.72,77.86 6.71,54.44 62.2,144.97 62.2,144.97 17,-73.69 -48.63,-97.12 -44.95,-146.86 1.7,-23.26 -15.78,-50.09 -27.79,-61.01l-59.18 -14.96z"/>
   <path class="fil3" d="M3724.89 1767.31c5.74,35.16 32.86,70.8 20.93,103.14 -32.68,88.09 -6.58,100.64 -13.96,149.66 -10.16,67.38 -12.24,98.09 45.21,53.14 31.13,-24.31 43.3,-70.35 116.52,-81.94 138.22,-21.72 149.02,-76.61 148.67,-76.88l-24.22 -20.73c-0.34,11.96 -6,-7.56 -9.28,1.1 -12.26,32.81 -42.68,45.3 -69.31,59.11 -60.05,31.24 -110.92,32.05 -185.24,105.34 -11.05,-44.55 -5.71,-96.53 8.11,-169.03 8.03,-42.35 -21.7,-72.31 -37.43,-122.91z"/>
   <path class="fil3" d="M3635.02 2686.16c-207.5,-159.15 -418.83,-73.8 -581.25,125.21 -6.57,8.07 -2.98,13.34 -9.46,21.82 168.03,-197.59 395.81,-304.23 592.36,-125.03 55.39,50.57 99.15,38.08 149.06,53.42 -70.43,-55.27 -99.6,-36.22 -150.71,-75.42z"/>
   <path class="fil3" d="M3787.18 2743.09c-48.47,-15.85 -87.98,73.68 -155.45,25.87 17.77,42.63 16.49,74.1 -0.03,114.35 -0.69,1.64 -23.64,-173.82 -173.29,-214.39 -150.45,-40.78 -289.22,33.21 -405.95,171.47 -5.64,6.69 -2.55,10.77 -8.15,17.82 124.25,-141.32 270.64,-217.43 425.75,-157.83 101.73,39.04 135.82,122.93 152.06,216.35 4.14,23.81 53.67,-54.78 28.37,-121.04 86.87,16.92 129,-50.07 136.69,-52.6z"/>
   <path class="fil3" d="M3054.82 2885.55c47.28,-63.35 157.45,-144.83 241.98,-160.03 73.71,-13.22 140.28,18.1 149.26,111.74 24.69,-13.46 38.02,7.85 65.03,-20.2 5.3,23.22 17.76,38.78 34.42,56.66 2.32,1.95 4.74,4.11 7.34,6.4l23.76 22.86c24.66,-42.97 26.76,-89.06 -22.13,-149.87 26.04,52.18 33.61,93.31 13.68,108.83 -24.76,-5.25 -42.26,-34.38 -54.8,-69.55 -15.59,26.9 -36.87,16.82 -57.07,24.67 -13.93,-91.18 -86.91,-117.28 -160.86,-103.95 -79.37,14.32 -206.74,99.65 -238.33,165.71 0,0 1.16,7.85 -2.28,6.73z"/>
   <path class="fil4" d="M3096.5 2883.76c1.89,1.09 89.42,-27.92 161.13,-28 55.54,-0.08 50.83,46.12 109.84,57.98 18.92,3.81 43.1,4.94 60.84,-3.83 28.48,-14.13 35.14,-46.84 -0.88,-58.65 -24.11,-7.95 -40.16,8.39 -40.57,33.88 -23.63,-3.11 -19.02,-65.48 40.04,-55.37 31.96,8.77 42.25,37.01 34.38,61.21 -13.77,12.92 -28.09,25.3 -42.92,37.04 -16.07,3.41 -34.86,1.88 -50.47,-1.35 -52.91,-10.92 -55.83,-48.94 -110.89,-53.24 -49.15,-3.79 -105.19,7.28 -135.74,14.5 -10.58,2.48 11.49,11.32 -12.3,-0.64l-12.46 -3.53z"/>
   <path class="fil3" d="M3079.78 2872.68c52.46,-41.37 109.12,-81.97 182.25,-83.77 36.29,-0.94 88.93,3.56 111.18,68 2.3,6.65 6.05,15.34 11.7,23.67 4.34,6.29 11.32,11.49 15.95,10.13 -19.87,10.68 -27.01,-2.44 -31.48,-13.55 -23.18,-57.27 -54.31,-75.92 -108.13,-75.25 -72.64,0.93 -131.61,37.71 -180.67,82.48l-0.8 -11.71z"/>
   <path class="fil3" d="M3300.83 2882.28c26.68,27.16 26.84,63.77 13.78,84.08 -22.9,35.32 -82.28,32.66 -84.37,-7.93 -5.95,-35.06 50.23,-55.82 57.35,-10.9 3.59,-20.19 -9.82,-36.17 -27.16,-39.94 -39.93,-8.68 -62.43,30.19 -48.25,64.1 19.26,46.14 78.31,42.29 103.38,18.95 27.87,-25.92 30.64,-74.58 -14.73,-108.36z"/>
   <path class="fil3" d="M3047.66 2957.51c-5.71,1.12 -12.08,-4.43 -12.27,-6.68 -5.87,-59.57 24.36,-214.28 82.74,-239.44 -31.57,-20.43 -50.26,-4.21 -67.36,15.29 -20.67,23.56 -31.62,120.06 -35.74,123.31 0,-7.02 15.79,-83.38 11.14,-139.04 -1.92,-22.3 -18.07,-47.93 -35.57,-61.4l0 -13.41c31.08,19.44 50.01,41.63 50.01,73.35 30.64,-21.07 54.21,-31.26 102.95,-3.52 -61.61,33.54 -116.01,192.44 -95.9,251.54z"/>
   <path class="fil3" d="M4617.61 3123.21c-260.11,173.29 -525.02,80.36 -728.51,-136.31 -8.29,-8.8 -3.79,-14.52 -11.92,-23.74 210.64,215.11 492.68,327.84 739.01,132.76 69.45,-55.03 120.02,-27.22 161.31,16.5 -66.13,-19.5 -95.86,-31.92 -159.89,10.79z"/>
   <path class="fil3" d="M4775.05 3111.1c-13.88,-56.3 -32.68,-115.88 -138.53,-83.19 22.2,-42.61 18.76,-46.61 26.63,-91.96 0.16,-1 -29.64,42.33 -90.15,93.31 -44.13,37.23 -104.1,82.01 -183.17,99.17 -158.7,34.47 -334.51,-26.45 -476.64,-149.2 -13.51,-11.67 -26.29,-23.63 -38.84,-35.74 1.23,-1.98 2.51,-3.92 3.75,-5.9 13.16,12.55 26.66,24.91 41.27,36.76 146.71,119.15 317.47,185.26 494.68,130.98 53.71,-16.47 104.51,-51.56 144.33,-89.49 54.58,-52.03 93.92,-106.95 139.34,-105.01 -20.85,49.42 -9.68,52.37 -28.11,91.66 108.78,-16.93 116.24,79.23 105.44,108.61z"/>
   <path class="fil3" d="M4651.13 2938.31c-11.72,-18.23 -49.94,16.04 -70.32,22.9 20.45,-42.63 -12.34,-52.11 -38.23,-58.17 -2.24,-0.5 -22.65,122.59 -194.98,163.36 -149.55,35.3 -315.65,-35.64 -447.99,-165.11 1.19,-2.1 2.32,-4.18 3.49,-6.27 137.66,126.23 300.08,200.9 467.81,145.01 117.16,-39.03 152.6,-117.07 168.29,-162.27 23.9,2.32 70.53,26.54 53.67,65.8 38.56,-32.45 81.85,-34.77 95.34,-30.03l-37.08 24.78z"/>
   <path class="fil3" d="M3924.81 2854.48c48.66,22.03 123.34,37.24 176.08,27.62 69.97,-12.74 114.96,-64.61 101.93,-116.83 18.08,0.25 64.57,8.25 57.88,71.55 -3.95,-25.35 -19.41,-55.44 -42.78,-55 12.16,45.49 -37.15,97.29 -120.81,110.91 -52.5,8.52 -124.72,-5.17 -173.27,-29.88 -1.24,-0.49 -2.09,-1.08 -2.7,-1.66 1.12,-2.26 2.32,-4.5 3.44,-6.79 0.09,0 0.17,0.05 0.23,0.08z"/>
   <path class="fil3" d="M3961.66 2948.42c25.39,15.49 63.64,37.02 93.66,47.14 75.82,25.47 175.02,7.67 215.45,0.09 16.08,-3.01 36.41,12.99 43.93,27.94 15.6,-2.87 40.28,-45.84 -1.23,-85.91 -12.52,3.27 -18.37,3.48 -19.26,5.77 8.98,3.34 16.25,6.27 22.15,12.68 14.02,15.21 13.42,36.1 -3.04,40.68 -26.97,-30.52 -61.74,-16.39 -95.9,-6.83 -44.33,12.49 -109.41,13.58 -161.11,-1.44 -32.18,-9.31 -66.6,-30.74 -95.56,-45.46 -5.2,3.35 -0.81,4.29 0.91,5.34z"/>
   <path class="fil3" d="M4312.63 2940.73c39.46,-9.64 51.99,-59.98 73.5,-72.82 -49,-47.43 -150.07,64.13 -244.63,67.92 -67.2,2.73 -148.2,-15.97 -227.64,-60.6 -1.54,2.87 -3.05,5.76 -4.61,8.59 128.41,75.07 282.75,86.08 402.69,5.77 14.53,-9.72 29.18,-18.1 45.56,-16.91 -25.13,27.26 -17.7,42.11 -65.01,70.33l20.14 -2.28z"/>
   <path class="fil3" d="M4223 2870.38c27.1,-18.9 33.67,-29.27 94.81,1.61l17.46 -11.71c-57.31,-28.17 -75.1,-33.1 -112.27,10.1z"/>
   <path class="fil3" d="M4514 2896c72.29,-44.94 290.99,38.9 441.93,-18.53 -64.29,115.65 -149.34,137.36 -295.6,84.31 -1.94,-0.72 5.74,-23.22 3.77,-24 -3.07,-1.11 -17.3,18.78 -20.5,17.69 -8.17,-2.66 9.32,-22.43 0.17,-26.36 -3.65,-1.6 -33.63,13.06 -37.47,11.34 -5.6,-2.51 -11.35,-5.16 -17.15,-7.94 -1.26,-1.91 10.83,-11.43 -40,-44.8 -4.89,-3.18 -7.15,22.43 -12.53,19.73 -7.4,-3.7 -14.96,-7.49 -22.62,-11.44zm75.3 13.47c50.04,-22.79 218.69,26.08 323.23,-3.01 -46.14,71.47 -135.69,56.79 -323.23,3.01z"/>
   <path class="fil3" d="M4253.75 2824.02c52.27,-38.5 210.53,33.29 319.74,-15.85 -48.22,120.85 -123.88,106.76 -319.74,15.85zm52.6 12.08c36.21,-19.51 160.1,21.83 235.74,-3.13 -33.38,61.24 -100.02,49.18 -235.74,3.13z"/>
   <path class="fil3" d="M3830.91 3006.96c-7.81,151 -39.66,255.52 -140.97,409.74 -17.22,26.33 -14.54,41.35 -18.76,85.88 -49.22,3.85 -101.52,-18.71 -95.43,-68.39 -33.29,16.9 -80.4,44.61 -119.22,20.49 1.88,-49.38 28.62,-78.75 64.29,-109.15 -10.44,-2.02 -18.98,-13.78 -27.46,-37.93 14.56,-4.18 49.93,-7.65 85.51,-23.97 53.58,-24.59 114.46,-69.94 144.55,-152.91 4.77,-4.71 9.51,-9.45 14.19,-14.25 -7.23,89.58 -86.24,158.31 -146.57,184.83 -32.03,14.16 -70.1,13.16 -78.53,16.97 6.49,16.09 19.92,21.55 35.48,21.02 -33.32,30.95 -67.16,60.06 -67.61,104.9 40.76,8.01 84.49,-18.16 123.01,-51.35 -36.13,83.76 18.8,86.58 48.81,95.02 -0.83,-31.96 7.63,-69.29 21.46,-89.51 98.32,-143.94 132.77,-255.45 141.16,-370.15 5.48,-7 10.81,-14.09 16.09,-21.24z"/>
   <path class="fil3" d="M3565.36 3383.71c106.43,-55.79 197.16,-144.85 221.07,-320.7 -6.31,7.38 -12.68,14.72 -19.17,21.93 -11.18,147.31 -103.82,229.72 -201.9,298.77z"/>
   <path class="fil3" d="M3961.23 3139.26c-6.94,34.78 10.07,64.09 29.21,73.81 33.43,16.97 75.88,-14.25 58.47,-47.59 -12.05,-30.9 -63.12,-19.95 -47.36,19.38 -12.12,-14.37 -9.71,-33.68 1.34,-45.17 25.32,-26.48 60.1,-6.49 65.48,27.45 7.47,46.3 -37.88,72.1 -67.24,65.76 -32.71,-7.05 -57.5,-44.48 -39.9,-93.64z"/>
   <path class="fil3" d="M3870 2950.35c24.49,25.93 63.96,73.93 84.7,132.27 9.13,25.79 10.83,53.71 9.01,83.18 -1.96,32.39 -9.19,60.66 -15.35,92.01 -4.36,22.14 -4.19,46.81 19.17,59.32 -26.13,-4.76 -31.78,-21.81 -32.07,-39.62 -0.64,-32.68 3.93,-66.64 5.43,-99.39 1.35,-29.61 1.6,-57.63 -2.72,-78.59 -13.61,-65.85 -39,-105.44 -70.31,-145.87 0.7,-1.1 1.42,-2.23 2.14,-3.31z"/>
   <path class="fil3" d="M3843.26 2989.94c8.98,16.74 18.27,38.69 20.17,59.93 2.7,30.08 -11.82,93.9 -27.98,117.09 -6.78,9.76 -0.9,-17.77 -1.02,-18.79 1.58,-4.72 3.04,-9.29 4.39,-13.82 17.28,-57.85 16.78,-104.27 2.63,-141.92l1.81 -2.49z"/>
   <path class="fil3" d="M3812.56 3168.25c19.81,16.27 32.33,23.2 52.86,18.69 -13.25,6.34 -26.87,18.95 -33.22,46.59 12.79,3.06 47.08,16.19 62.02,3.51 -1.99,27.92 8.21,57.22 24.06,75.83 15.84,18.64 36.24,29.7 51.93,27.03 -2.34,-1.03 -3.59,-9.85 -6.31,-10.04 -31.41,-2.31 -40.95,-15.21 -48.33,-39.89 -6.87,-22.91 -1.09,-57.13 7.63,-97.77 -25.9,38.85 -52.51,34.48 -67.74,26.12 8.93,-30.22 24.33,-27.71 38.94,-59.42 -20.24,2.51 -39.74,23.59 -60.68,7.51 7.28,-12.82 15.95,-40.67 10.83,-53.48 -10.66,36.67 -22.06,49.19 -31.99,55.32z"/>
   <path class="fil3" d="M3880.38 3029.11c15.91,36.19 30.53,88.41 12.21,133.02 -4.05,9.72 -22.78,32.41 -22.93,31.4 1.6,-4.64 4.67,-23.59 7.78,-28.12 20.83,-30.31 16.33,-91.57 0.06,-137.29l2.88 0.99z"/>
   <path class="fil3" d="M3948.49 3043.16c23.99,21.58 58.2,49.76 59.67,88.65 0.37,8.53 -11.63,37.13 -12.07,36.4 -0.39,-3.96 -4.52,-18.95 -3.75,-23.32 5.16,-29.23 -18.87,-73 -46.32,-101.49l2.47 -0.24z"/>
   <path class="fil3" d="M3912.59 3247.48c-51.5,-52.13 -90.85,51.46 -152.34,25.41 39.41,91.43 118.96,48.33 152.34,-25.41zm-20.03 7.53c-23.53,-17.9 -78.65,46.05 -115.14,32.16 52.42,44.3 99.42,4.99 115.14,-32.16z"/>
   <path class="fil3" d="M3963.18 2790.55c-1.45,4.21 44.38,1.4 40.08,43.63 -4.32,42.18 30.07,54.84 30.07,54.84l-67.31 -15.46 -42.97 -16.18c5.77,-11.3 11.32,-22.79 16.62,-34.39 12.01,-17.32 24.23,-34.63 23.51,-32.44z"/>
   <path class="fil3" d="M3038.47 2912.28c1.09,1.08 3.73,8.86 4.54,7.21 34.32,-72.16 102.29,-21.33 78.53,22.75 -12.87,23.96 -52.9,23.7 -56.19,-1.79 -3.86,-22.75 31.84,-33.11 36.49,-4.03 2.3,-13.07 -6.39,-23.43 -17.62,-25.88 -25.87,-5.61 -40.39,19.58 -31.25,41.55 12.5,29.92 56.58,29.52 73.24,10.25 33.73,-39.09 10.2,-87.5 -38.95,-89.35 -40.7,-1.51 -46.38,41.1 -48.79,39.29z"/>
   <path class="fil3" d="M3158.84 3021.6c-17.68,-8.25 -34.5,8.23 -10.25,12.96 38.43,7.49 64.65,-30.62 46.99,-59.86 -11.88,-19.69 -46.71,-21.58 -52.8,6.24 -3.88,22.72 34.69,29.18 39.31,0.09 2.32,13.02 -5.23,25.07 -22.71,28.06 -26.08,4.48 -42.63,-20.7 -33.5,-42.61 12.51,-29.9 56.61,-29.51 73.21,-10.25 33.76,39.06 12.15,89.85 -40.46,88.87 -82.46,-1.63 -19.93,-55.65 0.21,-23.5z"/>
   <path class="fil3" d="M2989.47 2949.03c79.12,0 143.28,41.42 143.28,92.49 0,3.58 -0.31,7.1 -0.89,10.52 -6.15,1.28 -12.36,2.53 -18.59,3.64 0.62,-3.02 0.94,-6.15 0.94,-9.29 0,-43.18 -59.62,-84.05 -124.11,-84.05 -64.45,0 -124.72,40.22 -124.72,83.38 0,3.43 0.36,6.84 1.08,10.18 -6.49,-1.19 -12.94,-2.46 -19.39,-3.84 -0.61,-3.42 -0.95,-6.96 -0.95,-10.54 0,-51.07 64.19,-92.49 143.35,-92.49z"/>
   <path class="fil4" d="M2863.76 1086.18c-2.21,-32.79 -40,-88.56 -81.2,-92.99 -15.87,-12.65 -83.32,-0.6 -103.71,18.06 -34.26,26.49 -54.77,90.15 -72.26,143.72 -19.19,58.73 -44.44,130.2 -89.25,190.16 -51.04,39.31 -85.9,-28.67 -106.94,58.22 -4.77,11.55 -1.73,32.72 -8.66,36.76 -6.98,4 -23.95,-9.03 -42.23,-7.37 -48.23,-16 -57.45,17.83 -65.29,30.51 -5.3,8.56 1.54,25.25 -7.82,30.68 -20.77,11.95 -56.64,8.55 -77.68,7.59 -20.11,-0.97 -68.28,3.72 -90.49,45.02 -11.83,22.02 -13.84,48.53 -6.62,70.55 6.4,19.43 51.59,51.99 74.94,58.32 17.04,7.13 -12.61,9.58 -20.26,6.71 -9.67,-3.6 -22.9,-9.78 -33.95,-14.59 -34.29,-14.93 -73.03,4.22 -111.44,1.32 -104.69,5.37 -248.75,14.29 -378.73,61.8 -128.53,47.01 -262.33,133.31 -344.27,298.15 -10.33,20.8 -33.07,75.32 -37.38,136.88 25.21,-40.86 56.23,-68.41 95.91,-94.23 -39.15,34.71 -81.82,101.3 -103.75,153.49 -17.98,42.65 -26.26,112.56 -0.8,162.66 3.89,67.71 -23.79,98.66 -35.71,165.15 0,0.06 12.79,28.99 9.04,67.94 -4.58,47.06 -30.88,106.9 -27.89,123.59 -58.89,-86.12 -65.55,-85.49 -31.97,-184.73 4.86,-14.36 52.7,-63.82 46.05,-179.66 -1.78,-31.35 -3.55,-62.72 -3.73,-94.97l0 -0.09 0 -8.38 0 -0.1c0.18,-49.15 6.33,-90.54 17.92,-130.7 11.56,-40.05 28.36,-78.42 49.88,-121.82 87.5,-175.96 219.44,-268.85 356.92,-319.09 136.05,-49.72 276.19,-57.21 383.62,-62.7 43.99,-2.21 54,-56.77 69.42,-85.43 34.58,-64.32 79.76,-81.79 115.84,-80.04 29.14,1.32 55.62,1.07 71.9,-25.28 9.6,-17.22 18.1,-34.45 48.97,-39.6 24.15,-4.02 49.54,11.81 59.38,-14.39 7.25,-19.24 15.73,-41.82 45.91,-55.69 14.18,-6.53 27.01,-9.67 39.12,-12.64 14.62,-3.58 27.76,-6.81 35.8,-15.94 44.19,-50.33 64.03,-110.93 82.01,-165.92 19.56,-59.92 37.19,-113.76 81.38,-147.87 16.31,-12.6 35.7,-21.18 56.12,-25.41 23.6,-4.84 48.63,-3.83 72,3.73 23.63,7.57 45.55,21.74 62.53,43.01 13.49,16.8 23.77,38.02 29.27,63.89l2.97 21.57c1.94,14.06 -0.72,16.36 -11.73,8.22 -18.47,-13.67 -30.78,-4.3 -45.84,-17.06 -14.08,11.36 -13.67,40.24 -33.09,30.45 -6.27,-3.19 9.29,-13.25 -0.16,-31.33 -18.69,-35.68 -60.11,-30.61 -69.27,-3.73 -14.05,41.29 -18.39,137.21 -29.46,204.76 -6.78,41.16 -12.89,78.47 -19.36,103.31l0 0.1 -0.06 0.1c-26.32,100.23 -98.92,114.59 -152.57,163.09 -30.51,27.51 -17.63,63.15 -24.77,97.49 -5.47,26.32 -47.18,65.9 -111.41,73.12 -4.92,-1.89 52.51,-32.94 74.41,-58.76 16.01,-18.8 18.18,-42.48 17.83,-50.45l0 -0.05c-1.42,-29.29 1.44,-48.38 27.22,-71.69 35.51,-32.01 107.73,-72.76 130.17,-109.5 47.9,-78.31 41.63,-197.04 57.72,-286.37 8.95,-49.66 21.22,-88.43 45.13,-98.85 52.38,-22.89 87.84,41.79 120.37,27.3z"/>
   <path class="fil4" d="M1252.24 2383.55c23.13,52.59 40.92,145.7 29.91,188.59 -10.82,42.12 -27.39,81.66 -45.47,124.57l0.06 0.01 -0.14 0.17 -0.06 0.07c-8.08,19.24 -11.11,40.94 -11.81,62.15 -0.28,8.29 -2.1,20.73 20.39,23.81 0.16,4.9 -20.73,10.29 -21.68,15.07 -3.47,16.96 -12.41,33.02 -16.12,47.09l-2.42 9.08c-6.77,24.45 19.87,25.45 26.36,25.24l97.47 -8.11c1.85,7.25 53.34,15.11 43.48,-19.81 -4.32,-15.32 -20.1,-33.16 -42.56,-24.58 -2.49,-11.72 56.66,-20.73 57.68,38.03 0.19,11.02 34.57,9.78 34.57,-1.86 -6.35,-42.28 -17.84,-53.47 -42.87,-43.22 -1.96,-3.65 9.07,-14.56 7.62,-18.07 -2.99,-6.93 -18.24,-7.15 -20.23,-15.03 44.94,-38.91 -10.81,-45.45 -5.78,-57.63 25,-61.15 46.84,-100.64 88.79,-142.06 19.29,-19.06 43.57,-41.59 59.17,-67.69 11.37,-19.14 19.95,-43.31 28,-96.2 19.56,-60.95 76.49,-242.28 142.26,-263.34 -7.95,9.3 -17.98,25.2 -28.05,43.9 -4.78,8.96 -9.6,18.54 -14.26,28.41 -19.97,42.54 -36.01,89.42 -30.36,106.52 4.15,12.76 11.26,30.67 9.61,42.58 -0.61,4.63 10.43,19.23 6.64,16.28 -28.13,-21.49 -60.11,18.82 -59.82,40.66 -6.28,92.92 -13.3,67.89 -102.65,162.25 -19.7,20.79 -29.15,44.89 -42.3,67.96 -13.52,23.7 -18.03,58.34 -14.24,89.65 0.81,6.69 1.97,13.03 3.42,18.96 1.47,5.77 3.27,11.28 5.43,16.4 1.22,2.82 2.35,5.2 3.44,7.24l3.67 6.67 0 -0.01c10.96,20.01 18.81,34.5 19.33,48.19 1,26.16 -15.19,37.37 -61.55,39.05l-150.05 5.35c-37.87,1.36 -50.04,-6.35 -50.93,-30.44 -0.28,-8.18 1.89,-16.09 4.82,-26.71 1.37,-4.97 1.91,-6.7 2.43,-8.61 3.26,-12.42 13.19,-30.18 12.61,-49.46 -1.66,-53.85 13.25,-98.22 30.72,-142.79 25.38,-65.2 50.88,-120.91 25.47,-258.33z"/>
   <path class="fil4" d="M1669.09 2489.52c16.51,56.64 44.39,136.5 22.69,178.01 -11.64,23.62 -32.07,31.23 -23.5,58.96l0.05 -0.01c8.69,17.88 63.13,92.96 39.26,107.83l0.02 0.01c-3.69,2.31 -7.83,3.51 -12.55,3.62 -73.21,1.35 -314.31,54.44 -195.84,-90.03 31.02,-49.67 -16.29,-100.54 -48.61,-135.55l23.13 -25.02c29.26,42.13 75.32,104.23 51.13,157.69 -2.04,4.51 15.24,5.71 12.18,10.62 -1.29,2.08 -22.47,7.83 -23.75,10.21 -44.23,80.99 71.55,55.78 118.39,55.49 -16.24,-15.31 -14.62,-30.67 0.19,-46.04 -7.78,37.54 29.52,52.57 65.26,47.27 13.74,-33.13 -56.26,-56.75 -66.57,-78.77 0,-0.01 4.83,-36.02 1.73,-36.91 -61.96,-18.18 5.35,-15.84 13.98,-19.5 69.3,-29.49 6.1,-164.94 -19.73,-204.62l3.95 -2.56c12.2,4.04 25.52,10.84 38.59,9.3z"/>
   <path class="fil4" d="M1556.84 2463.87c61.89,14.17 152.03,31.56 225.85,1.25 74.55,-30.58 111.57,-56.28 208.57,-125.75 2.34,-1.66 29.04,-26.65 31.43,-28.41l13.58 26.6c-109.54,76.58 -164.33,108.04 -243.88,140.65 -82.11,33.72 -177.17,27.94 -248.19,11.66l12.64 -26z"/>
   <path class="fil3" d="M1603.9 2295.33c17.64,179.86 201.79,114.54 338.79,47.9 -75.07,66.17 -289.09,139.11 -362.61,13.41 0,0 25.39,-62.84 23.82,-61.31z"/>
   <path class="fil4" d="M1513.49 1835.28c110.55,-55.97 217.43,-91.39 340.82,-137.53 -97.27,14.25 -244.89,61.15 -356.27,130.67 -78.68,49.12 -161.52,140.1 -193.56,227.32 53.4,-52.24 94.91,-162.76 209.01,-220.46z"/>
   <path class="fil4" d="M2249.74 1939.17c0.27,13.96 35.92,140.86 35.97,154.56 0.26,132.81 -11.13,255.95 -46.08,380.7 -3.2,11.46 -15.52,55.5 -23.72,98.36 -11.6,60.54 -12.17,107.19 0.25,135.68 30.02,23.53 48.72,40.58 51.05,61.25 2.53,22.74 4.89,32.87 -8.57,38.17 -0.63,-1.1 -1.29,-2.22 -1.9,-3.26l-225.7 0c1.85,4.21 3.77,8.45 5.67,12.7 -13.76,-1.27 -23.06,-4.32 -24.93,-10.97 -0.09,-0.16 -8.38,-33.2 10.26,-64.54 16.84,-51.54 18.35,-115.69 11.01,-190.04 -5.69,-57.86 -6.53,-133.02 2.42,-179.27 -15.92,-10.33 -38.73,-67.11 -15.17,-172.33 11.28,-50.35 -0.36,-100.27 1.83,-119.69 16.21,38.05 22.23,106.16 13.23,168.07 -4.7,32.25 -4.89,54.31 8.45,86.34 25.31,37.01 66.01,10.07 62.51,-52.94 23.22,87.59 -35.19,94.82 -53.01,96.39 -8.88,45.82 -3.11,188.2 4.49,247.78 1.35,16.11 3.94,30.54 5.14,44.94 1.97,23.85 25.42,32.48 25.17,36.11 -0.45,6.5 -25.73,3.84 -27.46,10.87 -11.22,10.89 -13.83,22.71 -20.64,35.95 -10.17,17.18 -2.16,33.97 4.99,41.37 12.23,12.61 88.32,5.27 105.69,2.46 71.85,-1.61 45.56,-52.55 24.2,-69.02 17.5,4.73 60.12,32.69 32.2,64.9 32.49,8.07 41.04,2.51 45.18,-8.56 -11.54,-61.56 -49.37,-44.29 -59.64,-57.12 -6.52,-8.23 -9.37,-26.04 -9.62,-49.24 -0.25,-24.56 -21.71,-29.17 -15.56,-31.84 17.12,-7.53 18.35,-20.82 19.09,-27.47 3.93,-35.92 10.87,-75.4 18.87,-110.37 3.55,-15.82 7.33,-30.76 11.04,-44.02 3.77,-13.56 7.49,-25.35 10.98,-34.44l0.07 -0.25 0.03 -0.07c21.93,-58.35 37.51,-255.91 29.48,-336.82l-7.27 -154.34zm-22.21 491.16l0.05 0 -0.05 0z"/>
   <path class="fil4" d="M2332.96 1955.66c68.34,99.4 132.72,212.12 217.74,293.05 42.03,40.09 105.6,99.21 114.15,137.07l0 0.16 0.09 0.1c4.06,18.15 3.49,45.26 2.86,72.78 -0.74,32.59 -1.5,63.99 0.54,73.81l4.14 0.37 0.06 0.14c2.96,4.1 5.61,8.35 7.82,12.67 2.23,4.26 4.14,8.56 5.76,12.79 25.95,67.67 -19.38,59.17 -59.53,61.13 -22.6,1.13 -50.43,2.87 -72.79,2.87 -44.18,0 -81.55,2.37 -84.55,-15.37l-0.04 -0.18 -1.9 -4.71c-7.28,-35.69 14.36,-51.7 26.16,-71.09 4.73,-22.14 -2.76,-63.53 -10.8,-72.69l-0.12 -0.08 0 -0.02 0 0c-1.2,-1.4 0.26,-9.35 -2.94,-12.38 -32.47,-30.68 -72.66,-69.39 -108.13,-99.05 -16.11,-13.4 -41.12,-34.07 -56.11,-36.98 -14.75,-2.83 -31.38,-4.26 -52.01,3.72l-13.28 -14.6c28.42,-10.95 52.4,-13.91 75.2,-9.52 22.64,4.36 42.98,15.76 64.44,33.67 30.49,25.47 62.02,65.37 88.66,89.15 5.04,4.43 20.19,12.41 24.31,16.38 4.11,3.77 9.25,0.44 11.35,2.93l0.16 0.05 0 0.07 0 0c8.83,10.17 -5.05,35.39 -3.39,56.15 2.02,24.64 -3.79,25.5 11.15,54.44 -19.48,9.44 -38.46,19.67 -32.89,47.08 7.04,34.87 93.52,17.48 113.6,17.48 30.46,11.26 4.99,-22.11 20.03,-31.91 9.91,42.79 36.01,23.32 43.92,22.71 27.2,-13.39 1.65,-54.2 -39.41,-60.6 25.88,-21.46 15.02,-41.3 -0.98,-49.07 25.74,-3.92 25.74,-89.09 1.99,-118.94 -41.61,-52.41 -62,-77.45 -98.14,-111.89 -11.9,-11.33 -47.62,-59 -61.69,-61.91 -23.42,-4.87 -24.96,45.37 -30.52,16.06 -4.52,-23.71 5.78,-36.88 -3.19,-60.26 -22.94,-59.7 -74.98,-127.27 -106.14,-172.86l4.42 -22.72z"/>
   <path class="fil3" d="M2404.99 1885.33c0,0 -63.05,23.43 -69.7,77.86 -6.66,54.44 -62.22,144.97 -62.22,144.97 -17.02,-73.69 48.66,-97.12 44.97,-146.86 -1.68,-23.26 15.78,-50.09 27.75,-61.01l59.2 -14.96z"/>
   <path class="fil3" d="M2256.29 1767.31c-5.71,35.16 -32.88,70.8 -20.87,103.14 32.61,88.09 6.59,100.64 13.96,149.66 10.09,67.38 12.19,98.09 -45.26,53.14 -31.09,-24.31 -43.26,-70.35 -116.52,-81.94 -138.2,-21.72 -149.01,-76.61 -148.68,-76.88l24.25 -20.73c0.33,11.96 6,-7.56 9.26,1.1 12.23,32.81 42.68,45.3 69.3,59.11 60.08,31.24 110.93,32.05 185.23,105.34 11.08,-44.55 5.76,-96.53 -8.07,-169.03 -8.03,-42.35 21.68,-72.31 37.4,-122.91z"/>
   <path class="fil3" d="M2346.2 2686.16c207.46,-159.15 418.85,-73.8 581.21,125.21 6.59,8.07 2.99,13.34 9.47,21.82 -168.05,-197.59 -395.83,-304.23 -592.31,-125.03 -55.41,50.57 -99.16,38.08 -149.1,53.42 70.43,-55.27 99.59,-36.22 150.73,-75.42z"/>
   <path class="fil3" d="M2194.01 2743.09c48.45,-15.85 87.98,73.68 155.45,25.87 -17.75,42.63 -16.5,74.1 0.04,114.35 0.68,1.64 23.68,-173.82 173.3,-214.39 150.43,-40.78 289.19,33.21 405.92,171.47 5.71,6.69 2.58,10.77 8.16,17.82 -124.26,-141.32 -270.61,-217.43 -425.76,-157.83 -101.69,39.04 -135.77,122.93 -152.03,216.35 -4.17,23.81 -53.67,-54.78 -28.41,-121.04 -86.84,16.92 -128.92,-50.07 -136.67,-52.6z"/>
   <path class="fil3" d="M2926.37 2885.55c-47.3,-63.35 -157.43,-144.83 -241.98,-160.03 -73.72,-13.22 -140.28,18.1 -149.22,111.74 -24.74,-13.46 -38.07,7.85 -65.07,-20.2 -4.58,20.19 -14.6,34.51 -28.05,49.7 -4.75,3.6 -10.02,8.05 -15.98,13.36l-22.27 21.45c-23.94,-42.63 -25.44,-88.31 22.96,-148.46 -26.09,52.18 -33.74,93.31 -13.76,108.83 24.77,-5.25 42.31,-34.38 54.84,-69.55 15.59,26.9 36.89,16.82 57.09,24.67 13.93,-91.18 86.85,-117.28 160.89,-103.95 79.31,14.32 206.73,99.65 238.26,165.71 0,0 -1.15,7.85 2.29,6.73z"/>
   <path class="fil4" d="M2884.72 2883.76c-1.89,1.09 -89.41,-27.92 -161.16,-28 -55.56,-0.08 -50.81,46.12 -109.82,57.98 -18.95,3.81 -43.1,4.94 -60.82,-3.83 -28.52,-14.13 -35.11,-46.84 0.82,-58.65 24.15,-7.95 40.16,8.39 40.61,33.88 23.6,-3.11 19.02,-65.48 -40.06,-55.37 -33.34,9.12 -43.12,39.59 -33.24,64.44 12.44,11.5 25.28,22.52 38.52,33.08 16.76,4.34 37.11,2.8 53.75,-0.62 52.89,-10.92 55.83,-48.94 110.87,-53.24 49.18,-3.79 105.21,7.28 135.73,14.5 10.59,2.48 -11.47,11.32 12.31,-0.64l12.49 -3.53z"/>
   <path class="fil3" d="M2901.4 2872.68c-52.43,-41.37 -109.11,-81.97 -182.21,-83.77 -36.29,-0.94 -88.91,3.56 -111.16,68 -2.34,6.65 -6.08,15.34 -11.78,23.67 -4.31,6.29 -11.27,11.49 -15.92,10.13 19.87,10.68 27.02,-2.44 31.48,-13.55 23.23,-57.27 54.33,-75.92 108.13,-75.25 72.63,0.93 131.64,37.71 180.67,82.48l0.79 -11.71z"/>
   <path class="fil3" d="M2680.35 2882.28c-26.66,27.16 -26.85,63.77 -13.73,84.08 22.82,35.32 82.24,32.66 84.32,-7.93 5.97,-35.06 -50.17,-55.82 -57.34,-10.9 -3.56,-20.19 9.85,-36.17 27.17,-39.94 39.98,-8.68 62.4,30.19 48.27,64.1 -19.3,46.14 -78.34,42.29 -103.38,18.95 -27.91,-25.92 -30.64,-74.58 14.69,-108.36z"/>
   <path class="fil3" d="M2933.55 2957.51c5.66,1.12 12.06,-4.43 12.31,-6.68 5.81,-59.57 -24.38,-214.28 -82.8,-239.44 31.57,-20.43 50.29,-4.21 67.4,15.29 20.64,23.56 31.61,120.06 35.72,123.31 0,-7.02 -15.83,-83.38 -11.12,-139.04 1.88,-22.3 18.07,-47.93 35.54,-61.4l0 -13.41c-31.03,19.44 -49.99,41.63 -49.99,73.35 -30.65,-21.07 -54.2,-31.26 -102.95,-3.52 61.6,33.54 115.97,192.44 95.89,251.54z"/>
   <path class="fil3" d="M1363.62 3123.21c260.07,173.29 524.98,80.36 728.47,-136.31 8.28,-8.8 3.79,-14.52 11.92,-23.74 -210.66,215.11 -492.7,327.84 -739.02,132.76 -69.44,-55.03 -119.98,-27.22 -161.28,16.5 66.11,-19.5 95.84,-31.92 159.91,10.79z"/>
   <path class="fil3" d="M1206.16 3111.1c13.89,-56.3 32.67,-115.88 138.55,-83.19 -22.23,-42.61 -18.79,-46.61 -26.65,-91.96 -0.18,-1 29.62,42.33 90.15,93.31 44.13,37.23 104.09,82.01 183.15,99.17 158.71,34.47 334.49,-26.45 476.67,-149.2 12.96,-11.25 25.34,-22.75 37.39,-34.39 -1.23,-1.97 -2.53,-3.93 -3.73,-5.91 -12.74,12.08 -25.79,24.03 -39.87,35.42 -146.67,119.15 -317.49,185.26 -494.63,130.98 -53.76,-16.47 -104.52,-51.56 -144.34,-89.49 -54.64,-52.03 -93.95,-106.95 -139.35,-105.01 20.88,49.42 9.72,52.37 28.08,91.66 -108.78,-16.93 -116.21,79.23 -105.42,108.61z"/>
   <path class="fil3" d="M1330.09 2938.31c11.75,-18.23 49.91,16.04 70.29,22.9 -20.45,-42.63 12.41,-52.11 38.25,-58.17 2.23,-0.5 22.65,122.59 194.98,163.36 148.99,35.18 314.41,-35.1 446.5,-163.67 -1.19,-2.1 -2.39,-4.17 -3.52,-6.28 -137.38,125.34 -299.2,199.28 -466.32,143.58 -117.17,-39.03 -152.54,-117.07 -168.28,-162.27 -23.91,2.32 -70.56,26.54 -53.67,65.8 -38.56,-32.45 -81.83,-34.77 -95.28,-30.03l37.05 24.78z"/>
   <path class="fil3" d="M2054.7 2855.2c-48.66,21.63 -122.26,36.43 -174.37,26.9 -70,-12.74 -115.01,-64.61 -101.96,-116.83 -18.1,0.25 -64.57,8.25 -57.89,71.55 3.96,-25.35 19.42,-55.44 42.79,-55 -12.11,45.49 37.17,97.29 120.81,110.91 52.52,8.52 124.74,-5.17 173.28,-29.88 0.35,-0.14 0.72,-0.33 1.04,-0.47 -1.24,-2.4 -2.48,-4.75 -3.7,-7.18z"/>
   <path class="fil3" d="M2019.55 2948.42c-25.41,15.49 -63.62,37.02 -93.7,47.14 -75.8,25.47 -175,7.67 -215.4,0.09 -16.08,-3.01 -36.44,12.99 -43.94,27.94 -15.64,-2.87 -40.28,-45.84 1.2,-85.91 12.53,3.27 18.39,3.48 19.27,5.77 -8.98,3.34 -16.2,6.27 -22.15,12.68 -14.02,15.21 -13.41,36.1 3.06,40.68 26.95,-30.52 61.76,-16.39 95.91,-6.83 44.34,12.49 109.38,13.58 161.11,-1.44 32.19,-9.31 66.59,-30.74 95.59,-45.46 5.21,3.35 0.75,4.29 -0.95,5.34z"/>
   <path class="fil3" d="M1668.6 2940.73c-39.51,-9.64 -52.03,-59.98 -73.51,-72.82 48.99,-47.43 150.06,64.13 244.61,67.92 66.64,2.69 146.94,-15.71 225.84,-59.63 1.57,2.91 3.08,5.76 4.65,8.59 -128.03,74.2 -281.54,84.76 -400.93,4.8 -14.53,-9.72 -29.18,-18.1 -45.57,-16.91 25.11,27.26 17.73,42.11 65.02,70.33l-20.11 -2.28z"/>
   <path class="fil3" d="M1758.2 2870.38c-27.11,-18.9 -33.68,-29.27 -94.82,1.61l-17.41 -11.71c57.29,-28.17 75.04,-33.1 112.23,10.1z"/>
   <path class="fil3" d="M1727.47 2824.02c-52.27,-38.5 -210.53,33.29 -319.78,-15.85 48.23,120.85 123.89,106.76 319.78,15.85zm-52.61 12.08c-36.22,-19.51 -160.12,21.83 -235.78,-3.13 33.41,61.24 100.04,49.18 235.78,3.13z"/>
   <path class="fil3" d="M2150.45 3010.29c8.15,149.26 40.25,253.32 140.76,406.41 17.28,26.33 14.61,41.35 18.8,85.88 49.22,3.85 101.54,-18.71 95.46,-68.39 33.29,16.9 80.37,44.61 119.22,20.49 -1.89,-49.38 -28.65,-78.75 -64.29,-109.15 10.42,-2.02 18.95,-13.78 27.41,-37.93 -14.51,-4.18 -49.9,-7.65 -85.47,-23.97 -52.82,-24.2 -112.76,-68.68 -143.28,-149.4 -5.09,-5.01 -10.21,-10.09 -15.23,-15.16 8.47,88.3 86.6,155.94 146.3,182.23 32.06,14.16 70.12,13.16 78.55,16.97 -6.5,16.09 -19.94,21.55 -35.42,21.02 33.29,30.95 67.1,60.06 67.55,104.9 -40.73,8.01 -84.48,-18.16 -123.02,-51.35 36.12,83.76 -18.79,86.58 -48.8,95.02 0.83,-31.96 -7.66,-69.29 -21.44,-89.51 -97.43,-142.61 -132.14,-253.38 -140.96,-366.93 -5.43,-6.99 -10.84,-14.02 -16.14,-21.13z"/>
   <path class="fil3" d="M2415.85 3383.71c-105.79,-55.5 -196.16,-143.75 -220.65,-317.56 6.23,7.29 12.56,14.49 18.96,21.58 12.16,145.54 104.22,227.36 201.69,295.98z"/>
   <path class="fil3" d="M2019.97 3139.26c6.95,34.78 -10.04,64.09 -29.19,73.81 -33.43,16.97 -75.89,-14.25 -58.5,-47.59 12.07,-30.9 63.15,-19.95 47.4,19.38 12.08,-14.37 9.7,-33.68 -1.32,-45.17 -25.38,-26.48 -60.16,-6.49 -65.56,27.45 -7.44,46.3 37.89,72.1 67.26,65.76 32.69,-7.05 57.54,-44.48 39.91,-93.64z"/>
   <path class="fil3" d="M2109.82 2951.77c-24.57,26.3 -62.94,73.56 -83.31,130.85 -9.16,25.79 -10.84,53.71 -9,83.18 1.95,32.39 9.23,60.66 15.32,92.01 4.39,22.14 4.23,46.81 -19.18,59.32 26.15,-4.76 31.78,-21.81 32.13,-39.62 0.59,-32.68 -3.96,-66.64 -5.46,-99.39 -1.37,-29.61 -1.62,-57.63 2.74,-78.59 13.39,-65 38.32,-104.38 69.04,-144.25 -0.75,-1.16 -1.5,-2.32 -2.28,-3.51z"/>
   <path class="fil3" d="M2136.99 2991.78c-8.66,16.49 -17.45,37.61 -19.24,58.09 -2.69,30.08 11.86,93.9 27.98,117.09 6.81,9.76 0.86,-17.77 1.01,-18.79 -1.54,-4.72 -2.99,-9.29 -4.37,-13.82 -16.97,-56.77 -16.75,-102.52 -3.44,-139.76l-1.94 -2.81z"/>
   <path class="fil3" d="M2168.64 3168.25c-19.81,16.27 -32.35,23.2 -52.86,18.69 13.26,6.34 26.91,18.95 33.21,46.59 -12.77,3.06 -47.08,16.19 -62.04,3.51 2.04,27.92 -8.17,57.22 -24.03,75.83 -15.89,18.64 -36.18,29.7 -51.9,27.03 2.35,-1.03 3.6,-9.85 6.24,-10.04 31.45,-2.31 41.03,-15.21 48.41,-39.89 6.87,-22.91 1.04,-57.13 -7.65,-97.77 25.87,38.85 52.49,34.48 67.74,26.12 -8.93,-30.22 -24.33,-27.71 -38.97,-59.42 20.24,2.51 39.75,23.59 60.7,7.51 -7.28,-12.82 -15.97,-40.67 -10.85,-53.48 10.66,36.67 22.06,49.19 32,55.32z"/>
   <path class="fil3" d="M2100.83 3029.11c-15.95,36.19 -30.55,88.41 -12.23,133.02 4,9.72 22.76,32.41 22.91,31.4 -1.58,-4.64 -4.62,-23.59 -7.75,-28.12 -20.84,-30.31 -16.28,-91.57 -0.06,-137.29l-2.87 0.99z"/>
   <path class="fil3" d="M2032.71 3043.16c-24.01,21.58 -58.23,49.76 -59.72,88.65 -0.3,8.53 11.67,37.13 12.12,36.4 0.4,-3.96 4.54,-18.95 3.76,-23.32 -5.2,-29.23 18.85,-73 46.3,-101.49l-2.46 -0.24z"/>
   <path class="fil3" d="M2068.62 3247.48c51.46,-52.13 90.85,51.46 152.31,25.41 -39.37,91.43 -118.95,48.33 -152.31,-25.41zm20.02 7.53c23.59,-17.9 78.64,46.05 115.19,32.16 -52.49,44.3 -99.47,4.99 -115.19,-32.16z"/>
   <path class="fil3" d="M2018.01 2790.55c1.45,4.21 -44.35,1.4 -40.03,43.63 4.31,42.18 -30.05,54.84 -30.05,54.84l67.23 -15.46 41.03 -15.43c-7.36,-14.6 -14.37,-29.38 -21.08,-44.37 -9.57,-13.67 -17.68,-24.98 -17.1,-23.21z"/>
   <path class="fil3" d="M2942.76 2912.28c-1.1,1.08 -3.78,8.86 -4.53,7.21 -34.39,-72.16 -102.34,-21.33 -78.58,22.75 12.92,23.96 52.9,23.7 56.22,-1.79 3.85,-22.75 -31.85,-33.11 -36.5,-4.03 -2.31,-13.07 6.38,-23.43 17.61,-25.88 25.86,-5.61 40.41,19.58 31.25,41.55 -12.5,29.92 -56.56,29.52 -73.22,10.25 -33.74,-39.09 -10.2,-87.5 38.92,-89.35 40.72,-1.51 46.37,41.1 48.83,39.29z"/>
   <path class="fil3" d="M2822.37 3021.6c17.69,-8.25 34.48,8.23 10.23,12.96 -38.4,7.49 -64.63,-30.62 -47,-59.86 11.89,-19.69 46.73,-21.58 52.83,6.24 3.9,22.72 -34.72,29.18 -39.33,0.09 -2.33,13.02 5.24,25.07 22.69,28.06 26.09,4.48 42.66,-20.7 33.52,-42.61 -12.51,-29.9 -56.59,-29.51 -73.22,-10.25 -33.7,39.06 -12.13,89.85 40.5,88.87 82.42,-1.63 19.92,-55.65 -0.22,-23.5z"/>
   <path class="fil4" d="M2989.47 3087.4l-0.1 0 0 -0.01c-94.97,0 -185.51,-18.86 -268.07,-53.02 -13.82,-5.68 -27.02,-11.64 -39.69,-17.82l0 -0.06c-66.8,-32.62 -127.59,-75.61 -180.36,-126.77 -15.48,-15.07 -24.82,-23.72 -32.53,-24.34l-0.04 0c-7.69,-0.61 -17.75,6.36 -35.6,22.29l-38.18 36.83 -0.14 0.13 -2.03 1.89c-2.25,2.01 -4.37,3.98 -5.94,5.6 -10.68,10.43 -14.48,20.4 15.82,50.2l0.04 0 0.03 0.07 0 0.02c21.1,20.75 43.28,40.39 66.53,58.84 23.2,18.45 47.44,35.69 72.61,51.66 129.33,81.94 282.94,129.45 447.65,129.45l0 -0.01 0.09 0 0 0.01c114.36,0 223.37,-22.91 322.63,-64.4 16.29,-6.78 32.25,-14.04 47.69,-21.65 80.31,-39.69 153.28,-91.9 216.38,-153.98 30.28,-29.81 26.56,-39.78 15.87,-50.21l-0.03 0c-2.26,-2.29 -4.04,-3.89 -5.89,-5.6l-2.04 -1.89 -0.16 -0.13 -38.18 -36.83c-17.83,-15.93 -27.89,-22.9 -35.61,-22.29l-0.07 0c-7.65,0.62 -16.99,9.27 -32.47,24.27l0.01 0.01 -0.07 0.08 -0.06 0.04c-17.7,17.12 -36.2,33.32 -55.54,48.53 -19.17,15.06 -39.4,29.28 -60.48,42.52 -107.77,67.53 -235.38,106.57 -372.07,106.57zm-0.1 -20.46l0 -0.03 0.1 0c132.66,0 256.44,-37.84 360.9,-103.31 20.14,-12.68 39.79,-26.46 58.71,-41.35 18.79,-14.74 36.79,-30.46 53.82,-47l0 -0.02 0.04 -0.05 0.07 0c18.95,-18.41 30.7,-29.02 45.48,-30.23l0 0c14.83,-1.19 28.83,7.47 51.36,27.61l0.31 0.25 38.25 36.93 0 -0.03 2.09 1.93c2.42,2.23 4.81,4.42 6.38,5.99l-0.07 0.01c19.57,19.19 27.8,36.23 -15.82,79.15 -64.62,63.6 -139.43,117.09 -221.8,157.78 -16.16,7.93 -32.49,15.37 -48.87,22.24 -101.7,42.45 -213.53,65.97 -330.76,65.98l0 0.05 -0.09 0 0 -0.05c-168.92,0 -326.34,-48.69 -458.9,-132.68 -25.78,-16.35 -50.65,-34.02 -74.4,-52.9 -23.78,-18.89 -46.56,-39.03 -68.2,-60.33l0 0 -0.07 -0.07 0 -0.02c-43.61,-42.95 -35.39,-59.96 -15.81,-79.16 2.25,-2.23 4.29,-4.1 6.34,-5.99l2.07 -1.93 0 0.03 38.29 -36.93 0.26 -0.25c22.56,-20.14 36.55,-28.8 51.3,-27.61l0 0c14.89,1.21 26.57,11.82 45.51,30.23 51.17,49.62 110.18,91.31 175.01,123l0.02 0c12.97,6.33 25.77,12.11 38.49,17.4 80.06,33.1 167.88,51.36 259.99,51.36z"/>
   <path class="fil4" d="M2989.47 3440.93l-0.13 0 0 -0.06c-108.45,0 -213.02,-16.28 -311.41,-46.49 -47.97,-14.75 -94.58,-32.86 -139.53,-54.03 -230.68,-108.73 -415.34,-298.26 -516.93,-531.74l-6.22 -14.27 15.79 0 225.7 0 6.14 0 2.97 5.34 0 0c20.05,35.11 42.52,68.63 67.21,100.21 24.75,31.62 51.82,61.49 80.85,89.19 149.36,142.61 352.16,230.29 575.56,230.29l0 -0.02 0.08 0 0 0.02c103.35,-0.02 202.36,-18.81 293.74,-53.18 29.88,-11.23 58.87,-24.03 86.67,-38.33 143.95,-73.82 263.43,-188.38 343.12,-328.25l3.01 -5.27 6.07 0 225.74 0 15.75 0 -6.21 14.27 -0.03 0.11c-22.69,52.08 -49.49,102.01 -79.95,149.23 -30.43,47.18 -64.69,91.86 -102.28,133.62 -193.02,214.33 -473.52,349.3 -785.71,349.3l0 0.06zm-0.13 -20.45l0 -0.07 0.13 0 0 0.07c306.04,0 580.92,-132.33 770.15,-342.46 36.74,-40.76 70.25,-84.59 100.24,-131.05 27.15,-42.1 51.27,-86.22 72.09,-132.11l-203.7 0c-81.57,140.92 -202.85,256.34 -348.66,331.11 -28.87,14.81 -58.56,27.95 -88.85,39.34 -93.62,35.22 -195.12,54.48 -301.19,54.48l0 0.07 -0.08 0 0 -0.07c-229.08,0 -437,-89.87 -590.06,-236.06 -29.78,-28.36 -57.45,-58.9 -82.82,-91.34 -24.19,-30.9 -46.27,-63.5 -65.94,-97.53l-203.68 0c100.83,222.4 278.97,402.72 500.39,507.05 43.87,20.7 89.57,38.42 136.78,52.92 96.5,29.64 199.01,45.65 305.2,45.65z"/>
   <path class="fil3" d="M3960.86 2790.55c-1.42,4.21 44.39,1.4 40.09,43.63 -4.3,42.18 30.07,54.84 30.07,54.84l-67.29 -15.46 -48.65 -18.29c0,0 47.21,-68.98 45.78,-64.72z"/>
   <path class="fil4" d="M2135.6 2889.65l66.33 -40.71 30.73 48.31 -11.25 6.9 -22.35 -35.18 -14.68 9.04 20.78 32.73 -11.15 6.89 -20.8 -32.78 -18.07 11.11 23.13 36.43 -11.15 6.89 -31.52 -49.63zm59.87 46.27l10.25 11.3c-3.64,3.73 -5.59,7.41 -5.86,11.08 -0.33,3.64 0.94,7.36 3.78,11.2 2.98,4.01 6.13,6.45 9.38,7.22 3.27,0.84 6.01,0.39 8.35,-1.24 1.52,-1.08 2.48,-2.44 2.83,-4.03 0.44,-1.64 0.25,-3.78 -0.54,-6.48 -0.57,-1.87 -2.16,-5.86 -4.68,-12.01 -3.28,-7.97 -4.67,-14.18 -4.23,-18.66 0.69,-6.3 3.51,-11.26 8.51,-14.78 3.23,-2.35 6.92,-3.58 11,-3.77 4.15,-0.19 8.2,0.83 12.18,3.15 3.96,2.35 7.71,5.9 11.24,10.65 5.79,7.82 8.37,14.94 7.83,21.37 -0.59,6.44 -3.7,11.83 -9.38,16.2l-9.85 -12.18c2.83,-2.83 4.37,-5.68 4.46,-8.45 0.12,-2.79 -1.13,-5.95 -3.73,-9.44 -2.71,-3.67 -5.56,-6.02 -8.61,-6.96 -1.97,-0.68 -3.75,-0.37 -5.39,0.78 -1.51,1.07 -2.34,2.61 -2.5,4.62 -0.16,2.56 1.25,7.38 4.33,14.55 3.04,7.15 4.83,12.78 5.45,16.82 0.62,4.04 0.16,7.84 -1.35,11.42 -1.51,3.64 -4.24,6.87 -8.25,9.7 -3.61,2.57 -7.72,4.03 -12.36,4.33 -4.61,0.24 -9.04,-0.88 -13.26,-3.37 -4.22,-2.53 -8.32,-6.48 -12.33,-11.88 -5.82,-7.9 -8.42,-15.22 -7.82,-22.06 0.56,-6.87 4.1,-13.27 10.55,-19.08zm39.09 90.89l49.77 -41.06 -14.92 -17.42 10.16 -8.35 39.96 46.76 -10.18 8.33 -14.87 -17.38 -49.77 40.99 -10.15 -11.87zm91.29 -13.37l20.07 20.44c4.52,4.55 7.6,8.4 9.26,11.5 2.2,4.17 3.23,8.57 2.98,13.28 -0.19,4.66 -1.51,9.31 -3.87,13.9 -2.46,4.63 -6.29,9.43 -11.56,14.43 -4.63,4.39 -9.16,7.64 -13.63,9.68 -5.43,2.49 -10.67,3.68 -15.72,3.47 -3.84,-0.08 -7.9,-1.3 -12.25,-3.56 -3.21,-1.69 -6.82,-4.63 -10.87,-8.75l-20.63 -21.01 56.22 -53.38zm1.46 20.21l-37.23 35.36 8.19 8.32c3.05,3.12 5.42,5.2 7.16,6.27 2.24,1.34 4.5,2.1 6.74,2.28 2.26,0.11 5.04,-0.61 8.33,-2.22 3.25,-1.67 7.09,-4.55 11.43,-8.69 4.34,-4.12 7.27,-7.65 8.9,-10.63 1.58,-2.98 2.33,-5.72 2.31,-8.32 -0.04,-2.58 -0.83,-5.18 -2.42,-7.69 -1.19,-1.87 -4,-5.11 -8.5,-9.68l-4.91 -5zm1.88 90.74l10.01 -10.98 11.14 9.88 -10.01 10.95 -11.14 -9.85zm97.32 -19.05l24.64 18.95c4.88,3.74 8.4,6.71 10.45,8.94 2.03,2.26 3.54,4.73 4.42,7.46 0.88,2.73 1.12,5.59 0.71,8.67 -0.43,3.09 -1.66,5.93 -3.76,8.58 -2.25,2.81 -5.09,4.82 -8.54,6 -3.42,1.16 -6.95,1.34 -10.54,0.5 2.9,3.92 4.34,8 4.3,12.08 -0.06,4.15 -1.44,8 -4.25,11.49 -2.18,2.76 -4.93,4.93 -8.35,6.53 -3.34,1.6 -6.76,2.32 -10.26,2.1 -3.49,-0.14 -7.09,-1.3 -10.68,-3.5 -2.19,-1.35 -7.3,-5.05 -15.33,-11.12l-20.95 -16.08 48.14 -60.6zm4.4 19.64l-11.07 14.02 8.13 6.27c4.83,3.73 7.93,5.99 9.19,6.75 2.32,1.38 4.6,1.97 6.73,1.67 2.17,-0.26 4.05,-1.35 5.6,-3.31 1.5,-1.87 2.19,-3.82 2.07,-5.83 -0.14,-1.97 -1.11,-3.86 -3.02,-5.68 -1.12,-1.07 -4.58,-3.88 -10.44,-8.38l-7.19 -5.51zm-19.11 24.12l-12.83 16.19 11.51 8.84c4.42,3.42 7.38,5.5 8.82,6.18 2.08,1.11 4.23,1.41 6.4,1.04 2.17,-0.34 4.14,-1.65 5.83,-3.8 1.48,-1.79 2.21,-3.7 2.35,-5.67 0.1,-1.94 -0.46,-3.85 -1.68,-5.75 -1.26,-1.84 -4.7,-4.98 -10.36,-9.31l-10.04 -7.72zm51.02 75.52l17.91 -27.12 0.7 -52.63 15.49 9.89 -1.38 35.37 31.97 -15.87 15.22 9.75 -48.83 22.04 -17.85 27.04 -13.23 -8.47zm118.9 33.25l5.78 -11.66 30.6 14.67 -13.67 27.52c-4.37,1.4 -9.89,1.79 -16.65,1.28 -6.66,-0.57 -12.93,-2.22 -18.73,-4.99 -7.32,-3.54 -12.96,-8.12 -16.94,-13.77 -3.96,-5.67 -5.91,-11.95 -5.87,-18.88 0.08,-6.96 1.73,-13.81 4.99,-20.42 3.56,-7.16 8.27,-12.83 14.14,-16.97 5.84,-4.12 12.45,-6.25 19.87,-6.37 5.6,-0.14 11.79,1.4 18.51,4.58 8.72,4.19 14.65,9.27 17.77,15.21 3.09,5.95 3.78,12.46 2.07,19.45l-15.37 -4.12c0.67,-3.89 0.11,-7.48 -1.63,-10.73 -1.73,-3.29 -4.67,-5.92 -8.75,-7.9 -6.21,-2.94 -12.07,-3.38 -17.69,-1.29 -5.59,2.14 -10.22,7.01 -14,14.6 -4.07,8.19 -5.29,15.24 -3.58,21.11 1.68,5.89 5.49,10.26 11.52,13.11 2.96,1.45 6.21,2.3 9.77,2.61 3.56,0.28 6.83,0.1 9.77,-0.5l4.33 -8.76 -16.24 -7.78zm46.47 10.13c2.81,-7.34 6.33,-13.08 10.47,-17.18 3.14,-2.98 6.66,-5.44 10.67,-7.28 4.01,-1.8 7.99,-2.79 11.95,-2.84 5.31,-0.25 10.89,0.8 16.87,3.06 10.74,4.08 18.07,10.57 21.93,19.58 3.93,8.96 3.59,19.32 -0.96,31.01 -4.56,11.55 -11.28,19.46 -20.22,23.56 -8.97,4.11 -18.81,4.15 -29.54,0.1 -10.88,-4.11 -18.2,-10.6 -22.08,-19.54 -3.89,-8.91 -3.58,-19.08 0.91,-30.47zm15.36 5.22c-3.19,8.12 -3.66,15.01 -1.51,20.64 2.21,5.62 6.22,9.51 12.09,11.75 5.87,2.23 11.53,1.98 16.91,-0.8 5.4,-2.71 9.75,-8.25 12.96,-16.57 3.25,-8.21 3.78,-15.02 1.68,-20.46 -2.09,-5.42 -6.15,-9.29 -12.23,-11.6 -6.08,-2.27 -11.76,-2.05 -17.12,0.62 -5.27,2.68 -9.57,8.14 -12.78,16.42zm76.93 65.55l-3.92 -81.56 16.4 4.87 2.01 60.14 35.21 -48.92 16.05 4.84 -49.65 65.44 -16.1 -4.81zm55.11 15.8l13.56 -75.67 57.13 9.94 -2.32 12.79 -41.53 -7.21 -3.05 16.81 38.69 6.68 -2.32 12.74 -38.62 -6.68 -3.72 20.58 42.99 7.46 -2.26 12.77 -58.55 -10.21zm76.25 12.38l8.16 -76.39 33.06 3.39c8.34,0.85 14.28,2.19 17.89,3.93 3.63,1.77 6.39,4.51 8.28,8.24 1.9,3.76 2.59,7.88 2.07,12.42 -0.63,5.74 -2.8,10.29 -6.65,13.68 -3.8,3.37 -9.2,5.18 -16.11,5.46 3.2,2.3 5.75,4.71 7.72,7.28 1.92,2.55 4.49,7.05 7.59,13.36l7.89 15.89 -18.76 -1.98 -9.54 -17.79c-3.4,-6.38 -5.8,-10.41 -7.09,-12.05 -1.32,-1.75 -2.79,-2.93 -4.37,-3.7 -1.59,-0.75 -4.2,-1.29 -7.84,-1.67l-3.19 -0.32 -3.4 31.88 -15.71 -1.63zm20.47 -42.48l11.55 1.22c7.56,0.74 12.31,0.95 14.24,0.51 1.95,-0.43 3.53,-1.38 4.74,-2.77 1.24,-1.41 1.98,-3.25 2.17,-5.57 0.35,-2.58 -0.16,-4.74 -1.38,-6.44 -1.25,-1.73 -3.1,-2.94 -5.62,-3.61 -1.24,-0.31 -5.01,-0.8 -11.41,-1.46l-12.27 -1.24 -2.02 19.36zm62.92 50.57l2.75 -76.85 15.37 0.56 30.15 52.39 1.83 -51.29 14.68 0.5 -2.74 76.79 -15.84 -0.55 -29.73 -51.18 -1.76 50.1 -14.71 -0.47zm82.94 1.32l-5.48 -76.7 23.58 -1.6 17.86 51.33 10.26 -53.25 23.64 -1.63 5.44 76.71 -14.6 0.93 -4.25 -60.31 -11.22 61.41 -15.17 1.04 -19.76 -59.3 4.29 60.37 -14.59 1zm95.46 -7.3l-13.58 -75.67 57.1 -9.88 2.26 12.82 -41.48 7.19 2.99 16.74 38.64 -6.68 2.27 12.77 -38.62 6.69 3.66 20.59 43.04 -7.47 2.3 12.77 -58.58 10.13zm76.12 -11.4l-20.2 -74.25 14.83 -3.89 44.42 41.42 -13.51 -49.57 14.2 -3.74 20.22 74.23 -15.33 4.05 -43.65 -40.41 13.23 48.43 -14.21 3.73zm97.41 -26.5l-21.14 -60.4 -21.91 7.43 -4.33 -12.29 58.74 -19.88 4.33 12.28 -21.9 7.42 21.15 60.36 -14.94 5.08zm59.88 -61.53c-3.41,-7.06 -5.14,-13.55 -5.26,-19.33 -0.07,-4.25 0.62,-8.45 2.09,-12.57 1.46,-4.07 3.52,-7.57 6.15,-10.45 3.56,-3.91 8.19,-7.14 14,-9.75 10.44,-4.78 20.27,-5.44 29.58,-1.95 9.26,3.49 16.63,10.89 22.02,22.25 5.32,11.26 6.37,21.43 3.18,30.65 -3.24,9.21 -10.05,16.21 -20.43,20.95 -10.54,4.84 -20.43,5.52 -29.65,2.08 -9.18,-3.52 -16.46,-10.74 -21.68,-21.88zm14.5 -7.2c3.76,7.9 8.44,13.02 14.05,15.37 5.65,2.38 11.33,2.28 17.01,-0.36 5.69,-2.57 9.45,-6.76 11.18,-12.5 1.77,-5.69 0.71,-12.56 -3.12,-20.63 -3.76,-8.05 -8.41,-13.16 -13.83,-15.43 -5.42,-2.31 -11.1,-2.13 -16.98,0.62 -5.89,2.65 -9.71,6.87 -11.44,12.44 -1.72,5.65 -0.72,12.47 3.13,20.49zm85.05 3.13l-39.05 -66.52 46.39 -26.38 6.65 11.27 -32.78 18.59 9.26 15.72 28.27 -16.03 6.67 11.24 -28.32 16.06 16.63 28.29 -13.72 7.76zm87 -52.2l-44.86 -62.93 12.96 -8.89 19.89 27.95 6.18 -45.98 17.4 -11.9 -6.61 41.11 52.79 20.94 -16.72 11.46 -38.68 -17.38 -3 17.73 13.55 19.03 -12.9 8.86zm67.38 -47.63l-50.26 -58.85 44.4 -36.62 8.48 9.95 -32.27 26.66 11.11 13.03 30.1 -24.78 8.44 9.91 -30.07 24.8 13.71 15.98 33.45 -27.57 8.46 9.91 -45.55 37.58zm59.24 -48.92l-56.28 -53.42 23.12 -23.47c5.78,-5.93 10.48,-9.74 14.15,-11.45 3.66,-1.72 7.55,-2.16 11.72,-1.34 4.15,0.87 7.89,2.88 11.24,6.03 4.23,4.01 6.5,8.55 6.84,13.57 0.37,5.03 -1.47,10.35 -5.52,15.88 3.8,-1.1 7.33,-1.56 10.55,-1.5 3.29,0.05 8.39,0.83 15.4,2.29l17.59 3.69 -13.11 13.36 -20.15 -3.59c-7.2,-1.26 -11.89,-1.89 -14.07,-1.96 -2.18,0 -4.02,0.38 -5.63,1.14 -1.6,0.82 -3.63,2.48 -6.18,5.04l-2.2 2.24 23.48 22.29 -10.95 11.2zm-21.5 -42.03l8.08 -8.22c5.27,-5.36 8.31,-8.9 9.21,-10.72 0.82,-1.74 1.07,-3.53 0.67,-5.35 -0.38,-1.81 -1.42,-3.54 -3.06,-5.16 -1.9,-1.79 -3.94,-2.73 -6.08,-2.87 -2.12,-0.09 -4.26,0.63 -6.33,2.14 -1.01,0.78 -3.76,3.45 -8.19,7.96l-8.56 8.69 14.26 13.53zm124.5 -69.4l-11.08 12.97 -17.97 -6.1 -20.08 23.51 9.46 16.11 -10.76 12.6 -40.3 -72.3 10.7 -12.58 80.03 25.79zm-42.38 2.36l-29.15 -10.23 15.46 26.29 13.69 -16.06zm50.66 -13.25l-62.77 -44.85 9.31 -12.52 52.05 37.21 23.11 -31.25 10.62 7.65 -32.32 43.76zm78.26 -114.6l-9.11 14.32 -18.7 -3.55 -16.57 26.07 11.69 14.62 -8.86 13.96 -50.18 -66.11 8.82 -13.95 82.91 14.64zm-41.6 8.11l-30.35 -6.06 19 23.84 11.35 -17.78z"/>
   <path class="fil4" d="M2576.8 2975.62l52.75 31.72c11.43,6.86 14.03,20.03 7.79,39.56l-2.01 5.24c-8.22,13.77 -20.65,19.73 -37.29,17.94l7.12 33.87 -0.94 1.61 -24.07 -14.46 -11.39 -59.89 0.47 -0.67 29.34 17.58c6.77,4.1 13.6,2.13 20.45,-5.78 4.2,-6.99 3.07,-13.31 -3.41,-19l-34.08 -20.5 -38.4 63.87 -2.45 0.64 -13.95 -8.37 -0.61 -2.52 48.16 -80.18 2.52 -0.66zm135.14 177.47l-54.28 -20.84c-5.42,-2.09 -9.15,-5.52 -11.19,-10.29 -2.06,-4.76 -2.06,-9.76 -0.07,-14.96l28.15 -73.28 18.23 6.99 -28.11 73.32 54.24 20.8 28.15 -73.32 18.12 6.94 -28.14 73.35c-1.95,5.05 -5.24,8.75 -9.81,11.07 -4.58,2.31 -9.68,2.39 -15.29,0.22zm164.8 -38.47l-38.23 -7.46 -14.97 77.11 -19.04 -3.68 14.96 -77.1 -38.03 -7.41 3.76 -19.16 95.29 18.53 -3.74 19.17zm28.11 -14.01l61.41 3.25c13.33,0.7 21.83,11.11 25.46,31.28l0.7 5.53c-0.85,16.03 -8.98,27.16 -24.48,33.38l22.16 26.59 -0.04 1.82 -28.07 -1.47 -38.18 -47.47 0.09 -0.85 34.14 1.82c7.93,0.36 13.05,-4.55 15.37,-14.77 0.41,-8.13 -3.55,-13.2 -11.92,-15.24l-39.72 -2.05 -3.89 74.42 -1.96 1.73 -16.15 -0.85 -1.73 -1.89 4.89 -93.46 1.92 -1.77zm200.22 94.21l-58.09 5.05c-10.33,0.93 -16.92,-2.83 -19.78,-11.31 -0.62,-1.96 -1.03,-4.1 -1.24,-6.45l-5.16 -58.74c-0.44,-5.1 1.01,-9.81 4.33,-14.04 3.31,-4.27 7.75,-6.63 13.31,-7.12l58.09 -5.07c5.41,-0.47 10.17,1.04 14.23,4.55 4.03,3.47 6.3,7.91 6.77,13.21l5.11 58.77c1.17,13.01 -4.71,20.02 -17.57,21.15zm-1.72 -19.49l-5.15 -58.73 -58.1 5.06 5.18 58.78 58.07 -5.11zm152.38 -17.47l-11.73 3.36 -80.49 -43.28 17.55 61.34 -18.63 5.36 -27.01 -94.32 11.56 -3.28 80.72 43.26 -17.62 -61.36 18.63 -5.36 27.02 94.28zm56.12 -22.66l-18.1 6.96 -35.11 -91.56 18.08 -6.93 35.13 91.53zm136.18 -70.8l-23.27 12.86 -45.11 -16.23 -10.1 46.88 -23.35 12.93 17.03 -65.42 -64.59 -20.33 23.35 -12.99 45.16 16.26 10.12 -46.88 23.18 -12.86 -16.78 65.47 64.36 20.31z"/>
   <path class="fil0 str1" d="M2990.56 1604.67c230.27,0 416.73,186.5 416.73,416.53 0,230.21 -186.46,416.71 -416.73,416.71 -230.01,0 -416.47,-186.5 -416.47,-416.71 0,-230.05 186.46,-416.53 416.47,-416.53z"/>
   <path class="fil3" d="M2736.25 1697.75l182.81 179.79c13.43,2.13 19.99,-2.03 25.86,-12.42l-6.32 -254.2 -12.79 2.28 1.82 247.19 -179.93 -173.39 -11.45 10.75zm301.15 -86.12l-0.21 255.53c8,11.04 15.53,12.78 27.04,9.56l177.53 -186.82 -10.01 -7.62 -176.37 178.89 -4.62 -249.83 -13.36 0.29z"/>
   <path class="fil3" d="M2583.42 1969.97l259.38 -1.57c11.04,-8.04 12.76,-15.59 9.59,-27.1l-181.69 -173.78 -9.99 9.13 176.04 173.49 -256 5.58 2.67 14.25z"/>
   <path class="fil3" d="M2669.31 2271.39l183.81 -184.85c2.17,-13.48 -1.95,-20.04 -12.37,-25.9l-255.76 5.55 -0.6 13.52 251.58 -1.82 -178.65 185.28 11.99 8.22z"/>
   <path class="fil3" d="M2942.98 2428.33l1.02 -265.58c-8,-11.01 -15.56,-12.73 -27.09,-9.53l-181.72 189.6 9.11 10.02 181.5 -184.01 2.87 262.19 14.31 -2.69z"/>
   <path class="fil3" d="M3251.4 2340.66l-189.24 -188.23c-13.46,-2.13 -20.02,1.97 -25.89,12.36l4.67 265.48 13.52 0.68 -0.9 -261.42 189.65 183.13 8.19 -12z"/>
   <path class="fil3" d="M3398.62 2060.79l-260.23 0.81c-11.07,7.95 -12.74,15.51 -9.56,27.02l191.37 178.2 9.98 -9.11 -185.74 -177.93 256.88 -4.64 -2.7 -14.35z"/>
   <path class="fil3" d="M3306.58 1763.88l-178.54 179.51c-2.13,13.52 1.98,20.05 12.4,25.95l255.76 -5.58 0.55 -13.53 -251.58 1.79 173.34 -179.92 -11.93 -8.22z"/>
   <path class="fil3" d="M2936.22 2435.4l0 -385.56 0 385.56zm107.61 -391.76l0 391.76 0 -391.76zm-55.41 -86.32c33.65,0 60.99,27.29 60.99,61.02 0,9.03 -2.04,17.63 -5.58,25.3 -9.6,21.07 -30.8,35.62 -55.41,35.62 -22.14,0 -41.55,-11.81 -52.2,-29.42 -5.55,-9.22 -8.75,-19.99 -8.75,-31.5 0,-33.73 27.24,-61.02 60.95,-61.02z"/>
   <g>
    <path id="_1" class="fil3" d="M2936.22 2435.4l0 -385.56 0 385.56zm107.61 -391.76l0 391.76 0 -391.76zm-55.41 -86.32c33.65,0 60.99,27.29 60.99,61.02 0,9.03 -2.04,17.63 -5.58,25.3 -9.6,21.07 -30.8,35.62 -55.41,35.62 -22.14,0 -41.55,-11.81 -52.2,-29.42 -5.55,-9.22 -8.75,-19.99 -8.75,-31.5 0,-33.73 27.24,-61.02 60.95,-61.02z"/>
    <path id="1" class="fil5 str1" d="M2936.22 2435.4l0 -385.56m107.61 -6.2l0 391.76m-55.41 -478.08c33.65,0 60.99,27.29 60.99,61.02 0,9.03 -2.04,17.63 -5.58,25.3 -9.6,21.07 -30.8,35.62 -55.41,35.62 -22.14,0 -41.55,-11.81 -52.2,-29.42 -5.55,-9.22 -8.75,-19.99 -8.75,-31.5 0,-33.73 27.24,-61.02 60.95,-61.02z"/>
   </g>
   <path class="fil4" d="M1125.16 3899.04c0,3.35 0.84,6.93 2.53,10.72 1.64,3.82 4,6.78 7.04,8.9 -2.13,-2.43 -3.42,-5.08 -3.86,-7.99 -0.45,-2.89 -0.7,-5.24 -0.7,-7.07l0 -11.85c0,-12.48 3.67,-22.05 10.96,-28.76 7.3,-6.68 19.45,-10.02 36.49,-10.02 16.44,0 29.43,3.8 39.02,11.4 9.57,7.61 14.36,17.65 14.36,30.11l0 18.25c0,12.16 -4.88,22.06 -14.59,29.66 -9.72,7.61 -22.82,11.41 -39.26,11.41l-38.31 0c-18.24,0 -32.91,-4.19 -44.02,-12.54 -11.11,-8.37 -16.65,-20.17 -16.65,-35.36l0 -132.32c0,-15.2 5.61,-26.99 16.87,-35.36 11.26,-8.36 26.01,-12.55 44.27,-12.55l37.84 0c16.44,0 29.54,3.82 39.26,11.41 9.71,7.62 14.59,17.49 14.59,29.66l0 18.23c0,12.48 -4.79,22.52 -14.36,30.13 -9.59,7.61 -22.58,11.4 -39.02,11.4 -17.04,0 -29.19,-3.35 -36.49,-10.02 -7.29,-6.71 -10.96,-16.28 -10.96,-28.76l0 -11.86c0,-1.51 0.31,-3.88 0.91,-7.06 0.61,-3.2 1.98,-6.02 4.11,-8.44 -3.04,2.13 -5.48,5.08 -7.3,8.88 -1.82,3.82 -2.73,7.38 -2.73,10.73l0 119.07zm60.7 0.46c0,-4.26 -0.57,-7.9 -1.62,-10.95 -1.05,-3.04 -2.83,-4.55 -5.27,-4.55 -2.42,0 -4.16,1.42 -5.24,4.33 -1.05,2.88 -1.6,6.6 -1.6,11.17l0 7.3c0,3.96 0.46,7.53 1.4,10.73 0.91,3.2 2.71,4.78 5.44,4.78 4.57,0 6.89,-5.17 6.89,-15.51l0 -7.3zm0 -126.84c0,-10.33 -2.32,-15.52 -6.89,-15.52 -2.73,0 -4.53,1.62 -5.44,4.8 -0.94,3.2 -1.4,6.79 -1.4,10.72l0 7.31c0,4.56 0.55,8.28 1.6,11.18 1.08,2.88 2.82,4.32 5.24,4.32 2.44,0 4.22,-1.51 5.27,-4.55 1.05,-3.04 1.62,-6.68 1.62,-10.95l0 -7.31zm271.03 133.24c0,7.59 -1.97,14.52 -5.92,20.76 -3.96,6.23 -9.13,11.47 -15.51,15.73 -6.39,4.26 -13.84,7.61 -22.37,10.03 -8.5,2.45 -17.32,3.51 -26.47,3.2 -9.73,-0.31 -19.23,-1.44 -28.5,-3.42 -9.28,-1.98 -16.65,-6.02 -22.14,-12.1 -3.04,4.27 -7.13,7.91 -12.32,10.95 -5.15,3.06 -13.24,4.57 -24.16,4.57 -14.6,0 -26.24,-4.41 -34.92,-13.23 -8.66,-8.82 -12.99,-20.99 -12.99,-36.49l0 -47.46c0,-15.2 5.33,-27.3 15.96,-36.27 10.62,-8.98 25.23,-13.46 43.78,-13.46l5.95 0 0 -36.49c0,-8.51 1.89,-15.88 5.72,-22.14 3.79,-6.22 8.87,-11.4 15.27,-15.5 6.37,-4.11 13.75,-7.22 22.12,-9.35 8.38,-2.13 17.1,-3.2 26.23,-3.2 9.15,0 17.97,1.07 26.47,3.2 8.53,2.13 15.98,5.24 22.37,9.35 6.38,4.1 11.55,9.35 15.51,15.74 3.95,6.38 5.92,13.68 5.92,21.9l0 36.49 5.95 0c18.53,0 33.21,4.48 43.99,13.46 10.83,8.97 16.2,21.07 16.2,36.27l0 47.46c0,15.5 -4.4,27.74 -13.21,36.73 -8.83,8.97 -23.57,13.44 -44.25,13.44l-7.3 0 0 -33.3 7.3 0c3.33,0 5.93,-1.75 7.73,-5.24 1.84,-3.51 2.76,-8.15 2.76,-13.93l0 -41.97c0,-6.08 -0.92,-10.86 -2.76,-14.37 -1.8,-3.5 -5.31,-5.24 -10.46,-5.24l-5.95 0 0 63.88zm-47.9 -63.88l-44.72 0 0 57.02c0,15.81 7.45,23.73 22.35,23.73 7.61,0 13.23,-2.13 16.9,-6.39 3.64,-4.26 5.47,-9.88 5.47,-16.88l0 -57.48zm0 -33.31l0 -33.31c0,-7.29 -1.98,-12.46 -5.91,-15.51 -3.98,-3.04 -9.47,-4.55 -16.46,-4.55 -6.06,0 -11.32,1.44 -15.72,4.33 -4.42,2.89 -6.63,8.15 -6.63,15.73l0 33.31 44.72 0zm-101.28 113.15c3.96,0 6.52,-1.75 7.75,-5.24 1.22,-3.5 1.82,-8.77 1.82,-15.74l0 -58.86 -6.39 0c-5.16,0 -8.5,2.2 -10.02,6.6 -1.53,4.42 -2.31,8.77 -2.31,13.01l0 41.97c0,5.18 0.55,9.52 1.62,13.02 1.05,3.49 3.57,5.24 7.53,5.24zm302 33.76c-14.93,-1.22 -26.38,-3.88 -34.46,-7.97 -8.05,-4.11 -13.89,-8.77 -17.56,-13.93 -3.64,-5.17 -5.77,-10.35 -6.38,-15.52 -0.59,-5.17 -0.93,-9.1 -0.93,-11.86l0 -130.94c0,-15.2 5.71,-27.28 17.12,-36.25 11.42,-8.97 27.17,-13.48 47.23,-13.48l48.37 0c7.59,0 15.05,1.22 22.34,3.66 7.3,2.43 13.68,5.78 19.17,10.04 5.48,4.25 9.87,9.42 13.23,15.5 3.36,6.09 5,12.95 5,20.53l0 130.94c0,7.62 -1.44,14.46 -4.33,20.54 -2.9,6.09 -6.93,11.33 -12.09,15.75 -5.16,4.4 -11.16,7.73 -18.01,10.04 -6.84,2.27 -14.05,3.4 -21.68,3.4 -16.42,0 -29.98,-4.47 -40.59,-13.44 -10.66,-8.99 -15.97,-21.07 -15.97,-36.29l0 -69.34c0,-7.61 0.75,-14.45 2.27,-20.52 1.51,-6.08 4.11,-11.34 7.75,-15.77 3.67,-4.39 8.62,-7.74 14.84,-10.01 6.23,-2.29 14.05,-3.44 23.49,-3.44 2.13,0 4.87,0.46 8.21,1.38 3.34,0.91 6.38,2.43 9.11,4.56l0 -15.52c0,-6.08 -1.89,-10.72 -5.69,-13.9 -3.79,-3.19 -8.74,-4.95 -14.82,-5.24l-36.5 0c-7.59,-0.31 -13.07,1.42 -16.43,5.24 -3.33,3.8 -5,8.73 -5,14.82l0 125c0,4.58 0.44,8.83 1.35,12.78 0.92,3.95 4.58,6.09 10.96,6.39l0 32.85zm47 -52.02c0,13.09 3.35,19.62 10.02,19.62 6.09,0 9.11,-6.53 9.11,-19.62l0 -63.42c0,-6.06 -0.75,-10.86 -2.26,-14.35 -1.54,-3.51 -3.8,-5.24 -6.85,-5.24 -3.34,0 -5.86,1.73 -7.51,5.24 -1.7,3.49 -2.51,8.29 -2.51,14.35l0 63.42zm275.13 -103.55c0,7.3 -1.5,13.68 -4.53,19.16 -3.07,5.46 -9.13,10.04 -18.28,13.68 6.72,2.74 12.17,7.22 16.44,13.46 4.26,6.24 6.37,12.71 6.37,19.39l0 24.17c0,7.62 -1.73,14.39 -5.24,20.32 -3.49,5.92 -8.13,11.01 -13.9,15.27 -5.78,4.27 -12.4,7.54 -19.86,9.82 -7.43,2.27 -15.13,3.42 -23.03,3.42l-62.52 0c-2.42,0 -4.62,0.69 -6.59,2.05 -1.98,1.37 -3.13,4.8 -3.42,10.26 0,5.48 1.2,8.91 3.63,10.26 2.43,1.38 4.58,2.07 6.38,2.07l121.82 0 0 32.84 -121.82 0c-16.4,0 -30,-3.73 -40.81,-11.17 -10.8,-7.46 -16.2,-18.95 -16.2,-34.45 0,-15.21 5.4,-26.09 16.2,-32.62 10.81,-6.53 24.41,-9.8 40.81,-9.8l62.52 0c3.65,0 7.06,-1.99 10.27,-5.94 3.2,-3.96 4.79,-8.98 4.79,-15.04l0 -18.72c0,-6.07 -0.98,-10.8 -2.97,-14.15 -1.98,-3.34 -6.62,-5.02 -13.91,-5.02l0 -33.3c6.37,0 10.79,-1.66 13.22,-5.02 2.43,-3.35 3.66,-8.05 3.66,-14.13l0 -18.26c0,-6.09 -1.59,-10.86 -4.79,-14.38 -3.21,-3.48 -6.92,-5.24 -11.18,-5.24l-56.12 0c-3.35,0 -6.6,1.61 -9.82,4.8 -3.17,3.18 -5.08,7.37 -5.68,12.55l0 13.68c2.42,-1.51 5.17,-2.58 8.21,-3.2 3.05,-0.62 5.6,-0.91 7.75,-0.91 16.44,0 28.97,4.48 37.62,13.45 8.67,8.99 13.03,20.91 13.03,35.83l0 19.61c0,15.21 -5.4,27.3 -16.2,36.27 -10.79,8.98 -24.41,13.46 -40.84,13.46 -16.41,0 -29.97,-4.48 -40.62,-13.46 -10.64,-8.97 -15.95,-21.06 -15.95,-36.27l0 -79.39c0,-7.58 1.73,-14.44 5.24,-20.53 3.49,-6.08 8.14,-11.25 13.93,-15.5 5.78,-4.26 12.37,-7.61 19.83,-10.04 7.46,-2.44 15.3,-3.66 23.5,-3.66l57.03 0c7.9,0 15.6,1.22 23.03,3.66 7.46,2.43 14.08,5.78 19.86,10.04 5.77,4.25 10.41,9.42 13.9,15.5 3.51,6.09 5.24,12.95 5.24,20.53l0 24.65zm-114.93 38.33c0,-6.09 -0.87,-10.89 -2.53,-14.37 -1.67,-3.51 -4.2,-5.26 -7.53,-5.26 -3.35,0 -5.8,2.06 -7.31,6.15 -1.53,4.11 -2.26,8.6 -2.26,13.48l0 14.13c0,6.08 0.73,10.81 2.26,14.15 1.51,3.34 3.96,5.02 7.31,5.02 3.33,0 5.86,-1.68 7.53,-5.02 1.66,-3.34 2.53,-8.07 2.53,-14.15l0 -14.13zm287 60.66c0,3.35 0.85,6.93 2.49,10.72 1.71,3.82 4.05,6.78 7.09,8.9 -2.14,-2.43 -3.42,-5.08 -3.87,-7.99 -0.46,-2.89 -0.69,-5.24 -0.69,-7.07l0 -11.85c0,-12.48 3.65,-22.05 10.95,-28.76 7.29,-6.68 19.48,-10.02 36.49,-10.02 16.43,0 29.45,3.8 39.02,11.4 9.58,7.61 14.37,17.65 14.37,30.11l0 18.25c0,12.16 -4.86,22.06 -14.59,29.66 -9.76,7.61 -22.83,11.41 -39.24,11.41l-38.34 0c-18.25,0 -32.91,-4.19 -44.02,-12.54 -11.1,-8.37 -16.66,-20.17 -16.66,-35.36l0 -132.32c0,-15.2 5.65,-26.99 16.89,-35.36 11.26,-8.36 26.01,-12.55 44.23,-12.55l37.9 0c16.41,0 29.48,3.82 39.24,11.41 9.73,7.62 14.59,17.49 14.59,29.66l0 18.23c0,12.48 -4.79,22.52 -14.37,30.13 -9.57,7.61 -22.59,11.4 -39.02,11.4 -17.01,0 -29.2,-3.35 -36.49,-10.02 -7.3,-6.71 -10.95,-16.28 -10.95,-28.76l0 -11.86c0,-1.51 0.29,-3.88 0.89,-7.06 0.63,-3.2 1.98,-6.02 4.13,-8.44 -3.06,2.13 -5.48,5.08 -7.3,8.88 -1.83,3.82 -2.74,7.38 -2.74,10.73l0 119.07zm60.67 0.46c0,-4.26 -0.53,-7.9 -1.59,-10.95 -1.06,-3.04 -2.82,-4.55 -5.25,-4.55 -2.44,0 -4.16,1.42 -5.25,4.33 -1.07,2.88 -1.6,6.6 -1.6,11.17l0 7.3c0,3.96 0.45,7.53 1.36,10.73 0.92,3.2 2.77,4.78 5.49,4.78 4.58,0 6.84,-5.17 6.84,-15.51l0 -7.3zm0 -126.84c0,-10.33 -2.26,-15.52 -6.84,-15.52 -2.72,0 -4.57,1.62 -5.49,4.8 -0.91,3.2 -1.36,6.79 -1.36,10.72l0 7.31c0,4.56 0.53,8.28 1.6,11.18 1.09,2.88 2.81,4.32 5.25,4.32 2.43,0 4.19,-1.51 5.25,-4.55 1.06,-3.04 1.59,-6.68 1.59,-10.95l0 -7.31zm291.12 240.9c6.11,-0.3 10.59,-1.22 13.48,-2.74 2.89,-1.52 4.33,-3.2 4.33,-5.02l0 -14.59c0,-2.45 -2.35,-4.36 -7.06,-5.71 -4.73,-1.36 -11.04,-2.05 -18.95,-2.05 -7.59,0 -13.76,0.69 -18.48,2.05 -4.7,1.35 -7.06,3.26 -7.06,5.71l0 14.59c0,2.13 1.58,3.95 4.8,5.48 3.17,1.51 7.51,2.28 12.99,2.28l0 27.37c-16.74,0 -30.56,-2.51 -41.52,-7.53 -10.96,-5.02 -16.42,-11.01 -16.42,-18.01l0 -32.85c0,-3.96 1.67,-7.46 5,-10.5 3.35,-3.05 8,-5.71 13.93,-7.97 5.94,-2.29 12.92,-4.03 21,-5.27 8.04,-1.22 16.64,-1.8 25.76,-1.8 9.44,0 18.18,0.58 26.26,1.8 8.03,1.24 15.04,2.98 20.97,5.27 5.93,2.26 10.57,4.92 13.9,7.97 3.35,3.04 5.04,6.54 5.04,10.5l0 32.85c0,6.68 -5.49,12.61 -16.44,17.79 -10.94,5.17 -24.79,7.75 -41.53,7.75l0 -27.37zm-141.85 0c6.06,-0.3 10.55,-1.22 13.44,-2.74 2.88,-1.52 4.33,-3.2 4.33,-5.02l0 -14.59c0,-2.45 -2.35,-4.36 -7.06,-5.71 -4.74,-1.36 -10.88,-2.05 -18.48,-2.05 -7.9,0 -14.24,0.69 -18.95,2.05 -4.71,1.35 -7.06,3.26 -7.06,5.71l0 14.59c0,2.13 1.58,3.95 4.8,5.48 3.17,1.51 7.5,2.28 12.98,2.28l0 27.37c-17.03,0 -30.86,-2.51 -41.52,-7.53 -10.64,-5.02 -15.95,-11.01 -15.95,-18.01l0 -32.85c0,-7.9 6.15,-14.15 18.46,-18.7 12.35,-4.57 28.08,-6.84 47.24,-6.84 9.13,0 17.7,0.58 25.78,1.8 8.04,1.24 15.04,2.98 20.99,5.27 5.93,2.26 10.63,4.92 14.13,7.97 3.51,3.04 5.24,6.54 5.24,10.5l0 32.85c0,3.33 -1.52,6.53 -4.55,9.57 -3.04,3.04 -7.16,5.8 -12.31,8.22 -5.18,2.42 -11.33,4.33 -18.5,5.71 -7.15,1.35 -14.81,2.04 -23.01,2.04l0 -27.37zm132.28 -289.71c21.61,0 38.78,4.57 51.55,13.7 12.78,9.11 19.16,21.12 19.16,36.03l0 132.76c0,7.31 -1.73,14.08 -5.24,20.32 -3.49,6.23 -8.12,11.47 -13.92,15.73 -5.78,4.26 -12.37,7.61 -19.86,10.03 -7.44,2.45 -15.26,3.65 -23.48,3.65 -7.91,0 -15.58,-1.2 -23.03,-3.65 -7.43,-2.42 -14.08,-5.84 -19.83,-10.26 -5.79,-4.41 -10.44,-9.81 -13.95,-16.19 -3.49,-6.39 -5.24,-13.54 -5.24,-21.45l0 -127.75c0,-6.06 -1.51,-10.86 -4.55,-14.36 -3.04,-3.5 -6.53,-5.27 -10.48,-5.27 -3.67,0 -7.02,1.62 -10.06,4.8 -3.04,3.2 -4.87,7.68 -5.46,13.46l0 178.4 -46.98 0 0 -178.4c-0.62,-5.78 -2.53,-10.26 -5.73,-13.46 -3.18,-3.18 -6.44,-4.8 -9.8,-4.8 -3.94,0 -7.53,1.77 -10.73,5.27 -3.19,3.5 -4.79,8.3 -4.79,14.36l0 126.83c0,13.09 6.71,19.62 20.08,19.62l0 32.85c-22.52,0 -39.25,-4.47 -50.17,-13.44 -10.97,-8.99 -16.44,-21.07 -16.44,-36.29l0 -132.76c0,-7.6 1.76,-14.45 5.25,-20.52 3.48,-6.09 8.13,-11.26 13.9,-15.51 5.79,-4.26 12.41,-7.62 19.83,-10.04 7.48,-2.44 15.17,-3.66 23.07,-3.66 6.98,0 14.07,1.06 21.21,3.2 7.15,2.13 12.86,5.77 17.1,10.94 4.58,-5.17 10.65,-8.81 18.27,-10.94 7.59,-2.14 14.75,-3.2 21.45,-3.2 7.59,0 15.19,1.22 22.79,3.66 7.61,2.42 14.38,5.78 20.31,10.04 5.94,4.25 10.64,9.49 14.15,15.73 3.5,6.24 5.09,12.99 4.78,20.3l0 127.74c0,6.09 1.06,11.26 3.19,15.52 2.13,4.25 6.09,6.38 11.86,6.38 5.16,0 9.07,-2.05 11.64,-6.16 2.58,-4.1 3.87,-9.21 3.87,-15.27l0 -125.02c0,-6.06 -2.27,-10.86 -6.82,-14.36 -4.57,-3.5 -10.22,-5.27 -16.9,-5.27l0 -33.29zm175.25 290.63c6.08,-0.31 10.51,-1.15 13.21,-2.51 2.78,-1.38 4.13,-2.97 4.13,-4.8l0 -15.5c0,-2.44 -2.35,-4.27 -7.09,-5.49 -4.68,-1.2 -10.86,-1.82 -18.45,-1.82 -7.3,0 -13.32,0.62 -18.03,1.82 -4.72,1.22 -7.1,3.05 -7.1,5.49l0 15.5c0,2.13 1.61,3.89 4.83,5.24 3.18,1.38 7.35,2.07 12.53,2.07l0 26.91c-16.73,0 -30.5,-2.43 -41.3,-7.3 -10.79,-4.87 -16.19,-10.79 -16.19,-17.79l0 -32.85c0,-7.9 6.25,-14.06 18.71,-18.48 12.48,-4.41 27.99,-6.61 46.55,-6.61 9.42,0 18.08,0.62 26.01,1.82 7.9,1.22 14.82,2.89 20.74,5.02 5.92,2.13 10.58,4.71 13.92,7.75 3.34,3.04 5,6.55 5,10.5l0 32.85c0,6.68 -5.44,12.55 -16.41,17.57 -10.95,5.02 -24.63,7.52 -41.06,7.52l0 -26.91zm-1.38 -90.79c6.08,-0.62 10.19,-2.89 12.33,-6.85 2.12,-3.95 3.19,-8.37 3.19,-13.24l0 -126.83c0,-6.06 -1.98,-10.86 -5.95,-14.36 -3.94,-3.5 -9.4,-5.27 -16.39,-5.27 -6.42,0 -11.66,1.77 -15.77,5.27 -4.08,3.5 -6.13,8.3 -6.13,14.36l0 126.83c0,4.58 1.52,8.98 4.55,13.24 3.04,4.25 7.16,6.38 12.31,6.38l0 32.85c-9.11,0 -17.55,-1.36 -25.32,-4.09 -7.73,-2.75 -14.43,-6.39 -20.08,-10.97 -5.61,-4.55 -10.1,-9.8 -13.44,-15.73 -3.37,-5.92 -5.02,-12.25 -5.02,-18.94l0 -132.76c0,-7.6 1.82,-14.45 5.49,-20.52 3.62,-6.09 8.49,-11.26 14.6,-15.51 6.06,-4.26 13.29,-7.62 21.67,-10.04 8.35,-2.44 17.39,-3.66 27.14,-3.66 9.72,0 18.76,1.22 27.12,3.66 8.37,2.42 15.7,5.78 21.92,10.04 6.24,4.25 11.1,9.49 14.61,15.73 3.49,6.24 5.22,12.99 5.22,20.3l0 132.76c0,6.39 -1.52,12.55 -4.55,18.48 -3.02,5.93 -7.32,11.19 -12.77,15.74 -5.47,4.56 -12.02,8.29 -19.63,11.18 -7.61,2.89 -15.97,4.33 -25.1,4.33l0 -32.38zm116.86 -263.25l0 19.17c0,7.3 -1.67,13.75 -5,19.39 -3.35,5.61 -7.86,10.32 -13.46,14.12 -5.65,3.82 -12.13,6.64 -19.42,8.46 -7.3,1.82 -15.03,2.73 -23.25,2.73 -7.9,0 -15.54,-0.91 -22.82,-2.73 -7.31,-1.82 -13.76,-4.64 -19.39,-8.46 -5.63,-3.8 -10.11,-8.51 -13.46,-14.12 -3.36,-5.64 -5.02,-12.26 -5.02,-19.86l0 -18.7 46.53 0 0 15.97c0,6.09 1.47,10.41 4.35,12.99 2.89,2.6 6.14,3.89 9.81,3.89 3.97,0 7.31,-1.22 10.02,-3.65 2.73,-2.44 4.11,-6.7 4.11,-12.78l0 -16.42 47 0z"/>
   <path class="fil4" d="M2909.22 3924.48c6.23,-0.61 10.44,-2.95 12.63,-6.98 2.15,-4.06 3.24,-8.58 3.24,-13.54l0 -129.73c0,-6.22 -2.01,-11.13 -6.05,-14.69 -4.05,-3.6 -9.64,-5.36 -16.82,-5.36 -6.53,0 -11.9,1.76 -16.1,5.36 -4.19,3.56 -6.3,8.47 -6.3,14.69l0 129.73c0,4.66 1.59,9.18 4.67,13.54 3.13,4.34 7.34,6.53 12.61,6.53l0 33.58c-9.35,0 -17.97,-1.39 -25.9,-4.18 -7.92,-2.8 -14.76,-6.53 -20.53,-11.2 -5.74,-4.67 -10.34,-10.04 -13.76,-16.1 -3.42,-6.06 -5.13,-12.52 -5.13,-19.38l0 -135.78c0,-7.79 1.85,-14.78 5.59,-20.99 3.73,-6.22 8.72,-11.51 14.94,-15.88 6.23,-4.36 13.61,-7.78 22.17,-10.28 8.54,-2.48 17.8,-3.71 27.74,-3.71 9.97,0 19.23,1.23 27.77,3.71 8.58,2.5 16.05,5.92 22.4,10.28 6.37,4.37 11.35,9.73 14.93,16.1 3.6,6.39 5.37,13.31 5.37,20.77l0 135.78c0,6.55 -1.57,12.85 -4.66,18.91 -3.13,6.06 -7.46,11.43 -13.07,16.1 -5.59,4.67 -12.28,8.47 -20.06,11.42 -7.77,2.97 -16.34,4.43 -25.68,4.43l0 -33.13zm218.91 49.02c0,15.23 -5.77,27.52 -17.28,36.86 -11.51,9.32 -27.04,14 -46.66,14 -18.35,0 -33.5,-4.6 -45.48,-13.77 -11.98,-9.19 -17.98,-21.53 -17.98,-37.09l0 -44.33c0,-7.8 1.7,-14.71 5.14,-20.77 3.43,-6.08 8.01,-11.28 13.77,-15.64 5.75,-4.34 12.28,-7.78 19.59,-10.27 7.33,-2.48 14.71,-3.89 22.18,-4.2l-0.47 0c4.35,-0.62 8.3,-3.02 11.91,-7.24 3.57,-4.2 5.37,-9.25 5.37,-15.16l0 -81.19c0,-6.22 -1.41,-11.11 -4.21,-14.69 -2.81,-3.59 -6.06,-5.38 -9.82,-5.38 -3.41,0 -6.45,1.79 -9.07,5.38 -2.65,3.58 -3.98,8.47 -3.98,14.69l0 35.93 -48.06 0 0 -39.2c0,-7.77 1.69,-14.77 5.12,-20.99 3.42,-6.23 7.93,-11.51 13.54,-15.87 5.6,-4.35 12.05,-7.78 19.37,-10.26 7.31,-2.51 15,-3.75 23.08,-3.75 8.1,0 15.88,1.24 23.35,3.75 7.46,2.48 13.99,5.91 19.6,10.26 5.59,4.36 10.11,9.72 13.53,16.1 3.41,6.37 5.13,13.3 5.13,20.76l0 87.26c0,5.61 -1.55,11.13 -4.67,16.58 -3.1,5.43 -8.69,10.64 -16.8,15.63 5.3,3.1 9.58,6.69 12.83,10.71 3.29,4.06 5.68,7.78 7.24,11.22 1.57,3.1 2.57,5.99 3.02,8.63 0.47,2.64 0.71,5.23 0.71,7.71l0 44.33zm-48.06 -7.48c-4.68,2.81 -10.41,4.19 -17.28,4.19 -5.59,0 -10.24,-1.23 -13.99,-3.72l0 4.19c0,6.24 1.41,11.07 4.22,14.47 2.79,3.42 6.51,5.14 11.17,5.14 10.58,0 15.88,-6.55 15.88,-19.61l0 -4.66zm-15.4 -28.93c3.13,0 6.01,-0.92 8.62,-2.8 2.66,-1.87 3.98,-4.98 3.98,-9.32 0,-3.44 -1.09,-6.31 -3.26,-8.63 -2.17,-2.35 -5.45,-3.51 -9.82,-3.51 -7.75,0 -11.8,3.89 -12.13,11.65 0,5.3 1.34,8.72 3.98,10.26 2.64,1.57 5.52,2.35 8.63,2.35zm139.51 -37.8c0,3.42 0.85,7.08 2.57,10.97 1.7,3.89 4.12,6.91 7.22,9.1 -2.19,-2.49 -3.51,-5.21 -3.96,-8.16 -0.47,-2.97 -0.69,-5.36 -0.69,-7.24l0 -12.14c0,-12.75 3.73,-22.56 11.2,-29.38 7.46,-6.86 19.9,-10.28 37.31,-10.28 16.81,0 30.12,3.91 39.91,11.67 9.8,7.78 14.7,18.04 14.7,30.8l0 18.67c0,12.45 -4.96,22.54 -14.93,30.32 -9.95,7.78 -23.34,11.67 -40.15,11.67l-39.18 0c-18.65,0 -33.68,-4.28 -45.03,-12.82 -11.36,-8.56 -17.03,-20.63 -17.03,-36.17l0 -135.33c0,-15.56 5.74,-27.61 17.25,-36.17 11.52,-8.56 26.61,-12.83 45.25,-12.83l38.74 0c16.81,0 30.2,3.88 40.15,11.67 9.97,7.77 14.93,17.88 14.93,30.33l0 18.66c0,12.75 -4.9,23.03 -14.7,30.81 -9.79,7.76 -23.1,11.67 -39.91,11.67 -17.41,0 -29.85,-3.44 -37.31,-10.28 -7.47,-6.85 -11.2,-16.64 -11.2,-29.4l0 -12.14c0,-1.54 0.29,-3.96 0.92,-7.22 0.63,-3.27 2.03,-6.15 4.19,-8.63 -3.1,2.17 -5.6,5.21 -7.45,9.1 -1.86,3.87 -2.8,7.54 -2.8,10.96l0 121.79zm62.06 0.47c0,-4.36 -0.54,-8.08 -1.64,-11.2 -1.1,-3.11 -2.86,-4.68 -5.37,-4.68 -2.48,0 -4.26,1.48 -5.36,4.45 -1.09,2.96 -1.65,6.77 -1.65,11.43l0 7.48c0,4.03 0.47,7.67 1.43,10.95 0.92,3.27 2.79,4.9 5.58,4.9 4.69,0 7.01,-5.29 7.01,-15.85l0 -7.48zm0 -129.73c0,-10.57 -2.32,-15.85 -7.01,-15.85 -2.79,0 -4.66,1.61 -5.58,4.89 -0.96,3.26 -1.43,6.93 -1.43,10.96l0 7.47c0,4.67 0.56,8.47 1.65,11.44 1.1,2.95 2.88,4.42 5.36,4.42 2.51,0 4.27,-1.54 5.37,-4.66 1.1,-3.11 1.64,-6.85 1.64,-11.2l0 -7.47zm225.91 242.19l-74.19 0c-11.21,0 -21.49,-1.4 -30.81,-4.2 -9.33,-2.8 -17.51,-7.24 -24.48,-13.3 -7,-6.07 -12.46,-13.62 -16.35,-22.63 -3.89,-9.02 -5.85,-19.91 -5.85,-32.66l0 -167.52c0,-7.79 2.12,-14.8 6.3,-21.02 4.21,-6.22 9.73,-11.51 16.57,-15.87 6.84,-4.34 14.64,-7.76 23.34,-10.26 8.71,-2.49 17.74,-3.73 27.07,-3.73l0 33.6c-6.21,0 -12.06,1.79 -17.48,5.38 -5.46,3.58 -8.18,8.47 -8.18,14.69l0 162.39c0,14.01 2.72,24.5 8.18,31.5 5.42,7.01 12.65,10.5 21.69,10.5l74.19 0 0 33.13zm80.24 -105.92c0,7.76 -1.96,14.84 -5.83,21.22 -3.89,6.39 -9.19,11.76 -15.87,16.1 -6.68,4.36 -14.38,7.78 -23.12,10.28 -8.7,2.48 -17.86,3.71 -27.52,3.71 -9.64,0 -18.82,-1.23 -27.52,-3.71 -8.71,-2.5 -16.34,-6 -22.87,-10.5 -6.54,-4.52 -11.75,-9.89 -15.65,-16.11 -3.86,-6.23 -5.83,-13.23 -5.83,-20.99l0 -31.74 55.09 0 0 28.92c0,5.91 1.54,10.67 4.67,14.25 3.08,3.57 7.13,5.36 12.11,5.36 4.99,0 9.1,-1.79 12.39,-5.36 3.24,-3.58 4.87,-8.34 4.87,-14.25l0 -28.45c0,-5.92 -1.7,-10.73 -5.14,-14.47 -3.42,-3.73 -7.92,-5.92 -13.52,-6.52 -9.64,0 -18.74,-1.26 -27.28,-3.74 -8.56,-2.48 -16.02,-5.92 -22.4,-10.28 -6.4,-4.34 -11.44,-9.7 -15.17,-16.09 -3.75,-6.37 -5.62,-13.3 -5.62,-20.75l0 -33.62c0,-7.76 1.97,-14.78 5.83,-20.99 3.9,-6.22 9.11,-11.6 15.65,-16.1 6.53,-4.52 14.16,-8.02 22.87,-10.5 8.7,-2.49 17.88,-3.73 27.52,-3.73 9.66,0 18.82,1.24 27.52,3.73 8.74,2.48 16.44,5.98 23.12,10.5 6.68,4.5 11.98,9.95 15.87,16.32 3.87,6.39 5.83,13.32 5.83,20.77l0 31.74 -55.08 0 0 -28.46c0,-6.23 -1.63,-11.2 -4.87,-14.95 -3.29,-3.71 -7.4,-5.59 -12.39,-5.59 -4.98,0 -9.03,1.88 -12.11,5.59 -3.13,3.75 -4.67,8.72 -4.67,14.95l0 27.06c0,6.23 1.45,11.12 4.42,14.7 2.96,3.56 7.09,5.68 12.36,6.31 9.66,0 18.82,1.23 27.52,3.71 8.74,2.5 16.44,6.01 23.12,10.5 6.68,4.52 11.98,9.89 15.87,16.12 3.87,6.2 5.83,13.22 5.83,20.99l0 34.07z"/>
   <path class="fil4" d="M3648.5 3903.04c0,8.38 1.55,13.83 4.66,16.32 3.13,2.48 6.68,3.73 10.72,3.73 4.07,0 7.74,-1.4 11,-4.2 3.24,-2.8 4.88,-8.09 4.88,-15.85l0 -128.34c0,-7.78 -1.64,-13.06 -4.88,-15.87 -3.26,-2.8 -6.93,-4.2 -11,-4.2 -4.04,0 -7.59,1.31 -10.72,3.97 -3.11,2.64 -4.66,8.01 -4.66,16.1l0 35.93 -48.08 0 0 -39.2c0,-7.77 1.79,-14.77 5.38,-20.99 3.56,-6.23 8.3,-11.51 14.23,-15.87 5.92,-4.35 12.67,-7.78 20.29,-10.26 7.63,-2.51 15.49,-3.75 23.56,-3.75 8.4,0 16.41,1.24 24.04,3.75 7.64,2.48 14.4,5.91 20.31,10.26 5.91,4.36 10.65,9.72 14.22,16.1 3.58,6.37 5.37,13.3 5.37,20.76l0 134.41c0,7.46 -1.79,14.37 -5.37,20.74 -3.57,6.4 -8.31,11.76 -14.22,16.11 -5.91,4.35 -12.67,7.78 -20.31,10.27 -7.63,2.48 -15.64,3.73 -24.04,3.73 -8.07,0 -15.93,-1.18 -23.56,-3.51 -7.62,-2.32 -14.37,-5.74 -20.29,-10.26 -5.93,-4.51 -10.67,-9.86 -14.23,-16.09 -3.59,-6.22 -5.38,-13.22 -5.38,-20.99l0 -37.34 48.08 0 0 34.54zm212.84 -182.93c10.89,0 19.52,0.92 25.9,2.8 6.37,1.85 11.91,5.13 16.58,9.78 5.27,-5.29 11.57,-8.87 18.88,-10.72 7.32,-1.86 15.02,-2.8 23.12,-2.8 7.13,0 14.05,1.09 20.75,3.27 6.7,2.18 12.67,5.29 17.97,9.32 4.98,-4.36 11.28,-7.53 18.89,-9.55 7.64,-2.03 15.17,-3.04 22.62,-3.04 8.11,0 16.02,1.17 23.81,3.49 7.78,2.35 14.64,5.7 20.54,10.03 5.9,4.36 10.67,9.66 14.24,15.88 3.56,6.21 5.35,13.23 5.35,20.99l0 136.74c0,7.76 -2.01,14.76 -6.06,20.99 -4.03,6.22 -9.35,11.51 -15.87,15.87 -6.53,4.35 -14.15,7.7 -22.85,10.02 -8.72,2.33 -17.73,3.51 -27.08,3.51l0 -34.07c6.85,0 12.43,-1.63 16.8,-4.89 4.35,-3.27 6.54,-7.87 6.54,-13.77l0 -131.12c0,-6.23 -1.56,-11.04 -4.69,-14.46 -3.08,-3.44 -6.68,-5.14 -10.73,-5.14 -3.71,0 -7.13,1.54 -10.26,4.65 -3.09,3.13 -4.97,7.47 -5.57,13.08l0 184.32 -48.55 0 0 -183.86c-0.63,-5.9 -2.51,-10.41 -5.61,-13.54 -3.11,-3.11 -6.54,-4.65 -10.24,-4.65 -3.76,0 -7.16,1.54 -10.26,4.65 -3.14,3.13 -5.01,7.64 -5.62,13.54l0 183.86 -48.52 0 0 -179.67c0,-6.22 -1.79,-11.5 -5.38,-15.85 -3.59,-4.36 -8.93,-6.38 -16.11,-6.08l-42.45 0c-3.42,0 -6.55,1.8 -9.33,5.38 -2.81,3.58 -4.22,8.47 -4.22,14.69l0 10.75c3.13,-0.64 6.09,-0.94 8.9,-0.94 16.78,0 30.62,4.65 41.51,13.98 10.89,9.34 16.32,21.79 16.32,37.33l0 71.42c0,15.85 -5.43,28.37 -16.32,37.56 -10.89,9.17 -24.73,13.75 -41.51,13.75 -16.5,0 -30.11,-4.58 -40.87,-13.75 -10.73,-9.19 -16.07,-21.71 -16.07,-37.56l0 -134.87c0,-7.77 1.72,-14.77 5.14,-20.99 3.42,-6.23 7.92,-11.59 13.53,-16.09 5.58,-4.54 12.11,-8.03 19.6,-10.53 7.47,-2.48 15.23,-3.71 23.32,-3.71l43.86 0zm-39.18 118.05c0,-6.23 -0.7,-11.12 -2.13,-14.7 -1.37,-3.58 -3.8,-5.35 -7.2,-5.35 -3.13,0 -5.4,1.77 -6.78,5.35 -1.41,3.58 -2.12,8.47 -2.12,14.7l0 65.8c0,5.9 0.71,10.66 2.12,14.23 1.38,3.58 3.65,5.37 6.78,5.37 3.4,0 5.83,-1.79 7.2,-5.37 1.43,-3.57 2.13,-8.33 2.13,-14.23l0 -65.8zm294.02 -131.13c0,-6.22 -0.54,-11.04 -1.61,-14.46 -1.1,-3.42 -3.85,-5.14 -8.19,-5.14 -4.05,0 -6.59,1.72 -7.68,5.14 -1.09,3.42 -1.66,8.24 -1.66,14.46l0 6.55 -47.59 0 0 -9.81c0,-15.56 5.3,-27.93 15.87,-37.11 10.58,-9.17 24.28,-13.75 41.06,-13.75 16.48,0 30.18,4.58 41.07,13.75 10.88,9.18 16.34,21.55 16.34,37.11l0 251.52 -47.61 0 0 -248.26zm285.62 199.27c0,7.76 -1.99,14.84 -6.04,21.22 -4.05,6.39 -9.35,11.76 -15.87,16.1 -6.53,4.36 -14.18,7.78 -22.86,10.28 -8.72,2.48 -17.73,3.57 -27.08,3.26 -9.94,-0.31 -19.65,-1.48 -29.17,-3.49 -9.46,-2.03 -17.02,-6.16 -22.62,-12.38 -3.12,4.36 -7.31,8.09 -12.59,11.19 -5.3,3.12 -13.53,4.68 -24.75,4.68 -14.93,0 -26.82,-4.51 -35.67,-13.54 -8.89,-9.02 -13.33,-21.47 -13.33,-37.32l0 -48.55c0,-15.54 5.46,-27.92 16.35,-37.08 10.9,-9.18 25.81,-13.78 44.79,-13.78l6.06 0 0 -37.33c0,-8.7 1.96,-16.23 5.83,-22.62 3.89,-6.38 9.1,-11.68 15.63,-15.88 6.55,-4.2 14.1,-7.38 22.64,-9.56 8.54,-2.18 17.5,-3.26 26.83,-3.26 9.35,0 18.36,1.08 27.08,3.26 8.68,2.18 16.33,5.36 22.86,9.56 6.52,4.2 11.82,9.58 15.87,16.1 4.05,6.53 6.04,14.01 6.04,22.4l0 37.33 6.1 0c18.96,0 33.98,4.6 45.02,13.78 11.04,9.16 16.57,21.54 16.57,37.08l0 48.55c0,15.85 -4.51,28.37 -13.55,37.56 -9.01,9.17 -24.09,13.75 -45.24,13.75l-7.46 0 0 -34.05 7.46 0c3.42,0 6.06,-1.79 7.93,-5.37 1.85,-3.57 2.8,-8.33 2.8,-14.23l0 -42.93c0,-6.23 -0.95,-11.12 -2.8,-14.71 -1.87,-3.57 -5.46,-5.36 -10.73,-5.36l-6.1 0 0 65.34zm-48.98 -65.34l-45.74 0 0 58.33c0,16.18 7.63,24.27 22.87,24.27 7.78,0 13.54,-2.19 17.29,-6.53 3.7,-4.36 5.58,-10.12 5.58,-17.27l0 -58.8zm0 -34.07l0 -34.05c0,-7.48 -2.01,-12.76 -6.06,-15.89 -4.05,-3.09 -9.66,-4.65 -16.81,-4.65 -6.22,0 -11.58,1.48 -16.09,4.43 -4.53,2.95 -6.78,8.33 -6.78,16.11l0 34.05 45.74 0zm-103.59 115.73c4.02,0 6.7,-1.78 7.93,-5.34 1.23,-3.6 1.86,-8.96 1.86,-16.12l0 -60.2 -6.51 0c-5.32,0 -8.74,2.26 -10.27,6.78 -1.58,4.49 -2.34,8.93 -2.34,13.29l0 42.93c0,5.3 0.54,9.72 1.63,13.32 1.08,3.56 3.67,5.34 7.7,5.34zm276.22 -267.38l0 19.6c0,7.46 -1.72,14.08 -5.13,19.83 -3.42,5.75 -8,10.58 -13.77,14.46 -5.77,3.89 -12.36,6.78 -19.83,8.64 -7.47,1.85 -15.4,2.79 -23.78,2.79 -8.1,0 -15.87,-0.94 -23.32,-2.79 -7.49,-1.86 -14.11,-4.75 -19.85,-8.64 -5.75,-3.88 -10.33,-8.71 -13.77,-14.46 -3.42,-5.75 -5.13,-12.52 -5.13,-20.29l0 -19.14 47.58 0 0 16.34c0,6.21 1.52,10.64 4.44,13.3 2.95,2.64 6.29,3.96 10.05,3.96 4.04,0 7.46,-1.24 10.26,-3.74 2.81,-2.48 4.19,-6.84 4.19,-13.05l0 -16.81 48.06 0zm194.56 64.87c22.1,0 39.65,4.65 52.75,13.99 13.07,9.33 19.58,21.62 19.58,36.87l0 135.78c0,7.49 -1.76,14.39 -5.35,20.77 -3.58,6.39 -8.33,11.76 -14.23,16.1 -5.92,4.36 -12.67,7.78 -20.32,10.28 -7.59,2.48 -15.65,3.71 -24.03,3.71 -8.06,0 -15.94,-1.23 -23.54,-3.71 -7.64,-2.5 -14.4,-6 -20.32,-10.5 -5.89,-4.52 -10.64,-10.04 -14.24,-16.57 -3.58,-6.54 -5.34,-13.85 -5.34,-21.93l0 -130.67c0,-6.22 -1.57,-11.13 -4.67,-14.69 -3.13,-3.6 -6.72,-5.36 -10.74,-5.36 -3.73,0 -7.15,1.61 -10.25,4.89 -3.11,3.26 -4.99,7.85 -5.62,13.77l0 182.45 -48.05 0 0 -182.45c-0.63,-5.92 -2.57,-10.51 -5.84,-13.77 -3.29,-3.28 -6.62,-4.89 -10.04,-4.89 -4.02,0 -7.69,1.76 -10.98,5.36 -3.26,3.56 -4.9,8.47 -4.9,14.69l0 129.73c0,13.37 6.85,20.07 20.55,20.07l0 33.58c-23.03,0 -40.15,-4.58 -51.33,-13.75 -11.19,-9.19 -16.78,-21.55 -16.78,-37.11l0 -135.78c0,-7.79 1.76,-14.78 5.34,-20.99 3.58,-6.22 8.34,-11.51 14.24,-15.88 5.92,-4.36 12.68,-7.78 20.3,-10.28 7.6,-2.48 15.46,-3.71 23.56,-3.71 7.18,0 14.39,1.09 21.7,3.26 7.31,2.17 13.13,5.91 17.51,11.2 4.65,-5.29 10.89,-9.03 18.66,-11.2 7.77,-2.17 15.1,-3.26 21.93,-3.26 7.79,0 15.54,1.23 23.33,3.71 7.77,2.5 14.7,5.92 20.76,10.28 6.08,4.37 10.88,9.73 14.47,16.1 3.59,6.39 5.22,13.31 4.89,20.77l0 130.64c0,6.23 1.1,11.53 3.29,15.89 2.17,4.34 6.22,6.53 12.11,6.53 5.28,0 9.25,-2.12 11.91,-6.3 2.65,-4.2 3.96,-9.41 3.96,-15.63l0 -127.87c0,-6.22 -2.35,-11.13 -6.97,-14.69 -4.69,-3.6 -10.44,-5.36 -17.3,-5.36l0 -34.07zm128.4 -64.87l0 19.6c0,7.46 -1.72,14.08 -5.14,19.83 -3.42,5.75 -8.01,10.58 -13.75,14.46 -5.77,3.89 -12.38,6.78 -19.83,8.64 -7.49,1.85 -15.42,2.79 -23.83,2.79 -8.08,0 -15.86,-0.94 -23.34,-2.79 -7.45,-1.86 -14.04,-4.75 -19.81,-8.64 -5.76,-3.88 -10.35,-8.71 -13.77,-14.46 -3.42,-5.75 -5.14,-12.52 -5.14,-20.29l0 -19.14 47.62 0 0 16.34c0,6.21 1.45,10.64 4.42,13.3 2.96,2.64 6.31,3.96 10.02,3.96 4.06,0 7.48,-1.24 10.28,-3.74 2.79,-2.48 4.2,-6.84 4.2,-13.05l0 -16.81 48.07 0z"/>
   <path class="fil6" d="M11063.96 1436.66l-185.34 -214.8 170.61 -194.54 -63.82 0 -181.04 211.73 0 -211.73 -50.94 0 0 409.34 50.94 0 0 -137.47 41.11 -46.64 155.27 184.11 63.21 0zm326.49 0l0 -45.41 -217.25 0 0 -141.15 212.95 0 0 -45.42 -212.95 0 0 -131.94 217.25 0 0 -45.42 -268.19 0 0 409.34 268.19 0zm378.04 0l-110.47 -166.93c55.85,-4.91 106.17,-45.41 106.17,-119.05 0,-75.49 -53.39,-123.36 -128.26,-123.36l-164.47 0 0 409.34 50.94 0 0 -162.63 81.62 0 104.33 162.63 60.14 0zm-138.7 -207.43l-107.39 0 0 -156.49 107.39 0c48.49,0 81.63,31.91 81.63,77.94 0,46.02 -33.14,78.55 -81.63,78.55zm565.22 207.43l-165.08 -409.34 -63.22 0 -164.47 409.34 58.3 0 36.21 -90.83 203.75 0 36.21 90.83 58.3 0zm-109.85 -136.24l-173.68 0 87.15 -220.32 86.53 220.32zm404.42 136.24l0 -45.41 -190.24 0 0 -363.93 -50.94 0 0 409.34 241.18 0zm422.23 0l-165.08 -409.34 -63.22 0 -164.47 409.34 58.3 0 36.21 -90.83 203.75 0 36.21 90.83 58.3 0zm-109.85 -136.24l-173.68 0 87.15 -220.32 86.53 220.32zm454.13 143.6c110.46,0 150.97,-60.75 150.97,-120.28 0,-152.81 -242.41,-100.03 -242.41,-192.09 0,-38.66 34.98,-65.05 84.07,-65.05 44.8,0 87.76,15.34 118.45,49.09l30.68 -37.43c-34.36,-36.21 -82.85,-57.07 -145.44,-57.07 -80.4,0 -140.54,46.02 -140.54,113.53 0,146.06 242.41,87.76 242.41,193.32 0,31.29 -23.32,70.57 -96.35,70.57 -57.69,0 -101.88,-28.23 -128.88,-58.3l-30.07 38.66c33.75,38.05 85.92,65.05 157.11,65.05zm375.59 -7.36l0 -363.92 130.1 0 0 -45.42 -310.53 0 0 45.42 129.49 0 0 363.92 50.94 0zm506.91 0l-165.08 -409.34 -63.22 0 -164.47 409.34 58.3 0 36.21 -90.83 203.75 0 36.21 90.83 58.3 0zm-109.85 -136.24l-173.68 0 87.15 -220.32 86.53 220.32zm274.33 136.24l0 -363.92 130.1 0 0 -45.42 -310.53 0 0 45.42 129.49 0 0 363.92 50.94 0zm465.8 0l0 -45.41 -217.25 0 0 -141.15 212.95 0 0 -45.42 -212.95 0 0 -131.94 217.25 0 0 -45.42 -268.19 0 0 409.34 268.19 0zm536.37 0l-110.47 -166.93c55.85,-4.91 106.17,-45.41 106.17,-119.05 0,-75.49 -53.39,-123.36 -128.26,-123.36l-164.47 0 0 409.34 50.94 0 0 -162.63 81.62 0 104.33 162.63 60.14 0zm-138.7 -207.43l-107.39 0 0 -156.49 107.39 0c48.49,0 81.63,31.91 81.63,77.94 0,46.02 -33.14,78.55 -81.63,78.55zm381.73 214.79c111.07,0 166.92,-65.05 166.92,-166.92l0 -249.78 -50.94 0 0 249.16c0,74.88 -40.5,122.13 -115.98,122.13 -75.49,0 -115.99,-47.25 -115.99,-122.13l0 -249.16 -50.94 0 0 250.39c0,100.65 55.85,166.31 166.93,166.31zm414.86 -7.36l0 -363.92 130.1 0 0 -45.42 -310.53 0 0 45.42 129.49 0 0 363.92 50.94 0zm494.64 0l-110.47 -166.93c55.85,-4.91 106.17,-45.41 106.17,-119.05 0,-75.49 -53.39,-123.36 -128.26,-123.36l-164.47 0 0 409.34 50.94 0 0 -162.63 81.62 0 104.33 162.63 60.14 0zm-138.7 -207.43l-107.39 0 0 -156.49 107.39 0c48.49,0 81.63,31.91 81.63,77.94 0,46.02 -33.14,78.55 -81.63,78.55zm401.36 214.79c120.9,0 203.14,-90.82 203.14,-211.72 0,-120.9 -82.24,-211.73 -203.14,-211.73 -121.51,0 -203.13,90.83 -203.13,211.73 0,120.9 81.62,211.72 203.13,211.72zm0 -45.41c-92.05,0 -150.35,-71.19 -150.35,-166.31 0,-95.74 58.3,-166.31 150.35,-166.31 91.44,0 150.36,70.57 150.36,166.31 0,95.12 -58.92,166.31 -150.36,166.31zm621.68 38.05l0 -409.34 -50.94 0 0 319.74 -235.66 -319.74 -52.16 0 0 409.34 50.94 0 0 -326.49 238.73 326.49 49.09 0zm146.68 0l0 -409.34 -50.94 0 0 409.34 50.94 0zm440.01 0l-158.94 -210.5 149.74 -198.84 -61.98 0 -120.9 163.86 -121.52 -163.86 -61.98 0 150.36 199.45 -159.57 209.89 61.99 0 130.72 -174.29 130.71 174.29 61.37 0z"/>
  </g>
 </g>
</svg>
