<?xml version="1.0" encoding="UTF-8"?>
<!DOCTYPE svg PUBLIC "-//W3C//DTD SVG 1.1//EN" "http://www.w3.org/Graphics/SVG/1.1/DTD/svg11.dtd">
<!-- Creator: CorelDRAW 2020 (64-Bit) -->
<svg xmlns="http://www.w3.org/2000/svg" xml:space="preserve" width="70mm" height="30mm" version="1.1" style="shape-rendering:geometricPrecision; text-rendering:geometricPrecision; image-rendering:optimizeQuality; fill-rule:evenodd; clip-rule:evenodd"
viewBox="0 0 7000 3000"
 xmlns:xlink="http://www.w3.org/1999/xlink"
 xmlns:xodm="http://www.corel.com/coreldraw/odm/2003">
 <defs>
  <style type="text/css">
   <![CDATA[
    .fil3 {fill:#4B4B4D;fill-rule:nonzero}
    .fil0 {fill:#F58634;fill-rule:nonzero}
    .fil1 {fill:#00B1CB;fill-rule:nonzero}
    .fil2 {fill:#00B1CB;fill-rule:nonzero}
   ]]>
  </style>
 </defs>
 <g id="Layer_x0020_1">
  <metadata id="CorelCorpID_0Corel-Layer"/>
  <polygon class="fil0" points="2584.13,2238.52 1911.18,1036.47 1489.76,1789.07 1741.42,2238.52 "/>
  <polygon class="fil1" points="1652.82,2238.52 1445.47,1868.17 1238.11,2238.52 "/>
  <polygon class="fil1" points="1543.92,329.71 478.18,2238.52 1140.23,2238.52 1874.95,920.94 "/>
  <path class="fil2" d="M3138.6 2235.87l0 -1840.33 -368.07 0 0 1840.33 368.07 0zm1077.22 -1060.44l-725.83 -808.2 -118.4 0 0 1868.64 373.21 0 0 -1026.98 471.02 494.19 471.03 -494.19 -2.58 1026.98 373.22 0 0 -1868.64 -115.83 0 -725.84 808.2zm989.72 942.04c249.67,128.7 478.74,141.57 581.7,133.84 344.9,-18.01 555.96,-252.24 555.96,-558.53 0,-293.42 -247.1,-458.15 -532.8,-563.68 -105.53,-36.04 -195.61,-82.37 -205.91,-185.32 -7.72,-102.96 51.48,-198.19 182.75,-205.91 56.62,-2.58 172.45,-5.15 375.79,77.22l46.33 -355.2c-236.8,-82.37 -362.92,-82.37 -458.16,-77.22 -306.29,15.44 -519.92,252.24 -519.92,561.11 0,308.86 257.39,455.58 545.66,561.11 102.96,36.03 182.75,82.36 190.47,187.89 10.3,100.38 -82.37,177.6 -190.47,185.32 -84.94,7.73 -314.01,2.57 -525.07,-146.71l-46.33 386.08z"/>
  <path class="fil3" d="M651.44 2585.44l-71.89 0 35.79 -92.83 36.1 92.83zm6.37 18.8l21.84 55.82c1.52,3.94 4.86,6.98 10.01,6.98 6.37,0 10.62,-4.86 10.62,-10.32 0,-0.91 -0.3,-3.03 -0.91,-4.55l-74.02 -187.16c-1.51,-3.64 -4.85,-6.98 -10.01,-6.98 -5.46,0 -8.19,3.34 -9.71,6.98l-74.01 187.16c-0.61,1.21 -0.91,3.34 -0.91,4.55 0,5.46 4.55,10.32 10.31,10.32 5.16,0 8.5,-3.34 10.01,-7.28l22.15 -55.52 84.63 0zm161.99 4.55c0,28.82 -16.68,42.17 -40.04,42.17 -27.91,0 -42.77,-17.59 -42.77,-55.51 0,-37.32 15.16,-55.21 42.77,-55.21 28.51,0 40.04,26.69 40.04,26.69l0 41.86zm-41.26 -86.15c-39.13,0 -60.97,23.06 -60.97,72.81 0,49.74 23.05,73.11 62.19,73.11 34.58,0 59.45,-19.72 59.45,-59.77l0 -150.46c0,-5.46 -4.25,-9.7 -9.7,-9.7 -5.46,0 -9.71,4.24 -9.71,9.7l0 84.03c-6.98,-9.71 -21.84,-19.72 -41.26,-19.72zm145.31 144.4c3.94,0 7.28,-2.13 9.1,-6.07l51.57 -122.55c0.3,-0.91 0.9,-2.12 0.9,-4.25 0,-5.46 -4.24,-9.71 -9.7,-9.71 -5.46,0 -7.89,3.34 -9.1,6.37l-42.77 104.66 -42.77 -104.66c-1.22,-3.03 -3.65,-6.37 -9.11,-6.37 -5.45,0 -9.7,4.25 -9.7,9.71 0,2.13 0.6,3.34 0.91,4.25l51.57 122.55c1.82,3.94 5.15,6.07 9.1,6.07zm136.81 -126.2c22.14,0 35.79,12.74 35.79,33.37l0 8.19 -42.77 0c-32.76,0 -53.08,16.08 -53.08,42.77 0,27.91 20.32,43.39 52.47,43.39 18.2,0 35.8,-7.59 43.38,-21.85l0 10.92c0,5.16 4.25,9.41 9.41,9.41 5.15,0 9.4,-4.25 9.4,-9.41l0 -83.42c0,-30.94 -19.41,-51.57 -54.6,-51.57 -25.48,0 -41.86,10.62 -50.36,23.97 -0.91,1.51 -1.51,3.03 -1.51,5.16 0,4.85 3.94,8.79 8.8,8.79 2.73,0 4.85,-0.91 7.88,-4.25 9.4,-10.61 19.11,-15.47 35.19,-15.47zm-5.76 110.12c-23.67,0 -34.58,-10.01 -34.58,-25.79 0,-17.59 13.64,-25.78 33.36,-25.78l42.77 0 0 12.74c0,25.78 -20.32,38.83 -41.55,38.83zm156.52 -128.32c-19.72,0 -34.58,9.71 -40.34,21.24l0 -9.71c0,-5.46 -4.25,-9.71 -9.71,-9.71 -5.46,0 -9.71,4.25 -9.71,9.71l0 123.16c0,5.46 4.25,9.71 9.71,9.71 5.46,0 9.71,-4.25 9.71,-9.71l0 -74.93c0,-24.27 10.31,-42.47 40.34,-42.47 29.43,0 36.4,16.38 36.4,40.35l0 77.05c0,5.46 4.25,9.71 9.71,9.71 5.46,0 9.71,-4.25 9.71,-9.71l0 -81c0,-25.78 -9.1,-53.69 -55.82,-53.69zm83.12 72.81c0,49.74 23.35,73.11 62.48,73.11 24.58,0 39.14,-10.93 45.81,-16.39 3.04,-2.73 3.94,-4.85 3.94,-7.58 0,-4.86 -3.94,-8.8 -8.79,-8.8 -2.12,0 -3.64,0.61 -5.77,2.12 -6.97,5.16 -17.59,13.05 -35.19,13.05 -27.9,0 -42.77,-17.59 -42.77,-55.51 0,-37.32 14.87,-55.21 42.77,-55.21 20.03,0 28.22,9.1 32.77,14.26 2.12,2.42 4.24,3.63 7.28,3.63 4.85,0 8.8,-3.63 8.8,-8.79 0,-2.12 -0.61,-3.64 -2.13,-5.77 -4.85,-6.67 -19.72,-20.93 -46.72,-20.93 -39.13,0 -62.48,23.06 -62.48,72.81zm133.77 0c0,50.96 25.18,73.11 65.52,73.11 27,0 42.78,-12.44 47.33,-16.99 1.82,-1.82 3.33,-3.65 3.33,-6.98 0,-4.86 -3.94,-8.8 -8.79,-8.8 -2.43,0 -3.64,0.61 -5.47,1.82 -8.49,6.37 -18.8,13.04 -36.4,13.04 -28.51,0 -45.8,-19.41 -45.8,-49.44l88.58 0c12.13,0 12.13,-10.62 12.13,-19.42 0,-20.62 -9.4,-59.15 -57.94,-59.15 -39.44,0 -62.49,26.09 -62.49,72.81zm101.32 -11.23l-81.6 0c1.82,-26.99 16.38,-43.98 42.77,-43.98 31.24,0 38.83,22.14 38.83,43.98zm142.27 24.57c0,28.82 -16.68,42.17 -40.05,42.17 -27.9,0 -42.76,-17.59 -42.76,-55.51 0,-37.32 15.16,-55.21 42.76,-55.21 28.52,0 40.05,26.69 40.05,26.69l0 41.86zm-41.26 -86.15c-39.13,0 -60.97,23.06 -60.97,72.81 0,49.74 23.05,73.11 62.18,73.11 34.59,0 59.46,-19.72 59.46,-59.77l0 -150.46c0,-5.46 -4.25,-9.7 -9.7,-9.7 -5.46,0 -9.71,4.24 -9.71,9.7l0 84.03c-6.98,-9.71 -21.85,-19.72 -41.26,-19.72zm197.48 -54.3c0,-5.46 -4.55,-10.31 -10.31,-10.31 -5.77,0 -10.32,4.85 -10.32,10.31l0 188.38c0,5.46 4.55,10.32 10.32,10.32 5.76,0 10.31,-4.86 10.31,-10.32l0 -188.38zm95.56 11.53l0 176.85c0,5.77 4.55,10.32 10.31,10.32 5.76,0 10.31,-4.55 10.31,-10.32l0 -176.85 54 0c5.46,0 9.71,-4.24 9.71,-9.7 0,-5.47 -4.25,-9.71 -9.71,-9.71l-128.92 0c-5.46,0 -9.71,4.24 -9.71,9.71 0,5.46 4.25,9.7 9.71,9.7l54.3 0zm209 -11.53c0,-5.46 -4.54,-10.31 -10.31,-10.31 -5.76,0 -10.31,4.85 -10.31,10.31l0 188.38c0,5.46 4.55,10.32 10.31,10.32 5.77,0 10.31,-4.86 10.31,-10.32l0 -188.38zm103.75 54.3c-19.72,0 -34.58,9.71 -40.35,21.24l0 -9.71c0,-5.46 -4.24,-9.71 -9.7,-9.71 -5.46,0 -9.71,4.25 -9.71,9.71l0 123.16c0,5.46 4.25,9.71 9.71,9.71 5.46,0 9.7,-4.25 9.7,-9.71l0 -74.93c0,-24.27 10.32,-42.47 40.35,-42.47 29.43,0 36.4,16.38 36.4,40.35l0 77.05c0,5.46 4.25,9.71 9.71,9.71 5.46,0 9.71,-4.25 9.71,-9.71l0 -81c0,-25.78 -9.1,-53.69 -55.82,-53.69zm98.28 22.45l0 112.24c0,5.46 4.25,9.71 9.71,9.71 5.46,0 9.71,-4.25 9.71,-9.71l0 -112.24 27.6 0c5.16,0 9.1,-3.94 9.1,-9.1 0,-5.16 -3.94,-9.1 -9.1,-9.1l-27.6 0 0 -17.9c0,-19.72 9.4,-33.97 33.06,-33.97 5.16,0 9.1,-3.95 9.1,-9.1 0,-5.16 -3.94,-9.1 -9.1,-9.1 -37.01,0 -52.48,24.87 -52.48,52.17l0 17.9 -10.31 0c-5.16,0 -9.1,3.94 -9.1,9.1 0,5.16 3.94,9.1 9.1,9.1l10.31 0zm101.02 -10.92c0,-5.46 -4.25,-9.71 -9.71,-9.71 -5.46,0 -9.7,4.25 -9.7,9.71l0 123.16c0,5.46 4.24,9.71 9.7,9.71 5.46,0 9.71,-4.25 9.71,-9.71l0 -67.95c0,-27.91 14.26,-47.32 42.16,-47.32 5.16,0 9.41,-4.25 9.41,-9.41 0,-5.15 -4.25,-9.4 -9.41,-9.4 -20.93,0 -36.09,10.32 -42.16,24.27l0 -13.35zm121.94 6.67c22.15,0 35.8,12.74 35.8,33.37l0 8.19 -42.77 0c-32.76,0 -53.09,16.08 -53.09,42.77 0,27.91 20.33,43.39 52.48,43.39 18.2,0 35.8,-7.59 43.38,-21.85l0 10.92c0,5.16 4.25,9.41 9.4,9.41 5.16,0 9.41,-4.25 9.41,-9.41l0 -83.42c0,-30.94 -19.42,-51.57 -54.61,-51.57 -25.47,0 -41.86,10.62 -50.35,23.97 -0.91,1.51 -1.52,3.03 -1.52,5.16 0,4.85 3.95,8.79 8.8,8.79 2.73,0 4.86,-0.91 7.89,-4.25 9.4,-10.61 19.11,-15.47 35.18,-15.47zm-5.75 110.12c-23.67,0 -34.59,-10.01 -34.59,-25.79 0,-17.59 13.65,-25.78 33.37,-25.78l42.77 0 0 12.74c0,25.78 -20.32,38.83 -41.55,38.83zm139.83 -109.51c15.78,0 24.88,4.86 33.07,12.74 2.43,2.43 4.85,2.73 6.37,2.73 4.85,0 8.8,-3.94 8.8,-8.8 0,-2.73 -1.22,-4.55 -2.13,-5.76 -9.4,-12.44 -25.48,-19.41 -46.11,-19.41 -25.78,0 -46.41,11.52 -46.41,36.7 0,49.75 79.79,37.32 79.79,68.56 0,15.77 -14.87,21.54 -32.16,21.54 -16.99,0 -29.12,-5.46 -38.53,-14.87 -2.43,-2.43 -4.85,-3.03 -6.67,-3.03 -4.85,0 -8.8,3.94 -8.8,8.79 0,2.13 0.61,3.65 2.12,5.77 7.89,10.01 27,21.84 51.88,21.84 28.82,0 51.57,-12.44 51.57,-40.04 0,-48.54 -79.79,-36.71 -79.79,-68.56 0,-13.95 13.35,-18.2 27,-18.2zm93.13 -14.56l-11.83 0c-5.16,0 -9.1,3.94 -9.1,9.1 0,5.16 3.94,9.1 9.1,9.1l11.83 0 0 83.73c0,22.14 13.05,38.22 37.01,38.22 5.16,0 9.4,-3.94 9.4,-9.1 0,-5.16 -4.24,-9.1 -9.4,-9.1 -10.31,0 -17.6,-6.98 -17.6,-20.02l0 -83.73 19.72 0c5.16,0 9.1,-3.94 9.1,-9.1 0,-5.16 -3.94,-9.1 -9.1,-9.1l-19.72 0 0 -31.85c0,-5.16 -4.24,-9.71 -9.7,-9.71 -5.16,0 -9.71,4.55 -9.71,9.71l0 31.85zm96.47 7.28c0,-5.46 -4.25,-9.71 -9.71,-9.71 -5.46,0 -9.71,4.25 -9.71,9.71l0 123.16c0,5.46 4.25,9.71 9.71,9.71 5.46,0 9.71,-4.25 9.71,-9.71l0 -67.95c0,-27.91 14.25,-47.32 42.16,-47.32 5.16,0 9.41,-4.25 9.41,-9.41 0,-5.15 -4.25,-9.4 -9.41,-9.4 -20.93,0 -36.1,10.32 -42.16,24.27l0 -13.35zm79.47 -9.71c-5.46,0 -9.7,4.25 -9.7,9.71l0 79.17c0,28.82 9.7,55.22 56.42,55.22 47.02,0 56.42,-26.4 56.42,-55.22l0 -79.17c0,-5.46 -4.24,-9.71 -9.4,-9.71 -5.46,0 -10.01,4.25 -10.01,9.71l0 79.17c0,19.72 -6.37,36.71 -37.01,36.71 -30.64,0 -37.01,-16.99 -37.01,-36.71l0 -79.17c0,-5.46 -4.55,-9.71 -9.71,-9.71zm130.44 70.99c0,49.74 23.36,73.11 62.49,73.11 24.58,0 39.13,-10.93 45.81,-16.39 3.03,-2.73 3.94,-4.85 3.94,-7.58 0,-4.86 -3.94,-8.8 -8.79,-8.8 -2.13,0 -3.64,0.61 -5.77,2.12 -6.97,5.16 -17.59,13.05 -35.19,13.05 -27.9,0 -42.77,-17.59 -42.77,-55.51 0,-37.32 14.87,-55.21 42.77,-55.21 20.03,0 28.22,9.1 32.77,14.26 2.12,2.42 4.24,3.63 7.28,3.63 4.85,0 8.79,-3.63 8.79,-8.79 0,-2.12 -0.6,-3.64 -2.12,-5.77 -4.86,-6.67 -19.72,-20.93 -46.72,-20.93 -39.13,0 -62.49,23.06 -62.49,72.81zm150.47 -68.56l-11.84 0c-5.15,0 -9.1,3.94 -9.1,9.1 0,5.16 3.95,9.1 9.1,9.1l11.84 0 0 83.73c0,22.14 13.04,38.22 37,38.22 5.16,0 9.41,-3.94 9.41,-9.1 0,-5.16 -4.25,-9.1 -9.41,-9.1 -10.31,0 -17.59,-6.98 -17.59,-20.02l0 -83.73 19.72 0c5.15,0 9.09,-3.94 9.09,-9.1 0,-5.16 -3.94,-9.1 -9.09,-9.1l-19.72 0 0 -31.85c0,-5.16 -4.25,-9.71 -9.71,-9.71 -5.16,0 -9.7,4.55 -9.7,9.71l0 31.85zm83.72 -2.43c-5.46,0 -9.71,4.25 -9.71,9.71l0 79.17c0,28.82 9.71,55.22 56.42,55.22 47.02,0 56.43,-26.4 56.43,-55.22l0 -79.17c0,-5.46 -4.25,-9.71 -9.41,-9.71 -5.46,0 -10.01,4.25 -10.01,9.71l0 79.17c0,19.72 -6.37,36.71 -37.01,36.71 -30.63,0 -37.01,-16.99 -37.01,-36.71l0 -79.17c0,-5.46 -4.55,-9.71 -9.7,-9.71zm158.95 9.71c0,-5.46 -4.24,-9.71 -9.7,-9.71 -5.46,0 -9.71,4.25 -9.71,9.71l0 123.16c0,5.46 4.25,9.71 9.71,9.71 5.46,0 9.7,-4.25 9.7,-9.71l0 -67.95c0,-27.91 14.26,-47.32 42.17,-47.32 5.16,0 9.4,-4.25 9.4,-9.41 0,-5.15 -4.24,-9.4 -9.4,-9.4 -20.93,0 -36.1,10.32 -42.17,24.27l0 -13.35zm62.19 61.28c0,50.96 25.18,73.11 65.52,73.11 27,0 42.78,-12.44 47.33,-16.99 1.82,-1.82 3.33,-3.65 3.33,-6.98 0,-4.86 -3.94,-8.8 -8.79,-8.8 -2.43,0 -3.64,0.61 -5.46,1.82 -8.49,6.37 -18.81,13.04 -36.41,13.04 -28.51,0 -45.8,-19.41 -45.8,-49.44l88.58 0c12.13,0 12.13,-10.62 12.13,-19.42 0,-20.62 -9.4,-59.15 -57.94,-59.15 -39.43,0 -62.49,26.09 -62.49,72.81zm101.32 -11.23l-81.6 0c1.82,-26.99 16.38,-43.98 42.77,-43.98 31.24,0 38.83,22.14 38.83,43.98zm215.38 47.33c3.63,0 6.97,-1.83 9.1,-5.77l63.7 -118 0 149.25c0,5.46 4.55,10.01 10.01,10.01 5.46,0 10.01,-4.55 10.01,-10.01l0 -188.99c0,-5.46 -4.55,-10.01 -10.01,-10.01 -5.46,0 -7.89,3.64 -9.1,5.76l-73.71 137.42 -73.41 -137.42c-1.52,-3.03 -4.56,-5.76 -9.1,-5.76 -5.47,0 -10.01,4.55 -10.01,10.01l0 188.99c0,5.46 4.54,10.01 10.01,10.01 5.46,0 10,-4.55 10,-10.01l0 -149.25 63.4 118c2.13,4.25 6.07,5.77 9.11,5.77zm187.46 -90.71c22.15,0 35.8,12.74 35.8,33.37l0 8.19 -42.77 0c-32.77,0 -53.09,16.08 -53.09,42.77 0,27.91 20.32,43.39 52.48,43.39 18.2,0 35.8,-7.59 43.38,-21.85l0 10.92c0,5.16 4.24,9.41 9.4,9.41 5.16,0 9.41,-4.25 9.41,-9.41l0 -83.42c0,-30.94 -19.42,-51.57 -54.61,-51.57 -25.48,0 -41.86,10.62 -50.35,23.97 -0.91,1.51 -1.52,3.03 -1.52,5.16 0,4.85 3.94,8.79 8.8,8.79 2.73,0 4.85,-0.91 7.89,-4.25 9.4,-10.61 19.1,-15.47 35.18,-15.47zm-5.76 110.12c-23.66,0 -34.58,-10.01 -34.58,-25.79 0,-17.59 13.65,-25.78 33.37,-25.78l42.77 0 0 12.74c0,25.78 -20.33,38.83 -41.56,38.83zm156.53 -128.32c-19.72,0 -34.59,9.71 -40.35,21.24l0 -9.71c0,-5.46 -4.25,-9.71 -9.71,-9.71 -5.46,0 -9.7,4.25 -9.7,9.71l0 123.16c0,5.46 4.24,9.71 9.7,9.71 5.46,0 9.71,-4.25 9.71,-9.71l0 -74.93c0,-24.27 10.31,-42.47 40.35,-42.47 29.42,0 36.4,16.38 36.4,40.35l0 77.05c0,5.46 4.24,9.71 9.7,9.71 5.46,0 9.71,-4.25 9.71,-9.71l0 -81c0,-25.78 -9.1,-53.69 -55.81,-53.69zm142.87 18.2c22.15,0 35.8,12.74 35.8,33.37l0 8.19 -42.78 0c-32.76,0 -53.08,16.08 -53.08,42.77 0,27.91 20.32,43.39 52.48,43.39 18.2,0 35.79,-7.59 43.38,-21.85l0 10.92c0,5.16 4.24,9.41 9.4,9.41 5.15,0 9.4,-4.25 9.4,-9.41l0 -83.42c0,-30.94 -19.41,-51.57 -54.6,-51.57 -25.48,0 -41.86,10.62 -50.36,23.97 -0.9,1.51 -1.51,3.03 -1.51,5.16 0,4.85 3.94,8.79 8.8,8.79 2.73,0 4.85,-0.91 7.88,-4.25 9.41,-10.61 19.11,-15.47 35.19,-15.47zm-5.76 110.12c-23.67,0 -34.58,-10.01 -34.58,-25.79 0,-17.59 13.64,-25.78 33.36,-25.78l42.78 0 0 12.74c0,25.78 -20.33,38.83 -41.56,38.83zm146.51 -128.32c-35.19,0 -55.81,20.02 -55.81,50.97 0,13.04 3.63,23.96 10.92,33.06 -7.29,4.85 -12.14,12.13 -12.14,21.24 0,11.82 7.58,20.93 18.81,24.57 -14.25,5.76 -23.05,16.68 -23.05,30.63 0,33.37 33.36,42.47 64.61,42.47 36.7,0 65.22,-12.13 65.22,-43.68 0,-28.52 -23.66,-41.26 -53.09,-41.26l-31.24 0c-18.2,0 -22.45,-6.36 -22.45,-12.73 0,-4.86 2.12,-8.2 5.46,-10.93 8.49,4.86 19.72,7.59 32.76,7.59 35.19,0 55.82,-20.02 55.82,-50.96 0,-13.05 -3.95,-24.27 -10.92,-32.77 2.12,-4.85 5.46,-9.4 14.56,-9.4 4.85,0 8.8,-3.94 8.8,-8.8 0,-4.85 -3.95,-8.79 -8.8,-8.79 -15.17,0 -21.84,6.98 -27,16.38 -8.49,-4.86 -20.02,-7.59 -32.46,-7.59zm0 84.33c-23.35,0 -36.1,-13.34 -36.1,-33.36 0,-20.03 12.75,-33.37 36.1,-33.37 23.36,0 36.1,13.34 36.1,33.37 0,20.02 -12.74,33.36 -36.1,33.36zm48.84 74.93c0,19.72 -21.23,26.69 -45.2,26.69 -23.96,0 -45.2,-6.97 -45.2,-25.48 0,-12.13 7.89,-21.23 25.49,-24.26l31.54 0c19.72,0 33.37,6.37 33.37,23.05zm37.31 -86.45c0,50.96 25.18,73.11 65.53,73.11 26.99,0 42.77,-12.44 47.32,-16.99 1.82,-1.82 3.34,-3.65 3.34,-6.98 0,-4.86 -3.95,-8.8 -8.8,-8.8 -2.43,0 -3.64,0.61 -5.46,1.82 -8.49,6.37 -18.81,13.04 -36.4,13.04 -28.52,0 -45.81,-19.41 -45.81,-49.44l88.58 0c12.13,0 12.13,-10.62 12.13,-19.42 0,-20.62 -9.4,-59.15 -57.94,-59.15 -39.43,0 -62.49,26.09 -62.49,72.81zm101.32 -11.23l-81.6 0c1.82,-26.99 16.38,-43.98 42.77,-43.98 31.24,0 38.83,22.14 38.83,43.98zm200.51 -61.58c-23.36,0 -36.7,9.41 -44.29,21.24 -7.28,-12.14 -23.35,-21.24 -48.23,-21.24 -19.72,0 -34.28,10.01 -39.44,21.24l0 -9.71c0,-5.46 -4.24,-9.71 -9.7,-9.71 -5.46,0 -9.71,4.25 -9.71,9.71l0 123.16c0,5.46 4.25,9.71 9.71,9.71 5.46,0 9.7,-4.25 9.7,-9.71l0 -74.93c0,-25.48 9.11,-42.47 37.32,-42.47 29.73,0 37.31,16.38 37.31,40.35l0 77.05c0,5.46 4.24,9.71 9.71,9.71 5.46,0 9.71,-4.25 9.71,-9.71l0 -81c0,-22.44 11.82,-36.4 37.91,-36.4 29.43,0 37.92,16.38 37.92,40.35l0 77.05c0,5.46 4.25,9.71 9.71,9.71 5.46,0 9.7,-4.25 9.7,-9.71l0 -81c0,-25.78 -10.62,-53.69 -57.33,-53.69zm84.64 72.81c0,50.96 25.17,73.11 65.52,73.11 27,0 42.77,-12.44 47.32,-16.99 1.82,-1.82 3.34,-3.65 3.34,-6.98 0,-4.86 -3.95,-8.8 -8.8,-8.8 -2.43,0 -3.64,0.61 -5.46,1.82 -8.49,6.37 -18.81,13.04 -36.4,13.04 -28.52,0 -45.81,-19.41 -45.81,-49.44l88.58 0c12.13,0 12.13,-10.62 12.13,-19.42 0,-20.62 -9.4,-59.15 -57.94,-59.15 -39.43,0 -62.48,26.09 -62.48,72.81zm101.32 -11.23l-81.61 0c1.82,-26.99 16.38,-43.98 42.77,-43.98 31.25,0 38.84,22.14 38.84,43.98zm108.89 -61.58c-19.72,0 -34.58,9.71 -40.34,21.24l0 -9.71c0,-5.46 -4.25,-9.71 -9.71,-9.71 -5.46,0 -9.7,4.25 -9.7,9.71l0 123.16c0,5.46 4.24,9.71 9.7,9.71 5.46,0 9.71,-4.25 9.71,-9.71l0 -74.93c0,-24.27 10.31,-42.47 40.34,-42.47 29.43,0 36.4,16.38 36.4,40.35l0 77.05c0,5.46 4.25,9.71 9.71,9.71 5.46,0 9.71,-4.25 9.71,-9.71l0 -81c0,-25.78 -9.1,-53.69 -55.82,-53.69zm99.8 4.25l-11.83 0c-5.16,0 -9.1,3.94 -9.1,9.1 0,5.16 3.94,9.1 9.1,9.1l11.83 0 0 83.73c0,22.14 13.05,38.22 37.01,38.22 5.16,0 9.4,-3.94 9.4,-9.1 0,-5.16 -4.24,-9.1 -9.4,-9.1 -10.31,0 -17.59,-6.98 -17.59,-20.02l0 -83.73 19.72 0c5.15,0 9.09,-3.94 9.09,-9.1 0,-5.16 -3.94,-9.1 -9.09,-9.1l-19.72 0 0 -31.85c0,-5.16 -4.25,-9.71 -9.71,-9.71 -5.16,0 -9.71,4.55 -9.71,9.71l0 31.85zm263.92 -27.91c2.42,3.04 5.15,3.94 7.88,3.94 5.46,0 9.71,-4.24 9.71,-9.7 0,-2.12 -0.6,-3.95 -1.82,-5.77 -12.74,-19.11 -36.1,-31.24 -64.91,-31.24 -44.3,0 -64.62,23.96 -64.62,51.87 0,71.9 114.67,45.2 114.67,101.93 0,26.69 -18.81,40.04 -52.18,40.04 -26.69,0 -44.29,-13.05 -53.99,-28.82 -1.82,-3.03 -4.86,-4.85 -8.5,-4.85 -5.46,0 -9.7,4.25 -9.7,9.71 0,1.82 0.3,3.03 1.51,5.46 10.31,19.71 36.1,37.3 70.68,37.3 46.72,0 72.81,-20.93 72.81,-58.84 0,-73.11 -114.67,-51.57 -114.67,-101.93 0,-17.29 12.13,-33.06 43.99,-33.06 25.48,0 40.04,12.74 49.14,23.96l0 0zm62.19 27.91l-11.84 0c-5.15,0 -9.09,3.94 -9.09,9.1 0,5.16 3.94,9.1 9.09,9.1l11.84 0 0 83.73c0,22.14 13.04,38.22 37,38.22 5.16,0 9.41,-3.94 9.41,-9.1 0,-5.16 -4.25,-9.1 -9.41,-9.1 -10.31,0 -17.59,-6.98 -17.59,-20.02l0 -83.73 19.72 0c5.15,0 9.09,-3.94 9.09,-9.1 0,-5.16 -3.94,-9.1 -9.09,-9.1l-19.72 0 0 -31.85c0,-5.16 -4.25,-9.71 -9.71,-9.71 -5.16,0 -9.7,4.55 -9.7,9.71l0 31.85zm83.72 -2.43c-5.46,0 -9.71,4.25 -9.71,9.71l0 79.17c0,28.82 9.71,55.22 56.42,55.22 47.02,0 56.43,-26.4 56.43,-55.22l0 -79.17c0,-5.46 -4.25,-9.71 -9.41,-9.71 -5.46,0 -10.01,4.25 -10.01,9.71l0 79.17c0,19.72 -6.37,36.71 -37.01,36.71 -30.63,0 -37.01,-16.99 -37.01,-36.71l0 -79.17c0,-5.46 -4.54,-9.71 -9.7,-9.71zm232.67 84.33c0,28.82 -16.68,42.17 -40.05,42.17 -27.9,0 -42.76,-17.59 -42.76,-55.51 0,-37.32 15.16,-55.21 42.76,-55.21 28.52,0 40.05,26.69 40.05,26.69l0 41.86zm-41.26 -86.15c-39.13,0 -60.97,23.06 -60.97,72.81 0,49.74 23.05,73.11 62.18,73.11 34.59,0 59.46,-19.72 59.46,-59.77l0 -150.46c0,-5.46 -4.25,-9.7 -9.7,-9.7 -5.46,0 -9.71,4.24 -9.71,9.7l0 84.03c-6.98,-9.71 -21.85,-19.72 -41.26,-19.72zm119.22 11.53c0,-5.46 -4.25,-9.71 -9.71,-9.71 -5.46,0 -9.71,4.25 -9.71,9.71l0 123.16c0,5.46 4.25,9.71 9.71,9.71 5.46,0 9.71,-4.25 9.71,-9.71l0 -123.16zm-9.71 -38.22c7.28,0 11.53,-4.25 11.53,-11.53 0,-8.79 -4.25,-12.13 -11.53,-12.13 -7.28,0 -11.53,3.34 -11.53,12.13 0,7.28 4.25,11.53 11.53,11.53zm40.04 99.5c0,50.96 25.18,73.11 65.52,73.11 27,0 42.78,-12.44 47.33,-16.99 1.82,-1.82 3.33,-3.65 3.33,-6.98 0,-4.86 -3.94,-8.8 -8.79,-8.8 -2.43,0 -3.64,0.61 -5.46,1.82 -8.49,6.37 -18.81,13.04 -36.41,13.04 -28.51,0 -45.8,-19.41 -45.8,-49.44l88.58 0c12.13,0 12.13,-10.62 12.13,-19.42 0,-20.62 -9.4,-59.15 -57.94,-59.15 -39.43,0 -62.49,26.09 -62.49,72.81zm101.32 -11.23l-81.6 0c1.82,-26.99 16.38,-43.98 42.77,-43.98 31.24,0 38.83,22.14 38.83,43.98zm92.21 -42.77c15.78,0 24.88,4.86 33.07,12.74 2.43,2.43 4.86,2.73 6.37,2.73 4.85,0 8.8,-3.94 8.8,-8.8 0,-2.73 -1.22,-4.55 -2.12,-5.76 -9.41,-12.44 -25.49,-19.41 -46.12,-19.41 -25.78,0 -46.41,11.52 -46.41,36.7 0,49.75 79.79,37.32 79.79,68.56 0,15.77 -14.87,21.54 -32.16,21.54 -16.99,0 -29.12,-5.46 -38.53,-14.87 -2.42,-2.43 -4.85,-3.03 -6.67,-3.03 -4.85,0 -8.8,3.94 -8.8,8.79 0,2.13 0.61,3.65 2.12,5.77 7.89,10.01 27,21.84 51.88,21.84 28.82,0 51.57,-12.44 51.57,-40.04 0,-48.54 -79.78,-36.71 -79.78,-68.56 0,-13.95 13.34,-18.2 26.99,-18.2z"/>
 </g>
</svg>
