<?xml version="1.0" encoding="UTF-8"?>
<!DOCTYPE svg PUBLIC "-//W3C//DTD SVG 1.1//EN" "http://www.w3.org/Graphics/SVG/1.1/DTD/svg11.dtd">
<!-- Creator: CorelDRAW 2020 (64-Bit) -->
<svg xmlns="http://www.w3.org/2000/svg" xml:space="preserve" width="200mm" height="50mm" version="1.1" style="shape-rendering:geometricPrecision; text-rendering:geometricPrecision; image-rendering:optimizeQuality; fill-rule:evenodd; clip-rule:evenodd"
viewBox="0 0 20000 5000"
 xmlns:xlink="http://www.w3.org/1999/xlink"
 xmlns:xodm="http://www.corel.com/coreldraw/odm/2003">
 <defs>
  <style type="text/css">
   <![CDATA[
    .str0 {stroke:#FEFEFE;stroke-width:52.92;stroke-miterlimit:22.9256}
    .str1 {stroke:#FEFEFE;stroke-width:52.92;stroke-miterlimit:22.9256}
    .fil0 {fill:none}
    .fil5 {fill:none;fill-rule:nonzero}
    .fil3 {fill:#FEFEFE}
    .fil4 {fill:#FEFEFE;fill-rule:nonzero}
    .fil2 {fill:#20A296;fill-rule:nonzero}
    .fil1 {fill:#EA5822;fill-rule:nonzero}
   ]]>
  </style>
 </defs>
 <g id="Layer_x0020_1">
  <metadata id="CorelCorpID_0Corel-Layer"/>
  <g id="_1910199312528">
   <line class="fil0 str0" x1="6275.41" y1="775.44" x2="6275.41" y2= "4347.32" />
   <path class="fil1" d="M8292.93 3239.41l540.11 90.66c-68.96,197.76 -178.66,348.23 -327.87,452.05 -149.8,103.15 -337.07,155.08 -561.12,155.08 -355.46,0 -618.95,-116.33 -789.14,-348.92 -134.69,-186.6 -202.35,-421.81 -202.35,-706.33 0,-339.01 88.69,-605.14 265.47,-797.01 176.73,-192.5 400.78,-288.42 671.5,-288.42 303.58,0 543.42,100.54 719.46,301.56 175.45,201.09 259.57,509.25 251.65,924.49l-1352.19 0c3.92,160.32 47.27,285.16 130.72,374.52 82.79,89.32 186.65,134.02 310.12,134.02 84.81,0 155.72,-22.98 212.91,-68.98 57.81,-45.99 101.18,-120.24 130.73,-222.72zm31.56 -548.01c-3.94,-157 -44.03,-276.62 -120.87,-358.07 -76.94,-82.15 -170.19,-122.9 -280.59,-122.9 -117.62,0 -214.85,43.37 -291.71,129.44 -76.89,86.12 -114.38,203.73 -113,351.53l806.17 0zm2644.36 1194.53l-500.67 0 0 -300.27c-83.4,116.98 -182.63,204.33 -296.32,263.5 -113.66,58.44 -228.65,88.04 -344.29,88.04 -235.87,0 -437.56,-94.63 -605.77,-284.52 -167.58,-189.89 -251.72,-454.02 -251.72,-793.73 0,-346.94 81.53,-611.02 245.13,-791.75 163.57,-180.68 369.9,-270.68 619.62,-270.68 228.6,0 427.1,95.25 593.93,285.14l0 -1018.45 540.09 0 0 2822.72zm-1442.91 -1062.45c0,218.79 30.24,377.13 90.07,475.05 87.38,141.92 208.94,212.89 365.29,212.89 124.24,0 229.96,-53.24 316.74,-159.65 87.36,-106.49 130.72,-264.8 130.72,-476.39 0,-235.89 -42.03,-405.4 -126.79,-509.17 -84.79,-103.87 -192.53,-155.78 -324.6,-155.78 -128.13,0 -235.2,51.29 -321.99,153.78 -86.07,102.48 -129.44,255.58 -129.44,459.27zm3116.23 1062.45l0 -306.19c-74.96,109.07 -172.86,195.81 -294.37,260.88 -121.59,64.37 -249.72,96.58 -384.42,96.58 -137.97,0 -261.51,-30.21 -370.56,-90.71 -109.69,-60.45 -188.58,-145.85 -237.23,-254.93 -49.29,-109.69 -73.58,-260.82 -73.58,-454.02l0 -1297.67 540.09 0 0 942.21c0,288.47 9.9,464.54 30.21,529.6 19.77,65.04 55.86,116.95 109.12,154.42 52.58,38.11 119.57,57.14 201.05,57.14 92.61,0 175.42,-25.62 249,-76.2 73.58,-50.6 123.54,-113.69 150.49,-189.27 26.91,-75.53 40.75,-259.49 40.75,-553.22l0 -864.68 540.14 0 0 2046.06 -500.69 0z"/>
   <path class="fil2" d="M13791.94 2749.65c223.75,0 331.9,-114.36 331.9,-266 0,-309.52 -476.1,-221.27 -476.1,-353.02 0,-49.72 42.27,-83.29 118.1,-83.29 84.52,0 174.03,28.59 241.15,90.74l98.21 -129.28c-82.06,-75.82 -191.44,-115.61 -323.2,-115.61 -195.15,0 -314.49,114.38 -314.49,252.34 0,312.01 477.33,211.32 477.33,358 0,47.24 -47.24,91.98 -144.2,91.98 -114.36,0 -205.09,-50.96 -263.53,-111.86l-95.71 134.23c77.08,78.31 191.44,131.77 350.54,131.77zm1133.73 -14.92l-351.78 -440.03 329.41 -389.07 -217.53 0 -293.36 370.43 0 -370.43 -176.52 0 0 829.1 176.52 0 0 -254.81 64.64 -77.08 251.09 331.89 217.53 0zm230.06 0l0 -829.1 -176.52 0 0 829.1 176.52 0zm663.86 0l0 -155.37 -350.53 0 0 -673.73 -176.52 0 0 829.1 527.05 0zm622.84 0l0 -155.37 -350.53 0 0 -673.73 -176.52 0 0 829.1 527.05 0zm272.32 0l0 -829.1 -176.52 0 0 829.1 176.52 0zm878.89 0l0 -829.1 -176.5 0 0 520.83 -384.1 -520.83 -181.49 0 0 829.1 176.52 0 0 -540.71 395.27 540.71 170.3 0zm538.33 16.15c150.4,0 268.49,-62.14 353.02,-156.61l0 -318.21 -395.29 0 0 154.13 218.77 0 0 99.45c-33.56,31.08 -103.16,63.39 -176.5,63.39 -150.42,0 -259.81,-115.6 -259.81,-272.23 0,-156.62 109.39,-272.21 259.81,-272.21 88.24,0 159.1,49.72 196.39,108.14l146.68 -79.56c-62.16,-98.2 -170.29,-185.21 -343.07,-185.21 -242.41,0 -441.29,166.56 -441.29,428.84 0,261.04 198.88,430.08 441.29,430.08z"/>
   <path class="fil2" d="M14396.06 3862.09l0 -829.11 -248.61 0 -201.37 500.95 -201.38 -500.95 -247.36 0 0 829.11 176.52 0 0 -580.5 233.69 580.5 77.07 0 233.69 -580.5 0 580.5 177.75 0zm340.6 0l0 -829.11 -176.52 0 0 829.11 176.52 0zm458.68 14.92c223.75,0 331.9,-114.36 331.9,-266.01 0,-309.53 -476.1,-221.27 -476.1,-353.03 0,-49.72 42.27,-83.28 118.1,-83.28 84.52,0 174.03,28.59 241.15,90.74l98.2 -129.28c-82.05,-75.82 -191.44,-115.61 -323.2,-115.61 -195.15,0 -314.48,114.38 -314.48,252.34 0,312.01 477.33,211.32 477.33,358 0,47.24 -47.24,91.98 -144.2,91.98 -114.36,0 -205.1,-50.96 -263.53,-111.86l-95.71 134.24c77.08,78.31 191.44,131.77 350.54,131.77zm745.82 0c223.75,0 331.9,-114.36 331.9,-266.01 0,-309.53 -476.1,-221.27 -476.1,-353.03 0,-49.72 42.27,-83.28 118.1,-83.28 84.52,0 174.03,28.59 241.15,90.74l98.2 -129.28c-82.05,-75.82 -191.44,-115.61 -323.19,-115.61 -195.16,0 -314.49,114.38 -314.49,252.34 0,312.01 477.33,211.32 477.33,358 0,47.24 -47.24,91.98 -144.2,91.98 -114.36,0 -205.1,-50.96 -263.53,-111.86l-95.71 134.24c77.08,78.31 191.44,131.77 350.54,131.77zm627.74 -14.92l0 -829.11 -176.52 0 0 829.11 176.52 0zm556.86 14.92c251.11,0 433.83,-179 433.83,-428.86 0,-249.84 -182.72,-428.84 -433.83,-428.84 -249.84,0 -432.56,179 -432.56,428.84 0,249.86 182.72,428.86 432.56,428.86zm0 -156.63c-152.88,0 -251.09,-118.08 -251.09,-272.23 0,-155.38 98.21,-272.22 251.09,-272.22 152.9,0 252.34,116.84 252.34,272.22 0,154.15 -99.44,272.23 -252.34,272.23zm1300.23 141.71l0 -829.11 -176.5 0 0 520.83 -384.1 -520.83 -181.49 0 0 829.11 176.52 0 0 -540.72 395.28 540.72 170.29 0z"/>
   <path class="fil3" d="M3414.56 1766.66c14.9,-3.94 -4.55,5.83 13.36,-43.79 -4.83,2.57 -9.28,4.82 -13.36,6.84l0 36.95z"/>
   <path class="fil3" d="M4435.58 1466.48c266.45,13.1 318.11,309.71 207.21,352.13 -11,-22.6 -10.76,-42.55 -7.7,-62.44 4.52,-28.6 -27.07,-45.29 -58.75,-16.45 8.46,-44.88 24.65,-77.01 10.31,-112.38 -11.16,-27.49 -50.93,-55.17 -76.18,-104.36 82.45,79.36 117.51,99.51 93.35,185.45 36.56,-22.44 47.16,13.77 52.9,40.88 45.81,-76.25 -17.85,-231.83 -221.14,-282.83z"/>
   <path class="fil3" d="M4504.61 1527.56c-18.23,-8.66 -49.76,15.63 -54.95,29.48 -5.21,13.82 14.34,64.32 -8.32,70.1 -22.65,5.75 -73.88,-2.18 -86.36,13.17 -12.46,15.31 12.25,86.94 12.25,86.94 0,0 -12.46,-60.84 9.71,-79.94 22.21,-19.11 95.17,20.26 96.76,-6.47 -5.25,-22.52 -14.16,-52.27 -7.43,-74.9 4.99,-16.48 21.48,-27.09 38.34,-38.38z"/>
   <path class="fil3" d="M4320.85 1663.36c0,0 0.14,27.46 -20.72,56.88 -33.09,46.69 -118.77,54.12 -165.13,30.58 -80.26,-40.73 -67.77,-72.48 -106.6,-103.19 -20.59,-16.29 -48.89,-27.76 -70.76,-34.91 -36.61,-11.93 -35.18,-25.58 -2.54,-53.86 23.23,-20.02 78.85,-45.3 160.14,-5.55 -97.58,-6.1 -151.6,5.17 -161.69,36.89 11.04,-5.03 77.17,4.79 103.8,43.12 46.46,66.98 58.81,95.98 135.77,101.26 79.85,5.49 127.73,-71.22 127.73,-71.22z"/>
   <path class="fil4" d="M4005.1 1445.34c-96.5,-44.56 -208.47,-114.7 -225.75,-222.81 -5.67,-35.46 2.18,-21.15 21.07,0.8 26.83,31.2 60.72,54.08 79.33,66.55l-47.1 -52.81c-20.15,-28.77 -37.48,-51.61 -55.17,-97.13 -14.86,-24.54 -19.05,20.21 -18.85,27.43 1.91,69.21 25.12,129.05 66.42,180.91 45.43,57.09 112.88,104.39 198.16,143.8l-18.11 -46.74z"/>
   <path class="fil3" d="M4125.29 1385.76c0,0 8.77,-6.85 22.65,-9.73 13.86,-2.95 25.11,13.09 37.14,37.87 11.99,24.82 -19.27,-27.34 -36.11,-28.51 -16.87,-1.21 -23.68,0.37 -23.68,0.37z"/>
   <path class="fil3" d="M4164.9 1396.29c0.34,1.11 -3.1,17.84 -17.82,15.71 -9.64,-1.36 -17.8,-15.53 -10.12,-22.61l6.99 -6.33 12.05 1.03c0,0 8.6,11.18 8.9,12.2z"/>
   <path class="fil3" d="M2393.54 1466.48c-266.44,13.1 -318.09,309.71 -207.2,352.13 11.04,-22.6 10.72,-42.55 7.69,-62.44 -4.47,-28.6 27.06,-45.29 58.74,-16.45 -8.45,-44.88 -24.64,-77.01 -10.3,-112.38 11.16,-27.49 50.91,-55.17 76.21,-104.36 -82.48,79.36 -117.52,99.51 -93.4,185.45 -36.54,-22.44 -47.17,13.77 -52.89,40.88 -45.8,-76.25 17.87,-231.83 221.15,-282.83z"/>
   <path class="fil3" d="M2324.5 1527.56c18.3,-8.66 49.78,15.63 54.99,29.48 5.21,13.82 -14.38,64.32 8.31,70.1 22.64,5.75 73.86,-2.18 86.35,13.17 12.47,15.31 -12.21,86.94 -12.21,86.94 0,0 12.46,-60.84 -9.74,-79.94 -22.19,-19.11 -95.17,20.26 -96.76,-6.47 5.22,-22.52 14.14,-52.27 7.4,-74.9 -4.98,-16.48 -21.44,-27.09 -38.34,-38.38z"/>
   <path class="fil3" d="M2508.26 1663.36c0,0 -0.13,27.46 20.75,56.88 33.06,46.69 118.79,54.12 165.14,30.58 80.21,-40.73 67.73,-72.48 106.58,-103.19 20.63,-16.29 48.84,-27.76 70.82,-34.91 36.54,-11.93 35.18,-25.58 2.48,-53.86 -23.25,-20.02 -78.85,-45.3 -160.14,-5.55 97.59,-6.1 151.59,5.17 161.69,36.89 -11.03,-5.03 -77.24,4.79 -103.82,43.12 -46.49,66.98 -58.77,95.98 -135.78,101.26 -79.84,5.49 -127.72,-71.22 -127.72,-71.22z"/>
   <path class="fil4" d="M2824.08 1445.34c96.51,-44.56 208.41,-114.7 225.68,-222.81 5.67,-35.46 -2.15,-21.15 -21.03,0.8 -26.83,31.2 -60.68,54.08 -79.38,66.55l47.11 -52.81c20.19,-28.77 37.49,-51.61 55.19,-97.13 14.84,-24.54 19.04,20.21 18.84,27.43 -1.89,69.21 -25.11,129.05 -66.4,180.91 -45.46,57.09 -112.91,104.39 -198.17,143.8l18.16 -46.74z"/>
   <path class="fil3" d="M2703.85 1385.76c0,0 -8.79,-6.85 -22.67,-9.73 -13.88,-2.95 -25.07,13.09 -37.13,37.87 -11.99,24.82 19.23,-27.34 36.14,-28.51 16.82,-1.21 23.66,0.37 23.66,0.37z"/>
   <path class="fil3" d="M2664.25 1396.29c-0.3,1.11 3.05,17.84 17.78,15.71 9.66,-1.36 17.8,-15.53 10.1,-22.61l-6.96 -6.33 -12.08 1.03c0,0 -8.58,11.18 -8.84,12.2z"/>
   <path class="fil3" d="M3149.03 900.24l10 0 93.12 111.8c-52.3,7.81 -92.64,52.48 -92.64,105.95l0 0c0,47.35 31.63,87.71 75.12,101.78 0.65,0.24 10.16,0.45 10.87,0.68l-76.29 89.75 -20.18 0 0 -409.96zm97 0l334.33 0 -91.94 110.62 -44.91 0 0 -0.71 -1.46 0 -57.69 0 -1.47 0 0 0.71 -44.97 0 -91.89 -110.62zm421.28 0l10.03 0 0 409.96 -20.16 0 -76.28 -89.75c0.69,-0.23 10.14,-0.44 10.85,-0.68 43.46,-14.07 75.1,-54.43 75.1,-101.78l0 0c0,-53.47 -40.31,-98.14 -92.62,-105.95l93.08 -111.8zm-97.13 409.96l-126.67 0 0 -26.14 0 -25.28 0 -186.54 100.88 0c29.9,0 54.39,18.76 54.39,45.75l0 0c0,26.92 -24.49,48.98 -54.39,48.98l-95.58 0 25.93 30.6 95.44 112.63zm-187.29 0l-126.71 0 95.47 -112.63 25.92 -30.6 -95.63 0c-29.87,0 -54.36,-22.06 -54.36,-48.98l0 0c0,-26.99 24.49,-45.75 54.36,-45.75l100.95 0 0 186.54 0 25.28 0 26.14z"/>
   <path class="fil4" d="M3567.19 781.9c2.65,-39.45 48.1,-106.56 97.73,-111.89 19.07,-15.22 100.22,-0.72 124.78,21.73 41.21,31.88 65.89,108.48 86.92,172.94 23.12,70.67 53.5,156.67 107.4,228.82 61.44,47.31 103.41,-34.5 128.71,70.06 5.72,13.9 2.03,39.37 10.42,44.23 8.41,4.82 28.79,-10.86 50.8,-8.86 58.06,-19.26 69.12,21.45 78.61,36.71 6.35,10.3 -1.9,30.38 9.39,36.92 24.98,14.38 68.14,10.28 93.47,9.13 24.19,-1.17 82.18,4.48 108.9,54.17 14.18,26.5 16.66,58.4 7.91,84.9 -7.68,23.38 -62.02,62.56 -90.15,70.17 -20.47,8.58 15.17,11.53 24.39,8.08 11.65,-4.33 27.58,-11.77 40.84,-17.56 41.26,-17.96 87.95,5.08 134.09,1.59 126.04,6.46 299.39,17.2 455.74,74.37 154.66,56.56 315.68,160.41 414.27,358.76 12.45,25.03 39.77,90.64 44.98,164.71 -30.33,-49.16 -67.63,-82.31 -115.39,-113.38 47.07,41.76 98.43,121.89 124.88,184.69 21.59,51.33 31.54,135.45 0.88,195.74 -4.65,81.47 28.64,118.71 42.96,198.72 0,0.08 -15.36,34.89 -10.87,81.76 5.54,56.62 37.24,128.63 33.62,148.71 70.8,-103.63 78.83,-102.87 38.44,-222.28 -5.85,-17.28 -63.4,-76.8 -55.39,-216.19 2.15,-37.73 4.3,-75.47 4.51,-114.28l0 -0.11 0.02 -10.08 0 -0.12c-0.26,-59.15 -7.66,-108.95 -21.62,-157.28 -13.94,-48.19 -34.13,-94.36 -60.06,-146.59 -105.23,-211.73 -264.04,-323.51 -429.46,-383.96 -163.69,-59.83 -332.33,-68.84 -461.62,-75.45 -52.9,-2.66 -64.98,-68.31 -83.53,-102.8 -41.61,-77.4 -95.97,-98.42 -139.36,-96.31 -35.11,1.59 -66.96,1.28 -86.55,-30.42 -11.52,-20.72 -21.82,-41.46 -58.91,-47.65 -29.09,-4.84 -59.63,14.21 -71.5,-17.32 -8.7,-23.15 -18.89,-50.32 -55.22,-67.01 -17.02,-7.86 -32.5,-11.64 -47.02,-15.21 -17.64,-4.31 -33.47,-8.2 -43.12,-19.18 -53.12,-60.57 -77.02,-133.49 -98.61,-199.66 -23.62,-72.1 -44.85,-136.89 -97.97,-177.93 -19.69,-15.16 -42.99,-25.49 -67.57,-30.58 -28.4,-5.82 -58.52,-4.61 -86.59,4.49 -28.47,9.11 -54.82,26.16 -75.32,51.75 -16.19,20.22 -28.59,45.75 -35.18,76.88l-3.55 25.96c-2.35,16.92 0.83,19.69 14.07,9.89 22.2,-16.45 37.05,-5.17 55.17,-20.53 16.94,13.67 16.45,48.42 39.82,36.64 7.61,-3.84 -11.17,-15.94 0.19,-37.7 22.49,-42.93 72.35,-36.83 83.38,-4.48 16.85,49.68 22.09,165.1 35.42,246.39 8.2,49.52 15.51,94.42 23.32,124.31l0 0.12 0.09 0.12c31.63,120.61 118.99,137.89 183.57,196.25 36.71,33.1 21.22,75.99 29.76,117.31 6.63,31.67 56.8,79.3 134.12,87.99 5.89,-2.28 -63.16,-39.64 -89.57,-70.71 -19.22,-22.62 -21.88,-51.12 -21.38,-60.71l0 -0.06c1.66,-35.24 -1.83,-58.21 -32.83,-86.26 -42.66,-38.52 -129.61,-87.55 -156.64,-131.76 -57.64,-94.24 -50.1,-237.11 -69.43,-344.6 -10.74,-59.76 -25.52,-106.41 -54.33,-118.95 -62.99,-27.54 -105.66,50.29 -144.83,32.85z"/>
   <path class="fil4" d="M5506.35 2343.05c-27.79,63.28 -49.2,175.33 -35.99,226.94 13.02,50.68 32.93,98.26 54.71,149.89l-0.01 0.01 0.11 0.21 0.08 0.08c9.71,23.16 13.36,49.27 14.23,74.79 0.33,9.98 2.49,24.94 -24.5,28.65 -0.2,5.9 24.93,12.38 26.1,18.13 4.06,20.41 14.89,39.74 19.31,56.67l2.92 10.92c8.14,29.43 -23.94,30.63 -31.72,30.38l-117.33 -9.76c-2.15,8.72 -64.14,18.18 -52.27,-23.84 5.2,-18.43 24.18,-39.9 51.19,-29.58 3.08,-14.1 -68.18,-24.94 -69.36,45.76 -0.23,13.27 -41.6,11.77 -41.59,-2.23 7.64,-50.88 21.43,-64.34 51.55,-52.01 2.38,-4.39 -10.87,-17.52 -9.1,-21.74 3.48,-8.34 21.87,-8.61 24.25,-18.09 -54.03,-46.82 13.02,-54.69 7.03,-69.35 -30.11,-73.58 -56.41,-121.1 -106.92,-170.94 -23.22,-22.94 -52.41,-50.05 -71.13,-81.45 -13.74,-23.04 -24.07,-52.12 -33.7,-115.76 -23.56,-73.35 -92.04,-291.54 -171.21,-316.88 9.59,11.19 21.66,30.32 33.72,52.82 5.81,10.78 11.61,22.31 17.16,34.19 24.06,51.19 43.43,107.6 36.59,128.17 -5.03,15.36 -13.56,36.91 -11.56,51.24 0.69,5.57 -12.6,23.14 -7.99,19.59 33.86,-25.86 72.33,22.65 71.96,48.93 7.56,111.81 15.99,81.69 123.48,195.24 23.74,25.01 35.1,54.01 50.96,81.77 16.23,28.52 21.64,70.21 17.09,107.88 -0.97,8.05 -2.3,15.68 -4.11,22.82 -1.74,6.94 -3.93,13.57 -6.52,19.73 -1.42,3.39 -2.84,6.26 -4.17,8.71l-4.37 8.03 -0.03 -0.01c-13.18,24.08 -22.63,41.51 -23.23,57.99 -1.19,31.47 18.24,44.96 74.07,46.98l180.53 6.44c45.57,1.64 60.2,-7.64 61.31,-36.63 0.31,-9.84 -2.3,-19.36 -5.85,-32.14 -1.64,-5.98 -2.27,-8.06 -2.9,-10.36 -3.91,-14.94 -15.87,-36.31 -15.2,-59.51 2.04,-64.8 -15.94,-118.19 -36.87,-171.83 -30.61,-78.45 -61.27,-145.49 -30.72,-310.85z"/>
   <path class="fil4" d="M5004.7 2470.57c-19.78,68.15 -53.35,164.25 -27.25,214.2 13.98,28.42 38.58,37.58 28.31,70.95l-0.08 -0.01c-10.44,21.51 -75.98,111.86 -47.26,129.75l-0.03 0.01c4.44,2.78 9.43,4.22 15.09,4.36 88.16,1.62 378.23,65.51 235.67,-108.34 -37.35,-59.77 19.59,-120.98 58.48,-163.11l-27.8 -30.1c-35.19,50.69 -90.65,125.42 -61.48,189.75 2.47,5.42 -18.42,6.87 -14.74,12.78 1.61,2.5 27.1,9.42 28.61,12.28 53.23,97.46 -86.11,67.12 -142.48,66.77 19.6,-18.42 17.63,-36.9 -0.22,-55.4 9.39,45.18 -35.52,63.26 -78.53,56.88 -16.49,-39.86 67.69,-68.28 80.14,-94.78 0,-0.01 -5.86,-43.34 -2.11,-44.42 74.6,-21.87 -6.44,-19.06 -16.8,-23.46 -83.45,-35.49 -7.37,-198.48 23.74,-246.22l-4.79 -3.08c-14.67,4.86 -30.68,13.04 -46.47,11.19z"/>
   <path class="fil4" d="M5139.89 2439.7c-74.53,17.05 -182.99,37.98 -271.82,1.51 -89.73,-36.8 -134.23,-67.73 -251,-151.32 -2.79,-2 -34.94,-32.07 -37.79,-34.19l-16.37 32.01c131.83,92.15 197.74,130.01 293.52,169.25 98.75,40.57 213.14,33.62 298.61,14.03l-15.15 -31.29z"/>
   <path class="fil3" d="M5083.23 2236.9c-21.27,216.42 -242.84,137.82 -407.71,57.63 90.33,79.63 347.88,167.4 436.37,16.14 0,0 -30.59,-75.62 -28.66,-73.77z"/>
   <path class="fil4" d="M5191.99 1683.31c-133.03,-67.35 -261.66,-109.97 -410.1,-165.49 117.02,17.14 294.72,73.58 428.71,157.23 94.69,59.11 194.35,168.59 232.89,273.54 -64.3,-62.86 -114.2,-195.85 -251.5,-265.28z"/>
   <path class="fil4" d="M4306.09 1808.32c-0.34,16.8 -43.24,169.5 -43.31,185.99 -0.3,159.81 13.41,307.99 55.46,458.1 3.84,13.79 18.64,66.78 28.5,118.36 13.91,72.85 14.72,128.98 -0.2,163.26 -36.19,28.32 -58.69,48.83 -61.51,73.71 -2.92,26 -5.6,38.33 8.11,44.99l1.72 -2.99 271.64 0c-2.28,5.18 -4.62,10.34 -6.96,15.49 18.11,-1.29 30.52,-4.94 32.84,-13.4 0.09,-0.2 10.06,-39.95 -12.33,-77.67 -20.29,-62.01 -22.05,-139.21 -13.25,-228.67 6.83,-69.63 7.88,-160.07 -2.91,-215.72 19.17,-12.43 46.59,-80.76 18.2,-207.37 -13.53,-60.59 0.51,-120.66 -2.15,-144.03 -19.52,45.79 -26.75,127.75 -15.91,202.25 5.62,38.8 5.89,65.35 -10.19,103.89 -30.47,44.54 -79.46,12.12 -75.23,-63.7 -27.91,105.4 42.35,114.1 63.82,115.98 10.66,55.14 3.76,226.47 -5.43,298.16 -1.62,19.39 -4.71,36.75 -6.16,54.08 -2.39,28.7 -30.57,39.08 -30.3,43.45 0.52,7.82 30.95,4.62 33.04,13.08 13.51,13.11 16.67,27.33 24.84,43.26 12.27,20.67 2.63,40.88 -6.04,49.78 -14.69,15.18 -106.2,6.34 -127.08,2.96 -86.52,-1.94 -54.88,-63.23 -29.22,-83.05 -21.03,5.69 -72.29,39.34 -38.68,78.09 -39.13,9.72 -49.43,3.02 -54.38,-10.3 13.85,-74.07 59.36,-53.29 71.74,-68.73 7.85,-9.9 11.35,-31.33 11.59,-59.25 0.29,-29.55 26.12,-35.1 18.78,-38.31 -20.67,-9.07 -22.11,-25.06 -23.03,-33.06 -4.72,-43.22 -13.05,-90.73 -22.67,-132.81 -4.32,-19.04 -8.84,-37.01 -13.32,-52.97 -4.55,-16.32 -9.02,-30.5 -13.21,-41.44l-0.05 -0.3 -0.07 -0.09c-26.37,-70.21 -45.09,-307.94 -35.46,-405.3l8.77 -185.72zm26.69 591.02l-26.69 -591.02 26.69 591.02z"/>
   <path class="fil4" d="M4205.89 1828.16c-82.19,119.61 -159.68,255.25 -261.92,352.64 -50.66,48.24 -127.17,119.38 -137.45,164.94l0 0.19 -0.1 0.12c-4.88,21.84 -4.16,54.46 -3.4,87.58 0.86,39.21 1.77,77 -0.64,88.81l-4.98 0.45 -0.09 0.17c-3.58,4.93 -6.72,10.04 -9.47,15.24 -2.66,5.13 -4.95,10.3 -6.88,15.39 -31.21,81.43 23.31,71.2 71.65,73.56 27.15,1.36 60.63,3.45 87.56,3.45 53.14,0 98.12,2.86 101.74,-18.49l0.03 -0.22 2.29 -5.66c8.74,-42.95 -17.25,-62.22 -31.44,-85.55 -5.73,-26.64 3.3,-76.45 12.99,-87.47l0.03 -0.09 0.1 -0.03 0 0c1.45,-1.68 -0.32,-11.25 3.52,-14.89 39.08,-36.92 87.41,-83.5 130.15,-119.19 19.37,-16.13 49.47,-41 67.46,-44.5 17.82,-3.41 37.77,-5.13 62.62,4.47l15.96 -17.56c-34.15,-13.18 -63.01,-16.74 -90.44,-11.46 -27.27,5.25 -51.75,18.96 -77.54,40.52 -36.74,30.64 -74.67,78.66 -106.75,107.27 -6.02,5.33 -24.25,14.93 -29.24,19.71 -4.91,4.54 -11.12,0.53 -13.73,3.53l-0.11 0.06 -0.01 0.08 0 0c-10.64,12.24 6.12,42.59 4.09,67.57 -2.38,29.65 4.57,30.68 -13.42,65.51 23.41,11.36 46.28,23.67 39.62,56.65 -8.51,41.96 -112.57,21.03 -136.7,21.03 -36.63,13.55 -6.01,-26.6 -24.08,-38.39 -12.01,51.49 -43.35,28.06 -52.86,27.32 -32.77,-16.11 -1.97,-65.22 47.37,-72.92 -31.14,-25.82 -18.01,-49.7 1.17,-59.05 -30.91,-4.71 -30.91,-107.2 -2.38,-143.12 50.09,-63.06 74.62,-93.19 118.09,-134.64 14.32,-13.63 57.34,-70.99 74.25,-74.49 28.17,-5.86 30,54.59 36.73,19.32 5.49,-28.53 -6.94,-44.38 3.83,-72.51 27.59,-71.84 90.25,-153.15 127.73,-208.01l-5.35 -27.34z"/>
   <path class="fil3" d="M4119.21 1743.53c0,0 75.88,28.2 83.9,93.7 8.07,65.5 74.84,174.44 74.84,174.44 20.46,-88.67 -58.51,-116.87 -54.08,-176.72 2.04,-27.99 -18.99,-60.27 -33.44,-73.41l-71.22 -18.01z"/>
   <path class="fil3" d="M4298.15 1601.52c6.9,42.31 39.54,85.19 25.18,124.11 -39.32,106 -7.92,121.1 -16.8,180.09 -12.22,81.08 -14.73,118.03 54.41,63.94 37.45,-29.25 52.1,-84.65 140.21,-98.6 166.32,-26.13 179.31,-92.18 178.89,-92.51l-29.14 -24.94c-0.41,14.39 -7.22,-9.1 -11.17,1.32 -14.75,39.48 -51.36,54.51 -83.4,71.13 -72.26,37.59 -133.47,38.56 -222.9,126.76 -13.3,-53.61 -6.87,-116.16 9.76,-203.4 9.66,-50.96 -26.12,-87.01 -45.04,-147.9z"/>
   <path class="fil3" d="M4190 2707.19c-249.68,-191.51 -503.98,-88.81 -699.42,150.66 -7.91,9.72 -3.59,16.06 -11.39,26.26 202.2,-237.76 476.29,-366.08 712.8,-150.45 66.65,60.85 119.31,45.82 179.37,64.28 -84.75,-66.51 -119.85,-43.58 -181.36,-90.75z"/>
   <path class="fil3" d="M4373.1 2775.69c-58.32,-19.07 -105.87,88.66 -187.05,31.13 21.38,51.3 19.84,89.17 -0.04,137.6 -0.83,1.98 -28.45,-209.16 -208.52,-257.98 -181.04,-49.07 -348.03,39.96 -488.49,206.34 -6.79,8.05 -3.07,12.95 -9.81,21.44 149.51,-170.05 325.67,-261.64 512.31,-189.92 122.42,46.98 163.44,147.92 182.98,260.34 4.98,28.65 64.58,-65.92 34.14,-145.65 104.53,20.36 155.23,-60.25 164.48,-63.3z"/>
   <path class="fil3" d="M3491.84 2947.12c56.89,-76.23 189.46,-174.28 291.18,-192.57 88.69,-15.91 168.8,21.78 179.61,134.46 29.71,-16.2 45.75,9.44 78.25,-24.31 6.37,27.94 21.37,46.67 41.42,68.18 2.79,2.35 5.7,4.95 8.83,7.7l28.59 27.51c29.67,-51.71 32.2,-107.17 -26.63,-180.34 31.33,62.79 40.44,112.28 16.46,130.96 -29.79,-6.32 -50.85,-41.37 -65.94,-83.69 -18.76,32.37 -44.37,20.24 -68.67,29.68 -16.77,-109.72 -104.59,-141.12 -193.57,-125.08 -95.51,17.23 -248.77,119.91 -286.79,199.4 0,0 1.4,9.44 -2.74,8.1z"/>
   <path class="fil4" d="M3541.99 2944.96c2.28,1.31 107.6,-33.59 193.89,-33.69 66.84,-0.1 61.17,55.5 132.18,69.77 22.76,4.58 51.86,5.94 73.21,-4.61 34.27,-17 42.28,-56.36 -1.06,-70.57 -29.01,-9.57 -48.33,10.09 -48.82,40.76 -28.44,-3.74 -22.89,-78.79 48.18,-66.62 38.46,10.55 50.84,44.53 41.37,73.65 -16.57,15.55 -33.8,30.44 -51.65,44.57 -19.33,4.11 -41.94,2.26 -60.73,-1.62 -63.67,-13.14 -67.18,-58.89 -133.43,-64.07 -59.15,-4.56 -126.58,8.76 -163.34,17.45 -12.73,2.99 13.82,13.62 -14.8,-0.77l-15 -4.25z"/>
   <path class="fil3" d="M3521.87 2931.63c63.13,-49.78 131.31,-98.64 219.31,-100.8 43.67,-1.13 107.01,4.28 133.78,81.82 2.77,8.01 7.28,18.46 14.08,28.49 5.22,7.57 13.62,13.82 19.2,12.19 -23.91,12.85 -32.51,-2.94 -37.89,-16.31 -27.89,-68.91 -65.35,-91.35 -130.11,-90.55 -87.41,1.12 -158.37,45.38 -217.4,99.25l-0.97 -14.09z"/>
   <path class="fil3" d="M3787.87 2943.18c32.1,32.68 32.29,76.74 16.58,101.18 -27.56,42.5 -99.01,39.3 -101.52,-9.55 -7.16,-42.18 60.44,-67.16 69.01,-13.11 4.32,-24.3 -11.82,-43.53 -32.69,-48.06 -48.05,-10.45 -75.12,36.33 -58.06,77.13 23.18,55.52 94.24,50.89 124.4,22.8 33.54,-31.19 36.87,-89.74 -17.72,-130.39z"/>
   <path class="fil3" d="M3483.22 3033.71c-6.87,1.35 -14.53,-5.33 -14.76,-8.04 -7.06,-71.68 29.31,-257.85 99.56,-288.12 -37.99,-24.59 -60.48,-5.07 -81.05,18.4 -24.88,28.35 -38.05,144.47 -43.01,148.38 0,-8.45 19,-100.34 13.4,-167.31 -2.31,-26.84 -21.74,-57.68 -42.8,-73.89l0 -16.13c37.4,23.39 60.18,50.09 60.18,88.26 36.87,-25.35 65.23,-37.61 123.88,-4.23 -74.13,40.35 -139.6,231.56 -115.4,302.68z"/>
   <path class="fil3" d="M5372.37 3233.1c-312.99,208.52 -631.76,96.7 -876.63,-164.03 -9.97,-10.59 -4.56,-17.47 -14.34,-28.56 253.47,258.84 592.85,394.49 889.26,159.75 83.57,-66.22 144.43,-32.76 194.11,19.85 -79.58,-23.46 -115.35,-38.41 -192.4,12.99z"/>
   <path class="fil3" d="M5561.82 3218.53c-16.7,-67.75 -39.32,-139.45 -166.69,-100.11 26.71,-51.27 22.57,-56.09 32.04,-110.66 0.19,-1.2 -35.67,50.94 -108.48,112.29 -53.1,44.8 -125.26,98.68 -220.41,119.33 -190.97,41.48 -402.52,-31.83 -573.55,-179.54 -16.26,-14.04 -31.63,-28.43 -46.74,-43 1.48,-2.39 3.02,-4.72 4.52,-7.1 15.83,15.1 32.08,29.97 49.66,44.23 176.54,143.38 382.01,222.93 595.25,157.61 64.63,-19.82 125.76,-62.04 173.68,-107.68 65.68,-62.61 113.01,-128.7 167.67,-126.36 -25.09,59.46 -11.65,63.01 -33.83,110.29 130.9,-20.37 139.88,95.34 126.88,130.7z"/>
   <path class="fil3" d="M5412.71 3010.6c-14.11,-21.93 -60.1,19.31 -84.62,27.56 24.61,-51.3 -14.85,-62.7 -46,-70 -2.7,-0.6 -27.26,147.52 -234.63,196.58 -179.95,42.47 -379.82,-42.89 -539.07,-198.68 1.43,-2.53 2.79,-5.03 4.2,-7.55 165.65,151.9 361.09,241.75 562.92,174.5 140.98,-46.97 183.63,-140.88 202.51,-195.27 28.76,2.79 84.87,31.94 64.58,79.18 46.4,-39.05 98.49,-41.84 114.73,-36.13l-44.62 29.81z"/>
   <path class="fil3" d="M4538.71 2909.73c58.56,26.51 148.42,44.81 211.88,33.24 84.2,-15.33 138.34,-77.75 122.66,-140.59 21.75,0.3 77.7,9.93 69.65,86.1 -4.76,-30.5 -23.36,-66.71 -51.48,-66.18 14.63,54.74 -44.71,117.07 -145.38,133.46 -63.17,10.25 -150.07,-6.22 -208.49,-35.96 -1.5,-0.59 -2.52,-1.3 -3.25,-2 1.34,-2.72 2.79,-5.41 4.14,-8.17 0.1,0 0.2,0.06 0.27,0.1z"/>
   <path class="fil3" d="M4583.06 3022.77c30.55,18.64 76.57,44.55 112.7,56.72 91.23,30.65 210.6,9.23 259.25,0.11 19.35,-3.62 43.82,15.63 52.86,33.62 18.78,-3.45 48.47,-55.16 -1.48,-103.37 -15.06,3.93 -22.1,4.18 -23.17,6.94 10.8,4.02 19.55,7.54 26.65,15.26 16.87,18.3 16.15,43.44 -3.66,48.95 -32.45,-36.73 -74.29,-19.72 -115.39,-8.22 -53.35,15.03 -131.66,16.34 -193.87,-1.73 -38.72,-11.21 -80.14,-36.99 -114.99,-54.71 -6.26,4.03 -0.97,5.17 1.1,6.43z"/>
   <path class="fil3" d="M5005.38 3013.52c47.49,-11.6 62.56,-72.18 88.45,-87.63 -58.96,-57.07 -180.58,77.17 -294.37,81.73 -80.86,3.28 -178.33,-19.22 -273.92,-72.92 -1.86,3.45 -3.67,6.93 -5.55,10.34 154.52,90.33 340.24,103.58 484.56,6.94 17.49,-11.7 35.12,-21.78 54.83,-20.35 -30.24,32.8 -21.3,50.67 -78.23,84.63l24.23 -2.74z"/>
   <path class="fil3" d="M4897.53 2928.86c32.61,-22.74 40.52,-35.22 114.09,1.94l21.01 -14.09c-68.97,-33.9 -90.37,-39.83 -135.1,12.15z"/>
   <path class="fil3" d="M5247.7 2959.69c86.98,-54.08 350.15,46.81 531.78,-22.3 -77.36,139.17 -179.71,165.29 -355.7,101.46 -2.34,-0.87 6.9,-27.95 4.53,-28.88 -3.69,-1.34 -20.81,22.59 -24.66,21.28 -9.84,-3.2 11.21,-26.99 0.2,-31.72 -4.39,-1.92 -40.47,15.72 -45.09,13.65 -6.74,-3.02 -13.66,-6.21 -20.63,-9.56 -1.52,-2.29 13.03,-13.75 -48.14,-53.9 -5.88,-3.83 -8.6,26.99 -15.08,23.74 -8.9,-4.45 -18,-9.02 -27.21,-13.77zm90.61 16.21c60.21,-27.42 263.15,31.38 388.94,-3.62 -55.52,86 -163.27,68.33 -388.94,3.62z"/>
   <path class="fil3" d="M4934.53 2873.08c62.9,-46.33 253.34,40.06 384.75,-19.08 -58.02,145.43 -149.07,128.47 -384.75,19.08zm63.3 14.53c43.57,-23.47 192.65,26.27 283.67,-3.76 -40.17,73.69 -120.36,59.18 -283.67,3.76z"/>
   <path class="fil3" d="M4425.72 3093.21c-9.4,181.7 -47.72,307.47 -169.63,493.05 -20.72,31.68 -17.5,49.76 -22.57,103.34 -59.23,4.63 -122.16,-22.51 -114.84,-82.29 -40.05,20.33 -96.74,53.68 -143.46,24.65 2.27,-59.42 34.44,-94.76 77.37,-131.34 -12.57,-2.43 -22.84,-16.58 -33.05,-45.64 17.52,-5.03 60.08,-9.21 102.9,-28.85 64.47,-29.59 137.73,-84.16 173.94,-184 5.74,-5.66 11.44,-11.37 17.07,-17.14 -8.7,107.79 -103.77,190.49 -176.37,222.41 -38.54,17.04 -84.35,15.83 -94.49,20.42 7.81,19.36 23.97,25.93 42.69,25.29 -40.1,37.24 -80.82,72.27 -81.36,126.23 49.05,9.64 101.67,-21.85 148.02,-61.79 -43.47,100.79 22.63,104.18 58.74,114.34 -1,-38.46 9.18,-83.38 25.82,-107.71 118.31,-173.21 159.76,-307.39 169.86,-445.41 6.59,-8.42 13.01,-16.95 19.36,-25.56z"/>
   <path class="fil3" d="M4106.18 3546.56c128.07,-67.13 237.25,-174.3 266.02,-385.9 -7.59,8.88 -15.26,17.71 -23.07,26.39 -13.45,177.26 -124.93,276.42 -242.95,359.51z"/>
   <path class="fil3" d="M4582.54 3252.41c-8.35,41.85 12.12,77.12 35.15,88.82 40.22,20.42 91.3,-17.15 70.36,-57.27 -14.5,-37.18 -75.96,-24 -56.99,23.32 -14.59,-17.29 -11.69,-40.53 1.61,-54.35 30.47,-31.87 72.32,-7.81 78.79,33.03 8.99,55.71 -45.58,86.76 -80.91,79.13 -39.36,-8.48 -69.19,-53.52 -48.01,-112.68z"/>
   <path class="fil3" d="M4472.76 3025.09c29.47,31.2 76.96,88.96 101.92,159.16 10.99,31.04 13.03,64.63 10.84,100.1 -2.36,38.97 -11.06,72.99 -18.47,110.71 -5.24,26.65 -5.04,56.33 23.07,71.38 -31.44,-5.72 -38.24,-26.24 -38.59,-47.67 -0.77,-39.33 4.73,-80.19 6.53,-119.6 1.63,-35.63 1.93,-69.35 -3.27,-94.57 -16.38,-79.24 -46.93,-126.87 -84.61,-175.53 0.85,-1.32 1.71,-2.68 2.58,-3.98z"/>
   <path class="fil3" d="M4440.58 3072.73c10.81,20.14 21.99,46.56 24.27,72.12 3.25,36.19 -14.22,112.99 -33.67,140.89 -8.15,11.75 -1.08,-21.38 -1.22,-22.61 1.9,-5.68 3.66,-11.18 5.28,-16.63 20.79,-69.61 20.19,-125.47 3.16,-170.77l2.18 -3z"/>
   <path class="fil3" d="M4403.64 3287.29c23.84,19.58 38.9,27.92 63.61,22.49 -15.95,7.63 -32.33,22.81 -39.98,56.07 15.39,3.68 56.66,19.48 74.63,4.22 -2.39,33.6 9.88,68.85 28.96,91.25 19.06,22.43 43.6,35.74 62.48,32.52 -2.81,-1.24 -4.32,-11.85 -7.59,-12.08 -37.8,-2.78 -49.27,-18.3 -58.16,-48 -8.26,-27.57 -1.31,-68.74 9.19,-117.65 -31.17,46.75 -63.19,41.49 -81.52,31.43 10.75,-36.36 29.28,-33.34 46.86,-71.5 -24.35,3.02 -47.82,28.39 -73.02,9.04 8.76,-15.43 19.2,-48.94 13.04,-64.35 -12.83,44.12 -26.55,59.19 -38.5,66.56z"/>
   <path class="fil3" d="M4485.25 3119.87c19.14,43.54 36.74,106.38 14.69,160.06 -4.87,11.7 -27.41,39 -27.59,37.78 1.93,-5.58 5.62,-28.38 9.36,-33.83 25.07,-36.48 19.65,-110.19 0.07,-165.21l3.47 1.2z"/>
   <path class="fil3" d="M4567.21 3136.77c28.87,25.97 70.03,59.88 71.8,106.68 0.45,10.26 -13.99,44.68 -14.52,43.8 -0.47,-4.77 -5.44,-22.81 -4.52,-28.06 6.21,-35.18 -22.7,-87.85 -55.73,-122.13l2.97 -0.29z"/>
   <path class="fil3" d="M4524.01 3382.63c-61.97,-62.73 -109.32,61.93 -183.31,30.58 47.42,110.02 143.14,58.16 183.31,-30.58zm-24.1 9.06c-28.32,-21.53 -94.64,55.42 -138.55,38.7 63.07,53.31 119.63,6.01 138.55,-38.7z"/>
   <path class="fil3" d="M4584.88 2832.8c-1.74,5.07 53.41,1.69 48.23,52.5 -5.19,50.76 36.19,65.99 36.19,65.99l-81 -18.6 -51.7 -19.47c6.94,-13.6 13.62,-27.42 19.99,-41.38 14.46,-20.84 29.16,-41.67 28.29,-39.04z"/>
   <path class="fil3" d="M3472.17 2979.28c1.31,1.3 4.48,10.66 5.46,8.68 41.3,-86.83 123.09,-25.67 94.49,27.37 -15.48,28.83 -63.65,28.52 -67.61,-2.15 -4.64,-27.38 38.31,-39.84 43.91,-4.85 2.77,-15.73 -7.69,-28.19 -21.2,-31.14 -31.13,-6.75 -48.61,23.56 -37.61,50 15.04,36 68.09,35.52 88.13,12.33 40.59,-47.04 12.28,-105.29 -46.87,-107.52 -48.97,-1.81 -55.8,49.46 -58.7,47.28z"/>
   <path class="fil3" d="M3617.01 3110.83c-21.28,-9.93 -41.52,9.9 -12.34,15.59 46.25,9.02 77.8,-36.84 56.55,-72.03 -14.3,-23.69 -56.21,-25.96 -63.54,7.51 -4.67,27.34 41.75,35.11 47.31,0.11 2.79,15.67 -6.3,30.17 -27.33,33.76 -31.38,5.4 -51.3,-24.9 -40.31,-51.27 15.05,-35.98 68.12,-35.51 88.09,-12.33 40.63,47 14.62,108.12 -48.68,106.94 -99.23,-1.97 -23.99,-66.97 0.25,-28.28z"/>
   <path class="fil3" d="M3413.2 3023.5c95.21,0 172.41,49.85 172.41,111.3 0,4.31 -0.37,8.54 -1.07,12.66 -7.4,1.54 -14.87,3.04 -22.37,4.38 0.75,-3.64 1.13,-7.4 1.13,-11.18 0,-51.96 -71.74,-101.14 -149.34,-101.14 -77.55,0 -150.08,48.4 -150.08,100.33 0,4.13 0.44,8.23 1.3,12.25 -7.81,-1.43 -15.57,-2.96 -23.33,-4.62 -0.73,-4.11 -1.14,-8.37 -1.14,-12.68 0,-61.45 77.24,-111.3 172.49,-111.3z"/>
   <path class="fil4" d="M3261.93 781.9c-2.66,-39.45 -48.13,-106.56 -97.71,-111.89 -19.09,-15.22 -100.26,-0.72 -124.79,21.73 -41.23,31.88 -65.91,108.48 -86.95,172.94 -23.1,70.67 -53.48,156.67 -107.4,228.82 -61.42,47.31 -103.36,-34.5 -128.68,70.06 -5.74,13.9 -2.08,39.37 -10.42,44.23 -8.4,4.82 -28.82,-10.86 -50.82,-8.86 -58.04,-19.26 -69.13,21.45 -78.56,36.71 -6.38,10.3 1.85,30.38 -9.41,36.92 -25,14.38 -68.16,10.28 -93.48,9.13 -24.2,-1.17 -82.16,4.48 -108.89,54.17 -14.23,26.5 -16.65,58.4 -7.96,84.9 7.7,23.38 62.08,62.56 90.18,70.17 20.5,8.58 -15.18,11.53 -24.38,8.08 -11.64,-4.33 -27.56,-11.77 -40.86,-17.56 -41.26,-17.96 -87.88,5.08 -134.09,1.59 -125.98,6.46 -299.33,17.2 -455.74,74.37 -154.66,56.56 -315.66,160.41 -414.26,358.76 -12.43,25.03 -39.8,90.64 -44.98,164.71 30.33,-49.16 67.66,-82.31 115.41,-113.38 -47.11,41.76 -98.46,121.89 -124.85,184.69 -21.63,51.33 -31.6,135.45 -0.96,195.74 4.68,81.47 -28.63,118.71 -42.97,198.72 0,0.08 15.39,34.89 10.88,81.76 -5.51,56.62 -37.16,128.63 -33.56,148.71 -70.87,-103.63 -78.88,-102.87 -38.47,-222.28 5.85,-17.28 63.41,-76.8 55.41,-216.19 -2.14,-37.73 -4.27,-75.47 -4.49,-114.28l0 -0.11 0 -10.08 0 -0.12c0.22,-59.15 7.62,-108.95 21.57,-157.28 13.91,-48.19 34.12,-94.36 60.02,-146.59 105.29,-211.73 264.05,-323.51 429.48,-383.96 163.72,-59.83 332.35,-68.84 461.62,-75.45 52.94,-2.66 64.98,-68.31 83.54,-102.8 41.61,-77.4 95.97,-98.42 139.39,-96.31 35.06,1.59 66.93,1.28 86.52,-30.42 11.55,-20.72 21.78,-41.46 58.92,-47.65 29.06,-4.84 59.62,14.21 71.46,-17.32 8.72,-23.15 18.92,-50.32 55.24,-67.01 17.06,-7.86 32.5,-11.64 47.07,-15.21 17.6,-4.31 33.41,-8.2 43.08,-19.18 53.18,-60.57 77.05,-133.49 98.69,-199.66 23.53,-72.1 44.75,-136.89 97.92,-177.93 19.63,-15.16 42.96,-25.49 67.53,-30.58 28.4,-5.82 58.52,-4.61 86.64,4.49 28.44,9.11 54.81,26.16 75.25,51.75 16.23,20.22 28.6,45.75 35.22,76.88l3.57 25.96c2.33,16.92 -0.87,19.69 -14.11,9.89 -22.23,-16.45 -37.04,-5.17 -55.16,-20.53 -16.95,13.67 -16.45,48.42 -39.82,36.64 -7.55,-3.84 11.18,-15.94 -0.2,-37.7 -22.49,-42.93 -72.33,-36.83 -83.35,-4.48 -16.91,49.68 -22.13,165.1 -35.45,246.39 -8.16,49.52 -15.51,94.42 -23.29,124.31l0 0.12 -0.08 0.12c-31.67,120.61 -119.03,137.89 -183.59,196.25 -36.71,33.1 -21.21,75.99 -29.8,117.31 -6.59,31.67 -56.78,79.3 -134.07,87.99 -5.92,-2.28 63.19,-39.64 89.54,-70.71 19.27,-22.62 21.88,-51.12 21.46,-60.71l0 -0.06c-1.71,-35.24 1.73,-58.21 32.75,-86.26 42.73,-38.52 129.64,-87.55 156.64,-131.76 57.64,-94.24 50.09,-237.11 69.45,-344.6 10.77,-59.76 25.54,-106.41 54.31,-118.95 63.03,-27.54 105.7,50.29 144.84,32.85z"/>
   <path class="fil4" d="M1322.76 2343.05c27.84,63.28 49.24,175.33 35.99,226.94 -13.02,50.68 -32.95,98.26 -54.71,149.89l0.07 0.01 -0.17 0.21 -0.07 0.08c-9.72,23.16 -13.37,49.27 -14.21,74.79 -0.34,9.98 -2.53,24.94 24.54,28.65 0.19,5.9 -24.95,12.38 -26.09,18.13 -4.18,20.41 -14.94,39.74 -19.4,56.67l-2.91 10.92c-8.15,29.43 23.91,30.63 31.72,30.38l117.29 -9.76c2.22,8.72 64.18,18.18 52.32,-23.84 -5.2,-18.43 -24.19,-39.9 -51.22,-29.58 -2.99,-14.1 68.18,-24.94 69.41,45.76 0.23,13.27 41.6,11.77 41.6,-2.23 -7.64,-50.88 -21.47,-64.34 -51.59,-52.01 -2.36,-4.39 10.92,-17.52 9.17,-21.74 -3.6,-8.34 -21.95,-8.61 -24.34,-18.09 54.08,-46.82 -13.01,-54.69 -6.96,-69.35 30.09,-73.58 56.37,-121.1 106.85,-170.94 23.21,-22.94 52.42,-50.05 71.2,-81.45 13.68,-23.04 24,-52.12 33.69,-115.76 23.54,-73.35 92.04,-291.54 171.18,-316.88 -9.56,11.19 -21.63,30.32 -33.75,52.82 -5.75,10.78 -11.55,22.31 -17.16,34.19 -24.03,51.19 -43.33,107.6 -36.53,128.17 4.99,15.36 13.55,36.91 11.56,51.24 -0.73,5.57 12.55,23.14 7.99,19.59 -33.85,-25.86 -72.33,22.65 -71.98,48.93 -7.56,111.81 -16,81.69 -123.52,195.24 -23.71,25.01 -35.08,54.01 -50.9,81.77 -16.27,28.52 -21.7,70.21 -17.14,107.88 0.98,8.05 2.37,15.68 4.12,22.82 1.77,6.94 3.93,13.57 6.53,19.73 1.47,3.39 2.83,6.26 4.14,8.71l4.42 8.03 0 -0.01c13.19,24.08 22.63,41.51 23.26,57.99 1.2,31.47 -18.28,44.96 -74.07,46.98l-180.55 6.44c-45.57,1.64 -60.22,-7.64 -61.29,-36.63 -0.34,-9.84 2.28,-19.36 5.8,-32.14 1.65,-5.98 2.3,-8.06 2.93,-10.36 3.92,-14.94 15.87,-36.31 15.17,-59.51 -2,-64.8 15.94,-118.19 36.97,-171.83 30.54,-78.45 61.22,-145.49 30.64,-310.85z"/>
   <path class="fil4" d="M1824.37 2470.57c19.86,68.15 53.41,164.25 27.3,214.2 -14.01,28.42 -38.59,37.58 -28.28,70.95l0.06 -0.01c10.46,21.51 75.97,111.86 47.24,129.75l0.03 0.01c-4.44,2.78 -9.42,4.22 -15.1,4.36 -88.1,1.62 -378.22,65.51 -235.66,-108.34 37.33,-59.77 -19.6,-120.98 -58.49,-163.11l27.83 -30.1c35.21,50.69 90.63,125.42 61.52,189.75 -2.45,5.42 18.34,6.87 14.66,12.78 -1.55,2.5 -27.04,9.42 -28.58,12.28 -53.22,97.46 86.1,67.12 142.46,66.77 -19.54,-18.42 -17.59,-36.9 0.23,-55.4 -9.36,45.18 35.52,63.26 78.53,56.88 16.53,-39.86 -67.7,-68.28 -80.11,-94.78 0,-0.01 5.82,-43.34 2.09,-44.42 -74.56,-21.87 6.43,-19.06 16.82,-23.46 83.39,-35.49 7.34,-198.48 -23.74,-246.22l4.75 -3.08c14.68,4.86 30.71,13.04 46.44,11.19z"/>
   <path class="fil4" d="M1689.29 2439.7c74.48,17.05 182.94,37.98 271.77,1.51 89.71,-36.8 134.26,-67.73 250.98,-151.32 2.81,-2 34.94,-32.07 37.82,-34.19l16.34 32.01c-131.81,92.15 -197.74,130.01 -293.46,169.25 -98.81,40.57 -213.2,33.62 -298.66,14.03l15.21 -31.29z"/>
   <path class="fil3" d="M1745.92 2236.9c21.23,216.42 242.82,137.82 407.67,57.63 -90.33,79.63 -347.86,167.4 -436.33,16.14 0,0 30.55,-75.62 28.66,-73.77z"/>
   <path class="fil4" d="M1637.13 1683.31c133.03,-67.35 261.64,-109.97 410.11,-165.49 -117.04,17.14 -294.68,73.58 -428.7,157.23 -94.68,59.11 -194.36,168.59 -232.92,273.54 64.26,-62.86 114.21,-195.85 251.51,-265.28z"/>
   <path class="fil4" d="M2523.07 1808.32c0.33,16.8 43.23,169.5 43.29,185.99 0.31,159.81 -13.4,307.99 -55.45,458.1 -3.85,13.79 -18.68,66.78 -28.55,118.36 -13.95,72.85 -14.64,128.98 0.31,163.26 36.12,28.32 58.62,48.83 61.42,73.71 3.05,27.36 5.89,39.55 -10.31,45.93 -0.76,-1.33 -1.55,-2.67 -2.28,-3.93l-271.59 0c2.22,5.07 4.53,10.17 6.82,15.29 -16.56,-1.53 -27.75,-5.2 -30,-13.2 -0.11,-0.2 -10.08,-39.95 12.35,-77.67 20.26,-62.01 22.08,-139.21 13.25,-228.67 -6.85,-69.63 -7.86,-160.07 2.91,-215.72 -19.16,-12.43 -46.61,-80.76 -18.26,-207.37 13.58,-60.59 -0.43,-120.66 2.21,-144.03 19.5,45.79 26.75,127.75 15.92,202.25 -5.66,38.8 -5.89,65.35 10.16,103.89 30.46,44.54 79.43,12.12 75.22,-63.7 27.94,105.4 -42.34,114.1 -63.78,115.98 -10.69,55.14 -3.75,226.47 5.4,298.16 1.62,19.39 4.74,36.75 6.18,54.08 2.37,28.7 30.59,39.08 30.29,43.45 -0.54,7.82 -30.96,4.62 -33.04,13.08 -13.5,13.11 -16.64,27.33 -24.84,43.26 -12.24,20.67 -2.6,40.88 6.01,49.78 14.71,15.18 106.27,6.34 127.17,2.96 86.46,-1.94 54.83,-63.23 29.12,-83.05 21.06,5.69 72.35,39.34 38.75,78.09 39.1,9.72 49.39,3.02 54.37,-10.3 -13.89,-74.07 -59.41,-53.29 -71.77,-68.73 -7.84,-9.9 -11.27,-31.33 -11.57,-59.25 -0.31,-29.55 -26.13,-35.1 -18.73,-38.31 20.6,-9.07 22.08,-25.06 22.97,-33.06 4.73,-43.22 13.08,-90.73 22.71,-132.81 4.27,-19.04 8.82,-37.01 13.28,-52.97 4.54,-16.32 9.02,-30.5 13.22,-41.44l0.08 -0.3 0.04 -0.09c26.39,-70.21 45.13,-307.94 35.47,-405.3l-8.75 -185.72zm-26.72 591.02l0.06 0 -0.06 0z"/>
   <path class="fil4" d="M2623.21 1828.16c82.24,119.61 159.71,255.25 262.01,352.64 50.58,48.24 127.07,119.38 137.36,164.94l0 0.19 0.11 0.12c4.89,21.84 4.2,54.46 3.44,87.58 -0.89,39.21 -1.8,77 0.65,88.81l4.98 0.45 0.08 0.17c3.56,4.93 6.75,10.04 9.41,15.24 2.68,5.13 4.98,10.3 6.93,15.39 31.22,81.43 -23.32,71.2 -71.64,73.56 -27.19,1.36 -60.68,3.45 -87.59,3.45 -53.16,0 -98.13,2.86 -101.74,-18.49l-0.05 -0.22 -2.28 -5.66c-8.76,-42.95 17.28,-62.22 31.48,-85.55 5.69,-26.64 -3.32,-76.45 -13,-87.47l-0.14 -0.09 0 -0.03 0 0c-1.45,-1.68 0.31,-11.25 -3.54,-14.89 -39.07,-36.92 -87.43,-83.5 -130.12,-119.19 -19.38,-16.13 -49.48,-41 -67.51,-44.5 -17.75,-3.41 -37.76,-5.13 -62.59,4.47l-15.98 -17.56c34.2,-13.18 63.06,-16.74 90.49,-11.46 27.24,5.25 51.72,18.96 77.54,40.52 36.69,30.64 74.63,78.66 106.69,107.27 6.06,5.33 24.29,14.93 29.25,19.71 4.95,4.54 11.13,0.53 13.66,3.53l0.19 0.06 0 0.08 0 0c10.63,12.24 -6.07,42.59 -4.08,67.57 2.43,29.65 -4.56,30.68 13.42,65.51 -23.44,11.36 -46.28,23.67 -39.58,56.65 8.47,41.96 112.54,21.03 136.7,21.03 36.65,13.55 6,-26.6 24.1,-38.39 11.93,51.49 43.33,28.06 52.85,27.32 32.73,-16.11 1.99,-65.22 -47.42,-72.92 31.14,-25.82 18.07,-49.7 -1.18,-59.05 30.97,-4.71 30.97,-107.2 2.39,-143.12 -50.07,-63.06 -74.6,-93.19 -118.09,-134.64 -14.32,-13.63 -57.3,-70.99 -74.23,-74.49 -28.18,-5.86 -30.04,54.59 -36.73,19.32 -5.44,-28.53 6.96,-44.38 -3.84,-72.51 -27.6,-71.84 -90.22,-153.15 -127.72,-208.01l5.32 -27.34z"/>
   <path class="fil3" d="M2709.89 1743.53c0,0 -75.87,28.2 -83.87,93.7 -8.02,65.5 -74.87,174.44 -74.87,174.44 -20.48,-88.67 58.55,-116.87 54.11,-176.72 -2.02,-27.99 18.99,-60.27 33.39,-73.41l71.24 -18.01z"/>
   <path class="fil3" d="M2530.95 1601.52c-6.87,42.31 -39.56,85.19 -25.11,124.11 39.24,106 7.93,121.1 16.8,180.09 12.14,81.08 14.67,118.03 -54.46,63.94 -37.41,-29.25 -52.06,-84.65 -140.21,-98.6 -166.3,-26.13 -179.31,-92.18 -178.91,-92.51l29.18 -24.94c0.4,14.39 7.22,-9.1 11.14,1.32 14.72,39.48 51.36,54.51 83.39,71.13 72.3,37.59 133.48,38.56 222.89,126.76 13.33,-53.61 6.93,-116.16 -9.71,-203.4 -9.66,-50.96 26.09,-87.01 45,-147.9z"/>
   <path class="fil3" d="M2639.14 2707.19c249.64,-191.51 504.01,-88.81 699.38,150.66 7.93,9.72 3.6,16.06 11.4,26.26 -202.22,-237.76 -476.31,-366.08 -712.74,-150.45 -66.67,60.85 -119.32,45.82 -179.41,64.28 84.75,-66.51 119.84,-43.58 181.37,-90.75z"/>
   <path class="fil3" d="M2456.01 2775.69c58.3,-19.07 105.87,88.66 187.06,31.13 -21.36,51.3 -19.86,89.17 0.05,137.6 0.81,1.98 28.49,-209.16 208.53,-257.98 181.02,-49.07 347.99,39.96 488.45,206.34 6.87,8.05 3.11,12.95 9.82,21.44 -149.52,-170.05 -325.63,-261.64 -512.32,-189.92 -122.37,46.98 -163.38,147.92 -182.94,260.34 -5.02,28.65 -64.59,-65.92 -34.19,-145.65 -104.5,20.36 -155.13,-60.25 -164.46,-63.3z"/>
   <path class="fil3" d="M3337.27 2947.12c-56.91,-76.23 -189.43,-174.28 -291.18,-192.57 -88.7,-15.91 -168.8,21.78 -179.55,134.46 -29.77,-16.2 -45.81,9.44 -78.3,-24.31 -5.52,24.3 -17.57,41.53 -33.76,59.81 -5.71,4.33 -12.05,9.68 -19.23,16.07l-26.79 25.81c-28.81,-51.29 -30.62,-106.26 27.62,-178.64 -31.39,62.79 -40.6,112.28 -16.55,130.96 29.8,-6.32 50.91,-41.37 65.99,-83.69 18.76,32.37 44.39,20.24 68.69,29.68 16.77,-109.72 104.51,-141.12 193.61,-125.08 95.43,17.23 248.76,119.91 286.7,199.4 0,0 -1.39,9.44 2.75,8.1z"/>
   <path class="fil4" d="M3287.16 2944.96c-2.28,1.31 -107.59,-33.59 -193.93,-33.69 -66.86,-0.1 -61.14,55.5 -132.15,69.77 -22.8,4.58 -51.86,5.94 -73.19,-4.61 -34.31,-17 -42.24,-56.36 0.99,-70.57 29.06,-9.57 48.33,10.09 48.87,40.76 28.4,-3.74 22.88,-78.79 -48.21,-66.62 -40.12,10.97 -51.88,47.64 -40,77.54 14.97,13.84 30.42,27.1 46.36,39.8 20.16,5.23 44.65,3.37 64.67,-0.74 63.65,-13.14 67.19,-58.89 133.42,-64.07 59.18,-4.56 126.6,8.76 163.32,17.45 12.75,2.99 -13.8,13.62 14.82,-0.77l15.03 -4.25z"/>
   <path class="fil3" d="M3307.23 2931.63c-63.09,-49.78 -131.3,-98.64 -219.26,-100.8 -43.67,-1.13 -106.99,4.28 -133.76,81.82 -2.82,8.01 -7.32,18.46 -14.18,28.49 -5.18,7.57 -13.56,13.82 -19.15,12.19 23.91,12.85 32.51,-2.94 37.88,-16.31 27.95,-68.91 65.37,-91.35 130.11,-90.55 87.4,1.12 158.41,45.38 217.41,99.25l0.95 -14.09z"/>
   <path class="fil3" d="M3041.23 2943.18c-32.08,32.68 -32.31,76.74 -16.52,101.18 27.46,42.5 98.96,39.3 101.47,-9.55 7.18,-42.18 -60.38,-67.16 -69,-13.11 -4.29,-24.3 11.85,-43.53 32.69,-48.06 48.11,-10.45 75.09,36.33 58.09,77.13 -23.23,55.52 -94.27,50.89 -124.4,22.8 -33.59,-31.19 -36.87,-89.74 17.67,-130.39z"/>
   <path class="fil3" d="M3345.91 3033.71c6.81,1.35 14.52,-5.33 14.82,-8.04 6.99,-71.68 -29.34,-257.85 -99.64,-288.12 37.99,-24.59 60.52,-5.07 81.1,18.4 24.84,28.35 38.04,144.47 42.99,148.38 0,-8.45 -19.05,-100.34 -13.38,-167.31 2.26,-26.84 21.74,-57.68 42.76,-73.89l0 -16.13c-37.34,23.39 -60.15,50.09 -60.15,88.26 -36.88,-25.35 -65.22,-37.61 -123.88,-4.23 74.12,40.35 139.55,231.56 115.38,302.68z"/>
   <path class="fil3" d="M1456.79 3233.1c312.95,208.52 631.72,96.7 876.58,-164.03 9.96,-10.59 4.56,-17.47 14.34,-28.56 -253.49,258.84 -592.87,394.49 -889.27,159.75 -83.56,-66.22 -144.38,-32.76 -194.07,19.85 79.55,-23.46 115.32,-38.41 192.42,12.99z"/>
   <path class="fil3" d="M1267.31 3218.53c16.72,-67.75 39.32,-139.45 166.72,-100.11 -26.75,-51.27 -22.61,-56.09 -32.06,-110.66 -0.22,-1.2 35.64,50.94 108.48,112.29 53.1,44.8 125.25,98.68 220.38,119.33 190.98,41.48 402.5,-31.83 573.59,-179.54 15.59,-13.53 30.49,-27.37 44.99,-41.38 -1.48,-2.37 -3.04,-4.73 -4.49,-7.11 -15.33,14.54 -31.03,28.92 -47.97,42.62 -176.5,143.38 -382.05,222.93 -595.2,157.61 -64.69,-19.82 -125.77,-62.04 -173.69,-107.68 -65.75,-62.61 -113.05,-128.7 -167.68,-126.36 25.12,59.46 11.7,63.01 33.79,110.29 -130.9,-20.37 -139.84,95.34 -126.86,130.7z"/>
   <path class="fil3" d="M1416.44 3010.6c14.14,-21.93 60.06,19.31 84.58,27.56 -24.6,-51.3 14.94,-62.7 46.03,-70 2.68,-0.6 27.26,147.52 234.62,196.58 179.29,42.33 378.34,-42.24 537.28,-196.95 -1.43,-2.53 -2.87,-5.02 -4.23,-7.56 -165.31,150.83 -360.03,239.8 -561.13,172.78 -141,-46.97 -183.56,-140.88 -202.5,-195.27 -28.77,2.79 -84.9,31.94 -64.58,79.18 -46.4,-39.05 -98.47,-41.84 -114.65,-36.13l44.58 29.81z"/>
   <path class="fil3" d="M2288.38 2910.6c-58.56,26.02 -147.12,43.83 -209.82,32.37 -84.24,-15.33 -138.4,-77.75 -122.7,-140.59 -21.78,0.3 -77.69,9.93 -69.66,86.1 4.77,-30.5 23.37,-66.71 51.49,-66.18 -14.57,54.74 44.73,117.07 145.38,133.46 63.2,10.25 150.1,-6.22 208.51,-35.96 0.42,-0.17 0.86,-0.4 1.25,-0.56 -1.49,-2.89 -2.98,-5.72 -4.45,-8.64z"/>
   <path class="fil3" d="M2246.08 3022.77c-30.58,18.64 -76.55,44.55 -112.75,56.72 -91.21,30.65 -210.58,9.23 -259.19,0.11 -19.35,-3.62 -43.85,15.63 -52.88,33.62 -18.82,-3.45 -48.47,-55.16 1.45,-103.37 15.07,3.93 22.12,4.18 23.18,6.94 -10.8,4.02 -19.49,7.54 -26.65,15.26 -16.87,18.3 -16.14,43.44 3.68,48.95 32.43,-36.73 74.32,-19.72 115.41,-8.22 53.36,15.03 131.62,16.34 193.87,-1.73 38.73,-11.21 80.13,-36.99 115.02,-54.71 6.27,4.03 0.91,5.17 -1.14,6.43z"/>
   <path class="fil3" d="M1823.78 3013.52c-47.55,-11.6 -62.61,-72.18 -88.46,-87.63 58.95,-57.07 180.57,77.17 294.34,81.73 80.19,3.24 176.82,-18.9 271.76,-71.75 1.89,3.5 3.71,6.93 5.6,10.33 -154.06,89.29 -338.78,102 -482.45,5.78 -17.48,-11.7 -35.11,-21.78 -54.83,-20.35 30.21,32.8 21.33,50.67 78.24,84.63l-24.2 -2.74z"/>
   <path class="fil3" d="M1931.59 2928.86c-32.62,-22.74 -40.52,-35.22 -114.09,1.94l-20.95 -14.09c68.93,-33.9 90.29,-39.83 135.04,12.15z"/>
   <path class="fil3" d="M1894.62 2873.08c-62.9,-46.33 -253.34,40.06 -384.8,-19.08 58.04,145.43 149.08,128.47 384.8,19.08zm-63.31 14.53c-43.58,-23.47 -192.68,26.27 -283.72,-3.76 40.2,73.69 120.38,59.18 283.72,3.76z"/>
   <path class="fil3" d="M2403.6 3097.22c9.8,179.61 48.43,304.82 169.37,489.04 20.8,31.68 17.58,49.76 22.63,103.34 59.22,4.63 122.18,-22.51 114.87,-82.29 40.05,20.33 96.71,53.68 143.45,24.65 -2.27,-59.42 -34.47,-94.76 -77.36,-131.34 12.54,-2.43 22.81,-16.58 32.99,-45.64 -17.46,-5.03 -60.05,-9.21 -102.85,-28.85 -63.56,-29.12 -135.69,-82.64 -172.41,-179.77 -6.13,-6.03 -12.29,-12.14 -18.33,-18.24 10.19,106.25 104.21,187.64 176.05,219.28 38.57,17.04 84.37,15.83 94.52,20.42 -7.82,19.36 -24,25.93 -42.62,25.29 40.05,37.24 80.74,72.27 81.28,126.23 -49.01,9.64 -101.66,-21.85 -148.03,-61.79 43.46,100.79 -22.61,104.18 -58.72,114.34 0.99,-38.46 -9.22,-83.38 -25.8,-107.71 -117.24,-171.61 -159.01,-304.9 -169.62,-441.54 -6.54,-8.41 -13.05,-16.87 -19.42,-25.42z"/>
   <path class="fil3" d="M2722.96 3546.56c-127.3,-66.78 -236.05,-172.98 -265.52,-382.12 7.5,8.77 15.12,17.43 22.82,25.96 14.63,175.13 125.41,273.59 242.7,356.16z"/>
   <path class="fil3" d="M2246.59 3252.41c8.36,41.85 -12.08,77.12 -35.13,88.82 -40.23,20.42 -91.32,-17.15 -70.39,-57.27 14.52,-37.18 75.99,-24 57.03,23.32 14.54,-17.29 11.68,-40.53 -1.58,-54.35 -30.54,-31.87 -72.4,-7.81 -78.89,33.03 -8.96,55.71 45.59,86.76 80.93,79.13 39.34,-8.48 69.24,-53.52 48.03,-112.68z"/>
   <path class="fil3" d="M2354.7 3026.8c-29.56,31.65 -75.73,88.52 -100.24,157.45 -11.03,31.04 -13.05,64.63 -10.83,100.1 2.34,38.97 11.1,72.99 18.43,110.71 5.28,26.65 5.09,56.33 -23.08,71.38 31.47,-5.72 38.24,-26.24 38.66,-47.67 0.71,-39.33 -4.76,-80.19 -6.57,-119.6 -1.64,-35.63 -1.95,-69.35 3.3,-94.57 16.11,-78.21 46.11,-125.6 83.08,-173.58 -0.9,-1.39 -1.81,-2.79 -2.75,-4.22z"/>
   <path class="fil3" d="M2387.4 3074.95c-10.42,19.84 -21,45.25 -23.15,69.9 -3.24,36.19 14.27,112.99 33.67,140.89 8.19,11.75 1.03,-21.38 1.21,-22.61 -1.85,-5.68 -3.6,-11.18 -5.26,-16.63 -20.42,-68.31 -20.15,-123.36 -4.14,-168.17l-2.33 -3.38z"/>
   <path class="fil3" d="M2425.48 3287.29c-23.83,19.58 -38.92,27.92 -63.6,22.49 15.95,7.63 32.38,22.81 39.96,56.07 -15.37,3.68 -56.65,19.48 -74.66,4.22 2.46,33.6 -9.83,68.85 -28.91,91.25 -19.12,22.43 -43.54,35.74 -62.45,32.52 2.82,-1.24 4.33,-11.85 7.51,-12.08 37.84,-2.78 49.37,-18.3 58.25,-48 8.26,-27.57 1.25,-68.74 -9.21,-117.65 31.13,46.75 63.16,41.49 81.52,31.43 -10.75,-36.36 -29.28,-33.34 -46.9,-71.5 24.36,3.02 47.83,28.39 73.04,9.04 -8.76,-15.43 -19.21,-48.94 -13.05,-64.35 12.82,44.12 26.54,59.19 38.5,66.56z"/>
   <path class="fil3" d="M2343.89 3119.87c-19.2,43.54 -36.76,106.38 -14.72,160.06 4.81,11.7 27.39,39 27.57,37.78 -1.9,-5.58 -5.56,-28.38 -9.33,-33.83 -25.07,-36.48 -19.59,-110.19 -0.07,-165.21l-3.45 1.2z"/>
   <path class="fil3" d="M2261.92 3136.77c-28.89,25.97 -70.07,59.88 -71.87,106.68 -0.36,10.26 14.05,44.68 14.59,43.8 0.48,-4.77 5.46,-22.81 4.52,-28.06 -6.25,-35.18 22.69,-87.85 55.72,-122.13l-2.96 -0.29z"/>
   <path class="fil3" d="M2305.13 3382.63c61.92,-62.73 109.32,61.93 183.28,30.58 -47.38,110.02 -143.14,58.16 -183.28,-30.58zm24.09 9.06c28.38,-21.53 94.63,55.42 138.61,38.7 -63.16,53.31 -119.7,6.01 -138.61,-38.7z"/>
   <path class="fil3" d="M2244.23 2832.8c1.74,5.07 -53.37,1.69 -48.17,52.5 5.19,50.76 -36.16,65.99 -36.16,65.99l80.9 -18.6 49.37 -18.57c-8.86,-17.57 -17.29,-35.35 -25.37,-53.39 -11.51,-16.45 -21.27,-30.06 -20.57,-27.93z"/>
   <path class="fil3" d="M3357 2979.28c-1.33,1.3 -4.55,10.66 -5.46,8.68 -41.38,-86.83 -123.14,-25.67 -94.55,27.37 15.54,28.83 63.65,28.52 67.65,-2.15 4.63,-27.38 -38.33,-39.84 -43.92,-4.85 -2.78,-15.73 7.67,-28.19 21.19,-31.14 31.12,-6.75 48.62,23.56 37.6,50 -15.04,36 -68.06,35.52 -88.11,12.33 -40.6,-47.04 -12.27,-105.29 46.84,-107.52 49,-1.81 55.8,49.46 58.76,47.28z"/>
   <path class="fil3" d="M3212.13 3110.83c21.28,-9.93 41.49,9.9 12.31,15.59 -46.21,9.02 -77.77,-36.84 -56.56,-72.03 14.31,-23.69 56.23,-25.96 63.57,7.51 4.7,27.34 -41.78,35.11 -47.32,0.11 -2.81,15.67 6.3,30.17 27.3,33.76 31.39,5.4 51.33,-24.9 40.34,-51.27 -15.06,-35.98 -68.1,-35.51 -88.11,-12.33 -40.55,47 -14.6,108.12 48.73,106.94 99.18,-1.97 23.97,-66.97 -0.26,-28.28z"/>
   <path class="fil4" d="M3413.2 3190.01l-0.12 0 0 -0.02c-114.28,0 -223.23,-22.69 -322.57,-63.8 -16.63,-6.83 -32.51,-14 -47.76,-21.44l0 -0.07c-80.38,-39.25 -153.53,-90.98 -217.03,-152.55 -18.63,-18.13 -29.87,-28.54 -39.14,-29.28l-0.05 0c-9.26,-0.74 -21.36,7.65 -42.84,26.82l-45.94 44.32 -0.17 0.15 -2.45 2.28c-2.7,2.42 -5.25,4.79 -7.14,6.74 -12.85,12.55 -17.43,24.54 19.03,60.4l0.05 0 0.04 0.09 0 0.02c25.39,24.97 52.08,48.6 80.05,70.8 27.92,22.2 57.09,42.95 87.38,62.17 155.62,98.6 340.46,155.77 538.66,155.77l0 -0.02 0.11 0 0 0.02c137.61,0 268.79,-27.57 388.23,-77.5 19.6,-8.16 38.8,-16.89 57.38,-26.05 96.64,-47.76 184.45,-110.58 260.38,-185.29 36.43,-35.87 31.96,-47.86 19.09,-60.41l-0.03 0c-2.72,-2.76 -4.86,-4.69 -7.09,-6.74l-2.45 -2.28 -0.2 -0.15 -45.94 -44.32c-21.45,-19.17 -33.56,-27.56 -42.85,-26.82l-0.08 0c-9.21,0.74 -20.45,11.15 -39.08,29.2l0.02 0.01 -0.09 0.1 -0.07 0.05c-21.3,20.6 -43.56,40.09 -66.83,58.39 -23.07,18.13 -47.41,35.24 -72.78,51.17 -129.68,81.26 -283.24,128.24 -447.72,128.24zm-0.12 -24.62l0 -0.04 0.12 0c159.63,0 308.58,-45.53 434.28,-124.31 24.23,-15.26 47.88,-31.84 70.65,-49.76 22.61,-17.74 44.27,-36.65 64.76,-56.56l0 -0.02 0.05 -0.06 0.08 0c22.8,-22.15 36.94,-34.92 54.73,-36.38l0 0c17.84,-1.43 34.69,8.99 61.8,33.23l0.37 0.3 46.03 44.44 0 -0.04 2.52 2.32c2.91,2.68 5.78,5.32 7.67,7.21l-0.08 0.01c23.55,23.09 33.45,43.6 -19.04,95.24 -77.76,76.54 -167.78,140.9 -266.89,189.86 -19.45,9.55 -39.1,18.5 -58.81,26.77 -122.38,51.08 -256.94,79.38 -398.01,79.39l0 0.06 -0.11 0 0 -0.06c-203.26,0 -392.69,-58.59 -552.2,-159.66 -31.02,-19.67 -60.95,-40.93 -89.53,-63.65 -28.61,-22.73 -56.02,-46.97 -82.06,-72.6l0 0 -0.09 -0.08 0 -0.03c-52.47,-51.68 -42.58,-72.15 -19.02,-95.25 2.71,-2.68 5.16,-4.93 7.63,-7.21l2.49 -2.32 0 0.04 46.07 -44.44 0.32 -0.3c27.14,-24.24 43.98,-34.66 61.73,-33.23l0 0c17.91,1.46 31.97,14.23 54.76,36.38 61.57,59.71 132.58,109.87 210.59,148.01l0.03 0c15.6,7.61 31.01,14.57 46.31,20.93 96.34,39.83 202.01,61.81 312.85,61.81z"/>
   <path class="fil4" d="M3413.2 3615.42l-0.15 0 0 -0.08c-130.5,0 -256.33,-19.59 -374.73,-55.94 -57.72,-17.75 -113.81,-39.54 -167.9,-65.01 -277.58,-130.84 -499.78,-358.91 -622.03,-639.86l-7.48 -17.17 19 0 271.59 0 7.38 0 3.58 6.43 0 0c24.12,42.25 51.16,82.58 80.87,120.58 29.79,38.05 62.36,73.99 97.29,107.33 179.73,171.6 423.76,277.11 692.58,277.11l0 -0.03 0.1 0 0 0.03c124.36,-0.03 243.5,-22.64 353.46,-63.99 35.96,-13.52 70.84,-28.92 104.29,-46.13 173.22,-88.83 316.99,-226.68 412.89,-394.99l3.62 -6.34 7.3 0 271.64 0 18.95 0 -7.47 17.17 -0.04 0.14c-27.3,62.66 -59.55,122.75 -96.2,179.57 -36.62,56.77 -77.85,110.53 -123.08,160.78 -232.26,257.91 -569.79,420.32 -945.46,420.32l0 0.08zm-0.15 -24.61l0 -0.09 0.15 0 0 0.09c368.27,0 699.03,-159.24 926.74,-412.09 44.21,-49.05 84.53,-101.79 120.62,-157.7 32.67,-50.65 61.69,-103.75 86.75,-158.97l-245.12 0c-98.16,169.58 -244.09,308.46 -419.55,398.43 -34.74,17.83 -70.47,33.64 -106.91,47.34 -112.66,42.38 -234.8,65.56 -362.43,65.56l0 0.08 -0.1 0 0 -0.08c-275.65,0 -525.85,-108.14 -710.03,-284.05 -35.83,-34.13 -69.13,-70.88 -99.66,-109.92 -29.1,-37.18 -55.67,-76.41 -79.34,-117.36l-245.09 0c121.33,267.62 335.69,484.6 602.12,610.15 52.79,24.91 107.79,46.23 164.59,63.68 116.12,35.66 239.48,54.93 367.26,54.93z"/>
   <path class="fil3" d="M4582.09 2832.8c-1.71,5.07 53.42,1.69 48.24,52.5 -5.17,50.76 36.19,65.99 36.19,65.99l-80.97 -18.6 -58.54 -22.01c0,0 56.8,-83 55.08,-77.88z"/>
   <path class="fil4" d="M2385.73 2952.05l79.81 -48.99 36.98 58.14 -13.54 8.3 -26.89 -42.33 -17.67 10.87 25.01 39.39 -13.42 8.29 -25.03 -39.45 -21.74 13.37 27.83 43.84 -13.42 8.29 -37.92 -59.72zm72.04 55.68l12.33 13.6c-4.38,4.48 -6.72,8.91 -7.05,13.33 -0.4,4.38 1.13,8.85 4.55,13.48 3.59,4.82 7.38,7.76 11.29,8.68 3.93,1.01 7.23,0.47 10.04,-1.49 1.83,-1.3 2.99,-2.93 3.41,-4.85 0.53,-1.97 0.3,-4.55 -0.65,-7.8 -0.69,-2.25 -2.6,-7.05 -5.63,-14.45 -3.95,-9.59 -5.62,-17.06 -5.09,-22.45 0.83,-7.58 4.22,-13.55 10.24,-17.79 3.89,-2.82 8.33,-4.3 13.24,-4.53 4.99,-0.23 9.86,1 14.65,3.79 4.77,2.83 9.28,7.1 13.53,12.81 6.96,9.41 10.07,17.98 9.42,25.72 -0.71,7.75 -4.45,14.23 -11.29,19.49l-11.85 -14.65c3.4,-3.41 5.26,-6.84 5.37,-10.17 0.14,-3.36 -1.36,-7.16 -4.49,-11.36 -3.26,-4.42 -6.69,-7.25 -10.36,-8.38 -2.37,-0.82 -4.52,-0.44 -6.49,0.94 -1.82,1.29 -2.81,3.14 -3.01,5.56 -0.19,3.08 1.51,8.88 5.21,17.51 3.66,8.6 5.82,15.38 6.56,20.24 0.75,4.86 0.19,9.43 -1.62,13.74 -1.82,4.38 -5.11,8.27 -9.93,11.67 -4.34,3.1 -9.29,4.85 -14.87,5.21 -5.55,0.29 -10.88,-1.06 -15.96,-4.05 -5.08,-3.05 -10.01,-7.8 -14.84,-14.3 -7,-9.5 -10.13,-18.31 -9.41,-26.54 0.68,-8.27 4.94,-15.97 12.7,-22.96zm47.04 109.37l59.89 -49.41 -17.96 -20.96 12.23 -10.05 48.08 56.27 -12.25 10.02 -17.89 -20.91 -59.89 49.32 -12.21 -14.28zm109.85 -16.09l24.15 24.6c5.44,5.47 9.14,10.1 11.14,13.83 2.65,5.02 3.89,10.32 3.59,15.98 -0.23,5.61 -1.82,11.21 -4.66,16.73 -2.96,5.57 -7.57,11.35 -13.91,17.36 -5.57,5.29 -11.02,9.2 -16.4,11.65 -6.54,3 -12.84,4.43 -18.92,4.18 -4.62,-0.1 -9.5,-1.57 -14.74,-4.29 -3.86,-2.03 -8.21,-5.57 -13.08,-10.53l-24.82 -25.28 67.65 -64.23zm1.75 24.32l-44.8 42.55 9.86 10.01c3.67,3.75 6.52,6.26 8.62,7.54 2.69,1.62 5.41,2.53 8.11,2.75 2.72,0.13 6.06,-0.74 10.02,-2.67 3.91,-2.01 8.53,-5.48 13.75,-10.46 5.23,-4.96 8.75,-9.21 10.71,-12.79 1.9,-3.59 2.81,-6.88 2.78,-10.01 -0.05,-3.11 -1,-6.24 -2.91,-9.26 -1.43,-2.25 -4.81,-6.15 -10.23,-11.65l-5.91 -6.01zm2.27 109.19l12.04 -13.22 13.41 11.89 -12.05 13.18 -13.4 -11.85zm117.1 -22.93l29.65 22.81c5.87,4.5 10.11,8.07 12.58,10.75 2.44,2.72 4.26,5.7 5.32,8.98 1.06,3.29 1.34,6.73 0.85,10.43 -0.52,3.72 -2,7.14 -4.52,10.33 -2.71,3.38 -6.13,5.8 -10.28,7.22 -4.12,1.39 -8.36,1.61 -12.68,0.6 3.49,4.72 5.22,9.63 5.17,14.54 -0.07,4.99 -1.73,9.62 -5.11,13.82 -2.63,3.32 -5.94,5.93 -10.05,7.86 -4.02,1.93 -8.14,2.79 -12.35,2.53 -4.2,-0.17 -8.53,-1.57 -12.85,-4.21 -2.63,-1.63 -8.78,-6.08 -18.45,-13.39l-25.2 -19.34 57.92 -72.93zm5.3 23.64l-13.32 16.87 9.78 7.54c5.81,4.49 9.54,7.21 11.06,8.12 2.79,1.67 5.53,2.38 8.1,2.01 2.61,-0.31 4.87,-1.62 6.74,-3.98 1.8,-2.25 2.63,-4.6 2.49,-7.01 -0.17,-2.37 -1.34,-4.65 -3.64,-6.84 -1.35,-1.29 -5.51,-4.67 -12.56,-10.08l-8.65 -6.63zm-23 29.02l-15.44 19.48 13.85 10.64c5.32,4.12 8.88,6.62 10.62,7.44 2.5,1.33 5.09,1.69 7.7,1.25 2.61,-0.41 4.98,-1.99 7.01,-4.57 1.78,-2.16 2.66,-4.46 2.83,-6.83 0.12,-2.33 -0.55,-4.63 -2.02,-6.92 -1.52,-2.21 -5.66,-5.99 -12.47,-11.2l-12.08 -9.29zm61.4 90.88l21.55 -32.64 0.84 -63.33 18.64 11.9 -1.66 42.56 38.47 -19.09 18.31 11.73 -58.76 26.52 -21.47 32.54 -15.92 -10.19zm143.07 40.01l6.96 -14.03 36.82 17.65 -16.45 33.11c-5.26,1.69 -11.9,2.16 -20.04,1.54 -8.01,-0.68 -15.56,-2.67 -22.54,-6 -8.8,-4.26 -15.59,-9.77 -20.38,-16.57 -4.77,-6.82 -7.11,-14.38 -7.06,-22.72 0.09,-8.37 2.08,-16.62 6,-24.57 4.28,-8.62 9.95,-15.44 17.02,-20.42 7.02,-4.96 14.98,-7.52 23.91,-7.67 6.73,-0.16 14.18,1.69 22.27,5.51 10.49,5.05 17.63,11.16 21.38,18.31 3.72,7.16 4.55,14.99 2.49,23.4l-18.49 -4.96c0.8,-4.68 0.13,-9 -1.96,-12.91 -2.09,-3.96 -5.62,-7.12 -10.53,-9.5 -7.48,-3.54 -14.53,-4.07 -21.29,-1.56 -6.73,2.58 -12.3,8.44 -16.85,17.57 -4.89,9.86 -6.36,18.34 -4.3,25.4 2.02,7.09 6.6,12.35 13.86,15.78 3.56,1.74 7.47,2.77 11.76,3.14 4.28,0.34 8.21,0.12 11.75,-0.6l5.21 -10.54 -19.54 -9.36zm55.92 12.19c3.38,-8.84 7.62,-15.74 12.6,-20.68 3.78,-3.58 8.01,-6.54 12.84,-8.76 4.82,-2.16 9.61,-3.35 14.38,-3.41 6.39,-0.31 13.1,0.96 20.3,3.68 12.92,4.91 21.74,12.72 26.38,23.56 4.73,10.78 4.32,23.25 -1.15,37.31 -5.49,13.9 -13.57,23.42 -24.33,28.35 -10.8,4.95 -22.64,5 -35.55,0.12 -13.09,-4.94 -21.9,-12.75 -26.57,-23.51 -4.68,-10.72 -4.3,-22.96 1.1,-36.66zm18.48 6.28c-3.84,9.77 -4.4,18.06 -1.82,24.83 2.66,6.77 7.49,11.45 14.55,14.14 7.07,2.69 13.88,2.39 20.35,-0.96 6.5,-3.26 11.73,-9.93 15.6,-19.94 3.91,-9.88 4.54,-18.07 2.02,-24.62 -2.52,-6.52 -7.4,-11.18 -14.72,-13.96 -7.32,-2.73 -14.15,-2.46 -20.6,0.75 -6.34,3.22 -11.52,9.79 -15.38,19.76zm92.57 78.87l-4.71 -98.14 19.73 5.86 2.42 72.37 42.37 -58.87 19.31 5.83 -59.74 78.74 -19.38 -5.79zm66.32 19.02l16.31 -91.06 68.75 11.96 -2.79 15.39 -49.98 -8.67 -3.67 20.23 46.56 8.03 -2.79 15.33 -46.47 -8.03 -4.48 24.76 51.73 8.98 -2.72 15.36 -70.45 -12.28zm91.75 14.89l9.82 -91.92 39.78 4.08c10.04,1.02 17.18,2.64 21.53,4.73 4.37,2.13 7.69,5.43 9.96,9.92 2.29,4.52 3.12,9.48 2.49,14.94 -0.76,6.91 -3.37,12.38 -8,16.46 -4.57,4.06 -11.07,6.24 -19.39,6.57 3.86,2.77 6.92,5.67 9.29,8.76 2.31,3.07 5.41,8.49 9.14,16.08l9.49 19.12 -22.57 -2.38 -11.48 -21.41c-4.09,-7.68 -6.98,-12.53 -8.53,-14.5 -1.59,-2.11 -3.36,-3.53 -5.26,-4.45 -1.92,-0.9 -5.06,-1.55 -9.44,-2.01l-3.83 -0.39 -4.1 38.37 -18.9 -1.97zm24.63 -51.11l13.9 1.47c9.1,0.89 14.81,1.14 17.14,0.61 2.34,-0.52 4.24,-1.66 5.7,-3.33 1.49,-1.7 2.38,-3.92 2.61,-6.71 0.42,-3.1 -0.19,-5.7 -1.66,-7.75 -1.5,-2.08 -3.73,-3.53 -6.76,-4.34 -1.49,-0.37 -6.03,-0.96 -13.73,-1.76l-14.77 -1.49 -2.43 23.3zm75.71 60.85l3.31 -92.48 18.5 0.68 36.28 63.04 2.2 -61.72 17.67 0.6 -3.3 92.41 -19.06 -0.67 -35.78 -61.58 -2.11 60.28 -17.71 -0.56zm99.81 1.59l-6.6 -92.3 28.38 -1.92 21.49 61.76 12.35 -64.07 28.44 -1.96 6.55 92.3 -17.57 1.12 -5.11 -72.57 -13.51 73.89 -18.25 1.26 -23.78 -71.36 5.16 72.64 -17.55 1.21zm114.87 -8.79l-16.34 -91.05 68.7 -11.89 2.72 15.43 -49.91 8.65 3.6 20.14 46.49 -8.04 2.74 15.37 -46.48 8.05 4.41 24.78 51.79 -8.99 2.77 15.36 -70.49 12.19zm91.59 -13.71l-24.3 -89.35 17.84 -4.68 53.45 49.84 -16.25 -59.65 17.08 -4.5 24.33 89.32 -18.44 4.88 -52.53 -48.63 15.92 58.28 -17.1 4.49zm117.22 -31.89l-25.44 -72.68 -26.36 8.94 -5.22 -14.79 70.69 -23.92 5.21 14.77 -26.35 8.93 25.45 72.63 -17.98 6.12zm72.05 -74.04c-4.1,-8.5 -6.18,-16.31 -6.33,-23.26 -0.08,-5.12 0.75,-10.17 2.52,-15.13 1.76,-4.9 4.23,-9.11 7.4,-12.57 4.28,-4.71 9.85,-8.6 16.85,-11.74 12.56,-5.75 24.39,-6.54 35.59,-2.34 11.14,4.2 20.01,13.1 26.5,26.77 6.4,13.55 7.66,25.79 3.82,36.88 -3.9,11.09 -12.09,19.51 -24.58,25.21 -12.68,5.83 -24.58,6.65 -35.68,2.51 -11.05,-4.24 -19.81,-12.93 -26.09,-26.33zm17.45 -8.67c4.53,9.51 10.16,15.67 16.91,18.5 6.8,2.86 13.63,2.74 20.47,-0.43 6.84,-3.1 11.37,-8.14 13.45,-15.05 2.13,-6.84 0.85,-15.11 -3.76,-24.82 -4.52,-9.69 -10.12,-15.84 -16.64,-18.57 -6.52,-2.78 -13.35,-2.56 -20.43,0.75 -7.09,3.19 -11.68,8.26 -13.77,14.97 -2.07,6.8 -0.86,15 3.77,24.65zm102.34 3.77l-46.99 -80.05 55.83 -31.74 8 13.56 -39.45 22.37 11.15 18.92 34.01 -19.29 8.03 13.52 -34.08 19.33 20.01 34.04 -16.51 9.34zm104.69 -62.81l-53.98 -75.73 15.6 -10.7 23.93 33.64 7.44 -55.33 20.93 -14.32 -7.95 49.47 63.52 25.19 -20.12 13.79 -46.54 -20.91 -3.61 21.34 16.3 22.9 -15.52 10.66zm81.08 -57.32l-60.48 -70.81 53.43 -44.07 10.2 11.97 -38.83 32.09 13.37 15.67 36.22 -29.81 10.16 11.92 -36.19 29.84 16.5 19.23 40.25 -33.17 10.18 11.92 -54.81 45.22zm71.29 -58.86l-67.73 -64.29 27.82 -28.24c6.96,-7.13 12.61,-11.72 17.03,-13.77 4.4,-2.07 9.09,-2.6 14.1,-1.62 5,1.05 9.5,3.47 13.53,7.26 5.09,4.82 7.82,10.29 8.23,16.33 0.44,6.05 -1.77,12.45 -6.64,19.11 4.57,-1.33 8.82,-1.88 12.69,-1.81 3.96,0.06 10.1,1 18.53,2.76l21.17 4.44 -15.78 16.07 -24.24 -4.32c-8.67,-1.51 -14.31,-2.27 -16.93,-2.35 -2.63,0 -4.84,0.45 -6.78,1.37 -1.92,0.98 -4.37,2.98 -7.43,6.06l-2.65 2.7 28.25 26.82 -13.17 13.48zm-25.88 -50.58l9.73 -9.89c6.34,-6.45 10,-10.71 11.08,-12.9 0.99,-2.09 1.29,-4.25 0.81,-6.44 -0.46,-2.18 -1.71,-4.26 -3.69,-6.21 -2.28,-2.15 -4.74,-3.28 -7.31,-3.45 -2.55,-0.11 -5.13,0.76 -7.62,2.57 -1.21,0.94 -4.52,4.16 -9.85,9.58l-10.31 10.46 17.16 16.28zm149.82 -83.51l-13.34 15.61 -21.62 -7.34 -24.16 28.29 11.38 19.38 -12.95 15.16 -48.49 -87 12.88 -15.13 96.3 31.03zm-51 2.84l-35.08 -12.31 18.61 31.64 16.47 -19.33zm60.96 -15.94l-75.53 -53.97 11.2 -15.07 62.63 44.78 27.81 -37.61 12.78 9.21 -38.89 52.66zm94.17 -137.9l-10.96 17.23 -22.5 -4.27 -19.94 31.37 14.07 17.59 -10.67 16.8 -60.38 -79.55 10.62 -16.79 99.76 17.62zm-50.06 9.76l-36.52 -7.3 22.87 28.69 13.65 -21.39z"/>
   <path class="fil4" d="M2916.63 3055.5l63.47 38.17c13.76,8.25 16.89,24.1 9.38,47.6l-2.42 6.31c-9.89,16.57 -24.85,23.74 -44.87,21.59l8.57 40.75 -1.14 1.94 -28.96 -17.4 -13.71 -72.07 0.57 -0.8 35.31 21.15c8.14,4.93 16.36,2.56 24.6,-6.95 5.06,-8.42 3.7,-16.02 -4.1,-22.87l-41.01 -24.67 -46.21 76.86 -2.94 0.77 -16.79 -10.07 -0.73 -3.03 57.95 -96.49 3.03 -0.79zm162.62 213.55l-65.32 -25.07c-6.52,-2.52 -11.01,-6.65 -13.47,-12.39 -2.47,-5.72 -2.47,-11.74 -0.08,-18l33.87 -88.18 21.94 8.41 -33.82 88.23 65.26 25.03 33.88 -88.23 21.8 8.35 -33.86 88.27c-2.35,6.07 -6.31,10.53 -11.81,13.32 -5.51,2.78 -11.64,2.87 -18.39,0.26zm198.3 -46.29l-46 -8.98 -18.01 92.79 -22.92 -4.43 18.01 -92.77 -45.77 -8.92 4.53 -23.05 114.66 22.29 -4.5 23.07zm33.83 -16.86l73.89 3.91c16.04,0.85 26.27,13.37 30.64,37.64l0.84 6.66c-1.02,19.29 -10.8,32.68 -29.45,40.16l26.66 32 -0.05 2.19 -33.77 -1.77 -45.95 -57.12 0.11 -1.02 41.08 2.19c9.54,0.43 15.71,-5.48 18.5,-17.78 0.49,-9.78 -4.27,-15.88 -14.35,-18.33l-47.79 -2.47 -4.68 89.55 -2.36 2.08 -19.43 -1.02 -2.09 -2.28 5.89 -112.46 2.31 -2.13zm240.93 113.37l-69.9 6.07c-12.43,1.12 -20.36,-3.4 -23.81,-13.61 -0.74,-2.35 -1.24,-4.93 -1.49,-7.76l-6.21 -70.68c-0.53,-6.14 1.22,-11.8 5.21,-16.89 3.99,-5.14 9.33,-7.98 16.02,-8.57l69.9 -6.1c6.51,-0.57 12.24,1.25 17.12,5.47 4.85,4.18 7.58,9.52 8.15,15.9l6.15 70.72c1.41,15.65 -5.67,24.09 -21.14,25.45zm-2.07 -23.46l-6.2 -70.67 -69.91 6.09 6.23 70.73 69.88 -6.15zm183.36 -21.02l-14.12 4.05 -96.85 -52.08 21.12 73.81 -22.42 6.45 -32.5 -113.5 13.91 -3.95 97.13 52.06 -21.2 -73.84 22.41 -6.45 32.52 113.45zm67.53 -27.26l-21.78 8.37 -42.25 -110.18 21.76 -8.33 42.27 110.14zm163.87 -85.2l-28.01 15.47 -54.28 -19.52 -12.15 56.41 -28.1 15.56 20.49 -78.73 -77.72 -24.46 28.1 -15.63 54.34 19.57 12.18 -56.42 27.89 -15.47 -20.19 78.78 77.45 24.44z"/>
   <path class="fil5 str1" d="M3414.51 1405.81c277.09,0 501.46,224.42 501.46,501.22 0,277.02 -224.37,501.43 -501.46,501.43 -276.77,0 -501.14,-224.41 -501.14,-501.43 0,-276.82 224.37,-501.22 501.14,-501.22z"/>
   <path class="fil3" d="M3108.5 1517.82l219.98 216.34c16.16,2.56 24.05,-2.44 31.11,-14.94l-7.6 -305.89 -15.39 2.75 2.19 297.44 -216.51 -208.64 -13.78 12.94zm362.38 -103.63l-0.26 307.48c9.63,13.29 18.69,15.38 32.54,11.5l213.63 -224.8 -12.05 -9.17 -212.23 215.26 -5.56 -300.62 -16.07 0.35z"/>
   <path class="fil3" d="M2924.6 1845.38l312.11 -1.89c13.29,-9.67 15.36,-18.76 11.54,-32.61l-218.63 -209.11 -12.02 10.99 211.83 208.76 -308.05 6.72 3.22 17.14z"/>
   <path class="fil3" d="M3027.95 2208.09l221.18 -222.44c2.61,-16.22 -2.35,-24.11 -14.88,-31.16l-307.77 6.68 -0.72 16.27 302.73 -2.19 -214.97 222.95 14.43 9.89z"/>
   <path class="fil3" d="M3357.26 2396.94l1.23 -319.58c-9.63,-13.25 -18.73,-15.32 -32.6,-11.47l-218.67 228.15 10.97 12.06 218.4 -221.42 3.45 315.49 17.22 -3.23z"/>
   <path class="fil3" d="M3728.39 2291.44l-227.72 -226.5c-16.19,-2.56 -24.09,2.37 -31.15,14.87l5.62 319.46 16.27 0.82 -1.09 -314.57 228.21 220.36 9.86 -14.44z"/>
   <path class="fil3" d="M3905.54 1954.67l-313.14 0.97c-13.32,9.57 -15.33,18.67 -11.5,32.52l230.28 214.43 12 -10.96 -223.5 -214.11 309.11 -5.58 -3.25 -17.27z"/>
   <path class="fil3" d="M3794.79 1597.39l-214.84 216.01c-2.57,16.27 2.38,24.13 14.92,31.23l307.76 -6.72 0.66 -16.28 -302.73 2.15 208.58 -216.5 -14.35 -9.89z"/>
   <path class="fil3" d="M3349.13 2405.44l0 -463.95 0 463.95zm129.48 -471.41l0 471.41 0 -471.41zm-66.67 -103.87c40.49,0 73.39,32.84 73.39,73.43 0,10.86 -2.46,21.21 -6.72,30.44 -11.55,25.36 -37.06,42.86 -66.67,42.86 -26.64,0 -50,-14.21 -62.81,-35.4 -6.68,-11.09 -10.53,-24.05 -10.53,-37.9 0,-40.59 32.78,-73.43 73.34,-73.43z"/>
   <path id="_1" class="fil3" d="M3349.13 2405.44l0 -463.95 0 463.95zm129.48 -471.41l0 471.41 0 -471.41zm-66.67 -103.87c40.49,0 73.39,32.84 73.39,73.43 0,10.86 -2.46,21.21 -6.72,30.44 -11.55,25.36 -37.06,42.86 -66.67,42.86 -26.64,0 -50,-14.21 -62.81,-35.4 -6.68,-11.09 -10.53,-24.05 -10.53,-37.9 0,-40.59 32.78,-73.43 73.34,-73.43z"/>
   <g>
    <path id="_1_0" class="fil3" d="M3349.13 2405.44l0 -463.95 0 463.95zm129.48 -471.41l0 471.41 0 -471.41zm-66.67 -103.87c40.49,0 73.39,32.84 73.39,73.43 0,10.86 -2.46,21.21 -6.72,30.44 -11.55,25.36 -37.06,42.86 -66.67,42.86 -26.64,0 -50,-14.21 -62.81,-35.4 -6.68,-11.09 -10.53,-24.05 -10.53,-37.9 0,-40.59 32.78,-73.43 73.34,-73.43z"/>
    <path id="1" class="fil0 str1" d="M3349.13 2405.44l0 -463.95m129.48 -7.46l0 471.41m-66.67 -575.28c40.49,0 73.39,32.84 73.39,73.43 0,10.86 -2.46,21.21 -6.72,30.44 -11.55,25.36 -37.06,42.86 -66.67,42.86 -26.64,0 -50,-14.21 -62.81,-35.4 -6.68,-11.09 -10.53,-24.05 -10.53,-37.9 0,-40.59 32.78,-73.43 73.34,-73.43z"/>
   </g>
   <path class="fil4" d="M1169.85 4166.67c0,4.03 1.01,8.34 3.04,12.9 1.97,4.59 4.81,8.16 8.47,10.71 -2.56,-2.93 -4.11,-6.12 -4.64,-9.62 -0.54,-3.48 -0.85,-6.3 -0.85,-8.51l0 -14.26c0,-15.01 4.42,-26.53 13.19,-34.6 8.79,-8.04 23.41,-12.06 43.91,-12.06 19.78,0 35.42,4.57 46.96,13.72 11.51,9.16 17.28,21.24 17.28,36.23l0 21.96c0,14.63 -5.88,26.55 -17.56,35.69 -11.7,9.16 -27.46,13.73 -47.24,13.73l-46.1 0c-21.95,0 -39.6,-5.04 -52.97,-15.09 -13.37,-10.07 -20.04,-24.27 -20.04,-42.55l0 -159.22c0,-18.29 6.75,-32.48 20.3,-42.55 13.55,-10.06 31.3,-15.1 53.27,-15.1l45.54 0c19.78,0 35.54,4.59 47.24,13.73 11.68,9.17 17.56,21.04 17.56,35.69l0 21.93c0,15.02 -5.77,27.1 -17.28,36.26 -11.54,9.16 -27.18,13.72 -46.96,13.72 -20.5,0 -35.12,-4.03 -43.91,-12.06 -8.77,-8.07 -13.19,-19.59 -13.19,-34.61l0 -14.27c0,-1.81 0.38,-4.67 1.1,-8.49 0.73,-3.85 2.38,-7.25 4.95,-10.16 -3.66,2.56 -6.6,6.11 -8.79,10.69 -2.19,4.59 -3.28,8.88 -3.28,12.91l0 143.28zm73.04 0.55c0,-5.13 -0.69,-9.51 -1.95,-13.18 -1.27,-3.65 -3.41,-5.47 -6.34,-5.47 -2.92,0 -5.01,1.71 -6.31,5.21 -1.26,3.47 -1.92,7.94 -1.92,13.44l0 8.78c0,4.77 0.55,9.07 1.68,12.92 1.1,3.85 3.26,5.75 6.55,5.75 5.5,0 8.29,-6.22 8.29,-18.67l0 -8.78zm0 -152.63c0,-12.43 -2.79,-18.67 -8.29,-18.67 -3.29,0 -5.45,1.95 -6.55,5.77 -1.13,3.85 -1.68,8.17 -1.68,12.9l0 8.8c0,5.49 0.66,9.96 1.92,13.45 1.3,3.47 3.39,5.2 6.31,5.2 2.93,0 5.07,-1.82 6.34,-5.48 1.26,-3.65 1.95,-8.03 1.95,-13.17l0 -8.8zm326.13 160.33c0,9.14 -2.37,17.47 -7.12,24.98 -4.77,7.5 -10.99,13.8 -18.66,18.93 -7.69,5.13 -16.66,9.16 -26.92,12.07 -10.23,2.95 -20.84,4.22 -31.85,3.85 -11.71,-0.37 -23.14,-1.73 -34.3,-4.11 -11.17,-2.39 -20.03,-7.25 -26.64,-14.56 -3.66,5.13 -8.58,9.51 -14.83,13.17 -6.19,3.68 -15.93,5.5 -29.07,5.5 -17.57,0 -31.57,-5.31 -42.02,-15.92 -10.42,-10.61 -15.63,-25.26 -15.63,-43.91l0 -57.11c0,-18.29 6.42,-32.85 19.21,-43.64 12.78,-10.81 30.36,-16.2 52.68,-16.2l7.16 0 0 -43.91c0,-10.24 2.27,-19.11 6.88,-26.64 4.56,-7.48 10.67,-13.72 18.38,-18.65 7.66,-4.95 16.54,-8.69 26.61,-11.25 10.09,-2.56 20.58,-3.85 31.57,-3.85 11.01,0 21.62,1.29 31.85,3.85 10.26,2.56 19.23,6.3 26.92,11.25 7.67,4.93 13.89,11.25 18.66,18.94 4.75,7.68 7.12,16.46 7.12,26.35l0 43.91 7.16 0c22.3,0 39.96,5.39 52.94,16.2 13.03,10.79 19.49,25.35 19.49,43.64l0 57.11c0,18.65 -5.29,33.38 -15.9,44.2 -10.62,10.79 -28.36,16.17 -53.24,16.17l-8.79 0 0 -40.07 8.79 0c4,0 7.13,-2.1 9.3,-6.3 2.21,-4.23 3.32,-9.81 3.32,-16.77l0 -50.5c0,-7.32 -1.11,-13.07 -3.32,-17.29 -2.17,-4.21 -6.39,-6.31 -12.59,-6.31l-7.16 0 0 76.87zm-57.64 -76.87l-53.81 0 0 68.62c0,19.02 8.97,28.55 26.9,28.55 9.15,0 15.92,-2.56 20.33,-7.69 4.38,-5.12 6.58,-11.89 6.58,-20.31l0 -69.17zm0 -40.08l0 -40.08c0,-8.77 -2.38,-14.99 -7.11,-18.66 -4.79,-3.66 -11.39,-5.48 -19.8,-5.48 -7.3,0 -13.63,1.73 -18.92,5.21 -5.32,3.48 -7.98,9.81 -7.98,18.93l0 40.08 53.81 0zm-121.87 136.16c4.77,0 7.85,-2.11 9.33,-6.31 1.47,-4.21 2.19,-10.55 2.19,-18.94l0 -70.83 -7.69 0c-6.21,0 -10.23,2.65 -12.06,7.95 -1.84,5.31 -2.78,10.55 -2.78,15.65l0 50.5c0,6.24 0.66,11.46 1.95,15.67 1.26,4.2 4.3,6.31 9.06,6.31zm363.4 40.62c-17.96,-1.47 -31.74,-4.67 -41.46,-9.59 -9.69,-4.95 -16.72,-10.55 -21.13,-16.76 -4.38,-6.22 -6.95,-12.46 -7.68,-18.68 -0.71,-6.22 -1.12,-10.95 -1.12,-14.27l0 -157.56c0,-18.29 6.87,-32.83 20.6,-43.62 13.74,-10.8 32.7,-16.22 56.83,-16.22l58.21 0c9.13,0 18.11,1.47 26.88,4.4 8.78,2.93 16.46,6.96 23.07,12.08 6.59,5.12 11.88,11.34 15.92,18.65 4.04,7.33 6.01,15.59 6.01,24.71l0 157.56c0,9.17 -1.73,17.4 -5.21,24.72 -3.49,7.33 -8.33,13.63 -14.54,18.95 -6.21,5.29 -13.43,9.3 -21.68,12.08 -8.23,2.73 -16.9,4.09 -26.08,4.09 -19.76,0 -36.08,-5.38 -48.85,-16.17 -12.82,-10.82 -19.21,-25.35 -19.21,-43.67l0 -83.44c0,-9.15 0.9,-17.38 2.73,-24.69 1.82,-7.31 4.94,-13.64 9.32,-18.98 4.42,-5.28 10.38,-9.31 17.86,-12.04 7.5,-2.76 16.91,-4.14 28.27,-4.14 2.56,0 5.86,0.55 9.88,1.66 4.02,1.1 7.67,2.92 10.96,5.49l0 -18.68c0,-7.31 -2.28,-12.9 -6.85,-16.72 -4.56,-3.84 -10.52,-5.96 -17.83,-6.31l-43.92 0c-9.14,-0.37 -15.73,1.71 -19.77,6.31 -4.01,4.57 -6.02,10.5 -6.02,17.83l0 150.41c0,5.52 0.53,10.63 1.63,15.38 1.1,4.76 5.51,7.33 13.18,7.69l0 39.53zm56.56 -62.6c0,15.76 4.03,23.61 12.06,23.61 7.32,0 10.96,-7.85 10.96,-23.61l0 -76.31c0,-7.29 -0.9,-13.07 -2.72,-17.27 -1.85,-4.22 -4.57,-6.3 -8.24,-6.3 -4.02,0 -7.05,2.08 -9.04,6.3 -2.05,4.2 -3.02,9.98 -3.02,17.27l0 76.31zm331.07 -124.6c0,8.78 -1.81,16.46 -5.45,23.06 -3.7,6.57 -10.99,12.08 -22,16.46 8.09,3.29 14.64,8.69 19.78,16.19 5.13,7.51 7.67,15.3 7.67,23.34l0 29.08c0,9.17 -2.08,17.32 -6.31,24.45 -4.2,7.13 -9.78,13.25 -16.72,18.38 -6.96,5.14 -14.92,9.07 -23.9,11.81 -8.94,2.73 -18.21,4.12 -27.71,4.12l-75.24 0c-2.91,0 -5.55,0.83 -7.92,2.47 -2.39,1.64 -3.77,5.77 -4.12,12.34 0,6.6 1.44,10.72 4.37,12.35 2.92,1.66 5.51,2.49 7.67,2.49l146.59 0 0 39.52 -146.59 0c-19.73,0 -36.09,-4.49 -49.1,-13.45 -13,-8.97 -19.5,-22.8 -19.5,-41.45 0,-18.3 6.5,-31.39 19.5,-39.25 13.01,-7.86 29.37,-11.79 49.1,-11.79l75.24 0c4.39,0 8.49,-2.4 12.35,-7.15 3.85,-4.77 5.77,-10.81 5.77,-18.1l0 -22.53c0,-7.3 -1.18,-12.99 -3.58,-17.02 -2.38,-4.02 -7.96,-6.04 -16.73,-6.04l0 -40.07c7.66,0 12.98,-2 15.9,-6.04 2.93,-4.04 4.41,-9.69 4.41,-17.01l0 -21.97c0,-7.33 -1.92,-13.07 -5.77,-17.3 -3.86,-4.19 -8.32,-6.31 -13.45,-6.31l-67.53 0c-4.03,0 -7.94,1.94 -11.82,5.78 -3.81,3.82 -6.11,8.86 -6.83,15.1l0 16.46c2.91,-1.82 6.22,-3.11 9.88,-3.85 3.67,-0.75 6.74,-1.1 9.32,-1.1 19.79,0 34.86,5.39 45.27,16.19 10.44,10.82 15.68,25.16 15.68,43.11l0 23.6c0,18.3 -6.5,32.85 -19.49,43.64 -12.98,10.81 -29.37,16.2 -49.14,16.2 -19.75,0 -36.07,-5.39 -48.88,-16.2 -12.81,-10.79 -19.2,-25.34 -19.2,-43.64l0 -95.53c0,-9.12 2.09,-17.38 6.31,-24.71 4.2,-7.31 9.79,-13.53 16.76,-18.65 6.96,-5.12 14.89,-9.15 23.86,-12.08 8.98,-2.93 18.41,-4.4 28.28,-4.4l68.63 0c9.5,0 18.77,1.47 27.71,4.4 8.98,2.93 16.94,6.96 23.9,12.08 6.94,5.12 12.52,11.34 16.72,18.65 4.23,7.33 6.31,15.59 6.31,24.71l0 29.66zm-138.3 46.12c0,-7.32 -1.05,-13.1 -3.04,-17.29 -2.01,-4.22 -5.06,-6.33 -9.06,-6.33 -4.04,0 -6.98,2.48 -8.8,7.4 -1.84,4.95 -2.72,10.35 -2.72,16.22l0 17.01c0,7.31 0.88,13 2.72,17.02 1.82,4.02 4.76,6.04 8.8,6.04 4,0 7.05,-2.02 9.06,-6.04 1.99,-4.02 3.04,-9.71 3.04,-17.02l0 -17.01zm345.35 73c0,4.03 1.03,8.34 3,12.9 2.06,4.59 4.87,8.16 8.53,10.71 -2.57,-2.93 -4.11,-6.12 -4.66,-9.62 -0.55,-3.48 -0.83,-6.3 -0.83,-8.51l0 -14.26c0,-15.01 4.4,-26.53 13.18,-34.6 8.77,-8.04 23.44,-12.06 43.91,-12.06 19.77,0 35.44,4.57 46.95,13.72 11.53,9.16 17.29,21.24 17.29,36.23l0 21.96c0,14.63 -5.84,26.55 -17.55,35.69 -11.75,9.16 -27.47,13.73 -47.22,13.73l-46.14 0c-21.96,0 -39.6,-5.04 -52.97,-15.09 -13.35,-10.07 -20.04,-24.27 -20.04,-42.55l0 -159.22c0,-18.29 6.8,-32.48 20.32,-42.55 13.55,-10.06 31.3,-15.1 53.22,-15.1l45.61 0c19.75,0 35.47,4.59 47.22,13.73 11.71,9.17 17.55,21.04 17.55,35.69l0 21.93c0,15.02 -5.76,27.1 -17.29,36.26 -11.51,9.16 -27.18,13.72 -46.95,13.72 -20.47,0 -35.14,-4.03 -43.91,-12.06 -8.78,-8.07 -13.18,-19.59 -13.18,-34.61l0 -14.27c0,-1.81 0.35,-4.67 1.07,-8.49 0.76,-3.85 2.39,-7.25 4.97,-10.16 -3.68,2.56 -6.59,6.11 -8.78,10.69 -2.2,4.59 -3.3,8.88 -3.3,12.91l0 143.28zm73.01 0.55c0,-5.13 -0.64,-9.51 -1.92,-13.18 -1.27,-3.65 -3.39,-5.47 -6.31,-5.47 -2.94,0 -5.01,1.71 -6.32,5.21 -1.29,3.47 -1.93,7.94 -1.93,13.44l0 8.78c0,4.77 0.55,9.07 1.64,12.92 1.11,3.85 3.33,5.75 6.61,5.75 5.51,0 8.23,-6.22 8.23,-18.67l0 -8.78zm0 -152.63c0,-12.43 -2.72,-18.67 -8.23,-18.67 -3.28,0 -5.5,1.95 -6.61,5.77 -1.09,3.85 -1.64,8.17 -1.64,12.9l0 8.8c0,5.49 0.64,9.96 1.93,13.45 1.31,3.47 3.38,5.2 6.32,5.2 2.92,0 5.04,-1.82 6.31,-5.48 1.28,-3.65 1.92,-8.03 1.92,-13.17l0 -8.8zm350.31 289.88c7.35,-0.36 12.74,-1.47 16.22,-3.3 3.48,-1.83 5.21,-3.85 5.21,-6.04l0 -17.55c0,-2.95 -2.83,-5.25 -8.5,-6.87 -5.69,-1.64 -13.28,-2.47 -22.8,-2.47 -9.13,0 -16.56,0.83 -22.24,2.47 -5.65,1.62 -8.49,3.92 -8.49,6.87l0 17.55c0,2.57 1.9,4.76 5.77,6.6 3.82,1.81 9.04,2.74 15.63,2.74l0 32.94c-20.14,0 -36.77,-3.02 -49.96,-9.07 -13.19,-6.04 -19.76,-13.24 -19.76,-21.67l0 -39.53c0,-4.76 2.01,-8.97 6.02,-12.63 4.03,-3.67 9.63,-6.87 16.76,-9.59 7.15,-2.76 15.55,-4.85 25.27,-6.34 9.68,-1.47 20.03,-2.17 31,-2.17 11.36,0 21.88,0.7 31.6,2.17 9.66,1.49 18.1,3.58 25.23,6.34 7.14,2.72 12.72,5.92 16.73,9.59 4.03,3.66 6.06,7.87 6.06,12.63l0 39.53c0,8.04 -6.6,15.18 -19.78,21.41 -13.16,6.22 -29.83,9.33 -49.97,9.33l0 -32.94zm-170.69 0c7.29,-0.36 12.69,-1.47 16.17,-3.3 3.47,-1.83 5.21,-3.85 5.21,-6.04l0 -17.55c0,-2.95 -2.83,-5.25 -8.5,-6.87 -5.7,-1.64 -13.09,-2.47 -22.23,-2.47 -9.51,0 -17.14,0.83 -22.81,2.47 -5.66,1.62 -8.49,3.92 -8.49,6.87l0 17.55c0,2.57 1.9,4.76 5.78,6.6 3.81,1.81 9.02,2.74 15.61,2.74l0 32.94c-20.49,0 -37.13,-3.02 -49.96,-9.07 -12.8,-6.04 -19.19,-13.24 -19.19,-21.67l0 -39.53c0,-9.5 7.4,-17.02 22.21,-22.5 14.86,-5.5 33.79,-8.23 56.85,-8.23 10.98,0 21.3,0.7 31.02,2.17 9.67,1.49 18.1,3.58 25.26,6.34 7.13,2.72 12.79,5.92 17,9.59 4.22,3.66 6.3,7.87 6.3,12.63l0 39.53c0,4.01 -1.82,7.86 -5.47,11.52 -3.66,3.66 -8.62,6.98 -14.81,9.89 -6.24,2.91 -13.64,5.21 -22.26,6.87 -8.61,1.63 -17.83,2.46 -27.69,2.46l0 -32.94zm159.17 -348.61c26.01,0 46.67,5.5 62.03,16.48 15.38,10.97 23.06,25.42 23.06,43.36l0 159.75c0,8.8 -2.08,16.94 -6.31,24.45 -4.2,7.5 -9.77,13.8 -16.75,18.93 -6.95,5.13 -14.88,9.16 -23.89,12.07 -8.96,2.95 -18.37,4.39 -28.26,4.39 -9.52,0 -18.75,-1.44 -27.71,-4.39 -8.94,-2.91 -16.94,-7.03 -23.86,-12.35 -6.97,-5.3 -12.57,-11.8 -16.79,-19.48 -4.2,-7.69 -6.3,-16.29 -6.3,-25.81l0 -153.72c0,-7.29 -1.82,-13.07 -5.48,-17.28 -3.66,-4.21 -7.86,-6.34 -12.61,-6.34 -4.42,0 -8.45,1.95 -12.11,5.77 -3.65,3.85 -5.86,9.24 -6.57,16.2l0 214.67 -56.53 0 0 -214.67c-0.74,-6.96 -3.04,-12.35 -6.89,-16.2 -3.83,-3.82 -7.75,-5.77 -11.8,-5.77 -4.74,0 -9.06,2.13 -12.91,6.34 -3.84,4.21 -5.76,9.99 -5.76,17.28l0 152.61c0,15.76 8.07,23.61 24.16,23.61l0 39.53c-27.1,0 -47.23,-5.38 -60.37,-16.17 -13.2,-10.82 -19.78,-25.35 -19.78,-43.67l0 -159.75c0,-9.15 2.12,-17.39 6.32,-24.69 4.18,-7.33 9.78,-13.55 16.72,-18.67 6.97,-5.12 14.94,-9.17 23.86,-12.08 9.01,-2.93 18.26,-4.4 27.76,-4.4 8.4,0 16.94,1.27 25.53,3.85 8.6,2.56 15.47,6.94 20.57,13.16 5.52,-6.22 12.82,-10.6 21.99,-13.16 9.13,-2.58 17.75,-3.85 25.81,-3.85 9.13,0 18.28,1.47 27.42,4.4 9.16,2.91 17.31,6.96 24.44,12.08 7.15,5.12 12.81,11.42 17.03,18.93 4.21,7.51 6.12,15.63 5.75,24.43l0 153.71c0,7.33 1.28,13.55 3.84,18.68 2.56,5.11 7.33,7.67 14.27,7.67 6.21,0 10.92,-2.46 14.01,-7.41 3.1,-4.93 4.65,-11.08 4.65,-18.37l0 -150.44c0,-7.29 -2.73,-13.07 -8.2,-17.28 -5.5,-4.21 -12.3,-6.34 -20.34,-6.34l0 -40.06zm210.88 349.72c7.32,-0.37 12.65,-1.39 15.9,-3.02 3.34,-1.66 4.97,-3.58 4.97,-5.78l0 -18.65c0,-2.94 -2.83,-5.14 -8.53,-6.61 -5.63,-1.44 -13.07,-2.19 -22.2,-2.19 -8.79,0 -16.03,0.75 -21.7,2.19 -5.68,1.47 -8.54,3.67 -8.54,6.61l0 18.65c0,2.56 1.93,4.68 5.81,6.31 3.83,1.66 8.84,2.49 15.08,2.49l0 32.38c-20.13,0 -36.7,-2.92 -49.7,-8.78 -12.98,-5.87 -19.48,-12.99 -19.48,-21.41l0 -39.53c0,-9.51 7.52,-16.92 22.51,-22.24 15.02,-5.3 33.68,-7.95 56.02,-7.95 11.33,0 21.75,0.74 31.29,2.19 9.51,1.47 17.84,3.48 24.96,6.04 7.13,2.56 12.73,5.67 16.75,9.32 4.02,3.66 6.02,7.89 6.02,12.64l0 39.53c0,8.04 -6.55,15.1 -19.75,21.14 -13.17,6.04 -29.64,9.05 -49.41,9.05l0 -32.38zm-1.66 -109.25c7.32,-0.75 12.26,-3.48 14.84,-8.24 2.55,-4.76 3.84,-10.08 3.84,-15.94l0 -152.61c0,-7.29 -2.38,-13.07 -7.16,-17.28 -4.74,-4.21 -11.31,-6.34 -19.72,-6.34 -7.73,0 -14.03,2.13 -18.98,6.34 -4.91,4.21 -7.38,9.99 -7.38,17.28l0 152.61c0,5.52 1.83,10.81 5.48,15.94 3.66,5.11 8.61,7.67 14.81,7.67l0 39.53c-10.96,0 -21.12,-1.63 -30.47,-4.92 -9.3,-3.31 -17.36,-7.69 -24.16,-13.2 -6.75,-5.47 -12.15,-11.79 -16.17,-18.93 -4.06,-7.12 -6.04,-14.74 -6.04,-22.79l0 -159.75c0,-9.15 2.19,-17.39 6.6,-24.69 4.36,-7.33 10.22,-13.55 17.57,-18.67 7.29,-5.12 15.99,-9.17 26.08,-12.08 10.05,-2.93 20.92,-4.4 32.66,-4.4 11.69,0 22.57,1.47 32.63,4.4 10.07,2.91 18.89,6.96 26.38,12.08 7.51,5.12 13.35,11.42 17.58,18.93 4.2,7.51 6.28,15.63 6.28,24.43l0 159.75c0,7.69 -1.83,15.1 -5.48,22.24 -3.63,7.13 -8.8,13.46 -15.36,18.94 -6.58,5.49 -14.47,9.97 -23.62,13.45 -9.16,3.48 -19.22,5.21 -30.21,5.21l0 -38.96zm140.62 -316.77l0 23.06c0,8.79 -2.01,16.55 -6.01,23.34 -4.04,6.75 -9.46,12.41 -16.2,16.99 -6.8,4.59 -14.6,7.99 -23.37,10.18 -8.78,2.19 -18.08,3.28 -27.98,3.28 -9.5,0 -18.7,-1.09 -27.46,-3.28 -8.79,-2.19 -16.55,-5.59 -23.33,-10.18 -6.77,-4.58 -12.16,-10.24 -16.19,-16.99 -4.05,-6.79 -6.05,-14.76 -6.05,-23.9l0 -22.5 55.99 0 0 19.21c0,7.33 1.77,12.53 5.24,15.63 3.48,3.13 7.39,4.68 11.8,4.68 4.78,0 8.8,-1.46 12.06,-4.39 3.29,-2.93 4.95,-8.06 4.95,-15.38l0 -19.75 56.55 0z"/>
   <path class="fil4" d="M3316.64 4197.28c7.49,-0.73 12.56,-3.55 15.19,-8.4 2.59,-4.89 3.9,-10.32 3.9,-16.29l0 -156.11c0,-7.48 -2.42,-13.39 -7.28,-17.68 -4.87,-4.33 -11.6,-6.45 -20.24,-6.45 -7.85,0 -14.32,2.12 -19.37,6.45 -5.04,4.29 -7.58,10.2 -7.58,17.68l0 156.11c0,5.6 1.91,11.04 5.62,16.29 3.76,5.22 8.83,7.86 15.17,7.86l0 40.41c-11.25,0 -21.62,-1.68 -31.16,-5.03 -9.53,-3.37 -17.76,-7.86 -24.71,-13.48 -6.9,-5.62 -12.44,-12.08 -16.56,-19.38 -4.11,-7.29 -6.17,-15.06 -6.17,-23.32l0 -163.38c0,-9.38 2.23,-17.79 6.73,-25.26 4.49,-7.48 10.49,-13.85 17.98,-19.11 7.49,-5.24 16.37,-9.36 26.67,-12.37 10.28,-2.98 21.42,-4.46 33.38,-4.46 12,0 23.14,1.48 33.42,4.46 10.32,3.01 19.31,7.13 26.95,12.37 7.67,5.26 13.66,11.71 17.97,19.38 4.33,7.68 6.46,16.01 6.46,24.99l0 163.38c0,7.89 -1.89,15.47 -5.61,22.76 -3.76,7.29 -8.97,13.75 -15.72,19.37 -6.73,5.62 -14.78,10.19 -24.14,13.74 -9.35,3.58 -19.66,5.34 -30.9,5.34l0 -39.87zm263.41 58.99c0,18.32 -6.94,33.11 -20.79,44.35 -13.85,11.22 -32.54,16.85 -56.15,16.85 -22.08,0 -40.31,-5.54 -54.72,-16.57 -14.42,-11.06 -21.64,-25.91 -21.64,-44.63l0 -53.35c0,-9.38 2.05,-17.7 6.19,-24.99 4.12,-7.32 9.64,-13.57 16.57,-18.82 6.92,-5.22 14.77,-9.36 23.57,-12.36 8.82,-2.98 17.7,-4.68 26.69,-5.05l-0.57 0c5.24,-0.75 9.99,-3.64 14.34,-8.71 4.29,-5.06 6.46,-11.13 6.46,-18.25l0 -97.69c0,-7.49 -1.7,-13.37 -5.07,-17.68 -3.38,-4.32 -7.29,-6.47 -11.82,-6.47 -4.1,0 -7.76,2.15 -10.91,6.47 -3.19,4.31 -4.79,10.19 -4.79,17.68l0 43.23 -57.83 0 0 -47.17c0,-9.35 2.03,-17.77 6.16,-25.26 4.12,-7.49 9.54,-13.85 16.29,-19.09 6.74,-5.24 14.5,-9.36 23.31,-12.35 8.8,-3.02 18.05,-4.51 27.77,-4.51 9.75,0 19.11,1.49 28.1,4.51 8.98,2.99 16.84,7.11 23.59,12.35 6.72,5.24 12.16,11.69 16.28,19.37 4.1,7.67 6.17,16.01 6.17,24.98l0 105c0,6.75 -1.86,13.4 -5.62,19.95 -3.73,6.54 -10.46,12.81 -20.21,18.81 6.37,3.73 11.52,8.05 15.43,12.89 3.96,4.89 6.84,9.36 8.72,13.5 1.89,3.73 3.09,7.21 3.63,10.39 0.57,3.17 0.85,6.29 0.85,9.27l0 53.35zm-57.83 -9c-5.63,3.38 -12.52,5.04 -20.79,5.04 -6.73,0 -12.32,-1.48 -16.83,-4.48l0 5.04c0,7.51 1.69,13.32 5.07,17.41 3.36,4.12 7.84,6.19 13.44,6.19 12.74,0 19.11,-7.88 19.11,-23.6l0 -5.6zm-18.53 -34.82c3.77,0 7.23,-1.1 10.37,-3.37 3.21,-2.25 4.79,-5.99 4.79,-11.21 0,-4.14 -1.31,-7.59 -3.92,-10.39 -2.61,-2.82 -6.56,-4.22 -11.82,-4.22 -9.32,0 -14.19,4.68 -14.59,14.02 0,6.38 1.61,10.49 4.79,12.35 3.17,1.88 6.64,2.82 10.38,2.82zm167.88 -45.48c0,4.11 1.02,8.52 3.09,13.2 2.04,4.68 4.96,8.31 8.69,10.95 -2.64,-3 -4.23,-6.27 -4.77,-9.82 -0.56,-3.57 -0.83,-6.45 -0.83,-8.71l0 -14.61c0,-15.34 4.49,-27.15 13.48,-35.35 8.98,-8.26 23.95,-12.37 44.89,-12.37 20.23,0 36.25,4.7 48.03,14.04 11.79,9.36 17.69,21.71 17.69,37.06l0 22.47c0,14.98 -5.97,27.12 -17.97,36.48 -11.97,9.36 -28.08,14.04 -48.31,14.04l-47.15 0c-22.44,0 -40.52,-5.15 -54.18,-15.42 -13.67,-10.3 -20.49,-24.83 -20.49,-43.53l0 -162.84c0,-18.73 6.9,-33.23 20.75,-43.53 13.86,-10.3 32.02,-15.43 54.45,-15.43l46.62 0c20.23,0 36.34,4.66 48.31,14.04 12,9.35 17.97,21.51 17.97,36.5l0 22.45c0,15.34 -5.9,27.71 -17.69,37.07 -11.78,9.34 -27.8,14.05 -48.03,14.05 -20.94,0 -35.91,-4.14 -44.89,-12.37 -8.99,-8.25 -13.48,-20.03 -13.48,-35.38l0 -14.61c0,-1.85 0.35,-4.77 1.11,-8.69 0.76,-3.93 2.44,-7.4 5.04,-10.38 -3.73,2.61 -6.74,6.27 -8.96,10.95 -2.24,4.65 -3.37,9.07 -3.37,13.19l0 146.55zm74.67 0.56c0,-5.24 -0.65,-9.72 -1.97,-13.47 -1.32,-3.75 -3.44,-5.64 -6.46,-5.64 -2.98,0 -5.13,1.79 -6.45,5.36 -1.31,3.56 -1.99,8.15 -1.99,13.75l0 9c0,4.85 0.57,9.23 1.72,13.18 1.11,3.94 3.36,5.9 6.72,5.9 5.64,0 8.43,-6.37 8.43,-19.08l0 -9zm0 -156.1c0,-12.72 -2.79,-19.08 -8.43,-19.08 -3.36,0 -5.61,1.94 -6.72,5.89 -1.15,3.92 -1.72,8.34 -1.72,13.19l0 8.99c0,5.62 0.68,10.19 1.99,13.76 1.32,3.55 3.47,5.32 6.45,5.32 3.02,0 5.14,-1.85 6.46,-5.61 1.32,-3.74 1.97,-8.24 1.97,-13.47l0 -8.99zm271.85 291.43l-89.28 0c-13.49,0 -25.86,-1.69 -37.07,-5.06 -11.23,-3.36 -21.07,-8.71 -29.46,-16 -8.42,-7.3 -14.99,-16.39 -19.67,-27.23 -4.68,-10.85 -7.04,-23.96 -7.04,-39.3l0 -201.58c0,-9.37 2.55,-17.81 7.58,-25.29 5.06,-7.49 11.71,-13.85 19.94,-19.1 8.23,-5.22 17.61,-9.34 28.08,-12.35 10.48,-2.99 21.35,-4.49 32.58,-4.49l0 40.44c-7.48,0 -14.52,2.15 -21.04,6.47 -6.57,4.31 -9.84,10.19 -9.84,17.68l0 195.4c0,16.86 3.27,29.48 9.84,37.91 6.52,8.43 15.22,12.63 26.1,12.63l89.28 0 0 39.87zm96.55 -127.46c0,9.34 -2.36,17.86 -7.02,25.54 -4.68,7.69 -11.05,14.15 -19.09,19.37 -8.04,5.25 -17.31,9.36 -27.82,12.37 -10.47,2.99 -21.49,4.47 -33.12,4.47 -11.6,0 -22.64,-1.48 -33.11,-4.47 -10.48,-3.01 -19.67,-7.22 -27.52,-12.63 -7.87,-5.44 -14.14,-11.9 -18.83,-19.39 -4.65,-7.5 -7.02,-15.92 -7.02,-25.26l0 -38.19 66.29 0 0 34.8c0,7.11 1.85,12.84 5.62,17.15 3.71,4.29 8.58,6.45 14.57,6.45 6.01,0 10.95,-2.16 14.91,-6.45 3.9,-4.31 5.86,-10.04 5.86,-17.15l0 -34.23c0,-7.13 -2.04,-12.92 -6.18,-17.42 -4.12,-4.48 -9.53,-7.12 -16.27,-7.84 -11.6,0 -22.55,-1.52 -32.83,-4.5 -10.3,-2.99 -19.28,-7.13 -26.95,-12.37 -7.7,-5.23 -13.77,-11.67 -18.26,-19.36 -4.51,-7.67 -6.76,-16.01 -6.76,-24.97l0 -40.46c0,-9.34 2.37,-17.78 7.02,-25.26 4.69,-7.48 10.96,-13.95 18.83,-19.37 7.85,-5.44 17.04,-9.65 27.52,-12.63 10.47,-3 21.51,-4.49 33.11,-4.49 11.63,0 22.65,1.49 33.12,4.49 10.51,2.98 19.78,7.19 27.82,12.63 8.04,5.42 14.41,11.97 19.09,19.64 4.66,7.69 7.02,16.03 7.02,24.99l0 38.19 -66.28 0 0 -34.24c0,-7.5 -1.96,-13.48 -5.86,-17.99 -3.96,-4.47 -8.9,-6.73 -14.91,-6.73 -5.99,0 -10.86,2.26 -14.57,6.73 -3.77,4.51 -5.62,10.49 -5.62,17.99l0 32.56c0,7.5 1.75,13.38 5.32,17.69 3.56,4.28 8.53,6.83 14.87,7.59 11.63,0 22.65,1.48 33.12,4.47 10.51,3 19.78,7.23 27.82,12.63 8.04,5.44 14.41,11.9 19.09,19.4 4.66,7.46 7.02,15.91 7.02,25.26l0 40.99z"/>
   <path class="fil4" d="M4206.22 4171.48c0,10.08 1.87,16.64 5.61,19.64 3.77,2.98 8.04,4.49 12.9,4.49 4.9,0 9.32,-1.69 13.24,-5.06 3.9,-3.37 5.87,-9.73 5.87,-19.07l0 -154.43c0,-9.37 -1.97,-15.72 -5.87,-19.1 -3.92,-3.37 -8.34,-5.05 -13.24,-5.05 -4.86,0 -9.13,1.57 -12.9,4.77 -3.74,3.18 -5.61,9.64 -5.61,19.38l0 43.23 -57.85 0 0 -47.17c0,-9.35 2.15,-17.77 6.47,-25.26 4.29,-7.49 9.99,-13.85 17.13,-19.09 7.12,-5.24 15.24,-9.36 24.41,-12.35 9.18,-3.02 18.64,-4.51 28.35,-4.51 10.11,0 19.75,1.49 28.93,4.51 9.19,2.99 17.33,7.11 24.44,12.35 7.11,5.24 12.81,11.69 17.11,19.37 4.31,7.67 6.46,16.01 6.46,24.98l0 161.74c0,8.98 -2.15,17.29 -6.46,24.96 -4.3,7.7 -10,14.15 -17.11,19.38 -7.11,5.24 -15.25,9.36 -24.44,12.36 -9.18,2.98 -18.82,4.49 -28.93,4.49 -9.71,0 -19.17,-1.42 -28.35,-4.23 -9.17,-2.79 -17.29,-6.9 -24.41,-12.34 -7.14,-5.43 -12.84,-11.87 -17.13,-19.36 -4.32,-7.49 -6.47,-15.91 -6.47,-25.26l0 -44.93 57.85 0 0 41.56zm256.12 -220.12c13.1,0 23.49,1.1 31.16,3.37 7.67,2.22 14.34,6.17 19.96,11.77 6.34,-6.37 13.92,-10.68 22.71,-12.9 8.81,-2.24 18.08,-3.37 27.83,-3.37 8.57,0 16.9,1.31 24.96,3.93 8.07,2.62 15.25,6.37 21.63,11.22 5.99,-5.25 13.57,-9.06 22.73,-11.5 9.19,-2.44 18.25,-3.65 27.22,-3.65 9.76,0 19.27,1.4 28.65,4.2 9.36,2.82 17.61,6.85 24.71,12.07 7.1,5.24 12.84,11.62 17.14,19.1 4.28,7.48 6.44,15.92 6.44,25.26l0 164.54c0,9.34 -2.42,17.76 -7.29,25.26 -4.85,7.49 -11.26,13.85 -19.1,19.1 -7.86,5.23 -17.03,9.26 -27.5,12.05 -10.49,2.81 -21.33,4.23 -32.58,4.23l0 -41c8.24,0 14.95,-1.96 20.21,-5.88 5.24,-3.94 7.87,-9.47 7.87,-16.57l0 -157.78c0,-7.5 -1.87,-13.29 -5.64,-17.4 -3.71,-4.14 -8.04,-6.19 -12.91,-6.19 -4.47,0 -8.58,1.86 -12.35,5.6 -3.72,3.77 -5.98,8.99 -6.7,15.74l0 221.79 -58.42 0 0 -221.24c-0.76,-7.1 -3.02,-12.52 -6.75,-16.29 -3.75,-3.74 -7.87,-5.6 -12.32,-5.6 -4.53,0 -8.62,1.86 -12.35,5.6 -3.78,3.77 -6.03,9.19 -6.76,16.29l0 221.24 -58.39 0 0 -216.2c0,-7.48 -2.15,-13.83 -6.47,-19.07 -4.32,-5.25 -10.75,-7.68 -19.39,-7.32l-51.08 0c-4.11,0 -7.88,2.17 -11.23,6.48 -3.38,4.31 -5.07,10.19 -5.07,17.68l0 12.93c3.76,-0.77 7.32,-1.13 10.71,-1.13 20.19,0 36.84,5.6 49.95,16.82 13.1,11.24 19.63,26.22 19.63,44.92l0 85.94c0,19.08 -6.53,34.14 -19.63,45.2 -13.11,11.03 -29.76,16.55 -49.95,16.55 -19.86,0 -36.24,-5.52 -49.18,-16.55 -12.92,-11.06 -19.34,-26.12 -19.34,-45.2l0 -162.29c0,-9.35 2.07,-17.77 6.18,-25.26 4.12,-7.49 9.53,-13.94 16.28,-19.36 6.72,-5.46 14.58,-9.66 23.59,-12.67 8.99,-2.98 18.33,-4.46 28.06,-4.46l52.78 0zm-47.15 142.05c0,-7.5 -0.84,-13.38 -2.56,-17.69 -1.65,-4.31 -4.57,-6.44 -8.66,-6.44 -3.77,0 -6.5,2.13 -8.16,6.44 -1.7,4.31 -2.55,10.19 -2.55,17.69l0 79.18c0,7.1 0.85,12.82 2.55,17.12 1.66,4.31 4.39,6.46 8.16,6.46 4.09,0 7.01,-2.15 8.66,-6.46 1.72,-4.3 2.56,-10.02 2.56,-17.12l0 -79.18zm353.8 -157.79c0,-7.49 -0.65,-13.29 -1.94,-17.4 -1.32,-4.12 -4.63,-6.19 -9.85,-6.19 -4.87,0 -7.93,2.07 -9.24,6.19 -1.31,4.11 -2,9.91 -2,17.4l0 7.88 -57.27 0 0 -11.8c0,-18.73 6.38,-33.61 19.1,-44.66 12.73,-11.03 29.22,-16.55 49.41,-16.55 19.83,0 36.32,5.52 49.42,16.55 13.09,11.05 19.66,25.93 19.66,44.66l0 302.65 -57.29 0 0 -298.73zm343.69 239.78c0,9.34 -2.39,17.86 -7.26,25.54 -4.88,7.69 -11.26,14.15 -19.1,19.37 -7.86,5.25 -17.06,9.36 -27.51,12.37 -10.49,2.99 -21.33,4.3 -32.58,3.92 -11.97,-0.37 -23.65,-1.78 -35.11,-4.2 -11.38,-2.44 -20.48,-7.41 -27.21,-14.89 -3.76,5.24 -8.8,9.73 -15.15,13.46 -6.38,3.76 -16.29,5.63 -29.79,5.63 -17.96,0 -32.27,-5.42 -42.92,-16.29 -10.7,-10.85 -16.04,-25.83 -16.04,-44.91l0 -58.42c0,-18.7 6.57,-33.59 19.68,-44.62 13.11,-11.04 31.05,-16.58 53.89,-16.58l7.29 0 0 -44.92c0,-10.47 2.36,-19.53 7.02,-27.22 4.68,-7.67 10.95,-14.05 18.81,-19.11 7.88,-5.05 16.96,-8.88 27.24,-11.5 10.28,-2.62 21.06,-3.92 32.29,-3.92 11.25,0 22.09,1.3 32.58,3.92 10.45,2.62 19.65,6.45 27.51,11.5 7.84,5.06 14.22,11.53 19.1,19.38 4.87,7.85 7.26,16.86 7.26,26.95l0 44.92 7.34 0c22.82,0 40.89,5.54 54.18,16.58 13.28,11.03 19.94,25.92 19.94,44.62l0 58.42c0,19.08 -5.43,34.14 -16.31,45.2 -10.84,11.03 -28.99,16.55 -54.44,16.55l-8.97 0 0 -40.98 8.97 0c4.12,0 7.3,-2.15 9.55,-6.46 2.22,-4.3 3.36,-10.02 3.36,-17.12l0 -51.66c0,-7.5 -1.14,-13.38 -3.36,-17.7 -2.25,-4.3 -6.57,-6.45 -12.92,-6.45l-7.34 0 0 78.62zm-58.93 -78.62l-55.04 0 0 70.19c0,19.47 9.18,29.2 27.52,29.2 9.36,0 16.29,-2.63 20.8,-7.86 4.45,-5.24 6.72,-12.17 6.72,-20.78l0 -70.75zm0 -41l0 -40.97c0,-9 -2.42,-15.36 -7.3,-19.12 -4.87,-3.72 -11.62,-5.6 -20.22,-5.6 -7.49,0 -13.94,1.78 -19.37,5.33 -5.45,3.55 -8.15,10.03 -8.15,19.39l0 40.97 55.04 0zm-124.66 139.26c4.84,0 8.07,-2.14 9.55,-6.42 1.48,-4.34 2.23,-10.79 2.23,-19.4l0 -72.44 -7.83 0c-6.4,0 -10.52,2.72 -12.36,8.16 -1.9,5.4 -2.81,10.74 -2.81,15.99l0 51.66c0,6.38 0.65,11.69 1.96,16.03 1.3,4.28 4.41,6.42 9.26,6.42zm332.38 -321.74l0 23.58c0,8.98 -2.07,16.95 -6.17,23.87 -4.11,6.91 -9.63,12.73 -16.57,17.4 -6.94,4.68 -14.87,8.15 -23.86,10.39 -8.99,2.23 -18.53,3.36 -28.62,3.36 -9.74,0 -19.09,-1.13 -28.06,-3.36 -9.01,-2.24 -16.98,-5.71 -23.88,-10.39 -6.92,-4.67 -12.43,-10.49 -16.57,-17.4 -4.12,-6.92 -6.18,-15.07 -6.18,-24.42l0 -23.03 57.26 0 0 19.66c0,7.47 1.83,12.8 5.34,16 3.55,3.18 7.57,4.77 12.09,4.77 4.87,0 8.98,-1.49 12.35,-4.5 3.38,-2.98 5.04,-8.23 5.04,-15.7l0 -20.23 57.83 0zm234.12 78.06c26.59,0 47.71,5.59 63.48,16.83 15.72,11.23 23.56,26.02 23.56,44.37l0 163.38c0,9.02 -2.12,17.32 -6.44,25 -4.31,7.69 -10.02,14.15 -17.12,19.37 -7.13,5.25 -15.25,9.36 -24.46,12.37 -9.13,2.99 -18.83,4.47 -28.91,4.47 -9.7,0 -19.18,-1.48 -28.33,-4.47 -9.19,-3.01 -17.32,-7.22 -24.45,-12.63 -7.09,-5.44 -12.8,-12.09 -17.13,-19.94 -4.31,-7.87 -6.43,-16.67 -6.43,-26.39l0 -157.24c0,-7.48 -1.89,-13.39 -5.62,-17.68 -3.77,-4.33 -8.09,-6.45 -12.92,-6.45 -4.49,0 -8.61,1.94 -12.34,5.89 -3.74,3.92 -6,9.44 -6.76,16.57l0 219.54 -57.82 0 0 -219.54c-0.76,-7.13 -3.09,-12.65 -7.03,-16.57 -3.95,-3.95 -7.96,-5.89 -12.08,-5.89 -4.83,0 -9.25,2.12 -13.21,6.45 -3.92,4.29 -5.9,10.2 -5.9,17.68l0 156.11c0,16.09 8.25,24.15 24.73,24.15l0 40.41c-27.71,0 -48.31,-5.52 -61.76,-16.55 -13.47,-11.06 -20.2,-25.93 -20.2,-44.66l0 -163.38c0,-9.38 2.12,-17.79 6.43,-25.26 4.31,-7.48 10.04,-13.85 17.14,-19.11 7.12,-5.24 15.25,-9.36 24.42,-12.37 9.15,-2.98 18.61,-4.46 28.35,-4.46 8.64,0 17.32,1.31 26.11,3.92 8.8,2.61 15.8,7.11 21.07,13.48 5.6,-6.37 13.11,-10.87 22.46,-13.48 9.35,-2.61 18.17,-3.92 26.39,-3.92 9.37,0 18.7,1.48 28.07,4.46 9.35,3.01 17.69,7.13 24.98,12.37 7.32,5.26 13.09,11.71 17.41,19.38 4.32,7.68 6.29,16.01 5.89,24.99l0 157.2c0,7.5 1.32,13.87 3.96,19.12 2.61,5.22 7.48,7.86 14.57,7.86 6.35,0 11.13,-2.55 14.33,-7.58 3.19,-5.06 4.77,-11.33 4.77,-18.81l0 -153.87c0,-7.48 -2.83,-13.39 -8.39,-17.68 -5.64,-4.33 -12.56,-6.45 -20.82,-6.45l0 -40.99zm154.51 -78.06l0 23.58c0,8.98 -2.07,16.95 -6.19,23.87 -4.11,6.91 -9.64,12.73 -16.54,17.4 -6.95,4.68 -14.9,8.15 -23.87,10.39 -9.01,2.23 -18.55,3.36 -28.67,3.36 -9.72,0 -19.08,-1.13 -28.09,-3.36 -8.96,-2.24 -16.89,-5.71 -23.83,-10.39 -6.93,-4.67 -12.46,-10.49 -16.57,-17.4 -4.12,-6.92 -6.19,-15.07 -6.19,-24.42l0 -23.03 57.3 0 0 19.66c0,7.47 1.75,12.8 5.32,16 3.56,3.18 7.6,4.77 12.06,4.77 4.89,0 9,-1.49 12.37,-4.5 3.36,-2.98 5.05,-8.23 5.05,-15.7l0 -20.23 57.85 0z"/>
   <path class="fil4" d="M11621.6 1522.7l-185.34 -214.8 170.61 -194.54 -63.82 0 -181.04 211.73 0 -211.73 -50.94 0 0 409.34 50.94 0 0 -137.47 41.11 -46.64 155.27 184.11 63.21 0zm326.49 0l0 -45.41 -217.25 0 0 -141.15 212.95 0 0 -45.42 -212.95 0 0 -131.94 217.25 0 0 -45.42 -268.19 0 0 409.34 268.19 0zm378.04 0l-110.47 -166.93c55.85,-4.91 106.17,-45.41 106.17,-119.05 0,-75.49 -53.39,-123.36 -128.26,-123.36l-164.47 0 0 409.34 50.94 0 0 -162.63 81.62 0 104.33 162.63 60.14 0zm-138.7 -207.43l-107.39 0 0 -156.49 107.39 0c48.49,0 81.63,31.91 81.63,77.94 0,46.02 -33.14,78.55 -81.63,78.55zm565.22 207.43l-165.08 -409.34 -63.22 0 -164.47 409.34 58.3 0 36.21 -90.83 203.75 0 36.21 90.83 58.3 0zm-109.85 -136.24l-173.68 0 87.15 -220.32 86.53 220.32zm404.42 136.24l0 -45.41 -190.24 0 0 -363.93 -50.94 0 0 409.34 241.18 0zm422.22 0l-165.07 -409.34 -63.22 0 -164.47 409.34 58.3 0 36.21 -90.83 203.75 0 36.2 90.83 58.3 0zm-109.84 -136.24l-173.68 0 87.15 -220.32 86.53 220.32zm454.12 143.6c110.46,0 150.97,-60.75 150.97,-120.28 0,-152.81 -242.41,-100.03 -242.41,-192.09 0,-38.66 34.98,-65.05 84.07,-65.05 44.8,0 87.76,15.34 118.45,49.09l30.68 -37.43c-34.36,-36.21 -82.85,-57.07 -145.44,-57.07 -80.4,0 -140.54,46.02 -140.54,113.53 0,146.06 242.41,87.76 242.41,193.32 0,31.29 -23.32,70.57 -96.35,70.57 -57.69,0 -101.88,-28.23 -128.88,-58.3l-30.07 38.66c33.75,38.05 85.92,65.05 157.11,65.05zm375.59 -7.36l0 -363.92 130.1 0 0 -45.42 -310.53 0 0 45.42 129.49 0 0 363.92 50.94 0zm506.91 0l-165.08 -409.34 -63.22 0 -164.47 409.34 58.3 0 36.21 -90.83 203.75 0 36.21 90.83 58.3 0zm-109.85 -136.24l-173.68 0 87.15 -220.32 86.53 220.32zm274.33 136.24l0 -363.92 130.1 0 0 -45.42 -310.53 0 0 45.42 129.49 0 0 363.92 50.94 0zm465.8 0l0 -45.41 -217.25 0 0 -141.15 212.95 0 0 -45.42 -212.95 0 0 -131.94 217.25 0 0 -45.42 -268.19 0 0 409.34 268.19 0zm536.37 0l-110.47 -166.93c55.85,-4.91 106.17,-45.41 106.17,-119.05 0,-75.49 -53.39,-123.36 -128.26,-123.36l-164.47 0 0 409.34 50.94 0 0 -162.63 81.62 0 104.33 162.63 60.14 0zm-138.7 -207.43l-107.39 0 0 -156.49 107.39 0c48.49,0 81.63,31.91 81.63,77.94 0,46.02 -33.14,78.55 -81.63,78.55zm381.73 214.79c111.07,0 166.92,-65.05 166.92,-166.92l0 -249.78 -50.94 0 0 249.16c0,74.88 -40.5,122.13 -115.98,122.13 -75.49,0 -115.99,-47.25 -115.99,-122.13l0 -249.16 -50.94 0 0 250.39c0,100.65 55.85,166.31 166.93,166.31zm414.86 -7.36l0 -363.92 130.1 0 0 -45.42 -310.53 0 0 45.42 129.49 0 0 363.92 50.94 0zm494.63 0l-110.47 -166.93c55.85,-4.91 106.17,-45.41 106.17,-119.05 0,-75.49 -53.39,-123.36 -128.26,-123.36l-164.46 0 0 409.34 50.93 0 0 -162.63 81.62 0 104.33 162.63 60.14 0zm-138.7 -207.43l-107.39 0 0 -156.49 107.39 0c48.49,0 81.63,31.91 81.63,77.94 0,46.02 -33.14,78.55 -81.63,78.55zm401.36 214.79c120.9,0 203.14,-90.82 203.14,-211.72 0,-120.9 -82.24,-211.73 -203.14,-211.73 -121.51,0 -203.13,90.83 -203.13,211.73 0,120.9 81.62,211.72 203.13,211.72zm0 -45.41c-92.05,0 -150.35,-71.19 -150.35,-166.31 0,-95.74 58.3,-166.31 150.35,-166.31 91.44,0 150.36,70.57 150.36,166.31 0,95.12 -58.92,166.31 -150.36,166.31zm621.68 38.05l0 -409.34 -50.94 0 0 319.74 -235.66 -319.74 -52.16 0 0 409.34 50.94 0 0 -326.49 238.73 326.49 49.09 0zm146.68 0l0 -409.34 -50.94 0 0 409.34 50.94 0zm440.01 0l-158.94 -210.5 149.74 -198.84 -61.98 0 -120.9 163.86 -121.52 -163.86 -61.98 0 150.36 199.45 -159.57 209.89 61.99 0 130.72 -174.29 130.71 174.29 61.37 0z"/>
  </g>
 </g>
</svg>
