<?xml version="1.0" encoding="UTF-8"?>
<!DOCTYPE svg PUBLIC "-//W3C//DTD SVG 1.1//EN" "http://www.w3.org/Graphics/SVG/1.1/DTD/svg11.dtd">
<!-- Creator: CorelDRAW 2020 (64-Bit) -->
<svg xmlns="http://www.w3.org/2000/svg" xml:space="preserve" width="10mm" height="10mm" version="1.1" style="shape-rendering:geometricPrecision; text-rendering:geometricPrecision; image-rendering:optimizeQuality; fill-rule:evenodd; clip-rule:evenodd"
viewBox="0 0 1000 1000"
 xmlns:xlink="http://www.w3.org/1999/xlink"
 xmlns:xodm="http://www.corel.com/coreldraw/odm/2003">
 <defs>
  <style type="text/css">
   <![CDATA[
    .fil0 {fill:#9D9E9E;fill-rule:nonzero}
   ]]>
  </style>
 </defs>
 <g id="Layer_x0020_1">
  <metadata id="CorelCorpID_0Corel-Layer"/>
  <g id="_1918208850592">
   <g id="_1917264727088">
    <path class="fil0" d="M498.44 719.47c1.34,0.01 2.74,0.06 4.06,-0.1 0.6,-0.07 1.19,-0.12 1.79,-0.13 118.51,-2.06 225.15,-73.94 271.68,-183.1 15.95,-37.56 24.04,-77.34 24.04,-118.22 0,-166.23 -135.29,-301.46 -301.57,-301.46 -166.21,0 -301.45,135.23 -301.45,301.46 0,40.96 8.09,80.78 24.06,118.36 46.59,109.07 153.18,180.9 271.55,182.96 0.6,0.01 1.2,0.06 1.8,0.13 1.33,0.16 2.73,0.11 4.04,0.1zm0 36.04c-2.36,0 -4.85,-0.02 -7.25,-0.25 -132.22,-2.61 -251.22,-82.96 -303.3,-204.86 -17.88,-42.09 -26.93,-86.66 -26.93,-132.48 0,-186.1 151.39,-337.5 337.48,-337.5 186.16,0 337.61,151.4 337.61,337.5 0,45.74 -9.06,90.27 -26.92,132.33 -52,122.01 -171.04,202.4 -303.44,205.01 -2.39,0.23 -4.88,0.25 -7.25,0.25z"/>
    <path class="fil0" d="M108 844.08l150.44 9.34c3.66,0.23 7.15,1.56 10.03,3.82l121.52 95.56 76.59 -198.93c-108.39,-10.12 -205.31,-72.42 -259.91,-166.11l-98.67 256.32zm290.04 155.99c-3.99,0 -7.92,-1.33 -11.14,-3.85l-136.3 -107.18 -169.36 -10.51c-5.73,-0.36 -10.94,-3.42 -14.04,-8.25 -3.11,-4.83 -3.72,-10.86 -1.66,-16.21l122.1 -317.22c2.64,-6.84 9.16,-11.41 16.5,-11.54 7.34,-0.16 14,4.19 16.89,10.93 46.61,109.11 153.2,180.94 271.57,183 5.88,0.11 11.33,3.07 14.62,7.95 3.28,4.88 3.98,11.05 1.87,16.55l-94.23 244.79c-2.06,5.33 -6.53,9.38 -12.04,10.89 -1.57,0.44 -3.18,0.65 -4.78,0.65z"/>
    <path class="fil0" d="M542.63 753.87l76.59 198.93 121.53 -95.56c2.87,-2.26 6.37,-3.59 10.02,-3.82l150.44 -9.34 -98.66 -256.32c-54.61,93.69 -151.52,155.99 -259.92,166.11zm68.54 246.2c-1.59,0 -3.2,-0.21 -4.78,-0.65 -5.51,-1.51 -9.97,-5.56 -12.04,-10.89l-94.23 -244.79c-2.11,-5.5 -1.41,-11.67 1.87,-16.55 3.28,-4.88 8.75,-7.84 14.62,-7.95 118.36,-2.06 224.96,-73.89 271.57,-183 2.88,-6.74 9.35,-11.23 16.9,-10.93 7.33,0.13 13.86,4.7 16.49,11.54l122.1 317.22c2.05,5.35 1.44,11.38 -1.66,16.21 -3.1,4.83 -8.31,7.89 -14.04,8.25l-169.36 10.51 -136.3 107.18c-3.21,2.52 -7.15,3.85 -11.14,3.85z"/>
    <path class="fil0" d="M287.31 817.44c-2.31,0 -4.66,-0.45 -6.92,-1.39 -9.19,-3.83 -13.53,-14.39 -9.7,-23.57l16.31 -39.13c3.83,-9.19 14.37,-13.5 23.56,-9.7 9.19,3.83 13.53,14.38 9.7,23.56l-16.3 39.14c-2.9,6.92 -9.59,11.09 -16.65,11.09z"/>
    <path class="fil0" d="M721.9 817.44c-7.06,0 -13.75,-4.17 -16.65,-11.1l-16.3 -39.14c-3.82,-9.17 0.52,-19.72 9.71,-23.55 9.19,-3.82 19.72,0.51 23.56,9.7l16.3 39.13c3.83,9.19 -0.51,19.74 -9.7,23.57 -2.27,0.94 -4.61,1.39 -6.92,1.39z"/>
    <path class="fil0" d="M498.51 524.77c2.88,0 5.74,0.7 8.37,2.07l101.77 53.33c0.45,0 1.02,-0.29 1.37,-0.71 0.31,-0.38 0.4,-0.72 0.3,-1.31l-19.29 -112.43c-1,-5.85 0.93,-11.81 5.18,-15.95l81.7 -79.64c0.26,-0.25 0.75,-0.73 0.42,-1.73 -0.32,-1 -0.99,-1.1 -1.36,-1.15l-112.9 -16.41c-5.87,-0.84 -10.94,-4.53 -13.56,-9.84l-50.49 -102.31c-0.16,-0.33 -0.47,-0.95 -1.51,-0.95 -1.05,0 -1.36,0.62 -1.52,0.95l-50.49 102.31c-2.63,5.31 -7.7,9 -13.57,9.84l-112.89 16.41c-0.37,0.05 -1.05,0.15 -1.37,1.15 -0.33,1 0.16,1.48 0.43,1.73l81.69 79.64c4.25,4.14 6.19,10.1 5.18,15.95l-19.28 112.43c-0.1,0.59 -0.02,0.93 0.3,1.31 0.35,0.42 0.91,0.71 1.36,0.71l101.78 -53.33c2.62,-1.37 5.49,-2.07 8.38,-2.07zm110.14 91.43c-6.13,0 -12.04,-1.46 -17.55,-4.37l-92.59 -48.68 -92.6 48.68c-15.48,8.14 -35.3,4.11 -46.47,-9.14 -7.14,-8.47 -10.15,-19.63 -8.27,-30.64l17.69 -103.09 -74.91 -73.02c-10.36,-10.09 -14.02,-24.92 -9.55,-38.67 4.47,-13.76 16.14,-23.6 30.46,-25.68l103.52 -15.04 46.3 -93.81c6.4,-12.98 19.37,-21.03 33.83,-21.03 14.45,0 27.42,8.06 33.81,21.04l46.3 93.8 103.53 15.04c14.32,2.08 25.99,11.92 30.46,25.68 4.46,13.75 0.82,28.58 -9.54,38.67l-74.92 73.02 17.68 103.1c1.89,10.99 -1.13,22.15 -8.26,30.62 -7.24,8.6 -17.79,13.52 -28.92,13.52z"/>
   </g>
  </g>
 </g>
</svg>
