<?xml version="1.0" encoding="UTF-8"?>
<!DOCTYPE svg PUBLIC "-//W3C//DTD SVG 1.1//EN" "http://www.w3.org/Graphics/SVG/1.1/DTD/svg11.dtd">
<!-- Creator: CorelDRAW 2020 (64-Bit) -->
<svg xmlns="http://www.w3.org/2000/svg" xml:space="preserve" width="10mm" height="10mm" version="1.1" style="shape-rendering:geometricPrecision; text-rendering:geometricPrecision; image-rendering:optimizeQuality; fill-rule:evenodd; clip-rule:evenodd"
viewBox="0 0 1000 1000"
 xmlns:xlink="http://www.w3.org/1999/xlink"
 xmlns:xodm="http://www.corel.com/coreldraw/odm/2003">
 <defs>
  <style type="text/css">
   <![CDATA[
    .fil0 {fill:#9D9E9E;fill-rule:nonzero}
   ]]>
  </style>
 </defs>
 <g id="Layer_x0020_1">
  <metadata id="CorelCorpID_0Corel-Layer"/>
  <g id="_1918216452560">
   <path class="fil0" d="M772.43 731.22l22.71 16.45c5.56,4.05 7.92,11.19 5.9,17.79l-8.78 26.87 22.72 -16.47c5.51,-4 13.37,-4.01 18.89,0l22.72 16.47 -8.73 -26.71c-2.07,-6.76 0.31,-13.9 5.84,-17.94l22.72 -16.46 -28.03 0c-7.01,0 -13.13,-4.54 -15.22,-11.31l-8.71 -26.64 -8.68 26.75c-2.03,6.54 -8.34,11.2 -15.33,11.2l-28.02 0zm100.19 91.02c-0.08,-0.01 -0.15,-0.01 -0.26,0 -1.69,0 -3.39,-0.51 -4.84,-1.57l-43.35 -31.42 -42.83 31.42c-2.89,2.1 -6.82,2.1 -9.72,-0.02 -2.9,-2.1 -4.11,-5.83 -2.99,-9.24l16.65 -50.94 -43.2 -30.83c-2.9,-2.11 -4.12,-5.84 -3.01,-9.25 1.1,-3.41 4.28,-5.71 7.87,-5.71l53.51 0 16.12 -50.67c1.11,-3.39 4.28,-5.71 7.86,-5.71l0 0c3.59,0 6.76,2.31 7.86,5.7l16.64 50.9 53 -0.22c3.57,0 6.75,2.3 7.86,5.71 1.1,3.41 -0.12,7.14 -3.02,9.25l-43.35 31.42 16.19 48.49c0.8,1.27 1.28,2.8 1.28,4.43 0,4.57 -3.71,8.26 -8.27,8.26z"/>
   <path class="fil0" d="M842.51 878.41l44.43 103.96 9.94 -56.69c0.51,-2.88 2.48,-5.27 5.21,-6.3 2.71,-1.04 5.79,-0.56 8.08,1.26l49.31 39.2 -46.24 -114.19c-19.76,17.81 -44.25,29.16 -70.73,32.76zm47.04 125.09c-6.97,0 -13.93,-5.63 -17.71,-14.36l-48.68 -113.91c-0.43,-1.03 -0.66,-2.14 -0.66,-3.26 0,-4.4 3.45,-8.79 7.85,-9.02 30.55,-1.57 58.75,-14.74 79.4,-37.09 1.53,-1.64 3.67,-2.61 5.93,-2.65 2.17,0.03 4.41,0.84 6,2.45l1.01 1c0.77,0.78 1.38,1.7 1.8,2.72l51.79 127.91c2.91,7.26 2.71,14.18 -0.56,19.02 -2.35,3.47 -6.08,5.47 -10.21,5.47 -2.54,0 -6.44,-0.78 -10.68,-4.52l-44.08 -35.03 -8.63 49.26c-0.91,8.15 -6.99,12.01 -12.57,12.01z"/>
   <path class="fil0" d="M830.77 863.72l0 0c3.31,0 6.29,1.97 7.6,5.01l48.57 113.64 9.94 -56.69c0.51,-2.88 2.48,-5.27 5.21,-6.3 2.71,-1.04 5.79,-0.56 8.08,1.26l49.31 39.2 -49.7 -122.71c-2.96,-3.17 -2.98,-8.1 0,-11.3 20.18,-21.6 31.3,-49.85 31.3,-79.54 0,-64.34 -52.33,-116.67 -116.65,-116.67 -64.32,0 -116.67,52.33 -116.67,116.67 0,35.01 15.47,67.85 42.45,90.1 2.19,1.8 3.29,4.58 2.95,7.38 -0.35,2.8 -2.09,5.24 -4.63,6.46l-3.07 1.46 -43.87 108.99 49.77 -40.05c2.28,-1.81 5.32,-2.29 8.07,-1.25 2.72,1.03 4.71,3.42 5.21,6.3l9.95 56.64 48.57 -113.59c1.3,-3.04 4.3,-5.01 7.61,-5.01zm58.78 139.78c-6.97,0 -13.93,-5.63 -17.71,-14.36l-41.07 -96.13 -41.09 96.09c-3.9,8.79 -10.87,14.4 -17.81,14.4 -5.62,0 -11.68,-3.9 -12.54,-12.63l-8.56 -48.65 -44.53 35.32c-3.9,3.46 -7.79,4.24 -10.32,4.24 -4.1,0 -7.8,-1.98 -10.16,-5.41 -3.26,-4.8 -3.51,-11.72 -0.67,-18.99l46.23 -114.83c0.09,-0.23 0.18,-0.43 0.28,-0.64 -25.79,-25.02 -40.38,-59.3 -40.38,-95.62 0,-73.45 59.76,-133.21 133.21,-133.21 73.44,0 133.19,59.76 133.19,133.21 0,31.91 -11.25,62.35 -31.79,86.4l50.45 124.6c2.91,7.26 2.71,14.18 -0.56,19.02 -2.35,3.47 -6.08,5.47 -10.21,5.47l0 0c-2.54,0 -6.44,-0.78 -10.68,-4.52l-44.08 -35.03 -8.63 49.26c-0.91,8.15 -6.99,12.01 -12.57,12.01zm-808.03 -602.27c-20.98,0 -38.05,15.36 -38.05,34.21l0 566.55c0,18.87 17.07,34.2 38.05,34.2l897.15 0c20.99,0 38.06,-15.33 38.06,-34.2l0 -566.55c0,-18.85 -17.07,-34.21 -38.06,-34.21l-897.15 0zm897.15 651.5l-897.15 0c-30.1,0 -54.58,-22.76 -54.58,-50.74l0 -566.55c0,-27.99 24.48,-50.75 54.58,-50.75l897.15 0c30.11,0 54.59,22.76 54.59,50.75l0 566.55c0,27.98 -24.48,50.74 -54.59,50.74z"/>
   <path class="fil0" d="M772.43 731.22l22.71 16.45c5.56,4.05 7.92,11.19 5.9,17.79l-8.78 26.87 22.72 -16.47c5.51,-4 13.37,-4.01 18.89,0l22.72 16.47 -8.73 -26.71c-2.07,-6.76 0.31,-13.9 5.84,-17.94l22.72 -16.46 -28.03 0c-7.01,0 -13.13,-4.54 -15.22,-11.31l-8.71 -26.64 -8.68 26.75c-2.03,6.54 -8.34,11.2 -15.33,11.2l-28.02 0zm99.93 91.02c-1.69,0 -3.39,-0.51 -4.84,-1.57l-43.1 -31.24 -43.08 31.24c-2.89,2.1 -6.82,2.1 -9.72,-0.02 -2.9,-2.1 -4.11,-5.83 -2.99,-9.24l16.65 -50.94 -43.2 -30.83c-2.9,-2.11 -4.12,-5.84 -3.01,-9.25 1.1,-3.41 4.28,-5.71 7.87,-5.71l53.51 0 16.12 -50.67c1.11,-3.39 4.28,-5.71 7.86,-5.71l0 0c3.59,0 6.76,2.31 7.86,5.7l16.64 50.9 53 -0.22c3.57,0 6.75,2.3 7.86,5.71 1.1,3.41 -0.12,7.14 -3.02,9.25l-43.35 31.42 16.81 50.35c1.11,3.41 -0.09,7.14 -2.99,9.24 -1.46,1.06 -3.16,1.59 -4.88,1.59zm-47.93 -192.62c-64.32,0 -116.67,52.33 -116.67,116.67 0,35.01 15.47,67.85 42.45,90.1 21.05,17.3 47.28,26.68 74.69,26.69 1.78,0 3.55,-0.01 5.33,-0.13 30.67,-1.57 58.87,-14.74 79.52,-37.09 20.21,-21.63 31.33,-49.88 31.33,-79.57 0,-64.34 -52.33,-116.67 -116.65,-116.67zm0 250c-30.74,0 -60.84,-10.83 -84.73,-30.46 -30.81,-25.43 -48.48,-62.91 -48.48,-102.87 0,-73.45 59.76,-133.21 133.21,-133.21 73.44,0 133.19,59.76 133.19,133.21 0,33.9 -12.7,66.16 -35.76,90.84 -23.57,25.49 -55.78,40.54 -90.67,42.33 -2.19,0.14 -4.48,0.16 -6.76,0.16z"/>
   <path class="fil0" d="M756.49 918.85c0.99,0 1.99,0.16 2.94,0.53 2.72,1.03 4.71,3.42 5.21,6.3l9.95 56.64 43.98 -102.84c-26.54,-1.19 -52.3,-10.38 -73.72,-26.3l-43.26 107.5 49.77 -40.05c1.48,-1.17 3.3,-1.78 5.13,-1.78zm15.38 84.65c-5.62,0 -11.68,-3.9 -12.54,-12.63l-8.56 -48.65 -44.53 35.32c-3.9,3.46 -7.79,4.24 -10.32,4.24 -4.1,0 -7.8,-1.98 -10.16,-5.41 -3.26,-4.8 -3.51,-11.72 -0.67,-18.99l46.23 -114.83c0.77,-1.92 2.24,-3.49 4.09,-4.38l5.97 -2.86c2.9,-1.36 6.34,-0.98 8.82,1.08 21.07,17.32 47.72,26.83 74.72,26.69 1.76,0 3.53,-0.01 5.31,-0.13 2.31,-0.15 4.52,0.66 6.19,2.23 1.68,1.56 2.62,3.74 2.62,6.03 0,1.12 -0.23,2.99 -0.67,4.02l-48.69 113.87c-3.9,8.79 -10.87,14.4 -17.81,14.4z"/>
   <path class="fil0" d="M824.43 629.62c-64.32,0 -116.67,52.33 -116.67,116.67 0,35.01 15.47,67.85 42.45,90.1 21.05,17.3 47.28,26.68 74.69,26.69 1.78,0 3.55,-0.01 5.33,-0.13 30.67,-1.57 58.87,-14.74 79.52,-37.09 20.21,-21.63 31.33,-49.88 31.33,-79.57 0,-64.34 -52.33,-116.67 -116.65,-116.67zm0 250c-30.74,0 -60.84,-10.83 -84.73,-30.46 -30.81,-25.43 -48.48,-62.91 -48.48,-102.87 0,-73.45 59.76,-133.21 133.21,-133.21 73.44,0 133.19,59.76 133.19,133.21 0,33.9 -12.7,66.16 -35.76,90.84 -23.57,25.49 -55.78,40.54 -90.67,42.33 -2.19,0.14 -4.48,0.16 -6.76,0.16z"/>
   <path class="fil0" d="M81.52 401.23c-20.98,0 -38.05,15.36 -38.05,34.21l0 566.55c0,18.87 17.07,34.2 38.05,34.2l897.15 0c20.99,0 38.06,-15.33 38.06,-34.2l0 -566.55c0,-18.85 -17.07,-34.21 -38.06,-34.21l-897.15 0zm897.15 651.5l-897.15 0c-30.1,0 -54.58,-22.76 -54.58,-50.74l0 -566.55c0,-27.99 24.48,-50.75 54.58,-50.75l897.15 0c30.11,0 54.59,22.76 54.59,50.75l0 566.55c0,27.98 -24.48,50.74 -54.59,50.74z"/>
   <path class="fil0" d="M771.91 1003.5c-0.67,0 -1.36,-0.05 -2.04,-0.15 -4.58,-0.74 -9.75,-4.41 -10.54,-12.48l-8.56 -48.65 -44.53 35.32c-6.5,5.75 -13.25,4.88 -17.3,2.06 -5.97,-4.19 -7.49,-12.91 -3.85,-22.22l46.23 -114.83c1.72,-4.25 6.55,-6.3 10.76,-4.59 4.24,1.7 6.28,6.52 4.58,10.76l-44.75 111.14 49.45 -39.23c2.28,-1.81 5.32,-2.29 8.07,-1.25 2.72,1.03 4.71,3.42 5.21,6.3l9.95 56.64 48.57 -113.59c1.79,-4.2 6.65,-6.17 10.85,-4.35 4.2,1.79 6.16,6.65 4.36,10.85l-48.69 113.87c-3.94,8.91 -10.89,14.4 -17.77,14.4z"/>
   <path class="fil0" d="M907.27 542.81l-118.47 0c-4.56,0 -8.27,-3.7 -8.27,-8.27 0,-4.56 3.71,-8.26 8.27,-8.26l118.47 0c4.56,0 8.25,3.7 8.25,8.26 0,4.57 -3.69,8.27 -8.25,8.27z"/>
   <path class="fil0" d="M678.26 542.81l-56.39 0c-4.56,0 -8.26,-3.7 -8.26,-8.27 0,-4.56 3.7,-8.26 8.26,-8.26l56.39 0c4.56,0 8.27,3.7 8.27,8.26 0,4.57 -3.71,8.27 -8.27,8.27z"/>
   <path class="fil0" d="M490.36 542.81l-394.68 0c-4.57,0 -8.27,-3.7 -8.27,-8.27 0,-4.56 3.7,-8.26 8.27,-8.26l394.68 0c4.57,0 8.27,3.7 8.27,8.26 0,4.57 -3.7,8.27 -8.27,8.27z"/>
   <path class="fil0" d="M565.87 655.2l-436.39 0c-4.57,0 -8.27,-3.7 -8.27,-8.27 0,-4.57 3.7,-8.27 8.27,-8.27l436.39 0c4.57,0 8.27,3.7 8.27,8.27 0,4.57 -3.7,8.27 -8.27,8.27z"/>
   <path class="fil0" d="M603.87 749.09l-111.03 0c-4.56,0 -8.27,-3.7 -8.27,-8.27 0,-4.56 3.71,-8.27 8.27,-8.27l111.03 0c4.57,0 8.27,3.71 8.27,8.27 0,4.57 -3.7,8.27 -8.27,8.27z"/>
   <path class="fil0" d="M440.82 749.09l-311.34 0c-4.57,0 -8.27,-3.7 -8.27,-8.27 0,-4.56 3.7,-8.27 8.27,-8.27l311.34 0c4.55,0 8.27,3.71 8.27,8.27 0,4.57 -3.72,8.27 -8.27,8.27z"/>
   <path class="fil0" d="M603.87 842.98l-335.18 0c-4.56,0 -8.27,-3.7 -8.27,-8.27 0,-4.56 3.71,-8.26 8.27,-8.26l335.18 0c4.57,0 8.27,3.7 8.27,8.26 0,4.57 -3.7,8.27 -8.27,8.27z"/>
   <path class="fil0" d="M209.69 842.98l-80.21 0c-4.57,0 -8.27,-3.7 -8.27,-8.27 0,-4.56 3.7,-8.26 8.27,-8.26l80.21 0c4.57,0 8.27,3.7 8.27,8.26 0,4.57 -3.7,8.27 -8.27,8.27z"/>
   <path class="fil0" d="M603.87 936.86l-207.27 0c-4.57,0 -8.27,-3.7 -8.27,-8.27 0,-4.57 3.7,-8.27 8.27,-8.27l207.27 0c4.57,0 8.27,3.7 8.27,8.27 0,4.57 -3.7,8.27 -8.27,8.27z"/>
   <path class="fil0" d="M340.35 936.86l-210.87 0c-4.57,0 -8.27,-3.7 -8.27,-8.27 0,-4.57 3.7,-8.27 8.27,-8.27l210.87 0c4.57,0 8.27,3.7 8.27,8.27 0,4.57 -3.7,8.27 -8.27,8.27z"/>
  </g>
 </g>
</svg>
