<?xml version="1.0" encoding="UTF-8"?>
<!DOCTYPE svg PUBLIC "-//W3C//DTD SVG 1.1//EN" "http://www.w3.org/Graphics/SVG/1.1/DTD/svg11.dtd">
<!-- Creator: CorelDRAW 2020 (64-Bit) -->
<svg xmlns="http://www.w3.org/2000/svg" xml:space="preserve" width="120mm" height="25mm" version="1.1" style="shape-rendering:geometricPrecision; text-rendering:geometricPrecision; image-rendering:optimizeQuality; fill-rule:evenodd; clip-rule:evenodd"
viewBox="0 0 12000 2500"
 xmlns:xlink="http://www.w3.org/1999/xlink"
 xmlns:xodm="http://www.corel.com/coreldraw/odm/2003">
 <defs>
  <style type="text/css">
   <![CDATA[
    .fil1 {fill:#FEFEFE}
    .fil2 {fill:#76C04E}
    .fil0 {fill:#008BAE}
    .fil5 {fill:#727376;fill-rule:nonzero}
    .fil4 {fill:#606062;fill-rule:nonzero}
    .fil3 {fill:#008BAE;fill-rule:nonzero}
   ]]>
  </style>
 </defs>
 <g id="Layer_x0020_1">
  <metadata id="CorelCorpID_0Corel-Layer"/>
  <path class="fil0" d="M1161.94 1822.52c29.04,-62.94 152.99,-95.77 214.89,-26.47 -34.28,79.47 -157.12,87.27 -214.89,26.47zm132.79 373.28c-403.33,-45.42 -716.82,-387.61 -716.82,-803.06 0,-342.85 213.5,-635.82 514.79,-753.28 -27.84,31.27 -68.61,47.65 -91.55,132.36 -33.06,122.06 27.13,248.65 98.4,337.61 17.48,21.82 34.57,40.63 52.58,60.39 11.91,13.09 52.73,48.86 58.05,58.64 -46.67,-4.97 -142.9,-1.39 -176.82,17.13 -101.01,20.29 -231.25,114.1 -282.06,206.99 -30.99,56.62 -43.63,141.63 -20.31,216.41 22.91,74.7 121.29,141.86 90.94,106.85 -40.89,-47.2 -69.6,-61.5 -82.14,-144.99 -11.47,-76.45 18.97,-145.02 53.67,-192.64 61.06,-83.8 182.7,-168.81 343.59,-162.73 84.51,11.16 127.7,39.73 181.95,79.69 137.22,101.1 286.15,330.86 247.07,530.64 -25.94,132.57 -131.15,246.62 -232.95,293.82 -14.84,6.87 -26.72,12.45 -38.39,16.17zm-403.88 -589.85c65.61,-19.13 126.78,-38.91 190.49,-25.18 50.03,10.8 87.74,45.99 120.02,115 -38.26,37.16 -113.4,62.85 -175.52,42.26 -54.32,-17.99 -109.72,-81.32 -134.99,-132.08zm550.31 115.48c-155.28,20.3 -235.23,-73.11 -241.23,-222.45 111.58,-11.81 251.64,59.85 241.23,222.45z"/>
  <path class="fil1" d="M1233.08 783.69c-5.58,-9.64 -11.88,-15.29 -16.98,-29.05 -4.66,-12.57 -6.84,-24.67 -4.09,-39.53 3.88,-20.94 27.39,-53.08 41.29,-56.48 8.84,22.12 21.61,39.01 20.2,69.41 -1.39,29.85 -19.81,49.95 -40.42,55.65z"/>
  <path class="fil2" d="M1099.55 1109.43c17.48,21.82 34.57,40.62 52.58,60.39 11.91,13.09 52.73,48.86 58.05,58.64l64.81 15.31c-76.38,-106.56 -124.93,-258.19 -51.45,-378.3 44.3,-72.38 107.61,-130.45 190.46,-151.76 13.95,-3.59 7.96,-2.06 18.06,-8.27 15.15,-9.31 30.54,-2.38 39.47,6.19 -17.97,31.84 -45.46,5.44 -62.99,10.09 -23.21,6.17 -42.48,20.34 -57.18,32.15 -38.03,30.55 -73.57,77.35 -95.99,128.74 -49.84,114.25 -15.34,237 67.63,325 114.5,121.46 254.92,185.97 333.03,357.53 4.08,-17 7.29,-34.3 11.46,-51.11 30.55,-123.09 107.67,-239.24 226.14,-293.2 24.81,-11.3 15.91,-3.52 30.6,-23.18 9.57,-12.83 21.65,-13.13 40.23,-9 -2.52,11.43 -12.67,24.23 -24.69,27.21 -18.09,4.49 -10.45,-6.33 -40.12,16.35 -73.99,56.55 -135.31,141.95 -162.76,234.12 -15.2,51.06 -17,98.74 -16.98,151.48 0.03,135.37 1.67,240.59 -29.39,353.5 -18.11,65.79 -50.53,140.9 -86.18,199.83 340.37,-95.22 590.03,-407.64 590.03,-778.4 0,-446.14 -361.48,-807.85 -807.54,-808.22 -37.62,0.18 -95.25,5.09 -150.8,13.96 -40.68,7.65 -79.47,20.93 -118.59,31.81 -20.33,5.65 -37.93,15.61 -52.48,28.94 -133.89,122.64 -62.54,339.59 34.59,450.2zm478.5 -18.79c-128.59,-74.73 -96.97,-249.82 -5.38,-322.38 95.75,63.69 131.49,255.22 5.38,322.38zm-140.01 -62.76c41.88,13.31 119.44,107.6 59.16,204.9 -86.98,-10.31 -111.5,-141.41 -59.16,-204.9zm187.54 341.6c-86.95,-101.63 -59.15,-249.23 81.72,-308.96l2.57 3.27c66.15,102.13 44.53,257.16 -84.29,305.69z"/>
  <path class="fil2" d="M10388.29 1010.55c31.57,-114.99 117.24,-178.13 245.77,-178.13 101.47,0 202.93,47.34 239.01,178.13l-484.78 0zm6.76 252.53l800.46 0c9.02,-42.83 13.53,-87.94 13.53,-135.29 0,-340.46 -243.52,-595.26 -572.72,-595.26 -356.27,0 -599.78,259.3 -599.78,595.26 0,335.98 239.01,595.28 624.58,595.28 214.21,0 381.06,-78.93 491.55,-232.24l-270.59 -155.59c-45.09,49.6 -124,85.68 -216.45,85.68 -124.02,0 -227.74,-40.58 -270.58,-157.84zm-764.38 -498.3l0 -200.68 -338.22 0 0 1127.4 338.22 0 0 -509.58c0,-223.23 198.43,-279.61 338.22,-257.05l0 -383.32c-142.05,0 -293.12,72.16 -338.22,223.23zm-1192.78 638.1c-155.59,0 -268.32,-105.97 -268.32,-275.09 0,-169.1 112.73,-275.08 268.32,-275.08 155.57,0 268.32,105.98 268.32,275.08 0,169.12 -112.75,275.09 -268.32,275.09zm268.32 -838.78l0 105.97c-74.41,-85.68 -184.9,-137.54 -335.97,-137.54 -295.38,0 -538.9,259.3 -538.9,595.26 0,335.98 243.52,595.28 538.9,595.28 151.07,0 261.56,-51.86 335.97,-137.54l0 105.97 338.22 0 0 -1127.4 -338.22 0z"/>
  <polygon class="fil2" points="6937.12,1075.37 6937.12,564.1 7098.53,564.1 7274.4,1168.38 7436.74,564.1 7797.52,564.1 7436.74,1691.5 7121.07,1691.5 "/>
  <polygon class="fil0" points="6937.12,1075.37 6937.12,564.1 6775.71,564.1 6599.83,1168.38 6437.49,564.1 6076.72,564.1 6437.49,1691.5 6753.15,1691.5 "/>
  <path class="fil3" d="M3531.2 595.66l0 115.01c-74.41,-92.46 -182.63,-146.57 -329.2,-146.57 -320.18,0 -554.68,261.56 -554.68,572.71 0,311.16 234.5,572.73 554.68,572.73 146.57,0 254.79,-54.12 329.2,-146.56l0 103.72c0,160.08 -96.96,241.26 -254.79,241.26 -148.82,0 -214.2,-63.12 -257.04,-142.06l-288.62 166.86c103.72,184.9 299.89,272.84 534.39,272.84 299.89,0 595.26,-160.1 595.26,-538.9l0 -1071.04 -329.2 0zm-272.83 802.71c-160.09,0 -272.82,-105.97 -272.82,-261.56 0,-155.58 112.73,-261.55 272.82,-261.55 160.09,0 272.83,105.97 272.83,261.55 0,155.59 -112.74,261.56 -272.83,261.56zm1188.28 -602.03l0 -200.68 -338.22 0 0 1127.41 338.22 0 0 -509.59c0,-223.23 198.42,-279.59 338.22,-257.04l0 -383.33c-142.05,0 -293.12,72.16 -338.22,223.23zm1003.39 958.29c331.45,0 597.52,-259.3 597.52,-595.27 0,-335.96 -266.07,-595.26 -597.52,-595.26 -331.46,0 -597.53,259.3 -597.53,595.26 0,335.97 266.07,595.27 597.53,595.27zm0 -329.2c-146.56,0 -259.3,-105.97 -259.3,-266.07 0,-160.08 112.74,-266.05 259.3,-266.05 146.57,0 259.3,105.97 259.3,266.05 0,160.1 -112.73,266.07 -259.3,266.07z"/>
  <path class="fil4" d="M11607.31 658.46l-28.37 0 -55.03 -65.32 -30.73 0 0 65.32 -21.92 0 0 -164.3 46.06 0c9.95,0 18.24,0.64 24.86,1.92 6.63,1.28 12.58,3.58 17.89,6.89 5.95,3.77 10.63,8.48 13.98,14.21 3.35,5.68 5.01,12.92 5.01,21.65 0,11.87 -2.98,21.77 -8.93,29.76 -5.99,7.99 -14.2,14.01 -24.63,18.04l61.81 71.83zm-51.08 -117.97c0,-4.71 -0.82,-8.86 -2.48,-12.47 -1.66,-3.61 -4.41,-6.67 -8.22,-9.15 -3.16,-2.15 -6.92,-3.62 -11.25,-4.44 -4.38,-0.87 -9.5,-1.29 -15.37,-1.29l-25.73 0 0 61.7 22.07 0c6.93,0 12.96,-0.6 18.12,-1.81 5.16,-1.2 9.53,-3.46 13.14,-6.74 3.32,-3.09 5.77,-6.63 7.35,-10.62 1.58,-3.95 2.37,-9.04 2.37,-15.18z"/>
  <path class="fil5" d="M11531.08 408.96c47.17,0 89.9,19.12 120.82,50.04 30.91,30.92 50.05,73.65 50.05,120.83 0,47.18 -19.14,89.91 -50.05,120.83 -30.91,30.91 -73.64,50.04 -120.82,50.04 -47.19,0 -89.92,-19.13 -120.83,-50.04 -30.92,-30.92 -50.05,-73.65 -50.05,-120.83 0,-47.18 19.13,-89.91 50.05,-120.83 30.92,-30.92 73.64,-50.04 120.83,-50.04zm114.21 56.66c-29.23,-29.23 -69.62,-47.32 -114.21,-47.32 -44.6,0 -84.99,18.09 -114.22,47.32 -29.23,29.23 -47.31,69.61 -47.31,114.21 0,44.6 18.08,84.98 47.31,114.21 29.23,29.22 69.62,47.32 114.22,47.32 44.59,0 84.98,-18.1 114.21,-47.32 29.22,-29.22 47.31,-69.61 47.31,-114.21 0,-44.6 -18.09,-84.99 -47.31,-114.21z"/>
  <path class="fil5" d="M11531.08 402.4c23.99,0 46.93,4.79 67.85,13.46 21.73,9 41.29,22.2 57.6,38.51 16.33,16.33 29.51,35.9 38.52,57.64 8.66,20.92 13.45,43.84 13.45,67.82 0,23.98 -4.79,46.9 -13.45,67.83 -9.01,21.73 -22.19,41.3 -38.52,57.63 -16.33,16.33 -35.89,29.51 -57.63,38.51 -20.93,8.66 -43.84,13.46 -67.82,13.46 -23.99,0 -46.9,-4.8 -67.83,-13.46 -21.74,-9 -41.3,-22.18 -57.63,-38.51 -16.32,-16.32 -29.51,-35.87 -38.51,-57.61 -8.68,-20.92 -13.46,-43.85 -13.46,-67.85 0,-24 4.78,-46.93 13.45,-67.85 9.01,-21.74 22.2,-41.29 38.52,-57.61 16.31,-16.31 35.87,-29.51 57.6,-38.5 20.92,-8.68 43.86,-13.47 67.86,-13.47zm109.58 67.84c-14.3,-14.3 -31.37,-25.82 -50.3,-33.66 -18.21,-7.55 -38.26,-11.72 -59.28,-11.72 -21.03,0 -41.08,4.17 -59.29,11.72 -18.93,7.84 -36,19.36 -50.3,33.66 -14.3,14.31 -25.83,31.38 -33.67,50.3 -7.54,18.22 -11.72,38.26 -11.72,59.29 0,21.03 4.18,41.07 11.72,59.29 7.84,18.92 19.37,36 33.67,50.3 14.29,14.3 31.37,25.82 50.3,33.66 18.22,7.55 38.26,11.72 59.29,11.72 21.02,0 41.06,-4.17 59.28,-11.72 18.93,-7.84 36.01,-19.36 50.31,-33.66 14.29,-14.29 25.81,-31.37 33.66,-50.31 7.54,-18.22 11.72,-38.25 11.72,-59.28 0,-21.03 -4.18,-41.06 -11.72,-59.28 -7.85,-18.94 -19.37,-36.02 -33.67,-50.31z"/>
 </g>
</svg>
