<svg version="1.2" baseProfile="tiny-ps" xmlns="http://www.w3.org/2000/svg" viewBox="0 0 150 27" width="150" height="27">
	<title>nav-logo-lg-svg</title>
	<style>
		tspan { white-space:pre }
		.shp0 { fill: #00ab9f } 
		.shp1 { fill: #0068b4 } 
		.shp2 { fill: #6cc1b3 } 
	</style>
	<g id="Layer">
		<path id="Layer" class="shp0" d="M-24.51 16.91C-22.38 19.45 -19.76 21.36 -16.52 21.15C-17.27 20.86 -17.99 20.49 -18.66 20.04C-19.33 19.6 -19.96 19.09 -20.52 18.52C-21.09 17.94 -21.59 17.31 -22.03 16.63C-22.46 15.96 -22.82 15.23 -23.1 14.48C-23.57 15.28 -24.05 16.1 -24.51 16.91" />
		<path id="Layer" class="shp0" d="M-19.99 2.97C-26.36 7.32 -28.27 14.24 -32.55 20.18C-32.82 20.56 -33.1 20.94 -33.39 21.3C-33.68 21.67 -33.98 22.03 -34.3 22.37C-34.61 22.72 -34.94 23.06 -35.27 23.38C-35.6 23.71 -35.95 24.03 -36.3 24.33C-36.54 24.52 -36.78 24.7 -37.03 24.86C-37.28 25.03 -37.53 25.19 -37.79 25.34C-38.05 25.49 -38.32 25.63 -38.59 25.76C-38.86 25.89 -39.13 26 -39.41 26.11C-38.64 26.18 -37.87 26.17 -37.11 26.08C-36.34 25.99 -35.59 25.82 -34.86 25.57C-34.13 25.32 -33.42 25 -32.76 24.6C-32.1 24.2 -31.48 23.74 -30.92 23.21C-26.7 19.49 -25.41 14.52 -21.85 10.35C-19.72 7.86 -17.09 5.89 -14.04 5.61C-13.5 5.56 -12.96 5.58 -12.43 5.66C-11.89 5.75 -11.38 5.9 -10.88 6.12C-10.39 6.33 -9.92 6.61 -9.49 6.94C-9.07 7.27 -8.68 7.65 -8.35 8.07C-5.12 11.8 -5.63 18.76 -8.75 22.66C-9.05 23.04 -9.37 23.39 -9.72 23.73C-10.07 24.06 -10.44 24.37 -10.83 24.65C-11.22 24.93 -11.62 25.18 -12.05 25.41C-12.47 25.63 -12.91 25.83 -13.37 26C-12.54 26.01 -11.71 25.91 -10.91 25.72C-10.11 25.53 -9.33 25.23 -8.6 24.85C-7.87 24.46 -7.19 23.99 -6.58 23.43C-5.96 22.88 -5.42 22.25 -4.97 21.56C-4.41 20.7 -3.95 19.79 -3.58 18.84C-3.21 17.89 -2.93 16.91 -2.76 15.91C-2.58 14.9 -2.51 13.88 -2.54 12.87C-2.57 11.85 -2.7 10.83 -2.93 9.84C-4.98 1.6 -13.22 -1.7 -19.99 2.97Z" />
		<path id="Layer" class="shp1" d="M-43.2 21.13C-43.06 21.14 -42.92 21.14 -42.78 21.15C-42.64 21.15 -42.5 21.14 -42.36 21.13C-42.22 21.12 -42.08 21.1 -41.94 21.08C-41.81 21.06 -41.67 21.03 -41.53 21C-46.2 19.76 -48.18 12.41 -45.57 7.78C-45.23 7.19 -44.82 6.65 -44.34 6.17C-43.87 5.7 -43.33 5.29 -42.74 4.95C-42.15 4.62 -41.52 4.36 -40.87 4.2C-40.22 4.03 -39.54 3.95 -38.87 3.96C-35.28 3.96 -32.99 6.07 -30.97 8.96C-30.81 8.73 -30.65 8.5 -30.49 8.27C-30.33 8.05 -30.16 7.82 -29.99 7.6C-29.82 7.38 -29.64 7.16 -29.46 6.95C-29.28 6.74 -29.1 6.53 -28.91 6.32C-32.04 1.65 -36.29 -1.03 -41.86 0.38C-42.78 0.63 -43.67 1 -44.5 1.48C-45.33 1.96 -46.09 2.54 -46.78 3.21C-47.47 3.87 -48.07 4.62 -48.57 5.44C-49.07 6.26 -49.47 7.13 -49.76 8.05C-51.58 13.58 -49.06 20.7 -43.2 21.1" />
		<path id="Layer" class="shp2" d="M-24.63 19.83C-24.28 20.23 -23.9 20.6 -23.5 20.95C-23.1 21.29 -22.67 21.61 -22.23 21.9C-21.79 22.2 -21.32 22.46 -20.85 22.69C-20.37 22.92 -19.88 23.12 -19.38 23.29C-19.19 23.35 -19 23.41 -18.8 23.46C-18.61 23.51 -18.42 23.55 -18.22 23.59C-18.03 23.62 -17.83 23.65 -17.64 23.68C-17.44 23.71 -17.24 23.72 -17.04 23.74C-16.77 23.76 -16.5 23.77 -16.23 23.77C-15.97 23.77 -15.7 23.76 -15.43 23.74C-15.16 23.72 -14.89 23.69 -14.62 23.66C-14.36 23.62 -14.09 23.58 -13.82 23.52L-13.75 23.52C-13.64 23.49 -13.53 23.46 -13.42 23.43C-13.31 23.4 -13.19 23.36 -13.08 23.32C-12.97 23.29 -12.86 23.25 -12.75 23.21C-12.65 23.17 -12.54 23.12 -12.43 23.08C-12.49 23.12 -12.54 23.16 -12.6 23.21C-12.66 23.25 -12.72 23.29 -12.78 23.33C-12.84 23.37 -12.9 23.41 -12.96 23.44C-13.02 23.48 -13.08 23.52 -13.14 23.55C-13.21 23.59 -13.28 23.63 -13.35 23.67C-13.42 23.71 -13.5 23.74 -13.57 23.78C-13.64 23.81 -13.72 23.85 -13.79 23.88C-13.86 23.91 -13.94 23.94 -14.01 23.98C-14.29 24.1 -14.58 24.22 -14.87 24.31C-15.16 24.4 -15.45 24.48 -15.75 24.54C-16.05 24.59 -16.36 24.63 -16.66 24.65C-16.97 24.67 -17.27 24.67 -17.58 24.66C-19.99 24.49 -22.35 22.99 -24.78 20.11L-24.62 19.84" />
		<path id="Layer" class="shp0" d="M-8.33 17.32C-11.9 25.15 -21.04 23.12 -25.12 17.91C-25.57 18.67 -25.96 19.33 -26.47 20.06C-25.96 20.75 -25.38 21.4 -24.75 21.98C-24.12 22.56 -23.43 23.08 -22.69 23.53C-21.96 23.98 -21.18 24.36 -20.38 24.66C-19.57 24.96 -18.74 25.18 -17.89 25.32C-12.66 25.98 -9.11 22.73 -8.33 17.34" />
		<path id="Layer" class="shp1" d="M-38.75 4.81C-38.4 4.91 -38.06 5.04 -37.72 5.18C-37.39 5.33 -37.06 5.49 -36.75 5.68C-36.44 5.86 -36.13 6.07 -35.85 6.3C-35.56 6.52 -35.29 6.77 -35.03 7.03C-34.74 7.33 -34.47 7.65 -34.21 7.99C-33.95 8.32 -33.7 8.66 -33.47 9.01C-33.24 9.36 -33.02 9.72 -32.82 10.09C-32.62 10.46 -32.43 10.84 -32.26 11.23L-31.89 10.63L-31.39 9.8C-31.56 9.54 -31.74 9.29 -31.92 9.04C-32.1 8.79 -32.28 8.55 -32.48 8.31C-32.67 8.07 -32.87 7.84 -33.08 7.61C-33.29 7.38 -33.5 7.16 -33.72 6.95C-34.05 6.61 -34.4 6.31 -34.78 6.05C-35.17 5.79 -35.57 5.56 -36 5.38C-36.43 5.19 -36.87 5.05 -37.33 4.96C-37.78 4.86 -38.24 4.81 -38.71 4.8" />
		<path id="Layer" class="shp1" d="M-19.37 1.73C-24.2 2.75 -27.52 6.18 -30.17 10.09C-33.81 15.43 -39.89 25.88 -47.18 21.04C-52.37 17.59 -52.86 8.31 -48.01 2.52C-56.61 8.9 -53.45 24.92 -43.36 25.4C-43 25.42 -42.64 25.41 -42.28 25.38C-41.92 25.34 -41.57 25.28 -41.21 25.2C-40.86 25.12 -40.52 25.01 -40.18 24.88C-39.85 24.75 -39.52 24.6 -39.21 24.42C-32.86 20.95 -28.95 8.94 -23.51 4.38C-23.21 4.11 -22.89 3.85 -22.56 3.6C-22.23 3.35 -21.9 3.11 -21.55 2.89C-21.2 2.67 -20.85 2.46 -20.49 2.27C-20.12 2.08 -19.75 1.9 -19.38 1.73" />
		<path id="Layer" fill-rule="evenodd" class="shp0" d="M71.91 14.24L74.96 19.99L72.19 19.99L69.24 14.56L67.02 14.56L67.02 19.99L64.57 19.99L64.57 6.86L69.91 6.86C72.77 6.86 74.2 8.12 74.2 10.64C74.25 11.02 74.23 11.41 74.14 11.79C74.05 12.16 73.91 12.52 73.7 12.85C73.49 13.17 73.23 13.46 72.93 13.7C72.62 13.94 72.28 14.12 71.91 14.24L71.91 14.24ZM66.98 12.11L70.42 12.11C70.62 12.14 70.82 12.12 71.01 12.06C71.2 12 71.38 11.9 71.53 11.76C71.67 11.62 71.79 11.45 71.86 11.26C71.93 11.07 71.96 10.87 71.94 10.67C71.96 9.73 71.39 9.35 70.44 9.32L66.98 9.32L66.98 12.11Z" />
		<path id="Layer" fill-rule="evenodd" class="shp0" d="M51.19 19.99L56.13 6.86L58.58 6.86L63.48 19.99L60.86 19.99L60.12 17.98L54.59 17.98L53.85 19.99L51.19 19.99ZM57.39 10.35L55.52 15.37L59.19 15.37L57.39 10.35Z" />
		<path id="Layer" class="shp0" d="M76.1 6.86L84.63 6.86C84.43 7.03 84.24 7.21 84.06 7.4C83.87 7.58 83.7 7.78 83.54 7.99C83.38 8.19 83.23 8.41 83.09 8.63C82.95 8.85 82.83 9.08 82.71 9.32L76.07 9.32L76.1 6.86ZM76.1 12.13L81.9 12.13C81.88 12.33 81.86 12.53 81.84 12.73C81.83 12.94 81.83 13.14 81.83 13.34C81.83 13.55 81.83 13.75 81.84 13.96C81.86 14.16 81.88 14.36 81.9 14.56L76.09 14.56L76.1 12.13ZM76.1 17.56L82.84 17.56C82.96 17.79 83.09 18.01 83.23 18.23C83.37 18.44 83.53 18.65 83.69 18.85C83.86 19.05 84.03 19.24 84.22 19.42C84.4 19.6 84.59 19.77 84.8 19.94L84.8 19.99L76.1 19.99L76.1 17.56Z" />
		<path id="Layer" class="shp0" d="M47.07 19.99L49.53 19.99L52.8 6.86L50.19 6.86L48.05 15.8L45.93 6.86L43.38 6.86L41.17 15.8L39.07 6.85L36.45 6.85L39.73 19.99L42.17 19.99L44.63 10.35L47.07 19.99Z" />
		<path id="Layer" fill-rule="evenodd" class="shp0" d="M30.48 19.99C29.64 19.99 28.82 19.82 28.05 19.5C27.29 19.17 26.59 18.7 26 18.11C25.42 17.52 24.96 16.81 24.64 16.04C24.33 15.27 24.17 14.44 24.18 13.61C24.13 12.77 24.24 11.94 24.52 11.15C24.79 10.36 25.21 9.63 25.77 9C26.32 8.38 26.99 7.87 27.74 7.5C28.49 7.13 29.3 6.91 30.14 6.86L30.48 6.86C31.31 6.86 32.14 7.03 32.91 7.35C33.68 7.67 34.37 8.15 34.96 8.74C35.55 9.33 36.01 10.03 36.32 10.81C36.64 11.58 36.79 12.4 36.79 13.24C36.84 14.07 36.72 14.91 36.45 15.7C36.18 16.49 35.75 17.22 35.2 17.84C34.65 18.47 33.98 18.98 33.23 19.35C32.48 19.72 31.66 19.94 30.83 19.99L30.48 19.99M30.5 17.54C30.5 17.54 30.5 17.54 30.49 17.54C30.49 17.54 30.49 17.54 30.48 17.54L30.5 17.54ZM31.23 17.48C31.47 17.43 31.71 17.36 31.94 17.25C32.17 17.15 32.39 17.02 32.59 16.87C32.79 16.72 32.97 16.55 33.13 16.36C33.46 15.94 33.71 15.48 33.89 14.98C34.06 14.48 34.15 13.95 34.15 13.42C34.15 12.9 34.06 12.37 33.89 11.87C33.71 11.37 33.46 10.91 33.13 10.49C32.79 10.12 32.38 9.83 31.93 9.63C31.47 9.42 30.98 9.32 30.48 9.32C29.98 9.32 29.49 9.42 29.03 9.63C28.57 9.83 28.16 10.12 27.83 10.49C27.5 10.91 27.24 11.37 27.07 11.87C26.9 12.37 26.81 12.9 26.81 13.42C26.81 13.95 26.9 14.48 27.07 14.98C27.24 15.48 27.5 15.94 27.83 16.36C27.99 16.55 28.18 16.72 28.38 16.88C28.58 17.03 28.8 17.16 29.03 17.26C29.26 17.36 29.5 17.44 29.75 17.49C30 17.53 30.25 17.55 30.49 17.54C30.74 17.55 30.99 17.53 31.23 17.48Z" />
		<path id="Layer" fill-rule="evenodd" class="shp0" d="M21.52 14.24L24.58 19.97L21.78 19.97L18.83 14.53L16.62 14.53L16.62 19.97L14.18 19.97L14.18 6.86L19.52 6.86C22.37 6.86 23.81 8.12 23.81 10.64C23.85 11.02 23.83 11.41 23.74 11.79C23.66 12.16 23.51 12.52 23.3 12.85C23.09 13.17 22.83 13.46 22.53 13.7C22.22 13.94 21.88 14.12 21.52 14.24L21.52 14.24ZM16.59 12.11L20.03 12.11C20.23 12.14 20.43 12.12 20.62 12.06C20.81 12 20.99 11.89 21.13 11.76C21.28 11.62 21.39 11.45 21.46 11.26C21.54 11.07 21.56 10.87 21.55 10.67C21.58 9.73 21 9.35 20.05 9.32L16.59 9.32L16.59 12.11Z" />
		<path id="Layer" class="shp0" d="M8.3 19.99C7.68 19.98 7.07 19.87 6.48 19.67C5.9 19.47 5.34 19.19 4.84 18.83C4.34 18.46 3.9 18.03 3.52 17.54C3.15 17.04 2.86 16.5 2.64 15.92C2.41 15.32 2.26 14.69 2.2 14.06C2.14 13.42 2.17 12.78 2.28 12.15C2.4 11.52 2.6 10.91 2.88 10.33C3.16 9.76 3.52 9.22 3.94 8.75C4.22 8.44 4.52 8.17 4.85 7.93C5.19 7.69 5.54 7.49 5.92 7.33C6.29 7.16 6.68 7.04 7.08 6.96C7.48 6.88 7.89 6.85 8.3 6.85C8.71 6.85 9.13 6.89 9.53 6.96C9.94 7.04 10.34 7.15 10.72 7.3C11.11 7.46 11.48 7.65 11.83 7.87C12.17 8.09 12.5 8.35 12.8 8.63L11.14 10.56C10.94 10.39 10.73 10.24 10.51 10.11C10.29 9.97 10.05 9.86 9.81 9.77C9.57 9.68 9.32 9.61 9.06 9.56C8.81 9.52 8.55 9.49 8.29 9.5C8.06 9.48 7.83 9.5 7.6 9.53C7.37 9.57 7.14 9.63 6.92 9.71C6.71 9.79 6.5 9.9 6.3 10.02C6.11 10.15 5.92 10.29 5.76 10.46C5.58 10.63 5.43 10.81 5.29 11.01C5.15 11.21 5.03 11.42 4.93 11.65C4.84 11.87 4.76 12.1 4.7 12.34C4.65 12.57 4.62 12.81 4.61 13.06C4.6 13.17 4.6 13.28 4.61 13.39C4.59 13.65 4.61 13.91 4.64 14.18C4.68 14.44 4.75 14.69 4.83 14.94C4.92 15.19 5.03 15.43 5.16 15.66C5.3 15.88 5.45 16.1 5.63 16.3C5.8 16.47 5.99 16.63 6.19 16.77C6.39 16.91 6.61 17.03 6.84 17.12C7.07 17.21 7.31 17.28 7.55 17.32C7.8 17.36 8.04 17.38 8.29 17.37C8.47 17.38 8.65 17.38 8.83 17.36C9.01 17.34 9.18 17.31 9.36 17.26C9.53 17.22 9.7 17.15 9.86 17.08C10.02 17 10.18 16.91 10.33 16.81L10.33 14.56L8.67 14.56L8.67 12.1L12.76 12.1L12.76 18.24C12.47 18.53 12.14 18.78 11.79 19C11.44 19.22 11.07 19.41 10.69 19.56C10.3 19.71 9.9 19.82 9.5 19.89C9.09 19.97 8.68 20 8.26 19.99" />
		<path id="Layer" fill-rule="evenodd" class="shp1" d="M149.01 2.21C148.64 2.19 148.27 2.25 147.93 2.39C147.58 2.52 147.27 2.73 147.01 2.99C146.75 3.25 146.54 3.57 146.41 3.91C146.28 4.26 146.22 4.63 146.24 5L146.24 20L149.01 20L149.01 2.21Z" />
		<path id="Layer" fill-rule="evenodd" class="shp1" d="M137.94 6.36C138.31 6.36 138.67 6.4 139.04 6.47C139.4 6.54 139.75 6.64 140.1 6.78C140.44 6.91 140.77 7.08 141.08 7.28C141.4 7.48 141.69 7.7 141.96 7.96C142.04 6.91 142.87 6.4 144.66 6.3L144.66 19.99L141.89 19.99L141.89 18.49C141.62 18.74 141.33 18.96 141.02 19.15C140.71 19.34 140.39 19.51 140.05 19.64C139.71 19.77 139.36 19.87 139.01 19.94C138.65 20.01 138.29 20.04 137.93 20.04C137.08 19.99 136.24 19.77 135.48 19.4C134.71 19.02 134.02 18.51 133.45 17.88C132.87 17.24 132.43 16.51 132.13 15.71C131.84 14.91 131.7 14.06 131.73 13.2C131.7 12.35 131.84 11.5 132.13 10.7C132.43 9.9 132.87 9.16 133.45 8.53C134.02 7.9 134.71 7.38 135.48 7.01C136.24 6.64 137.08 6.42 137.93 6.37L137.94 6.36ZM137.93 9.41C137.93 9.41 137.93 9.41 137.94 9.41C137.94 9.41 137.94 9.41 137.94 9.41L137.93 9.41ZM137.94 9.41C137.46 9.43 137 9.55 136.57 9.75C136.14 9.95 135.75 10.24 135.43 10.59C135.11 10.94 134.86 11.35 134.7 11.8C134.53 12.24 134.46 12.72 134.48 13.19L134.48 13.29C134.44 14.27 134.81 15.23 135.5 15.93C136.18 16.63 137.13 17.01 138.12 16.99C139.1 16.96 140.03 16.53 140.68 15.79C141.33 15.06 141.65 14.09 141.56 13.11C141.56 12.63 141.47 12.15 141.29 11.7C141.11 11.25 140.85 10.85 140.51 10.5C140.18 10.16 139.77 9.89 139.33 9.7C138.89 9.51 138.42 9.41 137.94 9.41Z" />
		<path id="Layer" fill-rule="evenodd" class="shp1" d="M102.3 2.21C101.92 2.19 101.55 2.26 101.21 2.4C100.86 2.53 100.55 2.74 100.29 3.01C100.03 3.27 99.82 3.59 99.69 3.94C99.56 4.29 99.5 4.66 99.53 5.03L99.53 19.99L102.3 19.99L102.3 2.21Z" />
		<path id="Layer" fill-rule="evenodd" class="shp1" d="M124.04 6.36C124.83 6.39 125.6 6.57 126.33 6.88C127.05 7.19 127.72 7.63 128.29 8.18C128.86 8.72 129.32 9.37 129.67 10.08C130.01 10.79 130.22 11.56 130.28 12.35C130.39 13.14 130.36 13.94 130.19 14.72C130.03 15.5 129.72 16.25 129.3 16.92C128.87 17.6 128.33 18.2 127.7 18.69C127.07 19.18 126.36 19.55 125.6 19.8C124.85 20 124.06 20.06 123.29 19.97C122.51 19.88 121.76 19.66 121.07 19.29C120.38 18.93 119.76 18.44 119.25 17.85C118.73 17.27 118.34 16.59 118.07 15.85L120.45 13.35C120.4 14.34 120.77 15.31 121.46 16.02C122.14 16.74 123.1 17.14 124.09 17.12C125.08 17.11 126.02 16.69 126.69 15.95C127.36 15.22 127.7 14.25 127.62 13.26C127.63 12.77 127.55 12.29 127.38 11.83C127.21 11.38 126.95 10.97 126.62 10.61C126.28 10.26 125.88 9.97 125.44 9.77C125 9.57 124.52 9.46 124.04 9.44C119.82 9.44 115.97 20.07 110.08 20.07C109.29 20.04 108.52 19.86 107.79 19.55C107.06 19.24 106.4 18.8 105.83 18.25C105.25 17.71 104.79 17.06 104.44 16.35C104.1 15.63 103.89 14.86 103.82 14.08C103.71 13.28 103.74 12.48 103.91 11.7C104.08 10.92 104.38 10.17 104.81 9.49C105.23 8.82 105.77 8.22 106.41 7.73C107.04 7.24 107.75 6.86 108.51 6.62C109.27 6.42 110.05 6.36 110.83 6.44C111.61 6.53 112.36 6.76 113.05 7.12C113.75 7.49 114.36 7.98 114.88 8.57C115.39 9.16 115.79 9.84 116.05 10.57L113.65 13.06C113.7 12.07 113.34 11.1 112.65 10.39C111.96 9.67 111.01 9.28 110.02 9.29C109.03 9.3 108.08 9.73 107.42 10.46C106.75 11.19 106.41 12.17 106.49 13.16C106.47 13.64 106.56 14.13 106.73 14.58C106.91 15.03 107.17 15.45 107.5 15.8C107.83 16.15 108.23 16.44 108.68 16.64C109.12 16.84 109.6 16.95 110.08 16.96C112.94 16.96 117.49 9.47 120.58 7.4C120.84 7.22 121.1 7.07 121.38 6.94C121.65 6.81 121.94 6.69 122.23 6.6C122.52 6.51 122.82 6.44 123.13 6.4C123.43 6.35 123.73 6.33 124.04 6.33" />
		<path id="Layer" fill-rule="evenodd" class="shp0" d="M120.32 1.19C119.95 1.17 119.58 1.23 119.24 1.37C118.89 1.5 118.58 1.7 118.32 1.97C118.06 2.23 117.85 2.55 117.72 2.89C117.59 3.24 117.53 3.61 117.55 3.98L117.55 9.32C117.76 9.07 117.97 8.83 118.19 8.59C118.41 8.35 118.64 8.12 118.87 7.89C119.1 7.66 119.34 7.44 119.58 7.22C119.82 7 120.07 6.79 120.32 6.59L120.32 1.19Z" />
		<path id="Layer" fill-rule="evenodd" class="shp1" d="M91.28 6.31C91.63 6.32 91.98 6.34 92.32 6.4C92.66 6.46 93 6.55 93.33 6.66C93.66 6.78 93.98 6.92 94.29 7.09C94.59 7.26 94.88 7.45 95.16 7.67L95.16 6.32L97.93 6.37L97.93 18.64C97.93 19.46 97.76 20.27 97.45 21.04C97.14 21.8 96.67 22.49 96.09 23.07C95.51 23.66 94.82 24.12 94.06 24.44C93.3 24.76 92.48 24.92 91.66 24.93C90.97 24.93 90.29 24.81 89.63 24.59C88.98 24.37 88.37 24.04 87.82 23.63C87.27 23.21 86.8 22.7 86.42 22.13C86.03 21.55 85.75 20.92 85.57 20.25L88.57 20.25C88.93 20.94 89.51 21.49 90.22 21.81C90.93 22.13 91.73 22.2 92.48 22.01C93.24 21.82 93.91 21.39 94.39 20.78C94.87 20.16 95.13 19.41 95.13 18.63C94.86 18.84 94.57 19.04 94.26 19.2C93.96 19.37 93.64 19.51 93.32 19.63C92.99 19.74 92.65 19.83 92.31 19.89C91.97 19.95 91.62 19.98 91.28 19.98C90.45 19.88 89.65 19.64 88.92 19.25C88.18 18.87 87.53 18.35 86.98 17.72C86.44 17.09 86.01 16.37 85.74 15.59C85.46 14.81 85.33 13.98 85.35 13.15C85.33 12.32 85.46 11.49 85.74 10.71C86.01 9.93 86.44 9.21 86.98 8.58C87.53 7.96 88.18 7.44 88.92 7.05C89.65 6.66 90.45 6.42 91.28 6.33L91.28 6.31ZM91.28 9.36L91.24 9.36C90.75 9.38 90.28 9.5 89.84 9.7C89.4 9.91 89 10.19 88.67 10.55C88.34 10.9 88.09 11.32 87.92 11.78C87.75 12.23 87.67 12.71 87.69 13.2C87.63 14.18 87.97 15.15 88.65 15.87C89.33 16.59 90.27 17 91.26 17C92.25 17 93.19 16.59 93.87 15.87C94.54 15.15 94.89 14.18 94.83 13.2C94.84 12.71 94.77 12.23 94.6 11.78C94.43 11.32 94.17 10.9 93.84 10.55C93.51 10.19 93.12 9.91 92.68 9.7C92.24 9.5 91.76 9.38 91.28 9.36Z" />
	</g>
</svg>