<?xml version="1.0" encoding="UTF-8"?>
<!DOCTYPE svg PUBLIC "-//W3C//DTD SVG 1.1//EN" "http://www.w3.org/Graphics/SVG/1.1/DTD/svg11.dtd">
<!-- Creator: CorelDRAW 2020 (64-Bit) -->
<svg xmlns="http://www.w3.org/2000/svg" xml:space="preserve" width="115mm" height="20mm" version="1.1" style="shape-rendering:geometricPrecision; text-rendering:geometricPrecision; image-rendering:optimizeQuality; fill-rule:evenodd; clip-rule:evenodd"
viewBox="0 0 11500 2000"
 xmlns:xlink="http://www.w3.org/1999/xlink"
 xmlns:xodm="http://www.corel.com/coreldraw/odm/2003">
 <defs>
  <style type="text/css">
   <![CDATA[
    .fil0 {fill:#E31E24}
    .fil2 {fill:#2B2A29;fill-rule:nonzero}
    .fil1 {fill:#E31E24;fill-rule:nonzero}
   ]]>
  </style>
 </defs>
 <g id="Layer_x0020_1">
  <metadata id="CorelCorpID_0Corel-Layer"/>
  <g id="_2622611651392">
   <path class="fil0" d="M417.57 1451.49c-50.6,-31.48 -203.8,27.24 -309.53,-13 45.02,81 104.6,96.22 207.03,59.06 1.37,-0.49 -4,-16.28 -2.62,-16.79 2.16,-0.79 12.12,13.13 14.36,12.38 5.71,-1.89 -6.52,-15.73 -0.15,-18.47 2.6,-1.1 23.59,9.16 26.27,7.94 3.92,-1.76 7.93,-3.62 12.01,-5.54 0.88,-1.34 -7.58,-8.01 28.02,-31.39 3.4,-2.22 5,15.7 8.78,13.81 5.19,-2.57 10.47,-5.25 15.83,-8zm-52.73 9.42c-35.04,-15.94 -153.18,18.27 -226.42,-2.1 32.33,50.06 95.07,39.77 226.42,2.1z"/>
   <path class="fil0" d="M2098.41 570.85c156.92,7.68 187.34,182.39 122.03,207.34 -6.47,-13.29 -6.33,-25.05 -4.51,-36.77 2.63,-16.85 -15.95,-26.67 -34.62,-9.68 4.98,-26.43 14.52,-45.34 6.07,-66.17 -6.56,-16.2 -30,-32.49 -44.85,-61.47 48.54,46.75 69.19,58.62 54.98,109.22 21.52,-13.21 27.76,8.1 31.14,24.06 26.97,-44.91 -10.52,-136.5 -130.24,-166.53z"/>
   <path class="fil0" d="M2139.07 606.8c-10.77,-5.1 -29.3,9.2 -32.37,17.35 -3.07,8.16 8.46,37.89 -4.88,41.27 -13.35,3.4 -43.5,-1.26 -50.85,7.77 -7.35,9.03 7.19,51.22 7.19,51.22 0,0 -7.33,-35.85 5.73,-47.1 13.07,-11.25 56.03,11.93 56.97,-3.8 -3.07,-13.25 -8.32,-30.78 -4.34,-44.09 2.91,-9.69 12.61,-15.95 22.55,-22.62z"/>
   <path class="fil0" d="M2030.85 686.79c0,0 0.09,16.17 -12.21,33.5 -19.46,27.46 -69.92,31.86 -97.23,17.99 -47.24,-24 -39.89,-42.69 -62.75,-60.76 -12.15,-9.59 -28.78,-16.35 -41.69,-20.57 -21.56,-7.04 -20.72,-15.07 -1.47,-31.7 13.67,-11.82 46.42,-26.7 94.27,-3.25 -57.44,-3.63 -89.23,2.99 -95.2,21.69 6.52,-2.96 45.47,2.82 61.14,25.38 27.35,39.45 34.61,56.52 79.94,59.63 47.02,3.24 75.2,-41.91 75.2,-41.91z"/>
   <path class="fil1" d="M1844.92 558.41c-56.84,-26.26 -122.76,-67.57 -132.92,-131.19 -3.33,-20.91 1.27,-12.49 12.39,0.44 15.79,18.36 35.74,31.83 46.73,39.18l-27.73 -31.11c-11.86,-16.91 -22.07,-30.38 -32.5,-57.16 -8.75,-14.46 -11.22,11.88 -11.1,16.13 1.12,40.75 14.78,76 39.12,106.53 26.76,33.61 66.47,61.49 116.69,84.69l-10.68 -27.51z"/>
   <path class="fil0" d="M1915.69 523.31c0,0 5.16,-4.04 13.34,-5.75 8.17,-1.71 14.79,7.7 21.87,22.33 7.07,14.61 -11.35,-16.11 -21.26,-16.81 -9.91,-0.7 -13.95,0.23 -13.95,0.23z"/>
   <path class="fil0" d="M1939.04 529.52c0.17,0.65 -1.82,10.49 -10.49,9.24 -5.68,-0.82 -10.51,-9.15 -5.97,-13.3l4.12 -3.76 7.09 0.63c0,0 5.07,6.58 5.25,7.19z"/>
   <path class="fil0" d="M895.96 570.85c-156.92,7.68 -187.34,182.39 -122.04,207.34 6.49,-13.29 6.34,-25.05 4.52,-36.77 -2.62,-16.85 15.95,-26.67 34.61,-9.68 -4.97,-26.43 -14.52,-45.34 -6.06,-66.17 6.56,-16.2 29.99,-32.49 44.85,-61.47 -48.54,46.75 -69.19,58.62 -54.98,109.22 -21.52,-13.21 -27.75,8.1 -31.15,24.06 -26.96,-44.91 10.53,-136.5 130.25,-166.53z"/>
   <path class="fil0" d="M855.3 606.8c10.77,-5.1 29.3,9.2 32.37,17.35 3.07,8.16 -8.46,37.89 4.87,41.27 13.36,3.4 43.51,-1.26 50.87,7.77 7.34,9.03 -7.2,51.22 -7.2,51.22 0,0 7.33,-35.85 -5.73,-47.1 -13.07,-11.25 -56.03,11.93 -56.97,-3.8 3.08,-13.25 8.35,-30.78 4.34,-44.09 -2.91,-9.69 -12.62,-15.95 -22.55,-22.62z"/>
   <path class="fil0" d="M963.51 686.79c0,0 -0.09,16.17 12.22,33.5 19.46,27.46 69.92,31.86 97.22,17.99 47.25,-24 39.88,-42.69 62.76,-60.76 12.15,-9.59 28.78,-16.35 41.7,-20.57 21.54,-7.04 20.71,-15.07 1.47,-31.7 -13.68,-11.82 -46.44,-26.7 -94.29,-3.25 57.45,-3.63 89.23,2.99 95.2,21.69 -6.51,-2.96 -45.46,2.82 -61.13,25.38 -27.36,39.45 -34.61,56.52 -79.94,59.63 -47.02,3.24 -75.21,-41.91 -75.21,-41.91z"/>
   <path class="fil1" d="M1149.45 558.41c56.84,-26.26 122.77,-67.57 132.92,-131.19 3.33,-20.91 -1.26,-12.49 -12.39,0.44 -15.79,18.36 -35.74,31.83 -46.74,39.18l27.74 -31.11c11.87,-16.91 22.07,-30.38 32.5,-57.16 8.75,-14.46 11.22,11.88 11.1,16.13 -1.13,40.75 -14.79,76 -39.11,106.53 -26.77,33.61 -66.48,61.49 -116.7,84.69l10.68 -27.51z"/>
   <path class="fil0" d="M1078.68 523.31c0,0 -5.17,-4.04 -13.35,-5.75 -8.16,-1.71 -14.77,7.7 -21.86,22.33 -7.07,14.61 11.35,-16.11 21.27,-16.81 9.9,-0.7 13.94,0.23 13.94,0.23z"/>
   <path class="fil0" d="M1055.33 529.52c-0.18,0.65 1.82,10.49 10.49,9.24 5.68,-0.82 10.51,-9.15 5.97,-13.3l-4.11 -3.76 -7.1 0.63c0,0 -5.07,6.58 -5.25,7.19z"/>
   <path class="fil0" d="M1340.83 237.41l5.89 0 54.8 65.84c-30.78,4.59 -54.54,30.89 -54.54,62.38l0 0c0,27.86 18.62,51.66 44.25,59.94 0.4,0.14 5.98,0.25 6.38,0.38l-44.9 52.85 -11.88 0 0 -241.39zm57.1 0l196.88 0 -54.13 65.13 -26.46 0 0 -0.43 -0.86 0 -33.98 0 -0.85 0 0 0.43 -26.46 0 -54.14 -65.13zm248.1 0l5.89 0 0 241.39 -11.88 0 -44.91 -52.85c0.41,-0.13 5.98,-0.24 6.38,-0.38 25.63,-8.28 44.26,-32.08 44.26,-59.94l0 0c0,-31.49 -23.77,-57.79 -54.55,-62.38l54.81 -65.84zm-57.21 241.39l-74.6 0 0 -15.39 0 -14.88 0 -109.85 59.44 0c17.6,0 32.02,11.07 32.02,26.95l0 0c0,15.86 -14.42,28.83 -32.02,28.83l-56.32 0 15.28 18.03 56.2 66.31zm-110.29 0l-74.62 0 56.22 -66.31 15.28 -18.03 -56.32 0c-17.62,0 -32.02,-12.97 -32.02,-28.83l0 0c0,-15.88 14.4,-26.95 32.02,-26.95l59.44 0 0 109.85 0 14.88 0 15.39z"/>
   <path class="fil1" d="M1587.07 167.7c1.55,-23.22 28.34,-62.75 57.54,-65.88 11.22,-8.96 59.01,-0.43 73.48,12.81 24.28,18.76 38.79,63.87 51.2,101.82 13.61,41.63 31.47,92.28 63.23,134.74 36.17,27.86 60.88,-20.3 75.79,41.26 3.36,8.2 1.21,23.19 6.14,26.05 4.93,2.86 16.96,-6.39 29.93,-5.23 34.17,-11.33 40.67,12.64 46.26,21.63 3.76,6.07 -1.11,17.9 5.55,21.75 14.69,8.46 40.11,6.05 55.04,5.36 14.25,-0.68 48.37,2.64 64.1,31.91 8.39,15.6 9.82,34.38 4.7,49.99 -4.53,13.77 -36.55,36.84 -53.1,41.32 -12.06,5.06 8.93,6.81 14.35,4.77 6.85,-2.55 16.23,-6.92 24.06,-10.35 24.29,-10.58 51.77,3 78.95,0.96 74.21,3.77 176.28,10.1 268.38,43.78 91.08,33.31 185.89,94.46 243.94,211.26 7.32,14.74 23.44,53.38 26.49,96.98 -17.86,-28.94 -39.83,-48.48 -67.96,-66.76 27.72,24.58 57.98,71.79 73.51,108.74 12.75,30.25 18.61,79.78 0.55,115.28 -2.75,47.98 16.88,69.9 25.31,117.02 0,0.04 -9.06,20.54 -6.39,48.16 3.24,33.34 21.91,75.72 19.77,87.55 41.72,-61.01 46.44,-60.57 22.67,-130.89 -3.45,-10.19 -37.37,-45.23 -32.66,-127.3 1.27,-22.21 2.54,-44.45 2.66,-67.3l0 -0.06 0.01 -5.94 0 -0.06c-0.15,-34.84 -4.51,-64.18 -12.73,-92.63 -8.19,-28.37 -20.08,-55.56 -35.37,-86.31 -61.96,-124.7 -155.45,-190.5 -252.86,-226.11 -96.4,-35.25 -195.72,-40.55 -271.85,-44.45 -31.16,-1.56 -38.25,-40.2 -49.18,-60.51 -24.53,-45.59 -56.51,-57.95 -82.07,-56.75 -20.68,0.96 -39.43,0.78 -50.97,-17.86 -6.79,-12.25 -12.84,-24.44 -34.68,-28.07 -17.15,-2.85 -35.14,8.34 -42.1,-10.19 -5.12,-13.65 -11.12,-29.64 -32.52,-39.48 -10.03,-4.61 -19.15,-6.85 -27.7,-8.96 -10.39,-2.54 -19.69,-4.82 -25.38,-11.29 -31.32,-35.66 -45.37,-78.62 -58.11,-117.57 -13.88,-42.46 -26.37,-80.59 -57.67,-104.78 -11.57,-8.93 -25.3,-15.01 -39.77,-18 -16.72,-3.44 -34.46,-2.7 -51.02,2.62 -16.74,5.39 -32.27,15.41 -44.33,30.48 -9.53,11.91 -16.83,26.95 -20.73,45.28l-2.09 15.3c-1.37,9.96 0.51,11.58 8.3,5.82 13.1,-9.7 21.81,-3.06 32.5,-12.1 9.95,8.06 9.7,28.51 23.43,21.58 4.47,-2.26 -6.57,-9.38 0.13,-22.18 13.24,-25.31 42.59,-21.68 49.07,-2.65 9.96,29.24 13.04,97.22 20.88,145.07 4.81,29.18 9.13,55.61 13.74,73.22l0 0.06 0.03 0.08c18.65,71.02 70.09,81.21 108.11,115.57 21.6,19.49 12.48,44.75 17.54,69.08 3.86,18.63 33.41,46.7 78.97,51.8 3.46,-1.36 -37.21,-23.32 -52.75,-41.63 -11.32,-13.34 -12.87,-30.09 -12.62,-35.74l0 -0.06c0.99,-20.77 -1.04,-34.28 -19.3,-50.77 -25.13,-22.69 -76.34,-51.57 -92.24,-77.62 -33.93,-55.48 -29.5,-139.62 -40.89,-202.93 -6.34,-35.18 -15.03,-62.64 -31.98,-70.02 -37.13,-16.2 -62.24,29.6 -85.29,19.33z"/>
   <path class="fil1" d="M2728.97 1087.02c-16.37,37.27 -29.01,103.23 -21.2,133.61 7.67,29.86 19.39,57.89 32.23,88.28l-0.01 0.01 0.05 0.13 0.06 0.06c5.71,13.62 7.85,29.02 8.36,44.03 0.2,5.88 1.48,14.7 -14.43,16.89 -0.11,3.45 14.69,7.29 15.37,10.66 2.41,12.02 8.77,23.38 11.39,33.36l1.72 6.44c4.78,17.32 -14.08,18.03 -18.67,17.88l-69.1 -5.74c-1.28,5.13 -37.77,10.7 -30.78,-14.06 3.04,-10.83 14.24,-23.46 30.15,-17.4 1.8,-8.29 -40.15,-14.7 -40.85,26.93 -0.13,7.84 -24.5,6.93 -24.49,-1.28 4.5,-29.97 12.63,-37.92 30.34,-30.64 1.42,-2.6 -6.4,-10.32 -5.36,-12.79 2.08,-4.92 12.89,-5.1 14.29,-10.67 -31.81,-27.59 7.67,-32.18 4.14,-40.85 -17.75,-43.32 -33.22,-71.29 -62.95,-100.66 -13.68,-13.48 -30.88,-29.43 -41.9,-47.94 -8.09,-13.57 -14.16,-30.7 -19.83,-68.19 -13.9,-43.18 -54.22,-171.66 -100.84,-186.59 5.66,6.6 12.75,17.88 19.87,31.12 3.41,6.34 6.83,13.15 10.11,20.11 14.17,30.16 25.54,63.34 21.55,75.48 -2.96,9.05 -8.01,21.75 -6.83,30.19 0.43,3.26 -7.41,13.62 -4.69,11.53 19.92,-15.23 42.59,13.32 42.36,28.81 4.46,65.82 9.41,48.1 72.72,114.96 13.98,14.75 20.67,31.79 30.01,48.17 9.57,16.78 12.77,41.35 10.08,63.53 -0.56,4.71 -1.39,9.22 -2.45,13.41 -1.02,4.09 -2.3,8.01 -3.83,11.63 -0.84,1.98 -1.67,3.7 -2.44,5.13l-2.58 4.74 -0.03 -0.02c-7.74,14.19 -13.33,24.43 -13.68,34.15 -0.68,18.55 10.75,26.49 43.61,27.66l106.33 3.81c26.83,0.95 35.44,-4.51 36.07,-21.59 0.22,-5.78 -1.33,-11.4 -3.41,-18.92 -0.97,-3.51 -1.34,-4.72 -1.71,-6.1 -2.32,-8.81 -9.35,-21.39 -8.94,-35.04 1.18,-38.16 -9.4,-69.6 -21.74,-101.2 -18.01,-46.17 -36.06,-85.65 -18.07,-183.03z"/>
   <path class="fil1" d="M2433.57 1162.11c-11.69,40.1 -31.43,96.71 -16.07,126.14 8.26,16.74 22.73,22.12 16.66,41.76l-0.02 -0.01c-6.15,12.69 -44.74,65.88 -27.83,76.42l-0.01 0.02c2.6,1.62 5.56,2.48 8.87,2.54 51.91,0.96 222.74,38.58 138.78,-63.79 -21.99,-35.18 11.55,-71.24 34.45,-96.04l-16.38 -17.73c-20.73,29.84 -53.39,73.87 -36.22,111.74 1.45,3.19 -10.82,4.06 -8.68,7.51 0.96,1.49 15.95,5.57 16.86,7.25 31.33,57.38 -50.69,39.53 -83.89,39.34 11.51,-10.89 10.37,-21.76 -0.14,-32.63 5.53,26.59 -20.9,37.23 -46.24,33.51 -9.73,-23.52 39.86,-40.25 47.19,-55.87 0,-0.01 -3.46,-25.48 -1.24,-26.14 43.92,-12.87 -3.79,-11.2 -9.91,-13.81 -49.1,-20.9 -4.31,-116.87 14,-145l-2.82 -1.8c-8.65,2.87 -18.07,7.67 -27.36,6.59z"/>
   <path class="fil1" d="M2513.15 1143.94c-43.86,10.04 -107.74,22.35 -160.05,0.89 -52.83,-21.68 -79.05,-39.9 -147.8,-89.13 -1.65,-1.17 -20.57,-18.88 -22.27,-20.11l-9.63 18.83c77.62,54.26 116.45,76.56 172.84,99.69 58.16,23.87 125.52,19.76 175.85,8.26l-8.94 -18.43z"/>
   <path class="fil0" d="M2479.79 1024.5c-12.51,127.44 -143,81.17 -240.08,33.94 53.22,46.89 204.85,98.59 256.96,9.51 0,0 -17.99,-44.54 -16.88,-43.45z"/>
   <path class="fil1" d="M2543.86 698.5c-78.35,-39.63 -154.08,-64.76 -241.51,-97.43 68.92,10.11 173.54,43.33 252.45,92.59 55.76,34.82 114.44,99.28 137.15,161.07 -37.85,-37 -67.25,-115.32 -148.09,-156.23z"/>
   <path class="fil1" d="M2022.17 772.14c-0.2,9.88 -25.48,99.82 -25.49,109.53 -0.2,94.1 7.87,181.34 32.64,269.72 2.26,8.14 10.97,39.36 16.79,69.72 8.21,42.89 8.65,75.94 -0.13,96.15 -21.3,16.68 -34.55,28.77 -36.2,43.37 -1.72,15.36 -3.3,22.6 4.78,26.51l1 -1.75 159.94 0c-1.33,3.06 -2.71,6.1 -4.08,9.12 10.66,-0.77 17.96,-2.92 19.35,-7.88 0.04,-0.13 5.91,-23.51 -7.27,-45.76 -11.96,-36.49 -12.99,-81.97 -7.8,-134.66 4.02,-40.98 4.62,-94.24 -1.72,-127.02 11.28,-7.33 27.43,-47.54 10.74,-122.09 -7.99,-35.7 0.26,-71.06 -1.28,-84.82 -11.5,26.93 -15.75,75.21 -9.39,119.09 3.33,22.84 3.47,38.48 -5.99,61.19 -17.94,26.21 -46.78,7.13 -44.28,-37.52 -16.44,62.05 24.93,67.17 37.57,68.29 6.29,32.47 2.21,133.37 -3.2,175.57 -0.95,11.43 -2.78,21.65 -3.64,31.84 -1.4,16.9 -18.01,23.03 -17.83,25.6 0.32,4.6 18.23,2.74 19.46,7.69 7.94,7.74 9.81,16.1 14.63,25.48 7.21,12.17 1.52,24.07 -3.57,29.32 -8.65,8.93 -62.54,3.71 -74.85,1.74 -50.91,-1.16 -32.3,-37.23 -17.17,-48.88 -12.4,3.33 -42.57,23.14 -22.8,45.96 -23.04,5.72 -29.09,1.76 -32.02,-6.05 8.16,-43.62 34.98,-31.4 42.24,-40.49 4.63,-5.82 6.69,-18.43 6.84,-34.88 0.15,-17.43 15.38,-20.68 11.04,-22.58 -12.15,-5.31 -13.02,-14.74 -13.53,-19.46 -2.81,-25.44 -7.72,-53.41 -13.36,-78.21 -2.55,-11.2 -5.22,-21.81 -7.84,-31.2 -2.69,-9.62 -5.34,-17.94 -7.79,-24.39l-0.05 -0.18 -0.03 -0.05c-15.53,-41.32 -26.55,-181.34 -20.87,-238.65l5.16 -109.37zm15.71 348.02l0 0 0 0z"/>
   <path class="fil1" d="M1963.17 783.81c-48.39,70.43 -94.02,150.3 -154.26,207.66 -29.81,28.41 -74.85,70.29 -80.9,97.12l-0.02 0.12 -0.06 0.06c-2.87,12.88 -2.45,32.09 -2,51.6 0.5,23.07 1.04,45.32 -0.39,52.28l-2.92 0.27 -0.06 0.1c-2.12,2.91 -3.96,5.93 -5.56,8.99 -1.57,3 -2.93,6.04 -4.06,9.01 -18.38,47.97 13.74,41.98 42.2,43.37 15.99,0.8 35.71,2.02 51.56,2.02 31.29,0 57.78,1.67 59.9,-10.88l0.01 -0.15 1.37 -3.35c5.14,-25.25 -10.16,-36.61 -18.53,-50.35 -3.35,-15.7 1.95,-45.02 7.65,-51.51l0.05 -0.06 0.04 -0.02 -0.01 0c0.87,-0.98 -0.19,-6.63 2.08,-8.77 23.01,-21.73 51.47,-49.16 76.64,-70.18 11.41,-9.49 29.12,-24.14 39.74,-26.18 10.48,-2.02 22.23,-3.04 36.87,2.62l9.38 -10.35c-20.1,-7.76 -37.09,-9.86 -53.27,-6.75 -16.05,3.09 -30.46,11.19 -45.64,23.87 -21.63,18.03 -43.98,46.3 -62.86,63.16 -3.53,3.15 -14.28,8.8 -17.23,11.6 -2.88,2.7 -6.52,0.33 -8.06,2.08l-0.06 0.05 -0.02 0.04 0 0c-6.27,7.2 3.59,25.07 2.41,39.78 -1.42,17.48 2.7,18.06 -7.91,38.59 13.79,6.69 27.27,13.93 23.32,33.35 -4.99,24.72 -66.28,12.37 -80.48,12.37 -21.6,8.01 -3.54,-15.64 -14.2,-22.59 -7.05,30.32 -25.54,16.51 -31.13,16.08 -19.28,-9.49 -1.17,-38.4 27.91,-42.92 -18.35,-15.23 -10.63,-29.28 0.7,-34.79 -18.23,-2.75 -18.22,-63.13 -1.41,-84.28 29.5,-37.11 43.92,-54.86 69.54,-79.27 8.46,-8.04 33.76,-41.8 43.7,-43.87 16.6,-3.45 17.69,32.14 21.65,11.38 3.22,-16.8 -4.1,-26.14 2.25,-42.7 16.25,-42.3 53.14,-90.17 75.22,-122.48l-3.15 -16.12z"/>
   <path class="fil0" d="M1912.13 734c0,0 44.69,16.59 49.41,55.16 4.73,38.56 44.08,102.72 44.08,102.72 12.03,-52.22 -34.48,-68.83 -31.87,-104.05 1.21,-16.49 -11.18,-35.51 -19.67,-43.23l-41.95 -10.6z"/>
   <path class="fil0" d="M2017.5 650.37c4.05,24.9 23.29,50.15 14.81,73.07 -23.14,62.43 -4.66,71.33 -9.88,106.05 -7.18,47.75 -8.68,69.49 32.04,37.67 22.04,-17.23 30.69,-49.89 82.56,-58.06 97.95,-15.42 105.6,-54.29 105.37,-54.5l-17.2 -14.67c-0.21,8.46 -4.24,-5.39 -6.54,0.76 -8.69,23.24 -30.25,32.1 -49.12,41.89 -42.57,22.15 -78.59,22.7 -131.26,74.64 -7.82,-31.55 -4.08,-68.38 5.73,-119.78 5.71,-29.99 -15.36,-51.23 -26.51,-87.07z"/>
   <path class="fil0" d="M1953.82 1301.47c-147.03,-112.82 -296.8,-52.32 -411.85,88.69 -4.67,5.73 -2.13,9.45 -6.72,15.46 119.08,-140 280.45,-215.58 419.71,-88.58 39.28,35.81 70.26,26.97 105.64,37.84 -49.91,-39.17 -70.55,-25.63 -106.78,-53.41z"/>
   <path class="fil0" d="M2061.64 1341.78c-34.34,-11.21 -62.34,52.22 -110.15,18.34 12.58,30.21 11.68,52.5 -0.03,81.01 -0.49,1.18 -16.75,-123.17 -122.81,-151.9 -106.58,-28.88 -204.9,23.52 -287.63,121.49 -4.01,4.74 -1.82,7.64 -5.77,12.63 88.01,-100.12 191.76,-154.06 301.68,-111.84 72.07,27.68 96.24,87.12 107.73,153.31 2.94,16.88 38.05,-38.79 20.15,-85.78 61.51,11.99 91.36,-35.45 96.83,-37.26z"/>
   <path class="fil0" d="M1542.7 1442.73c33.5,-44.9 111.58,-102.61 171.47,-113.37 52.22,-9.4 99.38,12.79 105.74,79.15 17.51,-9.54 26.95,5.57 46.08,-14.3 3.75,16.44 12.62,27.46 24.4,40.14 1.64,1.39 3.37,2.9 5.19,4.53l16.83 16.21c17.49,-30.45 18.99,-63.1 -15.67,-106.2 18.47,36.97 23.85,66.13 9.71,77.11 -17.55,-3.71 -29.94,-24.35 -38.83,-49.28 -11.05,19.08 -26.15,11.92 -40.44,17.49 -9.87,-64.62 -61.58,-83.13 -114.01,-73.66 -56.24,10.14 -146.49,70.59 -168.85,117.4 0,0 0.81,5.57 -1.62,4.78z"/>
   <path class="fil1" d="M1572.21 1441.48c1.34,0.77 63.39,-19.8 114.2,-19.87 39.36,-0.05 36,32.69 77.8,41.09 13.42,2.7 30.56,3.5 43.1,-2.71 20.21,-10.01 24.9,-33.17 -0.59,-41.56 -17.1,-5.62 -28.45,5.94 -28.73,24 -16.75,-2.19 -13.5,-46.4 28.36,-39.21 22.63,6.19 29.94,26.22 24.37,43.38 -9.77,9.13 -19.91,17.9 -30.41,26.24 -11.42,2.39 -24.73,1.3 -35.79,-0.98 -37.48,-7.73 -39.56,-34.67 -78.58,-37.7 -34.81,-2.7 -74.52,5.13 -96.16,10.25 -7.51,1.76 8.14,8.03 -8.73,-0.46l-8.84 -2.47z"/>
   <path class="fil0" d="M1560.4 1433.58c37.13,-29.29 77.31,-58.03 129.1,-59.34 25.72,-0.66 63.02,2.54 78.79,48.19 1.64,4.73 4.28,10.88 8.31,16.78 3.07,4.47 8.02,8.13 11.3,7.18 -14.09,7.57 -19.15,-1.75 -22.32,-9.6 -16.45,-40.57 -38.47,-53.81 -76.6,-53.32 -51.49,0.64 -93.27,26.71 -128.03,58.45l-0.55 -8.34z"/>
   <path class="fil0" d="M1717.01 1440.4c18.91,19.26 19.05,45.21 9.75,59.59 -16.21,25.03 -58.27,23.13 -59.76,-5.61 -4.23,-24.86 35.57,-39.53 40.62,-7.73 2.55,-14.3 -6.97,-25.63 -19.25,-28.3 -28.29,-6.15 -44.21,21.4 -34.18,45.4 13.66,32.73 55.5,29.98 73.25,13.45 19.76,-18.38 21.69,-52.84 -10.43,-76.8z"/>
   <path class="fil0" d="M1537.61 1493.73c-4.03,0.78 -8.55,-3.14 -8.69,-4.73 -4.17,-42.22 17.27,-151.85 58.63,-169.67 -22.37,-14.5 -35.61,-2.97 -47.73,10.84 -14.63,16.68 -22.42,85.07 -25.33,87.36 0,-4.95 11.22,-59.09 7.88,-98.5 -1.34,-15.83 -12.81,-33.98 -25.18,-43.53l0 -9.48c22,13.76 35.43,29.47 35.43,51.96 21.72,-14.93 38.41,-22.16 72.94,-2.51 -43.66,23.78 -82.17,136.4 -67.95,178.26z"/>
   <path class="fil0" d="M2650.05 1611.12c-184.29,122.82 -372,56.95 -516.2,-96.57 -5.87,-6.24 -2.67,-10.29 -8.43,-16.83 149.25,152.43 349.12,232.32 523.65,94.07 49.22,-39 85.02,-19.28 114.29,11.68 -46.86,-13.79 -67.92,-22.6 -113.31,7.65z"/>
   <path class="fil0" d="M2761.63 1602.57c-9.85,-39.92 -23.16,-82.12 -98.17,-58.96 15.74,-30.19 13.31,-33.01 18.88,-65.18 0.11,-0.7 -21.01,30.02 -63.86,66.13 -31.29,26.36 -73.78,58.11 -129.81,70.28 -112.46,24.44 -237.03,-18.73 -337.76,-105.73 -9.56,-8.26 -18.63,-16.75 -27.51,-25.33 0.88,-1.39 1.78,-2.78 2.65,-4.19 9.31,8.91 18.89,17.68 29.25,26.07 103.95,84.39 224.96,131.26 350.5,92.8 38.09,-11.67 74.05,-36.54 102.3,-63.42 38.69,-36.84 66.54,-75.78 98.72,-74.4 -14.78,35.02 -6.87,37.13 -19.91,64.94 77.11,-12 82.36,56.16 74.72,76.99z"/>
   <path class="fil0" d="M2673.82 1480.1c-8.31,-12.9 -35.39,11.39 -49.82,16.23 14.47,-30.2 -8.77,-36.92 -27.1,-41.2 -1.57,-0.35 -16.07,86.88 -138.17,115.72 -105.96,25.05 -223.66,-25.22 -317.43,-116.97 0.83,-1.47 1.64,-2.96 2.47,-4.44 97.54,89.43 212.65,142.35 331.49,102.74 83.01,-27.66 108.12,-82.95 119.24,-114.98 16.96,1.66 50,18.8 38.02,46.63 27.34,-23.01 58,-24.63 67.55,-21.29l-26.25 17.56z"/>
   <path class="fil0" d="M2159.16 1420.69c34.48,15.64 87.38,26.41 124.76,19.61 49.58,-9.04 81.48,-45.8 72.23,-82.79 12.83,0.16 45.76,5.84 41,50.68 -2.77,-17.96 -13.73,-39.26 -30.28,-38.96 8.58,32.25 -26.35,68.92 -85.61,78.57 -37.22,6.06 -88.39,-3.64 -122.79,-21.16 -0.88,-0.36 -1.49,-0.76 -1.91,-1.17 0.81,-1.6 1.63,-3.2 2.44,-4.82 0.06,0.01 0.12,0.03 0.16,0.04z"/>
   <path class="fil0" d="M2185.26 1487.27c18.02,10.98 45.09,26.24 66.39,33.41 53.7,18.04 124,5.44 152.64,0.06 11.39,-2.14 25.82,9.22 31.14,19.8 11.07,-2.03 28.53,-32.49 -0.88,-60.88 -8.87,2.33 -13,2.47 -13.63,4.11 6.36,2.36 11.48,4.42 15.67,8.97 9.95,10.78 9.53,25.57 -2.15,28.83 -19.09,-21.66 -43.74,-11.62 -67.95,-4.84 -31.43,8.83 -77.53,9.61 -114.16,-1.01 -22.8,-6.61 -47.2,-21.79 -67.72,-32.21 -3.68,2.35 -0.55,3.02 0.65,3.76z"/>
   <path class="fil0" d="M2433.95 1481.84c27.98,-6.85 36.87,-42.51 52.09,-51.6 -34.73,-33.6 -106.31,45.43 -173.33,48.11 -47.61,1.93 -105.01,-11.32 -161.31,-42.92 -1.08,2.03 -2.17,4.05 -3.26,6.07 90.98,53.19 200.33,61.01 285.33,4.11 10.3,-6.9 20.69,-12.84 32.29,-12 -17.8,19.3 -12.55,29.85 -46.07,49.83l14.26 -1.6z"/>
   <path class="fil0" d="M2370.45 1431.98c19.22,-13.4 23.88,-20.73 67.19,1.15l12.35 -8.31c-40.6,-19.96 -53.2,-23.46 -79.54,7.16z"/>
   <path class="fil0" d="M2576.66 1450.15c51.18,-31.85 206.17,27.55 313.13,-13.15 -45.54,81.94 -105.81,97.33 -209.44,59.74 -1.38,-0.49 4.05,-16.46 2.65,-16.99 -2.18,-0.8 -12.25,13.29 -14.52,12.53 -5.79,-1.91 6.59,-15.91 0.14,-18.69 -2.62,-1.11 -23.86,9.27 -26.57,8.04 -3.97,-1.78 -8.02,-3.66 -12.15,-5.61 -0.89,-1.35 7.67,-8.1 -28.35,-31.75 -3.43,-2.25 -5.06,15.89 -8.88,13.97 -5.25,-2.6 -10.59,-5.31 -16.01,-8.09zm53.33 9.52c35.46,-16.12 154.98,18.49 229.06,-2.12 -32.7,50.64 -96.17,40.23 -229.06,2.12z"/>
   <path class="fil0" d="M2392.25 1399.14c37.03,-27.29 149.16,23.61 226.55,-11.26 -34.16,85.65 -87.76,75.68 -226.55,11.26zm37.27 8.55c25.65,-13.82 113.44,15.45 167.05,-2.2 -23.66,43.38 -70.9,34.83 -167.05,2.2z"/>
   <path class="fil0" d="M2092.63 1528.77c-5.54,107 -28.12,181.03 -99.87,290.33 -12.24,18.65 -10.33,29.29 -13.33,60.84 -34.86,2.74 -71.94,-13.24 -67.62,-48.44 -23.58,11.98 -56.96,31.62 -84.47,14.52 1.31,-35 20.29,-55.82 45.55,-77.37 -7.39,-1.42 -13.44,-9.75 -19.43,-26.86 10.28,-2.97 35.35,-5.42 60.56,-16.98 37.96,-17.42 81.12,-49.58 102.44,-108.37 3.37,-3.32 6.72,-6.68 10.04,-10.07 -5.11,63.48 -61.1,112.15 -103.84,130.96 -22.71,10.01 -49.67,9.33 -55.65,12.04 4.59,11.39 14.12,15.26 25.13,14.87 -23.61,21.93 -47.57,42.55 -47.9,74.34 28.87,5.66 59.87,-12.87 87.17,-36.39 -25.59,59.37 13.31,61.35 34.56,67.32 -0.57,-22.64 5.44,-49.09 15.23,-63.4 69.66,-102.01 94.09,-181.03 100.02,-262.29 3.88,-4.96 7.66,-9.99 11.41,-15.05z"/>
   <path class="fil0" d="M1904.45 1795.71c75.42,-39.53 139.73,-102.63 156.65,-227.25 -4.46,5.24 -8.97,10.44 -13.59,15.56 -7.93,104.37 -73.55,162.78 -143.06,211.69z"/>
   <path class="fil0" d="M2184.97 1622.51c-4.93,24.63 7.11,45.4 20.71,52.3 23.65,12.03 53.76,-10.1 41.4,-33.74 -8.52,-21.9 -44.73,-14.12 -33.56,13.74 -8.56,-10.17 -6.87,-23.86 0.94,-32 17.97,-18.76 42.61,-4.57 46.45,19.46 5.26,32.8 -26.85,51.08 -47.67,46.59 -23.17,-4.99 -40.75,-31.52 -28.27,-66.35z"/>
   <path class="fil0" d="M2120.3 1488.64c17.38,18.39 45.34,52.38 60.03,93.74 6.48,18.26 7.67,38.03 6.4,58.93 -1.4,22.96 -6.55,42.98 -10.89,65.2 -3.08,15.7 -2.96,33.15 13.61,42.04 -18.54,-3.37 -22.52,-15.47 -22.77,-28.06 -0.42,-23.18 2.79,-47.25 3.87,-70.44 0.96,-20.99 1.13,-40.84 -1.93,-55.67 -9.64,-46.7 -27.65,-74.73 -49.82,-103.37 0.5,-0.79 1.01,-1.59 1.5,-2.37z"/>
   <path class="fil0" d="M2101.37 1516.7c6.34,11.86 12.98,27.43 14.32,42.48 1.89,21.27 -8.4,66.55 -19.84,82.96 -4.82,6.91 -0.63,-12.59 -0.72,-13.32 1.11,-3.32 2.13,-6.58 3.1,-9.78 12.24,-41.01 11.89,-73.9 1.87,-100.58l1.27 -1.76z"/>
   <path class="fil0" d="M2079.62 1643.06c14.04,11.5 22.91,16.42 37.46,13.24 -9.4,4.51 -19.05,13.43 -23.54,33.02 9.05,2.14 33.36,11.48 43.95,2.48 -1.44,19.78 5.79,40.54 17.04,53.74 11.24,13.19 25.65,21 36.79,19.13 -1.67,-0.72 -2.56,-6.99 -4.45,-7.12 -22.27,-1.62 -29.05,-10.77 -34.27,-28.23 -4.87,-16.24 -0.75,-40.5 5.42,-69.3 -18.35,27.52 -37.22,24.44 -48.02,18.52 6.33,-21.42 17.25,-19.67 27.61,-42.11 -14.34,1.78 -28.16,16.72 -43,5.31 5.15,-9.08 11.31,-28.8 7.67,-37.89 -7.56,26 -15.62,34.85 -22.66,39.21z"/>
   <path class="fil0" d="M2127.67 1544.46c11.29,25.65 21.64,62.68 8.65,94.25 -2.84,6.91 -16.12,22.98 -16.23,22.24 1.12,-3.29 3.28,-16.7 5.5,-19.92 14.76,-21.46 11.56,-64.87 0.04,-97.28l2.04 0.71z"/>
   <path class="fil0" d="M2175.94 1554.41c17,15.3 41.24,35.26 42.29,62.82 0.25,6.05 -8.24,26.31 -8.57,25.78 -0.29,-2.81 -3.21,-13.42 -2.66,-16.52 3.67,-20.69 -13.36,-51.72 -32.81,-71.92l1.75 -0.16z"/>
   <path class="fil0" d="M2150.49 1699.19c-36.47,-36.93 -64.39,36.45 -107.94,17.99 27.93,64.8 84.3,34.26 107.94,-17.99zm-14.19 5.33c-16.68,-12.65 -55.72,32.61 -81.6,22.8 37.17,31.37 70.46,3.55 81.6,-22.8z"/>
   <path class="fil0" d="M2186.34 1375.41c-1.02,2.99 31.44,1 28.4,30.92 -3.05,29.9 21.29,38.87 21.29,38.87l-47.66 -10.97 -30.45 -11.44c4.07,-8.04 7.98,-16.18 11.75,-24.39 8.52,-12.24 17.19,-24.53 16.67,-22.99z"/>
   <path class="fil0" d="M1531.11 1461.67c0.75,0.77 2.64,6.27 3.2,5.1 24.34,-51.12 72.5,-15.09 55.66,16.14 -9.14,16.95 -37.48,16.8 -39.83,-1.29 -2.73,-16.11 22.59,-23.45 25.86,-2.84 1.65,-9.27 -4.51,-16.6 -12.47,-18.34 -18.33,-3.98 -28.64,13.89 -22.15,29.44 8.85,21.19 40.08,20.93 51.88,7.25 23.92,-27.69 7.23,-62.01 -27.57,-63.3 -28.86,-1.09 -32.87,29.12 -34.58,27.84z"/>
   <path class="fil0" d="M1616.39 1539.14c-12.54,-5.85 -24.44,5.83 -7.24,9.18 27.21,5.29 45.79,-21.71 33.29,-42.41 -8.4,-13.94 -33.09,-15.29 -37.43,4.38 -2.75,16.11 24.59,20.7 27.87,0.09 1.65,9.26 -3.72,17.78 -16.07,19.91 -18.51,3.15 -30.25,-14.68 -23.76,-30.22 8.85,-21.2 40.1,-20.92 51.88,-7.26 23.9,27.68 8.61,63.68 -28.67,62.96 -58.43,-1.15 -14.15,-39.42 0.13,-16.63z"/>
   <path class="fil0" d="M1496.38 1487.69c56.06,0 101.54,29.36 101.54,65.57 0,2.52 -0.23,5 -0.64,7.44 -4.37,0.93 -8.76,1.78 -13.17,2.6 0.44,-2.17 0.67,-4.38 0.67,-6.61 0,-30.59 -42.25,-59.56 -87.92,-59.56 -45.69,0 -88.42,28.51 -88.42,59.1 0,2.44 0.28,4.84 0.78,7.2 -4.6,-0.84 -9.18,-1.75 -13.74,-2.71 -0.43,-2.44 -0.66,-4.94 -0.66,-7.46 0,-36.21 45.48,-65.57 101.56,-65.57z"/>
   <path class="fil1" d="M1407.3 167.7c-1.56,-23.22 -28.34,-62.75 -57.53,-65.88 -11.23,-8.96 -59.03,-0.43 -73.49,12.81 -24.27,18.76 -38.79,63.87 -51.2,101.82 -13.61,41.63 -31.48,92.28 -63.23,134.74 -36.17,27.86 -60.88,-20.3 -75.79,41.26 -3.37,8.2 -1.22,23.19 -6.14,26.05 -4.93,2.86 -16.96,-6.39 -29.94,-5.23 -34.16,-11.33 -40.67,12.64 -46.25,21.63 -3.76,6.07 1.11,17.9 -5.55,21.75 -14.69,8.46 -40.11,6.05 -55.04,5.36 -14.24,-0.68 -48.37,2.64 -64.1,31.91 -8.38,15.6 -9.82,34.38 -4.69,49.99 4.52,13.77 36.53,36.84 53.09,41.32 12.07,5.06 -8.93,6.81 -14.35,4.77 -6.86,-2.55 -16.23,-6.92 -24.06,-10.35 -24.29,-10.58 -51.77,3 -78.95,0.96 -74.21,3.77 -176.28,10.1 -268.38,43.78 -91.09,33.31 -185.89,94.46 -243.94,211.26 -7.32,14.74 -23.44,53.38 -26.5,96.98 17.87,-28.94 39.84,-48.48 67.98,-66.76 -27.74,24.58 -57.99,71.79 -73.53,108.74 -12.74,30.25 -18.61,79.78 -0.54,115.28 2.74,47.98 -16.89,69.9 -25.31,117.02 0,0.04 9.07,20.54 6.39,48.16 -3.23,33.34 -21.9,75.72 -19.77,87.55 -41.72,-61.01 -46.45,-60.57 -22.67,-130.89 3.45,-10.19 37.36,-45.23 32.66,-127.3 -1.27,-22.21 -2.54,-44.45 -2.67,-67.3l0 -0.06 0 -5.94 0 -0.06c0.14,-34.84 4.51,-64.18 12.73,-92.63 8.19,-28.37 20.08,-55.56 35.35,-86.31 61.98,-124.7 155.47,-190.5 252.89,-226.11 96.39,-35.25 195.7,-40.55 271.84,-44.45 31.17,-1.56 38.24,-40.2 49.17,-60.51 24.53,-45.59 56.52,-57.95 82.08,-56.75 20.68,0.96 39.43,0.78 50.97,-17.86 6.79,-12.25 12.84,-24.44 34.68,-28.07 17.14,-2.85 35.14,8.34 42.09,-10.19 5.12,-13.65 11.13,-29.64 32.52,-39.48 10.04,-4.61 19.16,-6.85 27.71,-8.96 10.39,-2.54 19.69,-4.82 25.38,-11.29 31.32,-35.66 45.37,-78.62 58.11,-117.57 13.88,-42.46 26.35,-80.59 57.67,-104.78 11.57,-8.93 25.31,-15.01 39.76,-18 16.73,-3.44 34.47,-2.7 51.03,2.62 16.74,5.39 32.28,15.41 44.32,30.48 9.54,11.91 16.84,26.95 20.74,45.28l2.09 15.3c1.37,9.96 -0.5,11.58 -8.3,5.82 -13.09,-9.7 -21.83,-3.06 -32.49,-12.1 -9.97,8.06 -9.7,28.51 -23.44,21.58 -4.46,-2.26 6.56,-9.38 -0.13,-22.18 -13.24,-25.31 -42.59,-21.68 -49.07,-2.65 -9.96,29.24 -13.05,97.22 -20.89,145.07 -4.8,29.18 -9.13,55.61 -13.73,73.22l0 0.06 -0.03 0.08c-18.65,71.02 -70.09,81.21 -108.12,115.57 -21.59,19.49 -12.47,44.75 -17.53,69.08 -3.86,18.63 -33.43,46.7 -78.97,51.8 -3.46,-1.36 37.22,-23.32 52.75,-41.63 11.34,-13.34 12.88,-30.09 12.61,-35.74l0 -0.06c-0.98,-20.77 1.04,-34.28 19.31,-50.77 25.13,-22.69 76.33,-51.57 92.24,-77.62 33.93,-55.48 29.5,-139.62 40.9,-202.93 6.33,-35.18 15.02,-62.64 31.97,-70.02 37.13,-16.2 62.23,29.6 85.29,19.33z"/>
   <path class="fil1" d="M265.41 1087.02c16.37,37.27 28.99,103.23 21.19,133.61 -7.68,29.86 -19.41,57.89 -32.23,88.28l0.02 0.01 -0.06 0.13 -0.06 0.06c-5.72,13.62 -7.86,29.02 -8.36,44.03 -0.21,5.88 -1.47,14.7 14.43,16.89 0.11,3.45 -14.69,7.29 -15.37,10.66 -2.43,12.02 -8.77,23.38 -11.39,33.36l-1.72 6.44c-4.79,17.32 14.08,18.03 18.66,17.88l69.1 -5.74c1.28,5.13 37.77,10.7 30.79,-14.06 -3.06,-10.83 -14.24,-23.46 -30.15,-17.4 -1.8,-8.29 40.14,-14.7 40.85,26.93 0.13,7.84 24.5,6.93 24.49,-1.28 -4.5,-29.97 -12.63,-37.92 -30.35,-30.64 -1.41,-2.6 6.42,-10.32 5.37,-12.79 -2.08,-4.92 -12.89,-5.1 -14.29,-10.67 31.81,-27.59 -7.67,-32.18 -4.13,-40.85 17.73,-43.32 33.2,-71.29 62.93,-100.66 13.67,-13.48 30.87,-29.43 41.91,-47.94 8.08,-13.57 14.15,-30.7 19.84,-68.19 13.89,-43.18 54.21,-171.66 100.83,-186.59 -5.66,6.6 -12.74,17.88 -19.87,31.12 -3.41,6.34 -6.84,13.15 -10.1,20.11 -14.16,30.16 -25.55,63.34 -21.56,75.48 2.97,9.05 8.01,21.75 6.83,30.19 -0.43,3.26 7.4,13.62 4.69,11.53 -19.92,-15.23 -42.59,13.32 -42.36,28.81 -4.46,65.82 -9.42,48.1 -72.74,114.96 -13.96,14.75 -20.65,31.79 -29.99,48.17 -9.57,16.78 -12.75,41.35 -10.08,63.53 0.56,4.71 1.39,9.22 2.44,13.41 1.03,4.09 2.32,8.01 3.85,11.63 0.83,1.98 1.66,3.7 2.42,5.13l2.59 4.74 0.01 -0.02c7.75,14.19 13.34,24.43 13.69,34.15 0.7,18.55 -10.75,26.49 -43.6,27.66l-106.33 3.81c-26.83,0.95 -35.45,-4.51 -36.08,-21.59 -0.21,-5.78 1.34,-11.4 3.42,-18.92 0.97,-3.51 1.34,-4.72 1.71,-6.1 2.32,-8.81 9.35,-21.39 8.94,-35.04 -1.18,-38.16 9.4,-69.6 21.74,-101.2 18.02,-46.17 36.06,-85.65 18.08,-183.03z"/>
   <path class="fil1" d="M560.8 1162.11c16.72,39.82 38.63,96.32 16.07,126.14 -8.26,16.74 -22.73,22.12 -16.66,41.76l0.01 -0.01c6.16,12.69 44.76,65.88 27.84,76.42l0.01 0.02c-2.6,1.62 -5.55,2.48 -8.89,2.54 -51.88,0.96 -222.71,38.58 -138.77,-63.79 21.99,-35.18 -11.54,-71.24 -34.45,-96.04l16.39 -17.73c20.73,29.84 53.38,73.87 36.23,111.74 -1.45,3.19 10.8,4.06 8.66,7.51 -0.95,1.49 -15.94,5.57 -16.85,7.25 -31.33,57.38 50.69,39.53 83.89,39.34 -11.51,-10.89 -10.37,-21.76 0.12,-32.63 -5.51,26.59 20.92,37.23 46.24,33.51 9.75,-23.52 -39.84,-40.25 -47.17,-55.87 0,-0.01 3.44,-25.48 1.23,-26.14 -43.9,-12.87 3.81,-11.2 9.92,-13.81 49.1,-20.9 4.32,-116.87 -14,-145l2.82 -1.8c8.65,2.87 18.07,7.67 27.36,6.59z"/>
   <path class="fil1" d="M476.11 1152.78c43.86,10.04 112.85,13.51 165.15,-7.95 52.82,-21.68 79.06,-39.9 147.81,-89.13 1.65,-1.17 20.56,-18.88 22.26,-20.11l9.63 18.83c-77.61,54.26 -116.45,76.56 -172.82,99.69 -58.17,23.87 -125.53,19.76 -175.86,8.26l3.83 -9.59z"/>
   <path class="fil0" d="M514.58 1024.5c10.36,125.71 131.93,72.41 240.07,33.94 -53.21,46.89 -204.85,98.59 -256.95,9.51 0,0 17.99,-44.54 16.88,-43.45z"/>
   <path class="fil1" d="M450.51 698.5c78.36,-39.63 154.08,-64.76 241.51,-97.43 -68.92,10.11 -173.54,43.33 -252.45,92.59 -55.76,34.82 -114.45,99.28 -137.15,161.07 37.85,-37 67.25,-115.32 148.09,-156.23z"/>
   <path class="fil1" d="M972.2 772.14c0.2,9.88 25.47,99.82 25.49,109.53 0.2,94.1 -7.87,181.34 -32.64,269.72 -2.26,8.14 -10.97,39.36 -16.79,69.72 -8.21,42.89 -8.65,75.94 0.13,96.15 21.3,16.68 34.55,28.77 36.19,43.37 1.81,16.13 3.47,23.3 -6.05,27.09 -0.45,-0.79 -0.91,-1.56 -1.36,-2.33l-159.93 0c1.32,3.01 2.68,6 4.03,8.99 -9.74,-0.87 -16.34,-3.04 -17.67,-7.75 -0.05,-0.13 -5.92,-23.51 7.27,-45.76 11.96,-36.49 12.99,-81.97 7.8,-134.66 -4.02,-40.98 -4.62,-94.24 1.72,-127.02 -11.28,-7.33 -27.43,-47.54 -10.75,-122.09 8.01,-35.7 -0.25,-71.06 1.3,-84.82 11.49,26.93 15.75,75.21 9.37,119.09 -3.32,22.84 -3.47,38.48 5.99,61.19 17.93,26.21 46.78,7.13 44.29,-37.52 16.45,62.05 -24.93,67.17 -37.55,68.29 -6.31,32.47 -2.23,133.37 3.18,175.57 0.95,11.43 2.78,21.65 3.64,31.84 1.4,16.9 18,23.03 17.83,25.6 -0.33,4.6 -18.24,2.74 -19.47,7.69 -7.93,7.74 -9.8,16.1 -14.61,25.48 -7.22,12.17 -1.53,24.07 3.55,29.32 8.64,8.93 62.56,3.71 74.87,1.74 50.9,-1.16 32.28,-37.23 17.16,-48.88 12.39,3.33 42.57,23.14 22.8,45.96 23.04,5.72 29.09,1.76 32.02,-6.05 -8.17,-43.62 -34.98,-31.4 -42.25,-40.49 -4.63,-5.82 -6.66,-18.43 -6.83,-34.88 -0.16,-17.43 -15.38,-20.68 -11.03,-22.58 12.13,-5.31 13.01,-14.74 13.52,-19.46 2.81,-25.44 7.72,-53.41 13.37,-78.21 2.53,-11.2 5.22,-21.81 7.85,-31.2 2.67,-9.62 5.32,-17.94 7.77,-24.39l0.06 -0.18 0.02 -0.05c15.53,-41.32 26.55,-181.34 20.88,-238.65l-5.17 -109.37zm-15.71 348.02l0.02 0 -0.02 0z"/>
   <path class="fil1" d="M1031.2 783.81c48.4,70.43 94.02,150.3 154.26,207.66 29.81,28.41 74.84,70.29 80.9,97.12l0.02 0.12 0.05 0.06c2.88,12.88 2.46,32.09 2.02,51.6 -0.53,23.07 -1.05,45.32 0.39,52.28l2.91 0.27 0.06 0.1c2.1,2.91 3.96,5.93 5.56,8.99 1.57,3 2.93,6.04 4.06,9.01 18.39,47.97 -13.73,41.98 -42.2,43.37 -16,0.8 -35.72,2.02 -51.57,2.02 -31.3,0 -57.77,1.67 -59.89,-10.88l-0.02 -0.15 -1.36 -3.35c-5.15,-25.25 10.16,-36.61 18.53,-50.35 3.36,-15.7 -1.96,-45.02 -7.65,-51.51l-0.07 -0.06 -0.02 -0.02 0 0c-0.85,-0.98 0.2,-6.63 -2.08,-8.77 -23.01,-21.73 -51.47,-49.16 -76.64,-70.18 -11.4,-9.49 -29.11,-24.14 -39.74,-26.18 -10.47,-2.02 -22.22,-3.04 -36.85,2.62l-9.39 -10.35c20.1,-7.76 37.09,-9.86 53.27,-6.75 16.05,3.09 30.46,11.19 45.65,23.87 21.62,18.03 43.96,46.3 62.84,63.16 3.55,3.15 14.29,8.8 17.23,11.6 2.89,2.7 6.54,0.33 8.06,2.08l0.07 0.05 0.02 0.04 -0.01 0c6.27,7.2 -3.6,25.07 -2.39,39.78 1.41,17.48 -2.71,18.06 7.89,38.59 -13.79,6.69 -27.25,13.93 -23.31,33.35 4.99,24.72 66.28,12.37 80.48,12.37 21.6,8.01 3.54,-15.64 14.2,-22.59 7.04,30.32 25.54,16.51 31.13,16.08 19.27,-9.49 1.17,-38.4 -27.92,-42.92 18.35,-15.23 10.64,-29.28 -0.7,-34.79 18.24,-2.75 18.23,-63.13 1.41,-84.28 -29.48,-37.11 -43.93,-54.86 -69.54,-79.27 -8.44,-8.04 -33.74,-41.8 -43.7,-43.87 -16.6,-3.45 -17.68,32.14 -21.64,11.38 -3.22,-16.8 4.1,-26.14 -2.26,-42.7 -16.24,-42.3 -53.13,-90.17 -75.21,-122.48l3.15 -16.12z"/>
   <path class="fil0" d="M1082.23 734c0,0 -44.69,16.59 -49.4,55.16 -4.72,38.56 -44.08,102.72 -44.08,102.72 -12.03,-52.22 34.48,-68.83 31.87,-104.05 -1.21,-16.49 11.18,-35.51 19.66,-43.23l41.95 -10.6z"/>
   <path class="fil0" d="M976.86 650.37c-4.04,24.9 -23.3,50.15 -14.8,73.07 23.12,62.43 4.66,71.33 9.88,106.05 7.18,47.75 8.68,69.49 -32.04,37.67 -22.05,-17.23 -30.68,-49.89 -82.56,-58.06 -97.94,-15.42 -105.6,-54.29 -105.36,-54.5l17.2 -14.67c0.18,8.46 4.23,-5.39 6.54,0.76 8.67,23.24 30.24,32.1 49.11,41.89 42.57,22.15 78.58,22.7 131.24,74.64 7.85,-31.55 4.1,-68.38 -5.71,-119.78 -5.71,-29.99 15.36,-51.23 26.5,-87.07z"/>
   <path class="fil0" d="M1040.56 1301.47c147.02,-112.82 296.79,-52.32 411.84,88.69 4.68,5.73 2.13,9.45 6.72,15.46 -119.07,-140 -280.46,-215.58 -419.72,-88.58 -39.27,35.81 -70.25,26.97 -105.63,37.84 49.91,-39.17 70.55,-25.63 106.79,-53.41z"/>
   <path class="fil0" d="M932.73 1341.78c34.33,-11.21 62.34,52.22 110.14,18.34 -12.56,30.21 -11.67,52.5 0.04,81.01 0.49,1.18 16.75,-123.17 122.81,-151.9 106.58,-28.88 204.9,23.52 287.63,121.49 4.01,4.74 1.81,7.64 5.77,12.63 -88.02,-100.12 -191.76,-154.06 -301.69,-111.84 -72.06,27.68 -96.22,87.12 -107.72,153.31 -2.94,16.88 -38.04,-38.79 -20.14,-85.78 -61.52,11.99 -91.37,-35.45 -96.84,-37.26z"/>
   <path class="fil0" d="M1451.67 1442.73c-33.5,-44.9 -111.57,-102.61 -171.47,-113.37 -52.23,-9.4 -99.38,12.79 -105.74,79.15 -17.51,-9.54 -26.95,5.57 -46.1,-14.3 -3.22,14.28 -10.34,24.46 -19.88,35.22 -3.36,2.53 -7.09,5.67 -11.32,9.45l-15.78 15.22c-16.95,-30.2 -18.03,-62.6 16.25,-105.21 -18.47,36.97 -23.87,66.13 -9.71,77.11 17.53,-3.71 29.94,-24.35 38.83,-49.28 11.06,19.08 26.15,11.92 40.44,17.49 9.87,-64.62 61.57,-83.13 114.01,-73.66 56.22,10.14 146.49,70.59 168.85,117.4 0,0 -0.82,5.57 1.62,4.78z"/>
   <path class="fil1" d="M1422.17 1441.48c-1.35,0.77 -63.39,-19.8 -114.2,-19.87 -39.38,-0.05 -36.01,32.69 -77.81,41.09 -13.43,2.7 -30.56,3.5 -43.1,-2.71 -20.21,-10.01 -24.9,-33.17 0.59,-41.56 17.1,-5.62 28.45,5.94 28.73,24 16.75,-2.19 13.5,-46.4 -28.36,-39.21 -23.64,6.46 -30.57,28.04 -23.54,45.67 8.79,8.13 17.89,15.93 27.28,23.4 11.87,3.11 26.28,2.01 38.09,-0.43 37.48,-7.73 39.56,-34.67 78.58,-37.7 34.81,-2.7 74.52,5.13 96.16,10.25 7.51,1.76 -8.14,8.03 8.73,-0.46l8.85 -2.47z"/>
   <path class="fil0" d="M1433.96 1433.58c-37.13,-29.29 -77.3,-58.03 -129.1,-59.34 -25.71,-0.66 -63.01,2.54 -78.78,48.19 -1.63,4.73 -4.28,10.88 -8.32,16.78 -3.05,4.47 -8.02,8.13 -11.28,7.18 14.08,7.57 19.14,-1.75 22.32,-9.6 16.44,-40.57 38.46,-53.81 76.6,-53.32 51.48,0.64 93.26,26.71 128.03,58.45l0.53 -8.34z"/>
   <path class="fil0" d="M1277.36 1440.4c-18.91,19.26 -19.06,45.21 -9.75,59.59 16.19,25.03 58.27,23.13 59.77,-5.61 4.22,-24.86 -35.58,-39.53 -40.64,-7.73 -2.54,-14.3 6.98,-25.63 19.25,-28.3 28.31,-6.15 44.21,21.4 34.19,45.4 -13.66,32.73 -55.5,29.98 -73.24,13.45 -19.77,-18.38 -21.72,-52.84 10.42,-76.8z"/>
   <path class="fil0" d="M1456.75 1493.73c4.03,0.78 8.56,-3.14 8.71,-4.73 4.16,-42.22 -17.28,-151.85 -58.65,-169.67 22.38,-14.5 35.62,-2.97 47.74,10.84 14.65,16.68 22.41,85.07 25.33,87.36 0,-4.95 -11.23,-59.09 -7.88,-98.5 1.33,-15.83 12.81,-33.98 25.19,-43.53l0 -9.48c-22,13.76 -35.43,29.47 -35.43,51.96 -21.73,-14.93 -38.42,-22.16 -72.95,-2.51 43.66,23.78 82.17,136.4 67.94,178.26z"/>
   <path class="fil0" d="M344.32 1611.12c184.28,122.82 372,56.95 516.2,-96.57 5.87,-6.24 2.68,-10.29 8.43,-16.83 -149.25,152.43 -349.11,232.32 -523.65,94.07 -49.23,-39 -85.03,-19.28 -114.28,11.68 46.85,-13.79 67.91,-22.6 113.3,7.65z"/>
   <path class="fil0" d="M232.74 1602.57c9.84,-39.92 23.16,-82.12 98.17,-58.96 -15.74,-30.19 -13.3,-33.01 -18.88,-65.18 -0.13,-0.7 21.01,30.02 63.86,66.13 31.3,26.36 73.79,58.11 129.82,70.28 112.45,24.44 237.02,-18.73 337.75,-105.73 9.19,-7.94 17.94,-16.1 26.5,-24.35 -0.88,-1.4 -1.78,-2.8 -2.65,-4.2 -9,8.57 -18.27,17 -28.24,25.1 -103.95,84.39 -224.97,131.26 -350.5,92.8 -38.09,-11.67 -74.05,-36.54 -102.29,-63.42 -38.71,-36.84 -66.55,-75.78 -98.73,-74.4 14.78,35.02 6.87,37.13 19.91,64.94 -77.11,-12 -82.35,56.16 -74.72,76.99z"/>
   <path class="fil0" d="M320.56 1480.1c8.3,-12.9 35.37,11.39 49.81,16.23 -14.47,-30.2 8.77,-36.92 27.11,-41.2 1.56,-0.35 16.05,86.88 138.16,115.72 105.56,24.96 222.77,-24.85 316.39,-115.95 -0.85,-1.48 -1.68,-2.97 -2.51,-4.47 -97.31,88.84 -212,141.21 -330.4,101.75 -83.02,-27.66 -108.13,-82.95 -119.25,-114.98 -16.97,1.66 -50.02,18.8 -38.02,46.63 -27.34,-23.01 -58.01,-24.63 -67.55,-21.29l26.26 17.56z"/>
   <path class="fil0" d="M834.03 1421.23c-34.49,15.33 -86.63,25.8 -123.58,19.07 -49.58,-9.04 -81.49,-45.8 -72.23,-82.79 -12.83,0.16 -45.77,5.84 -41.01,50.68 2.78,-17.96 13.75,-39.26 30.28,-38.96 -8.57,32.25 26.36,68.92 85.63,78.57 37.21,6.06 88.38,-3.64 122.78,-21.16 0.27,-0.1 0.5,-0.22 0.72,-0.33 -0.86,-1.69 -1.75,-3.38 -2.59,-5.08z"/>
   <path class="fil0" d="M809.1 1487.27c-17.99,10.98 -45.08,26.24 -66.38,33.41 -53.72,18.04 -124,5.44 -152.64,0.06 -11.39,-2.14 -25.82,9.22 -31.14,19.8 -11.07,-2.03 -28.54,-32.49 0.87,-60.88 8.88,2.33 13.02,2.47 13.64,4.11 -6.36,2.36 -11.48,4.42 -15.67,8.97 -9.95,10.78 -9.52,25.57 2.15,28.83 19.09,-21.66 43.74,-11.62 67.95,-4.84 31.43,8.83 77.53,9.61 114.16,-1.01 22.8,-6.61 47.2,-21.79 67.73,-32.21 3.67,2.35 0.53,3.02 -0.67,3.76z"/>
   <path class="fil0" d="M560.42 1481.84c-27.99,-6.85 -36.86,-42.51 -52.09,-51.6 34.72,-33.6 106.32,45.43 173.33,48.11 47.24,1.92 104.14,-11.14 160.05,-42.23 1.09,2.04 2.17,4.07 3.28,6.1 -90.73,52.55 -199.48,60.02 -284.08,3.39 -10.32,-6.9 -20.7,-12.84 -32.3,-12 17.8,19.3 12.54,29.85 46.07,49.83l-14.26 -1.6z"/>
   <path class="fil0" d="M623.92 1431.98c-19.22,-13.4 -23.88,-20.73 -67.19,1.15l-12.35 -8.31c40.6,-19.96 53.2,-23.46 79.54,7.16z"/>
   <path class="fil0" d="M602.12 1399.14c-37.03,-27.29 -149.16,23.61 -226.55,-11.26 34.16,85.65 87.76,75.68 226.55,11.26zm-37.27 8.55c-25.65,-13.82 -113.44,15.45 -167.05,-2.2 23.66,43.38 70.9,34.83 167.05,2.2z"/>
   <path class="fil0" d="M901.87 1531.13c5.76,105.74 28.53,179.47 99.74,287.97 12.24,18.65 10.33,29.29 13.32,60.84 34.88,2.74 71.95,-13.24 67.64,-48.44 23.57,11.98 56.93,31.62 84.46,14.52 -1.31,-35 -20.28,-55.82 -45.55,-77.37 7.4,-1.42 13.42,-9.75 19.41,-26.86 -10.26,-2.97 -35.33,-5.42 -60.54,-16.98 -37.42,-17.16 -79.88,-48.67 -101.5,-105.87 -3.65,-3.55 -7.27,-7.15 -10.83,-10.76 6.02,62.58 61.37,110.52 103.68,129.15 22.72,10.01 49.69,9.33 55.66,12.04 -4.6,11.39 -14.11,15.26 -25.13,14.87 23.62,21.93 47.58,42.55 47.9,74.34 -28.87,5.66 -59.87,-12.87 -87.18,-36.39 25.61,59.37 -13.3,61.35 -34.55,67.32 0.56,-22.64 -5.45,-49.09 -15.22,-63.4 -69.03,-101.07 -93.65,-179.56 -99.87,-260.02 -3.86,-4.93 -7.68,-9.92 -11.44,-14.96z"/>
   <path class="fil0" d="M1089.91 1795.71c-74.95,-39.3 -138.96,-101.86 -156.35,-225 4.42,5.15 8.9,10.26 13.45,15.28 8.61,103.13 73.84,161.12 142.9,209.72z"/>
   <path class="fil0" d="M809.41 1622.51c4.92,24.63 -7.13,45.4 -20.72,52.3 -23.66,12.03 -53.76,-10.1 -41.41,-33.74 8.53,-21.9 44.74,-14.12 33.57,13.74 8.56,-10.17 6.87,-23.86 -0.94,-32 -17.97,-18.76 -42.61,-4.57 -46.46,19.46 -5.26,32.8 26.86,51.08 47.68,46.59 23.17,-4.99 40.76,-31.52 28.28,-66.35z"/>
   <path class="fil0" d="M873.09 1489.67c-17.42,18.61 -44.63,52.11 -59.05,92.71 -6.48,18.26 -7.67,38.03 -6.4,58.93 1.4,22.96 6.55,42.98 10.89,65.2 3.08,15.7 2.96,33.15 -13.6,42.04 18.53,-3.37 22.5,-15.47 22.75,-28.06 0.44,-23.18 -2.79,-47.25 -3.86,-70.44 -0.95,-20.99 -1.13,-40.84 1.94,-55.67 9.51,-46.08 27.15,-73.99 48.94,-102.23 -0.54,-0.83 -1.08,-1.64 -1.61,-2.48z"/>
   <path class="fil0" d="M892.32 1518.01c-6.13,11.67 -12.35,26.65 -13.64,41.17 -1.89,21.27 8.41,66.55 19.83,82.96 4.83,6.91 0.64,-12.59 0.73,-13.32 -1.11,-3.32 -2.13,-6.58 -3.1,-9.78 -12.01,-40.23 -11.89,-72.66 -2.42,-99.06l-1.4 -1.97z"/>
   <path class="fil0" d="M914.75 1643.06c-14.03,11.5 -22.91,16.42 -37.46,13.24 9.4,4.51 19.05,13.43 23.54,33.02 -9.05,2.14 -33.36,11.48 -43.95,2.48 1.44,19.78 -5.79,40.54 -17.04,53.74 -11.25,13.19 -25.65,21 -36.79,19.13 1.67,-0.72 2.56,-6.99 4.44,-7.12 22.28,-1.62 29.06,-10.77 34.28,-28.23 4.87,-16.24 0.75,-40.5 -5.41,-69.3 18.34,27.52 37.21,24.44 48.01,18.52 -6.33,-21.42 -17.25,-19.67 -27.61,-42.11 14.34,1.78 28.15,16.72 43.01,5.31 -5.16,-9.08 -11.32,-28.8 -7.7,-37.89 7.58,26 15.64,34.85 22.68,39.21z"/>
   <path class="fil0" d="M866.7 1544.46c-11.29,25.65 -21.65,62.68 -8.66,94.25 2.84,6.91 16.13,22.98 16.23,22.24 -1.12,-3.29 -3.28,-16.7 -5.49,-19.92 -14.76,-21.46 -11.55,-64.87 -0.05,-97.28l-2.03 0.71z"/>
   <path class="fil0" d="M818.44 1554.41c-17.02,15.3 -41.25,35.26 -42.32,62.82 -0.22,6.05 8.26,26.31 8.59,25.78 0.29,-2.81 3.21,-13.42 2.66,-16.52 -3.67,-20.69 13.36,-51.72 32.8,-71.92l-1.73 -0.16z"/>
   <path class="fil0" d="M843.88 1699.19c36.48,-36.93 64.39,36.45 107.94,17.99 -27.93,64.8 -84.3,34.26 -107.94,-17.99zm14.18 5.33c16.69,-12.65 55.73,32.61 81.61,22.8 -37.17,31.37 -70.46,3.55 -81.61,-22.8z"/>
   <path class="fil0" d="M808.03 1375.41c1.01,2.99 -31.43,1 -28.39,30.92 3.04,29.9 -21.3,38.87 -21.3,38.87l47.65 -10.97 29.09 -10.92c-5.23,-10.34 -10.19,-20.83 -14.95,-31.45 -6.78,-9.68 -12.53,-17.71 -12.1,-16.45z"/>
   <path class="fil0" d="M1463.28 1461.67c-0.78,0.77 -2.67,6.27 -3.22,5.1 -24.34,-51.12 -72.5,-15.09 -55.67,16.14 9.15,16.95 37.49,16.8 39.84,-1.29 2.73,-16.11 -22.59,-23.45 -25.86,-2.84 -1.65,-9.27 4.52,-16.6 12.47,-18.34 18.33,-3.98 28.64,13.89 22.15,29.44 -8.86,21.19 -40.08,20.93 -51.88,7.25 -23.92,-27.69 -7.23,-62.01 27.57,-63.3 28.86,-1.09 32.87,29.12 34.6,27.84z"/>
   <path class="fil0" d="M1377.98 1539.14c12.54,-5.85 24.43,5.83 7.24,9.18 -27.2,5.29 -45.79,-21.71 -33.29,-42.41 8.4,-13.94 33.09,-15.29 37.44,4.38 2.74,16.11 -24.61,20.7 -27.88,0.09 -1.65,9.26 3.72,17.78 16.07,19.91 18.5,3.15 30.25,-14.68 23.77,-30.22 -8.86,-21.2 -40.11,-20.92 -51.9,-7.26 -23.89,27.68 -8.59,63.68 28.69,62.96 58.42,-1.15 14.14,-39.42 -0.14,-16.63z"/>
   <path class="fil1" d="M1496.37 1585.78l-0.06 0 0 -0.04c-67.29,0 -131.47,-13.36 -189.96,-37.54 -9.76,-4.04 -19.15,-8.27 -28.11,-12.66l0 -0.01c-47.34,-23.13 -90.43,-53.59 -127.77,-89.85 -11,-10.67 -17.62,-16.81 -23.08,-17.24l-0.02 0c-5.47,-0.43 -12.59,4.49 -25.24,15.81l-27.05 26.07 -0.1 0.1 -1.46 1.35c-1.57,1.43 -3.08,2.83 -4.22,3.94 -7.54,7.4 -10.21,14.46 11.25,35.59l0.02 0 0.04 0.04 0 0.02c14.92,14.69 30.65,28.63 47.12,41.7 16.46,13.08 33.63,25.3 51.45,36.59 91.65,58.07 200.49,91.75 317.19,91.75l0 -0.04 0.07 0 0 0.04c81.03,-0.01 158.28,-16.26 228.62,-45.63 11.56,-4.83 22.84,-9.95 33.79,-15.37 56.91,-28.11 108.63,-65.08 153.33,-109.07 21.48,-21.16 18.81,-28.22 11.25,-35.62l-0.02 0c-1.61,-1.59 -2.86,-2.74 -4.18,-3.94l-1.45 -1.35 -0.12 -0.1 -27.04 -26.07c-12.66,-11.32 -19.77,-16.24 -25.24,-15.81l-0.03 0c-5.45,0.43 -12.06,6.56 -23.03,17.2l0.02 0.02 -0.04 0.03 -0.06 0.04c-12.53,12.15 -25.66,23.63 -39.35,34.38 -13.61,10.68 -27.93,20.75 -42.87,30.12 -76.37,47.85 -166.78,75.55 -263.65,75.55zm-0.06 -14.51l0 -0.02 0.06 0c94.03,0 181.72,-26.83 255.74,-73.22 14.28,-8.97 28.19,-18.74 41.61,-29.28 13.32,-10.46 26.06,-21.59 38.13,-33.31l-0.01 -0.01 0.05 -0.05 0.05 -0.02c13.42,-13.03 21.72,-20.54 32.22,-21.39l0 0c10.5,-0.85 20.42,5.27 36.39,19.54l0.19 0.2 27.14 26.16 0 -0.01 1.46 1.35c1.72,1.59 3.41,3.15 4.52,4.23l-0.02 0.01c13.85,13.6 19.68,25.69 -11.21,56.09 -45.8,45.1 -98.82,82.98 -157.18,111.79 -11.46,5.66 -23.02,10.92 -34.63,15.77 -72.06,30.11 -151.28,46.76 -234.38,46.78l0 0.02 -0.07 0 0 -0.02c-119.67,0 -231.22,-34.51 -325.15,-94.02 -18.26,-11.59 -35.87,-24.11 -52.73,-37.5 -16.85,-13.38 -32.98,-27.67 -48.32,-42.76l-0.01 0 -0.05 -0.03 0 -0.03c-30.9,-30.41 -25.07,-42.49 -11.2,-56.1 1.59,-1.56 3.03,-2.88 4.49,-4.23l1.46 -1.35 0 0.01 27.14 -26.16 0.2 -0.2c15.96,-14.27 25.89,-20.39 36.37,-19.54l0 0c10.51,0.85 18.82,8.36 32.23,21.39 36.24,35.19 78.05,64.73 124,87.19l0.03 0c9.16,4.48 18.26,8.58 27.24,12.31 56.73,23.45 118.97,36.41 184.24,36.41z"/>
   <path class="fil1" d="M1496.37 1836.27l-0.07 0 0 -0.04c-76.85,-0.01 -150.95,-11.54 -220.67,-32.95 -34,-10.43 -67.02,-23.27 -98.88,-38.28 -163.46,-77.05 -294.29,-211.35 -366.28,-376.78l-4.41 -10.1 11.18 0 159.93 0 4.36 0 2.09 3.77 0.01 -0.01c14.2,24.9 30.14,48.63 47.63,71.02 17.55,22.4 36.7,43.55 57.3,63.21 105.81,101.03 249.52,163.17 407.81,163.17l0 -0.03 0.06 0 0 0.03c73.24,-0.01 143.4,-13.34 208.17,-37.69 21.18,-7.96 41.69,-17.05 61.39,-27.16 102.01,-52.33 186.68,-133.48 243.14,-232.6l2.11 -3.71 4.32 0 159.94 0 11.18 0 -4.4 10.1 -0.02 0.07c-16.08,36.92 -35.07,72.28 -56.66,105.74 -21.56,33.42 -45.83,65.09 -72.47,94.68 -136.76,151.9 -335.52,247.51 -556.76,247.52l0 0.04zm-0.07 -14.52l0 -0.02 0.07 0 0 0.02c216.85,0 411.66,-93.74 545.73,-242.64 26.02,-28.89 49.79,-59.95 71.04,-92.85 19.24,-29.83 36.33,-61.11 51.07,-93.6l-144.34 0c-57.82,99.82 -143.75,181.6 -247.06,234.6 -20.46,10.5 -41.49,19.83 -62.96,27.9 -66.32,24.94 -138.26,38.59 -213.42,38.6l0 0.02 -0.06 0 0 -0.02c-162.31,-0.01 -309.65,-63.69 -418.11,-167.27 -21.07,-20.12 -40.68,-41.76 -58.66,-64.74 -17.15,-21.91 -32.79,-45.01 -46.74,-69.09l-144.33 0c71.46,157.56 197.7,285.35 354.59,359.29 31.08,14.64 63.46,27.21 96.9,37.48 68.38,21 141.03,32.32 216.28,32.32z"/>
   <path class="fil0" d="M2184.71 1375.41c-1.02,2.99 31.43,1 28.4,30.92 -3.05,29.9 21.29,38.87 21.29,38.87l-47.66 -10.97 -34.49 -12.96c0,0 33.48,-48.85 32.46,-45.86z"/>
   <path class="fil1" d="M891.35 1445.64l46.99 -28.85 21.76 34.24 -7.96 4.88 -15.82 -24.91 -10.42 6.4 14.73 23.18 -7.91 4.86 -14.74 -23.19 -12.79 7.86 16.4 25.79 -7.91 4.87 -22.33 -35.13zm42.42 32.77l7.26 8.03c-2.58,2.64 -3.95,5.25 -4.16,7.84 -0.21,2.57 0.67,5.22 2.68,7.92 2.1,2.86 4.32,4.58 6.63,5.13 2.32,0.59 4.3,0.29 5.94,-0.9 1.07,-0.75 1.74,-1.69 2.03,-2.84 0.3,-1.14 0.15,-2.67 -0.42,-4.58 -0.39,-1.31 -1.52,-4.16 -3.31,-8.53 -2.32,-5.62 -3.31,-10.03 -2.98,-13.19 0.46,-4.47 2.47,-7.98 6.02,-10.5 2.29,-1.63 4.88,-2.52 7.81,-2.67 2.92,-0.15 5.79,0.61 8.62,2.25 2.8,1.66 5.44,4.18 7.95,7.56 4.1,5.54 5.93,10.57 5.55,15.13 -0.42,4.56 -2.63,8.38 -6.65,11.45l-6.96 -8.6c2.02,-2.02 3.08,-4.03 3.15,-6 0.09,-1.98 -0.79,-4.21 -2.65,-6.71 -1.9,-2.59 -3.94,-4.24 -6.1,-4.92 -1.39,-0.46 -2.66,-0.26 -3.83,0.57 -1.05,0.76 -1.64,1.84 -1.74,3.27 -0.13,1.8 0.88,5.24 3.06,10.32 2.15,5.07 3.43,9.03 3.86,11.9 0.41,2.87 0.1,5.57 -0.96,8.13 -1.07,2.53 -3.01,4.82 -5.83,6.85 -2.57,1.82 -5.5,2.85 -8.77,3.05 -3.28,0.18 -6.43,-0.6 -9.4,-2.39 -2.99,-1.78 -5.9,-4.58 -8.73,-8.41 -4.12,-5.58 -5.97,-10.79 -5.56,-15.64 0.4,-4.86 2.91,-9.38 7.49,-13.52zm27.7 64.41l35.26 -29.08 -10.57 -12.37 7.2 -5.92 28.29 33.15 -7.18 5.92 -10.54 -12.36 -35.26 29.09 -7.2 -8.43zm64.69 -9.47l14.21 14.47c3.21,3.25 5.39,5.97 6.56,8.17 1.57,2.94 2.28,6.08 2.13,9.4 -0.14,3.29 -1.07,6.6 -2.78,9.86 -1.71,3.26 -4.43,6.67 -8.18,10.22 -3.26,3.11 -6.49,5.4 -9.65,6.85 -3.86,1.77 -7.58,2.61 -11.15,2.47 -2.71,-0.07 -5.59,-0.92 -8.65,-2.53 -2.27,-1.19 -4.85,-3.26 -7.73,-6.2l-14.6 -14.87 39.84 -37.84zm1.03 14.31l-26.39 25.06 5.79 5.9c2.17,2.21 3.86,3.69 5.09,4.44 1.58,0.96 3.18,1.5 4.79,1.62 1.61,0.1 3.57,-0.44 5.88,-1.59 2.3,-1.17 5.02,-3.21 8.09,-6.13 3.09,-2.93 5.19,-5.44 6.31,-7.53 1.12,-2.11 1.68,-4.08 1.66,-5.91 -0.03,-1.85 -0.6,-3.67 -1.73,-5.45 -0.83,-1.34 -2.84,-3.62 -6,-6.86l-3.49 -3.55zm1.34 64.3l7.1 -7.76 7.89 6.99 -7.11 7.76 -7.88 -6.99zm68.95 -13.47l17.44 13.41c3.47,2.65 5.94,4.77 7.41,6.36 1.46,1.59 2.52,3.34 3.14,5.28 0.62,1.93 0.79,3.95 0.49,6.14 -0.28,2.17 -1.17,4.2 -2.64,6.04 -1.6,2.03 -3.61,3.45 -6.05,4.28 -2.44,0.82 -4.93,0.94 -7.48,0.34 2.04,2.79 3.07,5.67 3.03,8.58 -0.02,2.96 -1.02,5.64 -3,8.13 -1.54,1.94 -3.5,3.5 -5.9,4.63 -2.39,1.13 -4.83,1.64 -7.29,1.51 -2.48,-0.11 -4.99,-0.95 -7.55,-2.5 -1.57,-0.98 -5.19,-3.59 -10.85,-7.88l-14.87 -11.39 34.12 -42.93zm3.13 13.92l-7.88 9.92 5.78 4.43c3.44,2.65 5.61,4.24 6.53,4.78 1.63,0.99 3.23,1.39 4.76,1.19 1.54,-0.18 2.85,-0.97 3.97,-2.36 1.05,-1.33 1.54,-2.69 1.46,-4.09 -0.1,-1.4 -0.81,-2.74 -2.13,-4.05 -0.79,-0.77 -3.27,-2.75 -7.41,-5.93l-5.08 -3.89zm-13.55 17.07l-9.12 11.47 8.15 6.26c3.18,2.44 5.26,3.91 6.26,4.38 1.5,0.78 3,1.02 4.56,0.74 1.54,-0.26 2.92,-1.16 4.14,-2.68 1.02,-1.29 1.57,-2.63 1.65,-4.02 0.07,-1.38 -0.33,-2.74 -1.19,-4.08 -0.89,-1.32 -3.33,-3.54 -7.34,-6.61l-7.11 -5.46zm36.15 53.53l12.71 -19.22 0.47 -37.31 10.98 7.02 -0.99 25.06 22.65 -11.24 10.79 6.9 -34.58 15.61 -12.66 19.16 -9.37 -5.98zm84.25 23.54l4.1 -8.26 21.67 10.4 -9.68 19.5c-3.1,0.98 -7.03,1.29 -11.78,0.9 -4.75,-0.4 -9.18,-1.58 -13.29,-3.53 -5.19,-2.5 -9.2,-5.75 -12.02,-9.75 -2.79,-4.02 -4.18,-8.48 -4.15,-13.41 0.05,-4.92 1.22,-9.75 3.55,-14.44 2.53,-5.09 5.86,-9.11 10.01,-12.03 4.13,-2.92 8.81,-4.43 14.07,-4.53 3.99,-0.09 8.37,1 13.11,3.27 6.19,2.97 10.39,6.56 12.6,10.78 2.22,4.2 2.7,8.8 1.47,13.78l-10.89 -2.94c0.48,-2.75 0.1,-5.29 -1.15,-7.61 -1.25,-2.32 -3.31,-4.16 -6.21,-5.55 -4.39,-2.11 -8.57,-2.41 -12.51,-0.93 -3.97,1.51 -7.27,4.94 -9.94,10.34 -2.88,5.8 -3.73,10.79 -2.55,14.96 1.19,4.16 3.91,7.25 8.17,9.3 2.11,1.01 4.43,1.6 6.94,1.81 2.52,0.21 4.83,0.09 6.91,-0.33l3.09 -6.22 -11.52 -5.51zm32.91 7.17c2.02,-5.19 4.5,-9.24 7.46,-12.16 2.18,-2.13 4.7,-3.86 7.53,-5.15 2.84,-1.28 5.66,-1.97 8.48,-2.04 3.76,-0.14 7.72,0.6 11.94,2.2 7.62,2.86 12.81,7.48 15.57,13.86 2.75,6.37 2.51,13.69 -0.71,21.97 -3.22,8.21 -7.98,13.77 -14.34,16.69 -6.34,2.92 -13.33,2.94 -20.92,0.08 -7.7,-2.9 -12.91,-7.52 -15.65,-13.83 -2.74,-6.32 -2.53,-13.54 0.64,-21.62zm10.9 3.71c-2.25,5.75 -2.6,10.64 -1.07,14.62 1.56,3.99 4.41,6.76 8.58,8.34 4.15,1.57 8.15,1.39 11.96,-0.56 3.82,-1.94 6.89,-5.84 9.19,-11.74 2.28,-5.83 2.67,-10.66 1.21,-14.51 -1.49,-3.87 -4.39,-6.59 -8.68,-8.21 -4.31,-1.63 -8.35,-1.48 -12.14,0.42 -3.74,1.92 -6.76,5.78 -9.05,11.64zm54.5 46.43l-2.75 -57.78 11.62 3.48 1.4 42.58 24.96 -34.64 11.36 3.41 -35.17 46.37 -11.42 -3.42zm39.05 11.25l9.62 -53.63 40.46 7.01 -1.64 9.08 -29.42 -5.1 -2.13 11.89 27.38 4.74 -1.63 9.03 -27.37 -4.73 -2.64 14.57 30.49 5.29 -1.61 9.04 -41.51 -7.19zm54.05 8.75l5.78 -54.16 23.43 2.42c5.9,0.6 10.1,1.54 12.68,2.78 2.56,1.26 4.52,3.2 5.86,5.86 1.34,2.66 1.82,5.57 1.48,8.77 -0.44,4.07 -2.01,7.31 -4.72,9.7 -2.7,2.4 -6.53,3.69 -11.44,3.88 2.26,1.63 4.09,3.35 5.48,5.16 1.38,1.81 3.18,4.97 5.39,9.45l5.6 11.27 -13.31 -1.38 -6.77 -12.62c-2.41,-4.51 -4.09,-7.36 -5.02,-8.57 -0.94,-1.2 -1.97,-2.06 -3.1,-2.6 -1.14,-0.53 -2.98,-0.92 -5.53,-1.19l-2.26 -0.22 -2.41 22.6 -11.14 -1.15zm14.47 -30.11l8.22 0.86c5.34,0.54 8.71,0.67 10.08,0.36 1.37,-0.3 2.5,-0.96 3.36,-1.97 0.87,-1 1.4,-2.31 1.56,-3.94 0.21,-1.82 -0.14,-3.34 -1.01,-4.56 -0.86,-1.23 -2.18,-2.08 -3.96,-2.57 -0.89,-0.21 -3.59,-0.55 -8.11,-1.02l-8.67 -0.88 -1.47 13.72zm44.63 35.81l1.93 -54.43 10.88 0.39 21.38 37.12 1.29 -36.35 10.39 0.35 -1.93 54.43 -11.23 -0.39 -21.05 -36.26 -1.26 35.5 -10.4 -0.36zm58.74 0.96l-3.87 -54.34 16.7 -1.14 12.67 36.36 7.26 -37.74 16.75 -1.14 3.86 54.33 -10.37 0.7 -3.02 -42.76 -7.94 43.52 -10.75 0.74 -13.98 -42.02 3.05 42.77 -10.36 0.72zm67.65 -5.16l-9.61 -53.62 40.44 -7.02 1.63 9.07 -29.43 5.12 2.14 11.87 27.39 -4.75 1.61 9.04 -27.38 4.74 2.61 14.61 30.48 -5.28 1.63 9.02 -41.51 7.2zm53.96 -8.1l-14.34 -52.61 10.52 -2.77 31.48 29.36 -9.57 -35.12 10.04 -2.65 14.34 52.61 -10.85 2.86 -30.93 -28.64 9.36 34.31 -10.05 2.65zm69.01 -18.78l-14.97 -42.79 -15.54 5.26 -3.06 -8.7 41.64 -14.1 3.06 8.73 -15.52 5.23 14.98 42.78 -10.59 3.59zm42.41 -43.58c-2.38,-5.03 -3.62,-9.6 -3.71,-13.71 -0.05,-3.03 0.44,-5.99 1.46,-8.91 1.04,-2.89 2.5,-5.36 4.39,-7.41 2.5,-2.75 5.8,-5.04 9.9,-6.91 7.4,-3.39 14.37,-3.85 20.96,-1.37 6.58,2.46 11.78,7.72 15.6,15.75 3.77,7.99 4.52,15.21 2.26,21.74 -2.28,6.52 -7.11,11.47 -14.47,14.83 -7.47,3.44 -14.47,3.91 -21.01,1.46 -6.53,-2.45 -11.65,-7.61 -15.38,-15.47zm10.28 -5.12c2.65,5.6 5.99,9.23 9.98,10.9 3.99,1.68 8.01,1.6 12.05,-0.25 4.04,-1.85 6.68,-4.81 7.92,-8.86 1.22,-4.05 0.49,-8.92 -2.23,-14.65 -2.69,-5.66 -5.95,-9.3 -9.79,-10.93 -3.84,-1.63 -7.86,-1.47 -12.04,0.43 -4.17,1.91 -6.87,4.88 -8.1,8.86 -1.21,3.98 -0.48,8.82 2.21,14.5zm60.28 2.22l-27.69 -47.15 32.9 -18.67 4.69 7.99 -23.21 13.16 6.55 11.15 20.03 -11.36 4.7 7.98 -20.03 11.37 11.77 20.03 -9.71 5.5zm61.64 -36.97l-31.79 -44.6 9.18 -6.3 14.1 19.8 4.4 -32.55 12.32 -8.47 -4.7 29.13 37.42 14.83 -11.86 8.15 -27.4 -12.34 -2.12 12.57 9.6 13.48 -9.15 6.3zm47.75 -33.77l-35.62 -41.7 31.46 -25.96 6.03 7.06 -22.89 18.88 7.88 9.25 21.33 -17.57 5.99 7.02 -21.31 17.57 9.69 11.36 23.7 -19.56 6 7.04 -32.26 26.61zm41.96 -34.67l-39.86 -37.83 16.37 -16.66c4.1,-4.18 7.45,-6.88 10.02,-8.1 2.59,-1.22 5.36,-1.53 8.3,-0.94 2.96,0.61 5.61,2.02 7.97,4.27 3,2.83 4.61,6.06 4.87,9.63 0.25,3.55 -1.07,7.31 -3.95,11.23 2.71,-0.75 5.21,-1.11 7.51,-1.06 2.32,0.03 5.93,0.58 10.9,1.65l12.48 2.58 -9.3 9.47 -14.29 -2.53c-5.1,-0.91 -8.41,-1.36 -9.95,-1.39 -1.54,-0.01 -2.87,0.26 -4.01,0.81 -1.12,0.56 -2.56,1.74 -4.36,3.56l-1.57 1.6 16.64 15.79 -7.77 7.92zm-15.22 -29.76l5.73 -5.84c3.74,-3.79 5.9,-6.32 6.51,-7.57 0.6,-1.24 0.76,-2.52 0.49,-3.83 -0.28,-1.28 -1.01,-2.48 -2.19,-3.64 -1.35,-1.27 -2.79,-1.93 -4.3,-2.02 -1.52,-0.08 -3.02,0.43 -4.49,1.5 -0.72,0.56 -2.65,2.44 -5.81,5.64l-6.05 6.18 10.11 9.58zm88.23 -49.18l-7.84 9.17 -12.75 -4.3 -14.23 16.66 6.7 11.4 -7.63 8.93 -28.55 -51.25 7.59 -8.9 56.71 18.29zm-30.03 1.67l-20.67 -7.24 10.95 18.62 9.72 -11.38zm35.88 -9.41l-44.46 -31.75 6.57 -8.89 36.91 26.36 16.35 -22.12 7.55 5.4 -22.92 31zm55.46 -81.19l-6.45 10.17 -13.24 -2.54 -11.74 18.47 8.26 10.36 -6.29 9.89 -35.55 -46.84 6.27 -9.87 58.74 10.36zm-29.49 5.76l-21.5 -4.33 13.49 16.94 8.01 -12.61z"/>
   <path class="fil1" d="M1203.99 1506.57l37.35 22.45c8.11,4.88 9.96,14.22 5.52,28.04l-1.41 3.72c-5.85,9.75 -14.66,13.97 -26.42,12.71l5.05 24.01 -0.68 1.13 -17.04 -10.24 -8.08 -42.42 0.31 -0.51 20.79 12.49c4.81,2.9 9.64,1.51 14.51,-4.12 2.96,-4.94 2.17,-9.42 -2.41,-13.46l-24.16 -14.53 -27.18 45.27 -1.79 0.45 -9.85 -5.93 -0.43 -1.77 34.13 -56.83 1.79 -0.46zm95.73 125.74l-38.46 -14.77c-3.83,-1.46 -6.47,-3.9 -7.92,-7.29 -1.45,-3.38 -1.46,-6.92 -0.05,-10.6l19.94 -51.95 12.93 4.97 -19.93 51.94 38.45 14.76 19.95 -51.94 12.82 4.92 -19.95 51.95c-1.37,3.61 -3.7,6.22 -6.94,7.85 -3.25,1.63 -6.87,1.68 -10.84,0.16zm116.78 -27.27l-27.08 -5.26 -10.61 54.62 -13.48 -2.61 10.61 -54.63 -26.96 -5.24 2.64 -13.59 67.53 13.12 -2.65 13.59zm19.92 -9.9l43.52 2.28c9.46,0.5 15.46,7.88 18.04,22.17l0.5 3.94c-0.59,11.34 -6.37,19.22 -17.35,23.62l15.73 18.85 -0.07 1.29 -19.88 -1.04 -27.04 -33.66 0.04 -0.58 24.24 1.27c5.59,0.29 9.22,-3.2 10.86,-10.45 0.3,-5.77 -2.51,-9.36 -8.45,-10.77l-28.14 -1.47 -2.76 52.72 -1.37 1.24 -11.47 -0.61 -1.22 -1.36 3.45 -66.21 1.37 -1.23zm141.86 66.73l-41.15 3.6c-7.32,0.65 -11.98,-2.03 -14.02,-8.03 -0.43,-1.39 -0.73,-2.91 -0.87,-4.57l-3.65 -41.63c-0.31,-3.6 0.7,-6.93 3.06,-9.94 2.35,-3.03 5.49,-4.7 9.42,-5.05l41.16 -3.6c3.84,-0.33 7.22,0.74 10.09,3.23 2.86,2.47 4.47,5.6 4.8,9.37l3.64 41.63c0.81,9.2 -3.36,14.2 -12.48,14.99zm-1.2 -13.79l-3.65 -41.63 -41.16 3.6 3.65 41.63 41.16 -3.6zm107.98 -12.4l-8.3 2.39 -57.07 -30.68 12.46 43.47 -13.2 3.79 -19.15 -66.81 8.2 -2.33 57.18 30.63 -12.46 -43.46 13.19 -3.79 19.15 66.79zm39.77 -16.05l-12.82 4.91 -24.89 -64.86 12.81 -4.92 24.9 64.87zm96.48 -50.18l-16.47 9.12 -31.96 -11.52 -7.18 33.22 -16.57 9.18 12.08 -46.35 -45.75 -14.43 16.54 -9.18 31.99 11.51 7.17 -33.2 16.46 -9.13 -11.91 46.39 45.6 14.39z"/>
   <path class="fil1" d="M1497.12 519.25c85.94,0 163.74,34.83 220.05,91.12 56.37,56.35 91.23,134.17 91.23,220.04 0,86 -34.83,163.84 -91.14,220.15 -56.31,56.31 -134.14,91.14 -220.14,91.14 -85.93,-0.07 -163.74,-34.9 -220.04,-91.23 -56.29,-56.31 -91.12,-134.11 -91.12,-220.06 0,-85.92 34.84,-163.73 91.14,-220.03 56.3,-56.3 134.1,-91.13 220.02,-91.13zm197.52 113.78c-50.52,-50.49 -120.34,-81.73 -197.52,-81.73 -77.07,0 -146.86,31.24 -197.36,81.75 -50.51,50.5 -81.75,120.29 -81.75,197.36 0,77.18 31.23,147.01 81.73,197.53 50.5,50.53 120.31,81.79 197.38,81.79 77.15,-0.07 146.96,-31.31 197.48,-81.83 50.52,-50.52 81.75,-120.34 81.75,-197.49 0,-77.12 -31.22,-146.91 -81.71,-197.38z"/>
   <path class="fil0" d="M1208.65 793.98l183.8 -1.15c7.82,-5.68 9.03,-11.03 6.79,-19.18l-128.74 -123.15 -7.08 6.49 124.75 122.92 -181.4 3.94 1.88 10.13zm577.67 64.36l-184.41 0.53c-7.83,5.67 -9.03,11.02 -6.79,19.18l135.62 126.27 7.08 -6.47 -131.64 -126.08 182.02 -3.28 -1.88 -10.15zm-104.33 198.3l-134.1 -133.39c-9.53,-1.52 -14.19,1.41 -18.36,8.77l3.3 188.12 9.6 0.45 -0.65 -185.2 134.39 129.74 5.82 -8.49zm39.07 -408.73l-126.48 127.22c-1.53,9.56 1.4,14.21 8.77,18.37l181.22 -3.96 0.43 -9.57 -178.28 1.29 122.84 -127.52 -8.5 -5.83zm-404.13 -46.82l129.55 127.36c9.54,1.51 14.19,-1.42 18.34,-8.77l-4.49 -180.14 -9.04 1.61 1.29 175.16 -127.51 -122.84 -8.14 7.62zm213.41 -61.04l-0.15 181.08c5.68,7.81 11.03,9.03 19.17,6.76l125.81 -132.38 -7.12 -5.42 -124.96 126.76 -3.29 -177.02 -9.46 0.22zm-260.82 467.5l130.26 -130.98c1.51,-9.56 -1.41,-14.21 -8.77,-18.37l-181.24 3.94 -0.42 9.59 178.28 -1.28 -126.61 131.27 8.5 5.83zm193.91 111.2l0.73 -188.18c-5.67,-7.81 -11.03,-9.03 -19.18,-6.77l-128.78 134.35 6.48 7.09 128.58 -130.39 2.04 185.79 10.13 -1.89z"/>
   <g>
    <path class="fil0" d="M1458.62 1123.93l0 -273.24 0 273.24zm76.23 -277.59l0 277.59 0 -277.59zm-39.25 -61.18c23.84,0 43.18,19.34 43.18,43.2 0,6.41 -1.43,12.51 -3.93,17.98 -6.81,14.89 -21.81,25.21 -39.25,25.21 -15.69,0 -29.43,-8.35 -36.98,-20.86 -3.95,-6.51 -6.21,-14.18 -6.21,-22.33 0,-23.86 19.33,-43.2 43.19,-43.2z"/>
   </g>
   <path class="fil1" d="M1442.6 1123.93l0 -269.29c-1.66,-3.32 -3,-6.8 -4.01,-10.4 -1.43,-5.18 -2.2,-10.51 -2.2,-15.88 0,-16.31 6.62,-31.1 17.34,-41.82 10.7,-10.77 25.52,-17.41 41.87,-17.41 16.35,0 31.16,6.64 41.86,17.35 10.71,10.78 17.34,25.58 17.34,41.88 0,4.28 -0.48,8.49 -1.37,12.57 -0.63,2.86 -1.49,5.71 -2.56,8.48l0 274.52 -32.05 0 0 -241.11c-7.14,3.06 -14.99,4.76 -23.22,4.76 -7.33,0 -14.4,-1.38 -20.96,-3.89l0 240.24 -32.04 0zm72.24 -314.82c-4.95,-4.88 -11.74,-7.93 -19.24,-7.93 -7.5,0 -14.3,3.05 -19.21,7.96 -4.93,4.88 -7.96,11.7 -7.96,19.22 0,2.67 0.33,5.15 0.95,7.36 0.67,2.43 1.65,4.68 2.88,6.71 2.48,4 5.91,7.34 9.96,9.62 3.85,2.23 8.42,3.48 13.38,3.48 5.43,0 10.46,-1.56 14.65,-4.25 4.38,-2.82 7.91,-6.85 10.07,-11.58 0.76,-1.65 1.38,-3.51 1.82,-5.53 0.4,-1.82 0.62,-3.78 0.62,-5.81 0,-7.52 -3.03,-14.34 -7.92,-19.25z"/>
  </g>
  <path class="fil1" d="M3495.79 1040.78l-130.36 0 -182.1 -137.09 0 137.09 -78.61 0 0 -394.44 78.61 0 0 137.08 182.1 -137.08 130.36 0 -283.56 197.54 283.56 196.9zm369.57 0l-312.45 0 0 -394.44 312.45 0 0 78.61 -233.82 0 0 79.29 233.82 0 0 78.63 -233.82 0 0 79.3 233.82 0 0 78.61zm81.31 -391.07l247.29 0c53.76,0 90.04,40.08 108.86,120.27l4.03 22.18c0,64.51 -30.47,110.88 -91.4,139.09l94.75 102.13 0 7.4 -112.87 0 -163.29 -182.77 0 -3.38 137.74 0c31.81,0 51.29,-20.82 58.47,-62.47 0,-32.71 -17.03,-52.19 -51.07,-58.48l-159.92 0 0 299.7 -7.4 7.4 -65.19 0 -7.38 -7.4 0 -376.3 7.38 -7.37zm813.1 391.07l-77.96 0 0 -157.91 -234.52 0 0 157.91 -77.94 0 0 -315.83c0,-21.94 7.06,-40.55 21.16,-55.76 14.12,-15.24 33.05,-22.85 56.78,-22.85l234.52 0c18.81,0 36.52,8.39 53.09,25.2 16.57,16.79 24.87,34.6 24.87,53.41l0 315.83zm-77.96 -236.54l0 -79.29 -234.52 0 0 79.29 234.52 0zm469.71 236.54l-312.46 0 0 -394.44 78.61 0 0 315.83 233.85 0 0 78.61zm441.49 0l-77.96 0 0 -157.91 -234.53 0 0 157.91 -77.93 0 0 -315.83c0,-21.94 7.06,-40.55 21.16,-55.76 14.12,-15.24 33.04,-22.85 56.77,-22.85l234.53 0c18.8,0 36.51,8.39 53.09,25.2 16.57,16.79 24.87,34.6 24.87,53.41l0 315.83zm-77.96 -236.54l0 -79.29 -234.53 0 0 79.29 234.53 0zm621.57 236.54l-279.56 0 0 -78.61 279.56 0 0 -79.3 -207.65 0c-19.72,0 -36.29,-5.16 -49.74,-15.45 -13.41,-10.31 -22.17,-24.19 -26.2,-41.66 -1.79,-6.72 -2.67,-13.9 -2.67,-21.52l0 -79.29c0,-20.6 7.38,-38.85 22.15,-54.76 14.8,-15.9 33.61,-23.85 56.46,-23.85l258.69 0 0 78.61 -258.69 0 0 79.29 207.65 0c22.39,0 40.98,7.62 55.75,22.85 14.8,15.24 22.18,33.83 22.18,55.78l0 79.3c0,22.39 -6.72,40.76 -20.16,55.1 -14.32,15.67 -33.58,23.51 -57.77,23.51zm491.17 -315.83l-156.56 0 0 315.83 -77.94 0 0 -315.83 -155.89 0 0 -78.61 390.39 0 0 78.61zm441.49 315.83l-77.95 0 0 -157.91 -234.53 0 0 157.91 -77.93 0 0 -315.83c0,-21.94 7.06,-40.55 21.15,-55.76 14.13,-15.24 33.05,-22.85 56.78,-22.85l234.53 0c18.8,0 36.51,8.39 53.08,25.2 16.57,16.79 24.87,34.6 24.87,53.41l0 315.83zm-77.95 -236.54l0 -79.29 -234.53 0 0 79.29 234.53 0zm519.42 -79.29l-156.57 0 0 315.83 -77.94 0 0 -315.83 -155.88 0 0 -78.61 390.39 0 0 78.61zm373.6 315.83l-312.46 0 0 -394.44 312.46 0 0 78.61 -233.83 0 0 79.29 233.83 0 0 78.63 -233.83 0 0 79.3 233.83 0 0 78.61zm274.14 -391.07l247.29 0c53.77,0 90.04,40.08 108.87,120.27l4.03 22.18c0,64.51 -30.48,110.88 -91.4,139.09l94.74 102.13 0 7.4 -112.87 0 -163.29 -182.77 0 -3.38 137.74 0c31.81,0 51.3,-20.82 58.48,-62.47 0,-32.71 -17.03,-52.19 -51.08,-58.48l-159.91 0 0 299.7 -7.4 7.4 -65.2 0 -7.37 -7.4 0 -376.3 7.37 -7.37zm745.21 391.07l-233.82 0c-23.31,0 -42.24,-7.5 -56.8,-22.52 -14.56,-14.99 -21.83,-33.7 -21.83,-56.09l0 -315.83 78.63 0 0 315.83 233.82 0 0 -315.83 77.96 0 0 315.83c0,21.93 -6.94,40.54 -20.84,55.75 -13.88,15.24 -32.93,22.86 -57.12,22.86zm529.52 -315.83l-156.57 0 0 315.83 -77.93 0 0 -315.83 -155.89 0 0 -78.61 390.39 0 0 78.61zm67.18 -75.24l247.29 0c53.77,0 90.04,40.08 108.87,120.27l4.02 22.18c0,64.51 -30.47,110.88 -91.39,139.09l94.74 102.13 0 7.4 -112.87 0 -163.29 -182.77 0 -3.38 137.74 0c31.81,0 51.29,-20.82 58.48,-62.47 0,-32.71 -17.04,-52.19 -51.08,-58.48l-159.91 0 0 299.7 -7.4 7.4 -65.2 0 -7.37 -7.4 0 -376.3 7.37 -7.37zm735.82 391.07l-234.52 0c-41.66,0 -66.75,-17.47 -75.27,-52.41 -1.79,-8.08 -2.69,-16.81 -2.69,-26.2l0 -237.22c0,-20.6 7.4,-38.85 22.18,-54.76 14.8,-15.9 33.38,-23.85 55.78,-23.85l234.52 0c21.94,0 40.42,7.74 55.44,23.19 15,15.43 22.5,33.92 22.5,55.42l0 237.22c0,52.4 -25.99,78.61 -77.94,78.61zm0 -78.61l0 -237.22 -234.52 0 0 237.22 234.52 0zm530.85 78.61l-49.06 0 -263.4 -256.68 0 256.68 -77.95 0 0 -394.44 48.38 0 264.07 256.7 0 -256.7 77.96 0 0 394.44zm152.54 0l-77.95 0 0 -394.44 77.95 0 0 394.44zm530.17 0l-106.85 0 -127 -145.14 -126.99 145.14 -107.53 0 187.48 -196.9 -187.48 -197.54 107.53 0 126.99 145.14 127 -145.14 106.85 0 -186.8 197.54 186.8 196.9z"/>
  <g>
   <path class="fil2" d="M3374.02 1523.34c0,16.96 -7.8,30.56 -23.37,40.77 -15.57,10.2 -37.03,15.31 -64.37,15.31 -33.24,0 -61.12,-11.43 -83.61,-34.27 -22.5,-22.84 -33.75,-50.71 -33.75,-83.59 0,-33.58 11.25,-61.09 33.75,-82.56 22.49,-21.46 50.37,-32.19 83.61,-32.19 27.34,0 48.8,5.11 64.37,15.23 15.57,10.21 23.37,23.72 23.37,40.59 0,15.83 -4.84,28.03 -14.54,36.69 -9.69,8.56 -22.85,12.89 -39.47,12.89 -17.31,0 -30.62,-3.98 -39.97,-11.94 -9.35,-7.96 -14.03,-19.9 -14.03,-35.83 0,-7.96 1.91,-15.06 5.73,-21.28 0.34,-0.7 0.68,-1.39 1.03,-2.08 -13.85,4.5 -24.06,9.16 -30.64,14.01 -20.42,15.24 -30.63,37.39 -30.63,66.56 0,35.47 13.85,60.75 41.54,75.72 4.5,2.42 11.07,4.84 19.73,7.26 -0.35,-0.34 -0.52,-0.87 -0.52,-1.56 -4.16,-6.92 -6.24,-14.19 -6.24,-21.81 0,-31.84 18.01,-47.76 54,-47.76 16.62,0 29.78,4.32 39.47,12.98 9.7,8.64 14.54,20.95 14.54,36.86zm-37.91 -118.65c0,-5.1 -1.99,-9.69 -5.96,-13.57 -3.99,-3.9 -8.92,-5.9 -14.81,-5.9 -3.46,2.08 -6.31,4.94 -8.56,8.67 -2.25,3.81 -3.37,7.18 -3.37,10.29 0,5.81 1.55,9.95 4.66,12.54 3.12,2.51 6.75,3.82 10.91,3.82 11.43,0 17.13,-5.28 17.13,-15.85zm0 116.57c0,-4.84 -1.48,-8.73 -4.41,-11.68 -2.94,-2.94 -7.19,-4.4 -12.72,-4.4 -3.82,0 -7.36,1.37 -10.64,4.14 -3.3,2.77 -4.93,6.92 -4.93,12.46 0,3.47 0.94,6.84 2.85,10.14 1.91,3.28 4.93,6.3 9.08,9.07 5.55,0 10.39,-2.08 14.53,-6.22 4.16,-4.16 6.24,-8.66 6.24,-13.51zm441.85 -13.49c0,21.64 -6.39,39.03 -19.21,52.09 -12.8,13.06 -28.37,19.56 -46.73,19.56 -9.35,0 -18.16,-0.86 -26.48,-2.51 -1.37,0 -3.11,-0.52 -5.19,-1.57l0 -41.09c4.25,1.98 7.96,3.37 11.26,4.06 3.37,0.79 7.27,1.13 11.86,1.13 10.46,0 18.33,-3.21 23.52,-9.69 4.25,-5.1 6.33,-12.29 6.33,-21.46 0,-12.63 -3.39,-21.04 -10.13,-25.26 -6.75,-4.25 -16.53,-6.41 -29.33,-6.41l-14.02 0c0,37.55 -8.13,65.08 -24.49,82.64 -14.28,15.14 -34.87,22.75 -61.97,22.75 -12.89,0 -23.62,-1.37 -32.36,-4.07 -11.78,-3.71 -21.55,-10.47 -29.17,-20.33 -4.84,8.32 -11.68,14.02 -20.5,17.13 -8.83,3.11 -18.27,4.68 -28.3,4.68 -16.96,0 -31.33,-5.19 -43.1,-15.57 -15.23,-13.51 -22.84,-32.89 -22.84,-58.16 0,-20.07 6.75,-36.34 20.33,-48.8 13.59,-12.46 32.2,-18.7 55.9,-18.7l16.71 0c0,-24.92 8.05,-46.3 24.05,-64.12 16.11,-17.82 35.84,-26.74 59.28,-26.74 24.85,0 45.09,8.21 60.83,24.66 15.68,16.45 23.55,38.51 23.55,66.2l19.72 0c26.66,0 46.73,5.27 60.24,15.76 13.49,10.46 20.24,28.37 20.24,53.82zm-144.85 -69.58c0,-14.71 -3.9,-27.09 -11.77,-37.21 -7.79,-10.12 -18,-15.22 -30.56,-15.22 -10.12,0 -19.02,4.76 -26.65,14.17 -7.7,9.44 -11.5,22.17 -11.5,38.26l80.48 0zm-124.1 69.05c-0.68,-2.42 -1.22,-6.39 -1.56,-11.93 -0.34,-5.55 -0.52,-9.69 -0.52,-12.47l0 -6.22 -7.26 0c-12.46,0 -21.3,1.37 -26.49,4.15 -8.64,4.85 -12.97,13.67 -12.97,26.47 0,12.12 2.42,20.95 7.27,26.48 4.84,5.55 10.72,8.32 17.65,8.32 6.92,0 12.8,-2.42 17.65,-7.27 4.84,-4.85 7.27,-11.43 7.27,-19.73 0,-1.73 -0.35,-4.33 -1.04,-7.8zm124.1 -30.62l-82.04 0c0,24.57 4.16,42.39 12.37,53.48 6.93,9 16.19,13.49 27.87,13.49 14.8,0 25.44,-5.37 32.02,-16.09 6.48,-10.74 9.78,-27.7 9.78,-50.88zm429.39 7.78c0,25.62 -6.75,47.07 -20.24,64.38 -14.89,19.38 -35.66,29.07 -62.32,29.07 -19.73,0 -37.03,-8.9 -51.91,-26.74 -14.89,-17.82 -22.33,-40.06 -22.33,-66.71 0,-17.99 3.89,-35.3 11.69,-51.92 7.78,-16.61 18.59,-31.5 32.44,-44.66 -4.5,-1.38 -11.08,-2.06 -19.73,-2.06 -16.61,1.72 -31.58,10.46 -44.92,26.2 -13.32,15.76 -19.98,34.01 -19.98,54.79 0,16.62 3.28,32.53 9.86,47.76 8.32,19.38 20.78,34.09 37.4,44.15l-34.8 23.27c-16.97,-14.2 -30.2,-31.33 -39.72,-51.32 -9.52,-19.99 -14.28,-41.79 -14.28,-65.25 0,-28.29 10.04,-54.17 30.11,-77.63 22.85,-26.91 52.28,-40.4 88.28,-40.4 36.69,0 66.8,15.91 90.34,47.76 20.07,27.36 30.11,57.12 30.11,89.31zm-44.65 -0.52c0,-16.27 -2.33,-30.55 -7.09,-42.84 -4.68,-12.29 -13.17,-24.14 -25.37,-35.55 -10.47,8.98 -19.47,20.93 -27.17,35.81 -7.7,14.9 -11.5,29.25 -11.5,43.1 0,15.57 3.37,28.39 10.21,38.43 6.75,10.03 14.71,15.05 23.8,15.05 12.89,0 22.33,-4.93 28.2,-14.8 5.98,-9.86 8.92,-22.92 8.92,-39.2zm349.95 31.25c0,28.37 -13.49,46.81 -40.49,55.45 -12.8,4.16 -35.49,6.24 -68.02,6.24l-76.85 0c-8.3,0 -15.4,2.25 -21.28,6.67 -5.89,4.5 -8.83,10.12 -8.83,16.96 0,7.53 3.02,13.58 9.09,18.25 6.05,4.59 13.75,6.93 23.1,6.93l171.87 0 0 38.43 -177.06 0c-21.12,0 -38.34,-5.54 -51.66,-16.62 -13.34,-11.09 -19.99,-26.83 -19.99,-47.25 0,-17.32 6.48,-31.94 19.47,-43.87 12.98,-11.94 30.88,-17.92 53.74,-17.92l81.51 0c24.57,0 41.54,-2.6 50.89,-7.7 6.23,-3.46 9.86,-9.27 10.91,-17.48 1.03,-9.61 -2,-17.05 -9.09,-22.41 -7.1,-5.28 -16.88,-7.97 -29.34,-7.97l-15.59 0 0 -38.41c19.39,0 32.98,-1.91 40.77,-5.81 7.78,-3.8 11.68,-10.81 11.68,-20.93 0,-11.86 -6.84,-20.87 -20.52,-26.92 -13.66,-6.15 -32.61,-9.17 -56.84,-9.17 -20.08,0 -36.44,2.16 -49.07,6.58 -12.63,4.4 -22.92,11.07 -30.9,19.9 8.66,-2.42 16.96,-3.64 24.94,-3.64 19.73,0 35.55,5.81 47.5,17.39 11.94,11.6 17.91,26.74 17.91,45.44 0,19.38 -7.79,34.44 -23.36,45.18 -13.85,9.33 -30.81,14 -50.88,14 -22.84,0 -40.85,-6.39 -54,-19.21 -13.16,-12.8 -19.73,-30.62 -19.73,-53.46 0,-31.16 12.46,-57.13 37.38,-77.89 26.31,-21.81 60.4,-32.72 102.29,-32.72 36,0 64.82,7.01 86.44,21.04 21.63,14.11 32.46,32.18 32.46,54.42 0,11.43 -2.17,20.61 -6.5,27.52 -4.33,7.01 -10.12,12.2 -17.39,15.67 9.35,6.22 15.92,14.11 19.73,23.8 3.82,9.69 5.71,19.56 5.71,29.51zm-155.24 -47.86c0,-8.65 -2.76,-15.4 -8.23,-20.25 -5.53,-4.84 -12.72,-7.27 -21.64,-7.27 -9.59,0 -17.04,2.51 -22.41,7.53 -5.27,5.02 -7.95,11.15 -7.95,18.42 0,7.27 2.42,13.34 7.18,18.18 4.85,4.85 12.03,7.27 21.64,7.27 10.64,0 18.51,-2.42 23.71,-7.27 5.11,-4.84 7.7,-10.38 7.7,-16.61zm849.95 -6.05c0,29.85 -7.44,55.9 -22.32,78.14 -18.7,27.77 -45.53,41.62 -80.48,41.62 -28.39,0 -50.11,-8.49 -65.17,-25.36 -15.05,-16.88 -22.58,-38.69 -22.58,-65.51l0 -41.18c0,-20.95 -4.16,-36.18 -12.37,-45.7 -8.23,-9.6 -19.64,-14.36 -34.36,-14.36 -12.99,0 -23.97,4.33 -33.06,13.06 -9.09,8.66 -13.66,20.35 -13.66,34.97l0 139.92 -44.67 0 0 -139.58c0,-14.88 -3.54,-26.65 -10.63,-35.4 -7.1,-8.64 -16.36,-12.97 -27.79,-12.97 -17.65,0 -31.68,6.41 -42.06,19.3 -10.38,12.8 -15.57,31.24 -15.57,55.2 0,15.93 3.97,31.94 11.95,47.86 9.35,19.12 23.18,35.31 41.54,48.46l-31.68 26.91c-21.46,-14.19 -38.08,-33.41 -49.85,-57.64 -10.04,-21.1 -15.06,-42.57 -15.06,-64.37 0,-36.01 11.09,-64.66 33.24,-86.1 19.39,-18.7 41.37,-28.05 65.94,-28.05 15.91,0 29.25,2.94 39.97,8.83 9.01,4.85 16.62,12.29 22.86,22.33 16.96,-20.78 40.49,-31.16 70.61,-31.16 25.61,0 46.2,7.27 61.79,21.81 17.64,16.27 26.48,39.63 26.48,70.1l0 44.13c0,17.31 3.88,30.73 11.77,40.23 7.78,9.52 20.42,14.28 37.81,14.28 16.01,0 28.82,-7.96 38.34,-23.87 9.6,-16.02 14.36,-35.23 14.36,-57.72 0,-15.68 -3.47,-31.08 -10.39,-46.3 -8.65,-19.39 -21.11,-34.35 -37.38,-44.75l37.91 -22.76c16,12.89 29.16,29.43 39.29,49.77 10.12,20.33 15.22,42.23 15.22,65.86zm31.16 -223.96c0,27.34 -7.44,48.1 -22.32,62.3 -14.89,14.19 -35.32,21.29 -61.27,21.29 -25.28,0 -45.52,-7.1 -60.75,-21.29 -15.23,-14.2 -22.86,-34.96 -22.86,-62.3l39.99 0c0,16.62 3.72,28.9 11.16,36.86 7.44,7.96 18.26,11.94 32.46,11.94 12.12,0 22.41,-4.07 30.88,-12.2 8.49,-8.14 12.74,-20.34 12.74,-36.6l39.97 0zm230.02 286.08c0,16.96 -7.8,30.56 -23.37,40.77 -15.57,10.2 -37.03,15.31 -64.37,15.31 -33.24,0 -61.11,-11.43 -83.61,-34.27 -22.5,-22.84 -33.75,-50.71 -33.75,-83.59 0,-33.58 11.25,-61.09 33.75,-82.56 22.5,-21.46 50.37,-32.19 83.61,-32.19 27.34,0 48.8,5.11 64.37,15.23 15.57,10.21 23.37,23.72 23.37,40.59 0,15.83 -4.84,28.03 -14.53,36.69 -9.7,8.56 -22.86,12.89 -39.48,12.89 -17.3,0 -30.62,-3.98 -39.97,-11.94 -9.35,-7.96 -14.03,-19.9 -14.03,-35.83 0,-7.96 1.91,-15.06 5.73,-21.28 0.34,-0.7 0.68,-1.39 1.03,-2.08 -13.85,4.5 -24.06,9.16 -30.64,14.01 -20.42,15.24 -30.63,37.39 -30.63,66.56 0,35.47 13.85,60.75 41.54,75.72 4.5,2.42 11.07,4.84 19.73,7.26 -0.35,-0.34 -0.52,-0.87 -0.52,-1.56 -4.16,-6.92 -6.24,-14.19 -6.24,-21.81 0,-31.84 18.01,-47.76 54,-47.76 16.62,0 29.78,4.32 39.48,12.98 9.69,8.64 14.53,20.95 14.53,36.86zm-37.91 -118.65c0,-5.1 -1.99,-9.69 -5.96,-13.57 -3.99,-3.9 -8.92,-5.9 -14.81,-5.9 -3.46,2.08 -6.31,4.94 -8.56,8.67 -2.25,3.81 -3.37,7.18 -3.37,10.29 0,5.81 1.55,9.95 4.66,12.54 3.12,2.51 6.75,3.82 10.91,3.82 11.43,0 17.13,-5.28 17.13,-15.85zm0 116.57c0,-4.84 -1.47,-8.73 -4.41,-11.68 -2.94,-2.94 -7.19,-4.4 -12.72,-4.4 -3.82,0 -7.36,1.37 -10.64,4.14 -3.3,2.77 -4.93,6.92 -4.93,12.46 0,3.47 0.94,6.84 2.85,10.14 1.91,3.28 4.93,6.3 9.08,9.07 5.55,0 10.39,-2.08 14.54,-6.22 4.15,-4.16 6.23,-8.66 6.23,-13.51zm299.08 -57.1c0,22.15 -5.21,42.39 -15.59,60.75 -12.46,21.8 -32.36,40.48 -59.7,56.07l-20.78 -29.08c17.65,-10.74 30.9,-23.2 39.72,-37.39 8.83,-14.18 13.25,-29.25 13.25,-45.16 0,-21.81 -5.19,-40.51 -15.59,-56.08 -12.1,-17.99 -28.54,-27 -49.32,-27 -19.39,0 -35.47,7.7 -48.29,23.1 -12.8,15.41 -19.2,34.35 -19.2,56.87 0,19.72 3.97,35.98 11.93,48.8 7.97,12.8 21.64,24.92 41.02,36.35l-22.32 29.59c-48.81,-28.73 -73.21,-67.16 -73.21,-115.28 0,-30.79 10.03,-57.79 30.11,-80.99 21.8,-25.26 49.51,-37.9 83.09,-37.9 31.14,0 56.42,11.33 75.8,34.01 19.39,22.67 29.08,50.44 29.08,83.34zm-28.56 202.92c0,16.62 -3.82,31.5 -11.43,44.65 -9.35,16.27 -24.06,29.95 -44.13,41.02l-18.7 -23.89c25.28,-14.88 37.91,-33.92 37.91,-57.11 0,-15.48 -3.28,-28.3 -9.86,-38.34 -7.96,-11.77 -19.22,-17.65 -33.76,-17.65 -14.54,0 -26.31,4.85 -35.29,14.54 -9.01,9.78 -13.51,22.41 -13.51,38.09 0,22.84 13.14,42.82 39.45,59.87l-18.68 24.49c-36.34,-21.55 -54.52,-49.67 -54.52,-84.36 0,-22.17 7.44,-41.46 22.32,-57.73 16.27,-17.73 36.69,-26.57 61.26,-26.57 23.2,0 42.16,7.87 56.87,23.63 14.71,15.74 22.07,35.47 22.07,59.36zm293.88 -202.92c0,22.15 -5.2,42.39 -15.58,60.75 -12.46,21.8 -32.36,40.48 -59.71,56.07l-20.77 -29.08c17.65,-10.74 30.9,-23.2 39.71,-37.39 8.84,-14.18 13.25,-29.25 13.25,-45.16 0,-21.81 -5.19,-40.51 -15.59,-56.08 -12.09,-17.99 -28.54,-27 -49.32,-27 -19.38,0 -35.47,7.7 -48.29,23.1 -12.8,15.41 -19.19,34.35 -19.19,56.87 0,19.72 3.97,35.98 11.92,48.8 7.98,12.8 21.64,24.92 41.02,36.35l-22.32 29.59c-48.81,-28.73 -73.21,-67.16 -73.21,-115.28 0,-30.79 10.04,-57.79 30.11,-80.99 21.81,-25.26 49.51,-37.9 83.09,-37.9 31.14,0 56.42,11.33 75.8,34.01 19.39,22.67 29.08,50.44 29.08,83.34zm-28.56 202.92c0,16.62 -3.81,31.5 -11.43,44.65 -9.35,16.27 -24.06,29.95 -44.13,41.02l-18.7 -23.89c25.28,-14.88 37.91,-33.92 37.91,-57.11 0,-15.48 -3.28,-28.3 -9.86,-38.34 -7.96,-11.77 -19.21,-17.65 -33.75,-17.65 -14.54,0 -26.31,4.85 -35.3,14.54 -9.01,9.78 -13.51,22.41 -13.51,38.09 0,22.84 13.15,42.82 39.46,59.87l-18.68 24.49c-36.35,-21.55 -54.53,-49.67 -54.53,-84.36 0,-22.17 7.44,-41.46 22.32,-57.73 16.28,-17.73 36.69,-26.57 61.27,-26.57 23.2,0 42.15,7.87 56.86,23.63 14.72,15.74 22.07,35.47 22.07,59.36zm63.35 -429.82c0,27.34 -7.45,48.1 -22.33,62.3 -14.88,14.19 -35.31,21.29 -61.26,21.29 -25.28,0 -45.53,-7.1 -60.75,-21.29 -15.23,-14.2 -22.86,-34.96 -22.86,-62.3l39.99 0c0,16.62 3.71,28.9 11.15,36.86 7.44,7.96 18.27,11.94 32.47,11.94 12.11,0 22.41,-4.07 30.88,-12.2 8.49,-8.14 12.73,-20.34 12.73,-36.6l39.98 0zm420.06 226.81c0,22.15 -5.21,42.4 -15.59,60.75 -12.46,21.81 -32.36,40.49 -59.7,56.08l-20.78 -29.08c17.65,-10.74 30.9,-23.2 39.71,-37.4 8.84,-14.17 13.25,-29.25 13.25,-45.16 0,-21.72 -5.19,-40.42 -15.58,-55.99 -12.1,-17.99 -28.55,-27 -49.32,-27 -19.39,0 -35.47,7.7 -48.29,23.1 -12.81,15.41 -19.2,34.35 -19.2,56.78 0,19.73 3.97,35.99 11.93,48.81 7.97,12.8 21.63,24.91 41.02,36.34l-22.33 29.6c-48.8,-28.74 -73.21,-67.16 -73.21,-115.28 0,-30.8 10.04,-57.71 30.11,-80.91 21.81,-25.26 49.51,-37.9 83.09,-37.9 31.14,0 56.42,11.33 75.81,34.01 19.38,22.67 29.08,50.36 29.08,83.25zm165.63 171.85c0,18.7 -5.64,33.93 -16.88,45.53 -11.26,11.6 -26.22,17.39 -44.92,17.39 -16.6,0 -30.63,-5.36 -42.05,-16.1 -12.81,-12.21 -19.22,-28.64 -19.22,-49.41 0,-17.05 5.19,-31.76 15.59,-44.22 9.33,-11.08 20.07,-17.48 32.19,-19.3 3.8,-10.72 7.44,-27.34 10.89,-49.84 2.08,-14.28 3.99,-29.69 5.73,-46.29 0,-24.66 -3.13,-43.88 -9.35,-57.73 -8.32,-18.44 -21.29,-27.6 -38.94,-27.6l5.7 -39.99c25.62,5.19 45.35,17.48 59.19,36.95 13.85,19.38 20.77,43.27 20.77,71.75 0,21.81 -0.51,38.68 -1.56,50.45 -2.08,23.53 -6.56,45.43 -13.49,65.5 11.41,3.81 20.33,11.6 26.74,23.37 6.39,11.77 9.61,25 9.61,39.54zm-34.8 -15.48c-1.03,-5.19 -4.32,-9.87 -9.87,-14.02 -5.53,-4.16 -11.24,-6.23 -17.13,-6.23 -14.18,0 -23.53,6.05 -28.03,18.17 0.69,2.08 4.16,3.99 10.38,5.71 6.24,1.73 11.6,2.59 16.1,2.59 7.62,0 15.57,-1.37 23.87,-4.14 1.39,-0.35 2.96,-1.05 4.68,-2.08zm2.08 20.24c-3.11,1.91 -7.62,3.56 -13.49,4.85 -5.9,1.31 -11.43,1.91 -16.62,1.91 -4.5,-0.69 -9.52,-1.4 -15.06,-2.08 -5.55,-0.69 -10.57,-2.43 -15.05,-5.19 0,7.78 2.59,14.45 7.78,20.07 5.19,5.64 12.46,8.49 21.81,8.49 10.04,0 17.65,-2.85 22.84,-8.58 5.19,-5.7 7.79,-12.2 7.79,-19.47zm286.1 -117.34c0,16.96 -7.81,30.56 -23.38,40.77 -15.56,10.2 -37.03,15.31 -64.37,15.31 -33.24,0 -61.11,-11.43 -83.61,-34.27 -22.49,-22.84 -33.75,-50.71 -33.75,-83.59 0,-33.58 11.26,-61.09 33.75,-82.56 22.5,-21.46 50.37,-32.19 83.61,-32.19 27.34,0 48.81,5.11 64.37,15.23 15.57,10.21 23.38,23.72 23.38,40.59 0,15.83 -4.85,28.03 -14.54,36.69 -9.69,8.56 -22.86,12.89 -39.48,12.89 -17.3,0 -30.62,-3.98 -39.97,-11.94 -9.35,-7.96 -14.02,-19.9 -14.02,-35.83 0,-7.96 1.9,-15.06 5.72,-21.28 0.34,-0.7 0.69,-1.39 1.03,-2.08 -13.85,4.5 -24.06,9.16 -30.64,14.01 -20.42,15.24 -30.62,37.39 -30.62,66.56 0,35.47 13.85,60.75 41.53,75.72 4.51,2.42 11.07,4.84 19.73,7.26 -0.34,-0.34 -0.51,-0.87 -0.51,-1.56 -4.16,-6.92 -6.24,-14.19 -6.24,-21.81 0,-31.84 18.01,-47.76 53.99,-47.76 16.62,0 29.79,4.32 39.48,12.98 9.69,8.64 14.54,20.95 14.54,36.86zm-37.91 -118.65c0,-5.1 -2,-9.69 -5.97,-13.57 -3.98,-3.9 -8.92,-5.9 -14.81,-5.9 -3.46,2.08 -6.31,4.94 -8.56,8.67 -2.25,3.81 -3.37,7.18 -3.37,10.29 0,5.81 1.55,9.95 4.66,12.54 3.13,2.51 6.75,3.82 10.91,3.82 11.43,0 17.14,-5.28 17.14,-15.85zm0 116.57c0,-4.84 -1.48,-8.73 -4.42,-11.68 -2.94,-2.94 -7.18,-4.4 -12.72,-4.4 -3.81,0 -7.35,1.37 -10.64,4.14 -3.29,2.77 -4.93,6.92 -4.93,12.46 0,3.47 0.95,6.84 2.86,10.14 1.9,3.28 4.93,6.3 9.07,9.07 5.55,0 10.4,-2.08 14.54,-6.22 4.16,-4.16 6.24,-8.66 6.24,-13.51zm207.16 61.8l-4.67 45.16c-5.88,1.74 -10.55,2.94 -14.02,3.65 -10.73,2.42 -18.87,3.62 -24.41,3.62 -25.95,0 -45.5,-6.58 -58.67,-19.73 -16.27,-15.93 -24.4,-42.56 -24.4,-79.96 0,-25.95 3.28,-58.93 9.86,-98.9 6.59,-39.99 12.64,-68.81 18.19,-86.46l37.37 0c-7.26,31.85 -13.42,65.17 -18.43,99.95 -5.02,34.78 -7.53,61.88 -7.53,81.25 0,44.32 14.54,66.48 43.61,66.48 6.59,0 13.17,-1.05 19.73,-3.13 6.58,-2.06 14.37,-6.05 23.37,-11.93zm212.36 -75.29c0,23.53 -9.69,41.54 -29.07,54 -19.37,12.46 -45.17,18.68 -77.36,18.68 -23.54,0 -45.18,-4.49 -64.9,-13.49 -6.23,-2.77 -19.9,-11.09 -41.03,-24.92l21.3 -33.75c16.96,13.14 32.53,22.32 46.72,27.51 11.43,4.16 23.72,6.24 36.87,6.24 22.15,0 38.51,-2.85 49.06,-8.58 10.57,-5.7 15.85,-13.4 15.85,-23.09 0,-19.04 -15.06,-28.56 -45.18,-28.56l-49.33 1.56c-20.07,0 -36.43,-5.81 -49.06,-17.39 -12.63,-11.6 -18.96,-27.1 -18.96,-46.49 0,-22.15 9.35,-39.8 28.05,-52.95 18.68,-13.16 43.27,-19.73 73.73,-19.73 19.04,0 38.68,3.72 58.92,11.16 20.25,7.44 35.06,17.05 44.39,28.82l-22.32 30.64c-10.72,-10.57 -23.18,-18.53 -37.38,-23.97 -14.19,-5.45 -28.22,-8.24 -42.05,-8.24 -19.73,0 -34.97,2.7 -45.7,8.15 -10.74,5.36 -16.1,13.66 -16.1,24.83 0,8.39 2.96,14.71 8.83,18.87 5.88,4.23 12.81,6.31 20.76,6.31 5.9,0 14.54,-0.34 25.97,-1.03 11.43,-0.69 19.04,-1.05 22.84,-1.05 28.05,0 49.51,6.41 64.39,19.21 13.85,11.77 20.76,27.53 20.76,47.26zm219.65 -47.52c0,35.41 -6.58,63.18 -19.83,83.25 -15.66,23.63 -40.06,35.4 -73.13,35.4 -24.04,0 -43.17,-6.75 -57.45,-20.24 -16.7,-15.93 -25.09,-39.48 -25.09,-70.62l41.54 0c0,18.51 4.05,32.19 12.11,40.92 7,7.72 16.79,11.52 29.34,11.52 18.25,0 31.41,-7.53 39.46,-22.5 7.01,-12.89 10.46,-32.02 10.46,-57.47 0,-22.32 -3.45,-40.06 -10.38,-53.31 -7.95,-15.31 -19.9,-23.01 -35.83,-23.01 -14.19,0 -24.92,3.99 -32.19,11.95 -9,9.69 -13.5,25.6 -13.5,47.75l-41.01 0c0,-29.42 7.62,-53.12 22.84,-71.13 15.23,-17.99 36.69,-26.99 64.38,-26.99 28.73,0 51.06,11.6 66.99,34.88 14.19,20.76 21.29,47.33 21.29,79.6zm560.75 -3.19c0,22.24 -5.37,44.04 -16.1,65.51 -12.11,23.97 -29.08,43.7 -50.88,59.36l-31.68 -27.43c18.01,-11.86 31.68,-27.6 41.02,-47.17 7.62,-16.09 11.43,-32.45 11.43,-49.24 0,-49.24 -19.04,-73.9 -57.12,-73.9 -11.07,0 -20.33,4.59 -27.77,13.85 -7.44,9.25 -11.17,21.54 -11.17,36.95l0 141.83 -44.65 0 0 -141.05c0,-15.32 -4.59,-27.69 -13.85,-37.3 -9.18,-9.52 -20.25,-14.28 -33.13,-14.28 -17.4,0 -30.82,4.33 -40.17,12.98 -9.43,8.75 -14.11,20.35 -14.11,34.88l0 144.77 -44.64 0 0 -144.34c0,-14.54 -5.62,-26.22 -16.96,-35.05 -11.35,-8.82 -26.66,-13.24 -45.87,-13.24 -18.77,0 -35.22,6.24 -49.15,18.7 -10.47,9.33 -17.82,20.24 -21.98,32.7l-3.11 11.43c11.77,-7.61 25.6,-11.43 41.53,-11.43 20.42,0 36.69,7.45 48.81,22.33 11.07,13.51 16.62,30.3 16.62,50.37 0,21.12 -6.93,38.08 -20.78,50.88 -13.83,12.81 -31.16,19.22 -51.92,19.22 -23.88,0 -42.84,-8.41 -56.84,-25.2 -14.03,-16.79 -21.04,-40.23 -21.04,-70.35 0,-39.8 11.34,-72.59 34.01,-98.39 22.67,-25.78 51.32,-38.68 85.93,-38.68 39.11,0 67.5,10.38 85.15,31.15 6.24,-9.35 14.2,-16.44 23.89,-21.29 12.89,-6.56 29.33,-9.86 49.49,-9.86 19.73,0 35.32,2.94 46.73,8.83 9.09,4.85 17.22,12.46 24.49,22.84 6.92,-10.04 15.07,-17.48 24.31,-22.32 11.78,-6.24 25.8,-9.35 42.07,-9.35 27.95,0 50.44,8.31 67.4,24.92 19.99,19.47 30.04,48.2 30.04,86.37zm-406.55 51.23c0,-9.69 -2.68,-18.18 -8.04,-25.45 -5.38,-7.27 -12.39,-10.9 -21.04,-10.9 -8.66,0 -16.01,3.2 -22.06,9.61 -6.07,6.41 -9.09,14.28 -9.09,23.63 0,8.99 2.42,17.05 7.27,24.14 4.84,7.08 11.94,10.64 21.29,10.64 10.38,0 18.25,-3.39 23.63,-10.12 5.36,-6.76 8.04,-13.94 8.04,-21.55zm510.9 68.53l-44.64 0 0 -233.65c0,-16.96 -1.4,-28.37 -4.16,-34.27 -3.82,-8.64 -11.6,-12.97 -23.37,-12.97 -10.38,0 -17.91,3.8 -22.59,11.41 -4.67,7.63 -7.01,17.84 -7.01,30.64l-42.57 0c0,-23.54 6.65,-42.65 19.99,-57.38 13.32,-14.71 31.24,-22.07 53.74,-22.07 21.12,0 38.17,7.02 51.14,21.04 12.98,14.02 19.47,33.84 19.47,59.44l0 237.81z"/>
   <path class="fil2" d="M8402.15 1507.77c0,21.64 -6.4,39.03 -19.22,52.09 -12.8,13.06 -28.37,19.56 -46.72,19.56 -9.35,0 -18.17,-0.86 -26.49,-2.51 -1.37,0 -3.11,-0.52 -5.19,-1.57l0 -41.09c4.25,1.98 7.96,3.37 11.26,4.06 3.37,0.79 7.27,1.13 11.86,1.13 10.46,0 18.33,-3.21 23.52,-9.69 4.25,-5.1 6.33,-12.29 6.33,-21.46 0,-12.63 -3.39,-21.04 -10.12,-25.26 -6.76,-4.25 -16.54,-6.41 -29.34,-6.41l-14.02 0c0,37.55 -8.13,65.08 -24.49,82.64 -14.28,15.14 -34.87,22.75 -61.97,22.75 -12.89,0 -23.61,-1.37 -32.36,-4.07 -11.77,-3.71 -21.55,-10.47 -29.16,-20.33 -4.85,8.32 -11.69,14.02 -20.51,17.13 -8.83,3.11 -18.26,4.68 -28.3,4.68 -16.96,0 -31.33,-5.19 -43.1,-15.57 -15.23,-13.51 -22.84,-32.89 -22.84,-58.16 0,-20.07 6.75,-36.34 20.33,-48.8 13.59,-12.46 32.2,-18.7 55.9,-18.7l16.71 0c0,-24.92 8.06,-46.3 24.06,-64.12 16.1,-17.82 35.83,-26.74 59.27,-26.74 24.85,0 45.09,8.21 60.83,24.66 15.68,16.45 23.55,38.51 23.55,66.2l19.73 0c26.65,0 46.72,5.27 60.23,15.76 13.49,10.46 20.25,28.37 20.25,53.82zm-144.86 -69.58c0,-14.71 -3.9,-27.09 -11.77,-37.21 -7.79,-10.12 -17.99,-15.22 -30.56,-15.22 -10.12,0 -19.02,4.76 -26.65,14.17 -7.7,9.44 -11.5,22.17 -11.5,38.26l80.48 0zm-124.09 69.05c-0.69,-2.42 -1.22,-6.39 -1.57,-11.93 -0.34,-5.55 -0.51,-9.69 -0.51,-12.47l0 -6.22 -7.27 0c-12.46,0 -21.3,1.37 -26.49,4.15 -8.64,4.85 -12.97,13.67 -12.97,26.47 0,12.12 2.42,20.95 7.27,26.48 4.85,5.55 10.72,8.32 17.65,8.32 6.92,0 12.8,-2.42 17.65,-7.27 4.84,-4.85 7.27,-11.43 7.27,-19.73 0,-1.73 -0.35,-4.33 -1.03,-7.8zm124.09 -30.62l-82.04 0c0,24.57 4.16,42.39 12.37,53.48 6.93,9 16.19,13.49 27.88,13.49 14.79,0 25.43,-5.37 32.01,-16.09 6.48,-10.74 9.78,-27.7 9.78,-50.88zm178.09 -239.36c0,27.34 -7.44,48.1 -22.32,62.3 -14.88,14.19 -35.32,21.29 -61.27,21.29 -25.28,0 -45.52,-7.1 -60.75,-21.29 -15.22,-14.2 -22.85,-34.96 -22.85,-62.3l39.99 0c0,16.62 3.71,28.9 11.15,36.86 7.44,7.96 18.27,11.94 32.46,11.94 12.12,0 22.41,-4.07 30.88,-12.2 8.49,-8.14 12.74,-20.34 12.74,-36.6l39.97 0zm489.63 223.96c0,29.85 -7.44,55.9 -22.33,78.14 -18.69,27.77 -45.52,41.62 -80.47,41.62 -28.39,0 -50.12,-8.49 -65.17,-25.36 -15.06,-16.88 -22.58,-38.69 -22.58,-65.51l0 -41.18c0,-20.95 -4.16,-36.18 -12.38,-45.7 -8.23,-9.6 -19.64,-14.36 -34.35,-14.36 -12.99,0 -23.97,4.33 -33.06,13.06 -9.09,8.66 -13.67,20.35 -13.67,34.97l0 139.92 -44.66 0 0 -139.58c0,-14.88 -3.54,-26.65 -10.64,-35.4 -7.1,-8.64 -16.36,-12.97 -27.79,-12.97 -17.65,0 -31.67,6.41 -42.05,19.3 -10.38,12.8 -15.57,31.24 -15.57,55.2 0,15.93 3.97,31.94 11.94,47.86 9.35,19.12 23.19,35.31 41.54,48.46l-31.67 26.91c-21.47,-14.19 -38.08,-33.41 -49.86,-57.64 -10.03,-21.1 -15.05,-42.57 -15.05,-64.37 0,-36.01 11.08,-64.66 33.24,-86.1 19.38,-18.7 41.36,-28.05 65.94,-28.05 15.91,0 29.25,2.94 39.97,8.83 9,4.85 16.62,12.29 22.86,22.33 16.96,-20.78 40.48,-31.16 70.61,-31.16 25.61,0 46.19,7.27 61.78,21.81 17.65,16.27 26.48,39.63 26.48,70.1l0 44.13c0,17.31 3.89,30.73 11.78,40.23 7.78,9.52 20.41,14.28 37.8,14.28 16.02,0 28.82,-7.96 38.34,-23.87 9.61,-16.02 14.37,-35.23 14.37,-57.72 0,-15.68 -3.47,-31.08 -10.4,-46.3 -8.64,-19.39 -21.1,-34.35 -37.37,-44.75l37.91 -22.76c16,12.89 29.16,29.43 39.28,49.77 10.12,20.33 15.23,42.23 15.23,65.86zm31.15 -223.96c0,27.34 -7.44,48.1 -22.32,62.3 -14.88,14.19 -35.31,21.29 -61.26,21.29 -25.28,0 -45.53,-7.1 -60.75,-21.29 -15.23,-14.2 -22.86,-34.96 -22.86,-62.3l39.99 0c0,16.62 3.71,28.9 11.15,36.86 7.44,7.96 18.27,11.94 32.47,11.94 12.11,0 22.41,-4.07 30.88,-12.2 8.49,-8.14 12.73,-20.34 12.73,-36.6l39.97 0z"/>
  </g>
 </g>
</svg>
