<?xml version="1.0" encoding="UTF-8"?>
<!DOCTYPE svg PUBLIC "-//W3C//DTD SVG 1.1//EN" "http://www.w3.org/Graphics/SVG/1.1/DTD/svg11.dtd">
<!-- Creator: CorelDRAW 2020 (64-Bit) -->
<svg xmlns="http://www.w3.org/2000/svg" xml:space="preserve" width="110mm" height="45mm" version="1.1" style="shape-rendering:geometricPrecision; text-rendering:geometricPrecision; image-rendering:optimizeQuality; fill-rule:evenodd; clip-rule:evenodd"
viewBox="0 0 11000 4500"
 xmlns:xlink="http://www.w3.org/1999/xlink"
 xmlns:xodm="http://www.corel.com/coreldraw/odm/2003">
 <defs>
  <style type="text/css">
   <![CDATA[
    .fil0 {fill:#FEFEFE}
    .fil1 {fill:#FEFEFE;fill-rule:nonzero}
   ]]>
  </style>
 </defs>
 <g id="Layer_x0020_1">
  <metadata id="CorelCorpID_0Corel-Layer"/>
  <g id="_1740854268768">
   <g>
    <path class="fil0" d="M3918.56 2200.84c-73.86,-45.95 -297.43,39.74 -451.73,-18.98 65.7,118.21 152.65,140.42 302.14,86.2 2,-0.71 -5.85,-23.76 -3.83,-24.51 3.15,-1.16 17.68,19.17 20.96,18.07 8.34,-2.76 -9.51,-22.96 -0.22,-26.96 3.79,-1.61 34.42,13.37 38.34,11.59 5.72,-2.56 11.57,-5.28 17.52,-8.09 1.3,-1.95 -11.06,-11.68 40.9,-45.8 4.95,-3.25 7.3,22.91 12.81,20.15 7.57,-3.75 15.28,-7.66 23.11,-11.67zm-76.96 13.74c-51.13,-23.26 -223.55,26.67 -330.44,-3.06 47.19,73.05 138.75,58.03 330.44,3.06z"/>
    <path class="fil0" d="M6371.57 915.64c229,11.2 273.4,266.17 178.08,302.59 -9.45,-19.4 -9.23,-36.56 -6.58,-53.67 3.83,-24.58 -23.27,-38.91 -50.52,-14.13 7.26,-38.56 21.18,-66.16 8.86,-96.56 -9.58,-23.64 -43.78,-47.42 -65.46,-89.72 70.84,68.24 100.97,85.56 80.23,159.41 31.41,-19.28 40.51,11.82 45.45,35.11 39.36,-65.54 -15.35,-199.21 -190.06,-243.03z"/>
    <path class="fil0" d="M6430.9 968.1c-15.71,-7.44 -42.76,13.42 -47.24,25.32 -4.47,11.91 12.35,55.3 -7.12,60.24 -19.49,4.95 -63.48,-1.85 -74.21,11.33 -10.73,13.18 10.5,74.76 10.5,74.76 0,0 -10.7,-52.32 8.35,-68.74 19.08,-16.42 81.77,17.41 83.15,-5.56 -4.49,-19.33 -12.15,-44.92 -6.34,-64.34 4.25,-14.14 18.41,-23.27 32.91,-33.01z"/>
    <path class="fil0" d="M6272.96 1084.83c0,0 0.13,23.61 -17.81,48.9 -28.4,40.07 -102.05,46.5 -141.91,26.25 -68.93,-35.02 -58.21,-62.3 -91.57,-88.67 -17.73,-14 -42,-23.86 -60.85,-30.02 -31.45,-10.27 -30.22,-21.99 -2.14,-46.26 19.96,-17.25 67.75,-38.97 137.58,-4.75 -83.82,-5.29 -130.22,4.36 -138.94,31.67 9.52,-4.32 66.36,4.1 89.23,37.03 39.92,57.57 50.51,82.48 116.66,87.02 68.62,4.73 109.75,-61.17 109.75,-61.17z"/>
    <path class="fil1" d="M6001.62 897.48c-82.95,-38.32 -179.16,-98.61 -193.98,-191.46 -4.87,-30.52 1.84,-18.22 18.07,0.65 23.06,26.8 52.16,46.45 68.21,57.18l-40.47 -45.4c-17.31,-24.69 -32.22,-44.35 -47.44,-83.43 -12.76,-21.1 -16.37,17.34 -16.2,23.55 1.64,59.47 21.57,110.91 57.1,155.47 39.06,49.05 97.01,89.73 170.29,123.59l-15.58 -40.15z"/>
    <path class="fil0" d="M6104.9 846.25c0,0 7.54,-5.89 19.47,-8.38 11.93,-2.5 21.58,11.24 31.92,32.58 10.31,21.33 -16.56,-23.51 -31.04,-24.53 -14.46,-1.02 -20.35,0.33 -20.35,0.33z"/>
    <path class="fil0" d="M6138.98 855.33c0.24,0.93 -2.65,15.3 -15.31,13.48 -8.3,-1.2 -15.34,-13.35 -8.71,-19.42l6 -5.48 10.36 0.92c0,0 7.4,9.6 7.66,10.5z"/>
    <path class="fil0" d="M4616.71 915.64c-229.01,11.2 -273.4,266.17 -178.1,302.59 9.48,-19.4 9.25,-36.56 6.6,-53.67 -3.83,-24.58 23.27,-38.91 50.5,-14.13 -7.24,-38.56 -21.18,-66.16 -8.84,-96.56 9.58,-23.64 43.76,-47.42 65.45,-89.72 -70.84,68.24 -100.96,85.56 -80.23,159.41 -31.4,-19.28 -40.51,11.82 -45.46,35.11 -39.34,-65.54 15.37,-199.21 190.08,-243.03z"/>
    <path class="fil0" d="M4557.38 968.1c15.71,-7.44 42.75,13.42 47.23,25.32 4.48,11.91 -12.34,55.3 7.12,60.24 19.49,4.95 63.49,-1.85 74.23,11.33 10.72,13.18 -10.51,74.76 -10.51,74.76 0,0 10.7,-52.32 -8.35,-68.74 -19.08,-16.42 -81.77,17.41 -83.15,-5.56 4.49,-19.33 12.18,-44.92 6.33,-64.34 -4.25,-14.14 -18.42,-23.27 -32.9,-33.01z"/>
    <path class="fil0" d="M4715.3 1084.83c0,0 -0.13,23.61 17.83,48.9 28.39,40.07 102.04,46.5 141.89,26.25 68.95,-35.02 58.19,-62.3 91.59,-88.67 17.73,-14 41.99,-23.86 60.84,-30.02 31.44,-10.27 30.23,-21.99 2.15,-46.26 -19.96,-17.25 -67.77,-38.97 -137.6,-4.75 83.84,-5.29 130.23,4.36 138.94,31.67 -9.51,-4.32 -66.35,4.1 -89.22,37.03 -39.93,57.57 -50.51,82.48 -116.66,87.02 -68.62,4.73 -109.76,-61.17 -109.76,-61.17z"/>
    <path class="fil1" d="M4986.65 897.48c82.95,-38.32 179.17,-98.61 193.99,-191.46 4.86,-30.52 -1.85,-18.22 -18.08,0.65 -23.05,26.8 -52.16,46.45 -68.21,57.18l40.48 -45.4c17.32,-24.69 32.21,-44.35 47.43,-83.43 12.76,-21.1 16.38,17.34 16.19,23.55 -1.64,59.47 -21.57,110.91 -57.07,155.47 -39.07,49.05 -97.02,89.73 -170.31,123.59l15.58 -40.15z"/>
    <path class="fil0" d="M4883.37 846.25c0,0 -7.54,-5.89 -19.48,-8.38 -11.91,-2.5 -21.56,11.24 -31.9,32.58 -10.31,21.33 16.56,-23.51 31.03,-24.53 14.46,-1.02 20.35,0.33 20.35,0.33z"/>
    <path class="fil0" d="M4849.3 855.33c-0.26,0.93 2.65,15.3 15.31,13.48 8.29,-1.2 15.33,-13.35 8.71,-19.42l-6.01 -5.48 -10.35 0.92c0,0 -7.4,9.6 -7.66,10.5z"/>
    <path class="fil0" d="M5265.95 429.01l8.59 0 79.99 96.09c-44.92,6.71 -79.6,45.09 -79.6,91.04l0 0c0,40.65 27.18,75.39 64.58,87.47 0.59,0.2 8.72,0.38 9.31,0.56l-65.53 77.14 -17.34 0 0 -352.3zm83.34 0l287.32 0 -79 95.05 -38.61 0 0 -0.62 -1.25 0 -49.6 0 -1.24 0 0 0.62 -38.62 0 -79 -95.05zm362.06 0l8.6 0 0 352.3 -17.34 0 -65.54 -77.14c0.61,-0.18 8.73,-0.36 9.32,-0.56 37.4,-12.08 64.59,-46.82 64.59,-87.47l0 0c0,-45.95 -34.69,-84.33 -79.61,-91.04l79.98 -96.09zm-83.48 352.3l-108.87 0 0 -22.47 0 -21.72 0 -160.31 86.74 0c25.69,0 46.73,16.16 46.73,39.33l0 0c0,23.14 -21.04,42.08 -46.73,42.08l-82.19 0 22.29 26.31 82.03 96.78zm-160.96 0l-108.9 0 82.05 -96.78 22.3 -26.31 -82.2 0c-25.7,0 -46.73,-18.94 -46.73,-42.08l0 0c0,-23.17 21.03,-39.33 46.73,-39.33l86.75 0 0 160.31 0 21.72 0 22.47z"/>
    <path class="fil1" d="M5625.31 327.29c2.26,-33.89 41.36,-91.58 83.97,-96.16 16.39,-13.08 86.13,-0.62 107.25,18.71 35.42,27.37 56.61,93.2 74.72,148.59 19.86,60.75 45.93,134.67 92.27,196.64 52.79,40.66 88.85,-29.64 110.61,60.21 4.9,11.97 1.76,33.84 8.96,38.02 7.2,4.18 24.76,-9.33 43.68,-7.63 49.87,-16.53 59.36,18.45 67.51,31.57 5.49,8.85 -1.61,26.12 8.11,31.74 21.43,12.34 58.52,8.82 80.31,7.81 20.8,-0.99 70.6,3.86 93.55,46.58 12.24,22.77 14.33,50.17 6.86,72.95 -6.61,20.09 -53.35,53.76 -77.5,60.3 -17.59,7.39 13.04,9.94 20.96,6.97 9.99,-3.73 23.67,-10.11 35.11,-15.11 35.44,-15.43 75.54,4.38 115.22,1.4 108.29,5.5 257.26,14.75 391.66,63.9 132.92,48.6 271.29,137.84 356.01,308.31 10.68,21.5 34.2,77.89 38.67,141.53 -26.07,-42.24 -58.14,-70.75 -99.2,-97.44 40.47,35.88 84.62,104.77 107.29,158.7 18.6,44.14 27.16,116.43 0.8,168.23 -4.01,70.04 24.63,102.02 36.94,170.79 0,0.05 -13.23,29.98 -9.33,70.29 4.73,48.64 31.97,110.5 28.86,127.76 60.87,-89.04 67.77,-88.39 33.08,-191.01 -5.04,-14.88 -54.54,-66.02 -47.67,-185.79 1.86,-32.42 3.72,-64.86 3.89,-98.21l0 -0.09 0.02 -8.67 0 -0.09c-0.22,-50.85 -6.59,-93.66 -18.58,-135.18 -11.95,-41.4 -29.31,-81.09 -51.63,-125.96 -90.42,-181.99 -226.86,-278.01 -369.02,-329.99 -140.69,-51.44 -285.63,-59.17 -396.74,-64.86 -45.47,-2.29 -55.81,-58.67 -71.77,-88.32 -35.8,-66.53 -82.46,-84.56 -119.77,-82.82 -30.17,1.41 -57.54,1.14 -74.38,-26.07 -9.91,-17.87 -18.74,-35.65 -50.61,-40.95 -25.03,-4.16 -51.28,12.17 -61.45,-14.88 -7.47,-19.92 -16.23,-43.26 -47.45,-57.62 -14.65,-6.72 -27.95,-9.99 -40.42,-13.07 -15.17,-3.7 -28.75,-7.03 -37.04,-16.48 -45.71,-52.04 -66.22,-114.73 -84.81,-171.57 -20.26,-61.97 -38.49,-117.61 -84.17,-152.92 -16.88,-13.04 -36.93,-21.91 -58.04,-26.27 -24.39,-5.01 -50.29,-3.95 -74.45,3.83 -24.44,7.86 -47.11,22.48 -64.71,44.47 -13.89,17.38 -24.55,39.34 -30.24,66.08l-3.05 22.34c-2,14.53 0.73,16.89 12.11,8.48 19.11,-14.15 31.83,-4.46 47.42,-17.65 14.53,11.76 14.16,41.6 34.2,31.49 6.53,-3.3 -9.59,-13.68 0.19,-32.37 19.33,-36.94 62.16,-31.64 71.62,-3.86 14.53,42.67 19.02,141.88 30.47,211.71 7.01,42.58 13.32,81.16 20.05,106.85l0 0.09 0.04 0.13c27.22,103.64 102.29,118.5 157.78,168.65 31.52,28.44 18.21,65.31 25.6,100.82 5.63,27.19 48.75,68.16 115.24,75.59 5.05,-1.97 -54.31,-34.03 -76.97,-60.74 -16.54,-19.47 -18.8,-43.93 -18.42,-52.16l0 -0.09c1.44,-30.31 -1.53,-50.03 -28.17,-74.09 -36.68,-33.12 -111.41,-75.28 -134.62,-113.28 -49.51,-80.98 -43.05,-203.77 -59.68,-296.16 -9.25,-51.34 -21.93,-91.41 -46.66,-102.19 -54.19,-23.64 -90.84,43.21 -124.48,28.22z"/>
    <path class="fil1" d="M7291.79 1668.94c-23.89,54.38 -42.33,150.65 -30.93,194.99 11.19,43.57 28.29,84.47 47.03,128.83l-0.01 0.01 0.07 0.19 0.08 0.09c8.34,19.87 11.47,42.35 12.22,64.25 0.28,8.59 2.14,21.46 -21.07,24.66 -0.16,5.02 21.44,10.64 22.43,15.55 3.52,17.54 12.81,34.12 16.62,48.69l2.51 9.39c6.98,25.29 -20.55,26.32 -27.25,26.09l-100.83 -8.36c-1.88,7.47 -55.13,15.61 -44.94,-20.52 4.45,-15.82 20.8,-34.25 44.01,-25.41 2.63,-12.09 -58.59,-21.44 -59.62,39.32 -0.18,11.43 -35.75,10.11 -35.74,-1.87 6.57,-43.74 18.43,-55.35 44.28,-44.72 2.08,-3.8 -9.34,-15.06 -7.82,-18.66 3.04,-7.19 18.81,-7.45 20.86,-15.59 -46.43,-40.26 11.19,-46.96 6.03,-59.6 -25.89,-63.22 -48.47,-104.05 -91.86,-146.91 -19.96,-19.67 -45.06,-42.95 -61.15,-69.96 -11.81,-19.81 -20.66,-44.81 -28.95,-99.52 -20.27,-63.02 -79.11,-250.52 -147.16,-272.31 8.27,9.64 18.61,26.1 29,45.42 4.99,9.25 9.97,19.18 14.75,29.35 20.68,44.01 37.29,92.44 31.45,110.15 -4.32,13.21 -11.68,31.74 -9.96,44.06 0.63,4.76 -10.82,19.89 -6.84,16.83 29.07,-22.23 62.15,19.44 61.82,42.04 6.51,96.07 13.72,70.2 106.12,167.77 20.41,21.53 30.17,46.4 43.79,70.31 13.97,24.48 18.64,60.34 14.72,92.71 -0.82,6.87 -2.03,13.45 -3.57,19.57 -1.5,5.98 -3.37,11.69 -5.6,16.98 -1.23,2.88 -2.43,5.4 -3.56,7.49l-3.76 6.91 -0.04 -0.03c-11.3,20.71 -19.46,35.66 -19.97,49.84 -1,27.06 15.69,38.65 63.65,40.37l155.17 5.56c39.15,1.38 51.73,-6.58 52.65,-31.51 0.32,-8.44 -1.95,-16.64 -4.98,-27.61 -1.42,-5.13 -1.96,-6.9 -2.5,-8.91 -3.38,-12.85 -13.65,-31.21 -13.04,-51.14 1.71,-55.69 -13.73,-101.57 -31.73,-147.68 -26.29,-67.39 -52.63,-125 -26.38,-267.11z"/>
    <path class="fil1" d="M6860.7 1778.51c-17.07,58.53 -45.89,141.15 -23.46,184.09 12.05,24.44 33.18,32.29 24.31,60.95l-0.03 -0.02c-8.97,18.52 -65.3,96.14 -40.61,111.52l-0.02 0.05c3.8,2.36 8.11,3.61 12.95,3.7 75.75,1.4 325.06,56.31 202.53,-93.1 -32.1,-51.34 16.85,-103.96 50.28,-140.15l-23.91 -25.88c-30.25,43.55 -77.91,107.8 -52.85,163.07 2.1,4.66 -15.8,5.92 -12.67,10.96 1.39,2.18 23.27,8.13 24.61,10.59 45.72,83.72 -73.98,57.67 -122.44,57.4 16.81,-15.88 15.14,-31.75 -0.2,-47.62 8.06,38.81 -30.5,54.33 -67.48,48.9 -14.2,-34.32 58.16,-58.74 68.86,-81.52 0,-0.02 -5.04,-37.2 -1.8,-38.15 64.09,-18.79 -5.54,-16.35 -14.47,-20.16 -71.66,-30.5 -6.29,-170.57 20.43,-211.61l-4.11 -2.63c-12.62,4.19 -26.37,11.2 -39.92,9.61z"/>
    <path class="fil1" d="M6976.83 1752c-64.02,14.65 -157.23,32.62 -233.57,1.3 -77.11,-31.64 -115.37,-58.22 -215.7,-130.07 -2.41,-1.71 -30.03,-27.56 -32.5,-29.35l-14.06 27.48c113.28,79.19 169.95,111.72 252.25,145.48 84.88,34.83 183.18,28.84 256.62,12.05l-13.04 -26.89z"/>
    <path class="fil0" d="M6928.15 1577.69c-18.26,185.99 -208.7,118.47 -350.38,49.53 77.67,68.43 298.95,143.88 375.01,13.88 0,0 -26.26,-65.01 -24.63,-63.41z"/>
    <path class="fil1" d="M7021.64 1101.93c-114.34,-57.84 -224.86,-94.52 -352.45,-142.2 100.58,14.76 253.26,63.24 368.42,135.13 81.38,50.82 167.01,144.89 200.16,235.06 -55.24,-53.98 -98.14,-168.29 -216.13,-227.99z"/>
    <path class="fil1" d="M6260.29 1209.4c-0.29,14.42 -37.18,145.67 -37.2,159.84 -0.28,137.33 11.5,264.65 47.64,393.64 3.3,11.88 16.02,57.44 24.5,101.74 11.98,62.6 12.63,110.83 -0.19,140.32 -31.08,24.34 -50.42,41.99 -52.82,63.29 -2.52,22.43 -4.83,32.98 6.97,38.7l1.47 -2.56 233.41 0c-1.95,4.46 -3.96,8.9 -5.96,13.32 15.56,-1.13 26.21,-4.27 28.24,-11.51 0.05,-0.19 8.62,-34.32 -10.6,-66.78 -17.47,-53.25 -18.97,-119.63 -11.39,-196.53 5.86,-59.8 6.74,-137.53 -2.51,-185.37 16.46,-10.7 40.03,-69.38 15.67,-178.18 -11.67,-52.09 0.39,-103.7 -1.87,-123.78 -16.78,39.3 -22.99,109.77 -13.7,173.79 4.85,33.34 5.07,56.17 -8.74,89.31 -26.18,38.24 -68.28,10.41 -64.63,-54.76 -23.99,90.56 36.39,98.03 54.84,99.67 9.17,47.38 3.22,194.63 -4.67,256.22 -1.4,16.68 -4.06,31.6 -5.31,46.46 -2.05,24.67 -26.28,33.61 -26.03,37.37 0.47,6.71 26.6,3.99 28.4,11.22 11.6,11.29 14.32,23.5 21.35,37.18 10.52,17.77 2.23,35.13 -5.2,42.8 -12.63,13.04 -91.28,5.42 -109.25,2.54 -74.29,-1.7 -47.13,-54.34 -25.06,-71.34 -18.08,4.86 -62.12,33.77 -33.26,67.08 -33.63,8.35 -42.46,2.56 -46.73,-8.83 11.91,-63.67 51.05,-45.83 61.65,-59.09 6.75,-8.5 9.75,-26.9 9.98,-50.91 0.21,-25.43 22.43,-30.18 16.1,-32.95 -17.73,-7.76 -19,-21.51 -19.75,-28.4 -4.09,-37.14 -11.26,-77.95 -19.5,-114.14 -3.71,-16.34 -7.61,-31.82 -11.43,-45.53 -3.93,-14.04 -7.79,-26.18 -11.36,-35.6l-0.09 -0.26 -0.04 -0.07c-22.66,-60.3 -38.74,-264.65 -30.46,-348.29l7.53 -159.61zm22.93 507.9l0 0 0 0z"/>
    <path class="fil1" d="M6174.19 1226.42c-70.62,102.8 -137.21,219.36 -225.12,303.07 -43.5,41.46 -109.24,102.58 -118.07,141.74l-0.03 0.17 -0.09 0.09c-4.19,18.79 -3.57,46.83 -2.92,75.3 0.73,33.67 1.53,66.14 -0.56,76.3l-4.26 0.38 -0.09 0.16c-3.1,4.24 -5.78,8.66 -8.12,13.12 -2.29,4.38 -4.27,8.82 -5.92,13.15 -26.83,70 20.04,61.26 61.59,63.29 23.33,1.17 52.1,2.94 75.25,2.94 45.66,0 84.31,2.45 87.41,-15.87l0.01 -0.22 2.01 -4.89c7.5,-36.85 -14.84,-53.43 -27.05,-73.48 -4.9,-22.91 2.85,-65.71 11.16,-75.17l0.07 -0.08 0.06 -0.03 -0.01 0c1.26,-1.44 -0.28,-9.68 3.04,-12.81 33.58,-31.71 75.11,-71.74 111.85,-102.42 16.65,-13.85 42.5,-35.22 57.99,-38.2 15.29,-2.95 32.45,-4.44 53.8,3.81l13.7 -15.1c-29.34,-11.32 -54.14,-14.39 -77.74,-9.85 -23.43,4.52 -44.45,16.33 -66.62,34.83 -31.56,26.33 -64.17,67.57 -91.73,92.18 -5.16,4.6 -20.84,12.85 -25.15,16.94 -4.2,3.93 -9.51,0.48 -11.76,3.02l-0.09 0.08 -0.03 0.05 0 0c-9.14,10.52 5.25,36.6 3.52,58.07 -2.06,25.5 3.94,26.35 -11.54,56.31 20.12,9.76 39.79,20.33 34.03,48.67 -7.29,36.08 -96.73,18.06 -117.45,18.06 -31.53,11.68 -5.16,-22.83 -20.73,-32.98 -10.28,44.26 -37.27,24.11 -45.42,23.48 -28.14,-13.86 -1.71,-56.04 40.73,-62.65 -26.79,-22.22 -15.51,-42.73 1.02,-50.76 -26.61,-4.02 -26.6,-92.14 -2.06,-123 43.05,-54.16 64.1,-80.07 101.49,-115.68 12.34,-11.74 49.26,-61.01 63.78,-64.03 24.22,-5.04 25.8,46.9 31.59,16.6 4.7,-24.51 -5.99,-38.14 3.29,-62.31 23.7,-61.74 77.55,-131.6 109.78,-178.74l-4.61 -23.54z"/>
    <path class="fil0" d="M6099.71 1153.74c0,0 65.22,24.21 72.1,80.49 6.9,56.28 64.33,149.91 64.33,149.91 17.56,-76.21 -50.32,-100.44 -46.51,-151.84 1.77,-24.06 -16.32,-51.83 -28.71,-63.09l-61.21 -15.47z"/>
    <path class="fil0" d="M6253.48 1031.68c5.92,36.35 33.99,73.2 21.62,106.64 -33.78,91.11 -6.8,104.1 -14.42,154.77 -10.48,69.68 -12.67,101.42 46.76,54.98 32.16,-25.14 44.79,-72.81 120.48,-84.74 142.94,-22.49 154.12,-79.23 153.77,-79.53l-25.1 -21.42c-0.3,12.36 -6.18,-7.86 -9.53,1.13 -12.69,33.91 -44.16,46.84 -71.69,61.13 -62.13,32.31 -114.69,33.12 -191.56,108.93 -11.42,-46.06 -5.96,-99.8 8.36,-174.82 8.33,-43.76 -22.42,-74.77 -38.69,-127.07z"/>
    <path class="fil0" d="M6160.55 1981.9c-214.57,-164.65 -433.15,-76.35 -601.05,129.44 -6.82,8.35 -3.11,13.78 -9.81,22.55 173.78,-204.31 409.29,-314.61 612.52,-129.27 57.33,52.27 102.53,39.36 154.17,55.22 -72.84,-57.16 -102.96,-37.4 -155.83,-77.94z"/>
    <path class="fil0" d="M6317.89 2040.73c-50.11,-16.36 -90.97,76.21 -160.74,26.75 18.35,44.1 17.04,76.63 -0.04,118.24 -0.72,1.72 -24.45,-179.76 -179.24,-221.69 -155.54,-42.14 -299.02,34.33 -419.76,177.3 -5.86,6.93 -2.66,11.16 -8.42,18.44 128.44,-146.12 279.85,-224.83 440.27,-163.22 105.18,40.39 140.45,127.14 157.23,223.74 4.27,24.63 55.51,-56.61 29.39,-125.18 89.77,17.49 133.34,-51.75 141.31,-54.38z"/>
    <path class="fil0" d="M5560.56 2188.05c48.89,-65.52 162.83,-149.74 250.25,-165.45 76.21,-13.71 145.03,18.66 154.3,115.51 25.57,-13.91 39.33,8.13 67.26,-20.87 5.47,23.99 18.42,40.08 35.61,58.58 2.39,2.03 4.91,4.24 7.58,6.61l24.55 23.66c25.53,-44.44 27.72,-92.09 -22.87,-154.99 26.96,53.96 34.81,96.51 14.17,112.54 -25.6,-5.41 -43.69,-35.54 -56.67,-71.92 -16.13,27.84 -38.16,17.4 -59.01,25.52 -14.4,-94.3 -89.86,-121.31 -166.39,-107.5 -82.07,14.8 -213.78,103.02 -246.42,171.34 0,0 1.18,8.12 -2.36,6.97z"/>
    <path class="fil1" d="M5603.62 2186.22c1.96,1.14 92.51,-28.89 166.66,-28.99 57.45,-0.07 52.55,47.71 113.56,59.97 19.58,3.94 44.6,5.11 62.88,-3.96 29.51,-14.61 36.35,-48.4 -0.85,-60.65 -24.95,-8.2 -41.51,8.67 -41.93,35.03 -24.44,-3.2 -19.7,-67.72 41.39,-57.23 33.03,9.03 43.69,38.26 35.57,63.3 -14.26,13.34 -29.06,26.13 -44.39,38.3 -16.66,3.5 -36.08,1.9 -52.23,-1.43 -54.69,-11.27 -57.73,-50.59 -114.67,-55.01 -50.81,-3.95 -108.76,7.49 -140.34,14.95 -10.96,2.58 11.88,11.72 -12.75,-0.66l-12.9 -3.62z"/>
    <path class="fil0" d="M5586.4 2174.7c54.17,-42.74 112.81,-84.69 188.41,-86.61 37.52,-0.95 91.96,3.72 114.97,70.34 2.39,6.89 6.25,15.88 12.13,24.48 4.48,6.52 11.71,11.86 16.49,10.48 -20.55,11.05 -27.94,-2.55 -32.56,-14.01 -24.01,-59.2 -56.15,-78.53 -111.8,-77.81 -75.14,0.94 -136.12,38.99 -186.85,85.3l-0.79 -12.17z"/>
    <path class="fil0" d="M5814.94 2184.65c27.61,28.11 27.81,65.99 14.24,86.97 -23.66,36.52 -85.05,33.75 -87.22,-8.2 -6.17,-36.27 51.91,-57.69 59.29,-11.27 3.71,-20.87 -10.17,-37.4 -28.1,-41.3 -41.29,-8.98 -64.52,31.23 -49.89,66.26 19.95,47.76 81.01,43.75 106.9,19.62 28.85,-26.83 31.67,-77.11 -15.22,-112.08z"/>
    <path class="fil0" d="M5553.13 2262.47c-5.87,1.16 -12.47,-4.58 -12.69,-6.89 -6.07,-61.61 25.22,-221.61 85.57,-247.61 -32.64,-21.17 -51.97,-4.34 -69.65,15.81 -21.36,24.35 -32.72,124.15 -36.97,127.49 0,-7.22 16.37,-86.23 11.51,-143.75 -1.96,-23.1 -18.7,-49.58 -36.75,-63.52l0 -13.84c32.09,20.09 51.69,43.01 51.69,75.83 31.72,-21.79 56.07,-32.34 106.46,-3.66 -63.71,34.7 -119.92,199.05 -99.17,260.14z"/>
    <path class="fil0" d="M7176.62 2433.8c-268.95,179.24 -542.9,83.11 -753.34,-140.94 -8.57,-9.1 -3.9,-15.01 -12.3,-24.55 217.82,222.45 509.49,339.04 764.2,137.28 71.84,-56.91 124.08,-28.14 166.8,17.05 -68.38,-20.13 -99.13,-32.99 -165.36,11.16z"/>
    <path class="fil0" d="M7339.46 2421.32c-14.38,-58.26 -33.8,-119.85 -143.26,-86.05 22.97,-44.05 19.41,-48.17 27.54,-95.12 0.16,-1.02 -30.65,43.81 -93.2,96.52 -45.66,38.46 -107.67,84.79 -189.44,102.56 -164.12,35.66 -345.91,-27.33 -492.92,-154.31 -13.95,-12.05 -27.19,-24.43 -40.15,-36.96 1.28,-2.03 2.59,-4.06 3.87,-6.11 13.58,12.99 27.57,25.79 42.69,38.03 151.7,123.18 328.3,191.57 511.51,135.45 55.58,-17.04 108.08,-53.33 149.29,-92.56 56.47,-53.77 97.12,-110.6 144.08,-108.58 -21.57,51.11 -10.02,54.19 -29.06,94.77 112.53,-17.51 120.19,81.96 109.05,112.36z"/>
    <path class="fil0" d="M7211.3 2242.59c-12.12,-18.83 -51.64,16.61 -72.69,23.69 21.11,-44.07 -12.81,-53.89 -39.56,-60.13 -2.29,-0.52 -23.45,126.79 -201.65,168.88 -154.63,36.55 -326.39,-36.81 -463.25,-170.71 1.21,-2.14 2.39,-4.32 3.6,-6.48 142.36,130.52 310.35,207.75 483.78,149.95 121.15,-40.37 157.79,-121.06 174.02,-167.8 24.75,2.41 72.97,27.43 55.48,68.04 39.91,-33.58 84.65,-35.95 98.59,-31.06l-38.32 25.62z"/>
    <path class="fil0" d="M6460.22 2155.89c50.32,22.83 127.52,38.54 182.07,28.62 72.37,-13.19 118.91,-66.84 105.42,-120.83 18.72,0.23 66.77,8.53 59.83,73.97 -4.04,-26.21 -20.04,-57.31 -44.19,-56.86 12.52,47.06 -38.45,100.58 -124.95,114.66 -54.3,8.84 -128.99,-5.31 -179.19,-30.87 -1.28,-0.54 -2.17,-1.11 -2.79,-1.72 1.18,-2.33 2.39,-4.66 3.57,-7.03 0.09,0.02 0.17,0.05 0.23,0.06z"/>
    <path class="fil0" d="M6498.31 2253.06c26.3,16.02 65.8,38.29 96.89,48.76 78.37,26.32 180.96,7.93 222.75,0.08 16.64,-3.12 37.69,13.45 45.45,28.89 16.16,-2.96 41.64,-47.41 -1.28,-88.84 -12.94,3.4 -18.98,3.6 -19.89,5.99 9.28,3.45 16.75,6.45 22.87,13.09 14.52,15.74 13.9,37.32 -3.14,42.08 -27.86,-31.61 -63.84,-16.96 -99.16,-7.07 -45.87,12.89 -113.15,14.03 -166.61,-1.47 -33.28,-9.65 -68.88,-31.79 -98.83,-47 -5.37,3.43 -0.81,4.41 0.95,5.49z"/>
    <path class="fil0" d="M6861.24 2245.14c40.84,-10.01 53.81,-62.04 76.03,-75.32 -50.7,-49.04 -155.16,66.3 -252.96,70.22 -69.48,2.81 -153.25,-16.52 -235.41,-62.65 -1.58,2.97 -3.17,5.92 -4.77,8.86 132.78,77.64 292.37,89.04 416.41,6 15.03,-10.06 30.2,-18.73 47.13,-17.51 -25.98,28.17 -18.32,43.57 -67.24,72.73l20.81 -2.33z"/>
    <path class="fil0" d="M6768.57 2172.37c28.06,-19.56 34.85,-30.26 98.06,1.67l18.03 -12.13c-59.26,-29.13 -77.65,-34.23 -116.09,10.46z"/>
    <path class="fil0" d="M7069.51 2198.88c74.7,-46.49 300.89,40.21 456.99,-19.2 -66.46,119.59 -154.43,142.05 -305.66,87.2 -2.02,-0.72 5.91,-24.03 3.87,-24.8 -3.18,-1.16 -17.89,19.4 -21.2,18.29 -8.44,-2.79 9.62,-23.23 0.22,-27.27 -3.83,-1.63 -34.82,13.52 -38.78,11.72 -5.79,-2.59 -11.71,-5.34 -17.73,-8.18 -1.31,-1.97 11.19,-11.82 -41.38,-46.34 -5.01,-3.29 -7.38,23.18 -12.96,20.39 -7.66,-3.8 -15.45,-7.75 -23.37,-11.81zm77.84 13.9c51.74,-23.54 226.16,26.98 334.29,-3.1 -47.73,73.91 -140.35,58.71 -334.29,3.1z"/>
    <path class="fil0" d="M6800.39 2124.44c54.04,-39.83 217.68,34.45 330.63,-16.43 -49.86,124.99 -128.09,110.44 -330.63,16.43zm54.39 12.47c37.44,-20.16 165.55,22.55 243.79,-3.21 -34.53,63.31 -103.47,50.84 -243.79,3.21z"/>
    <path class="fil0" d="M6363.13 2313.61c-8.09,156.17 -41.04,264.2 -145.75,423.71 -17.86,27.21 -15.08,42.75 -19.46,88.79 -50.88,4.01 -104.98,-19.32 -98.69,-70.69 -34.4,17.48 -83.12,46.14 -123.27,21.2 1.91,-51.08 29.61,-81.47 66.47,-112.92 -10.78,-2.07 -19.61,-14.23 -28.35,-39.2 15,-4.33 51.6,-7.91 88.38,-24.78 55.4,-25.42 118.39,-72.35 149.51,-158.16 4.91,-4.85 9.8,-9.75 14.64,-14.7 -7.46,92.64 -89.17,163.68 -151.54,191.13 -33.13,14.6 -72.49,13.61 -81.22,17.57 6.71,16.62 20.61,22.26 36.68,21.7 -34.46,32 -69.43,62.1 -69.9,108.5 42.13,8.25 87.37,-18.79 127.22,-53.11 -37.36,86.63 19.42,89.53 50.43,98.24 -0.84,-33.03 7.93,-71.64 22.22,-92.52 101.67,-148.88 137.33,-264.2 145.97,-382.78 5.67,-7.25 11.19,-14.59 16.66,-21.98z"/>
    <path class="fil0" d="M6088.5 2703.19c110.07,-57.69 203.92,-149.77 228.62,-331.64 -6.51,7.64 -13.11,15.23 -19.85,22.69 -11.56,152.32 -107.33,237.58 -208.77,308.95z"/>
    <path class="fil0" d="M6497.88 2450.42c-7.19,35.95 10.38,66.26 30.23,76.33 34.51,17.55 78.45,-14.74 60.42,-49.24 -12.44,-31.96 -65.28,-20.61 -48.98,20.05 -12.5,-14.84 -10.02,-34.83 1.37,-46.71 26.23,-27.37 62.19,-6.66 67.79,28.42 7.67,47.85 -39.19,74.54 -69.57,67.98 -33.82,-7.28 -59.46,-45.99 -41.26,-96.83z"/>
    <path class="fil0" d="M6403.51 2255.06c25.36,26.83 66.17,76.44 87.6,136.79 9.46,26.66 11.2,55.5 9.35,86 -2.05,33.52 -9.57,62.74 -15.9,95.17 -4.5,22.91 -4.32,48.37 19.86,61.34 -27.05,-4.92 -32.87,-22.58 -33.23,-40.95 -0.62,-33.83 4.08,-68.95 5.65,-102.8 1.4,-30.63 1.65,-59.6 -2.81,-81.25 -14.07,-68.14 -40.35,-109.05 -72.71,-150.85 0.73,-1.15 1.47,-2.31 2.19,-3.45z"/>
    <path class="fil0" d="M6375.87 2296c9.26,17.31 18.95,40.03 20.91,62 2.75,31.04 -12.27,97.12 -28.96,121.06 -7.02,10.1 -0.92,-18.37 -1.05,-19.44 1.63,-4.84 3.11,-9.59 4.52,-14.27 17.88,-59.85 17.36,-107.85 2.74,-146.77l1.84 -2.58z"/>
    <path class="fil0" d="M6344.13 2480.42c20.5,16.78 33.44,23.96 54.68,19.31 -13.72,6.58 -27.8,19.6 -34.36,48.2 13.21,3.11 48.69,16.75 64.15,3.61 -2.11,28.86 8.45,59.16 24.87,78.43 16.4,19.26 37.42,30.65 53.68,27.93 -2.43,-1.06 -3.73,-10.21 -6.49,-10.4 -32.51,-2.36 -42.4,-15.71 -50.02,-41.2 -7.1,-23.71 -1.09,-59.1 7.91,-101.14 -26.77,40.16 -54.31,35.67 -70.08,27.03 9.25,-31.26 25.18,-28.7 40.3,-61.45 -20.93,2.59 -41.1,24.4 -62.76,7.75 7.52,-13.25 16.52,-42.04 11.2,-55.3 -11.03,37.95 -22.79,50.86 -33.08,57.23z"/>
    <path class="fil0" d="M6414.27 2336.51c16.47,37.44 31.58,91.47 12.61,137.56 -4.15,10.08 -23.52,33.54 -23.67,32.46 1.62,-4.81 4.78,-24.38 8.02,-29.08 21.54,-31.32 16.86,-94.67 0.06,-141.98l2.98 1.04z"/>
    <path class="fil0" d="M6484.7 2351.04c24.81,22.32 60.2,51.45 61.72,91.68 0.36,8.82 -12.02,38.39 -12.5,37.63 -0.43,-4.11 -4.69,-19.59 -3.88,-24.13 5.35,-30.18 -19.5,-75.47 -47.89,-104.95l2.55 -0.23z"/>
    <path class="fil0" d="M6447.56 2562.33c-53.22,-53.9 -93.97,53.2 -157.52,26.25 40.76,94.57 123.03,50 157.52,-26.25zm-20.71 7.78c-24.33,-18.46 -81.31,47.59 -119.08,33.26 54.25,45.78 102.82,5.19 119.08,-33.26z"/>
    <path class="fil0" d="M6499.88 2089.81c-1.48,4.36 45.88,1.45 41.45,45.11 -4.45,43.64 31.07,56.73 31.07,56.73l-69.55 -16 -44.44 -16.7c5.94,-11.73 11.65,-23.61 17.15,-35.59 12.42,-17.87 25.08,-35.8 24.32,-33.55z"/>
    <path class="fil0" d="M5543.64 2215.7c1.1,1.12 3.86,9.14 4.68,7.43 35.51,-74.6 105.81,-22.02 81.22,23.56 -13.33,24.74 -54.69,24.51 -58.12,-1.89 -3.99,-23.5 32.96,-34.21 37.75,-4.14 2.4,-13.53 -6.6,-24.23 -18.21,-26.76 -26.75,-5.8 -41.8,20.26 -32.33,42.96 12.92,30.93 58.5,30.54 75.72,10.58 34.91,-40.41 10.54,-90.49 -40.23,-92.38 -42.13,-1.58 -47.97,42.5 -50.48,40.64z"/>
    <path class="fil0" d="M5668.11 2328.75c-18.3,-8.54 -35.67,8.51 -10.57,13.4 39.7,7.72 66.82,-31.68 48.59,-61.89 -12.27,-20.35 -48.3,-22.32 -54.64,6.39 -4,23.51 35.89,30.2 40.68,0.13 2.41,13.51 -5.43,25.95 -23.46,29.05 -27.01,4.61 -44.14,-21.41 -34.67,-44.1 12.91,-30.93 58.52,-30.53 75.72,-10.6 34.88,40.4 12.55,92.95 -41.85,91.9 -85.27,-1.69 -20.64,-57.53 0.2,-24.28z"/>
    <path class="fil0" d="M5492.96 2253.66c81.82,0 148.19,42.86 148.19,95.69 0,3.69 -0.33,7.31 -0.94,10.86 -6.38,1.36 -12.78,2.61 -19.22,3.81 0.65,-3.17 0.98,-6.4 0.98,-9.65 0,-44.65 -61.65,-86.93 -128.31,-86.93 -66.68,0 -129.04,41.61 -129.04,86.25 0,3.56 0.41,7.07 1.14,10.51 -6.71,-1.22 -13.39,-2.55 -20.05,-3.96 -0.63,-3.56 -0.96,-7.2 -0.96,-10.89 0,-52.83 66.37,-95.69 148.21,-95.69z"/>
    <path class="fil1" d="M5362.97 327.29c-2.29,-33.89 -41.36,-91.58 -83.98,-96.16 -16.38,-13.08 -86.14,-0.62 -107.24,18.71 -35.43,27.37 -56.61,93.2 -74.73,148.59 -19.86,60.75 -45.94,134.67 -92.26,196.64 -52.8,40.66 -88.86,-29.64 -110.62,60.21 -4.91,11.97 -1.78,33.84 -8.95,38.02 -7.2,4.18 -24.76,-9.33 -43.7,-7.63 -49.85,-16.53 -59.36,18.45 -67.49,31.57 -5.49,8.85 1.61,26.12 -8.11,31.74 -21.43,12.34 -58.53,8.82 -80.32,7.81 -20.79,-0.99 -70.59,3.86 -93.54,46.58 -12.25,22.77 -14.33,50.17 -6.86,72.95 6.6,20.09 53.31,53.76 77.49,60.3 17.61,7.39 -13.03,9.94 -20.95,6.97 -10.01,-3.73 -23.68,-10.11 -35.11,-15.11 -35.44,-15.43 -75.55,4.38 -115.22,1.4 -108.3,5.5 -257.26,14.75 -391.67,63.9 -132.93,48.6 -271.28,137.84 -356,308.31 -10.69,21.5 -34.22,77.89 -38.68,141.53 26.08,-42.24 58.15,-70.75 99.2,-97.44 -40.48,35.88 -84.62,104.77 -107.3,158.7 -18.59,44.14 -27.16,116.43 -0.79,168.23 4,70.04 -24.64,102.02 -36.94,170.79 0,0.05 13.24,29.98 9.33,70.29 -4.72,48.64 -31.97,110.5 -28.86,127.76 -60.88,-89.04 -67.78,-88.39 -33.07,-191.01 5.04,-14.88 54.52,-66.02 47.66,-185.79 -1.85,-32.42 -3.71,-64.86 -3.9,-98.21l0 -0.09 0 -8.67 0 -0.09c0.2,-50.85 6.58,-93.66 18.58,-135.18 11.95,-41.4 29.3,-81.09 51.6,-125.96 90.45,-181.99 226.88,-278.01 369.05,-329.99 140.68,-51.44 285.61,-59.17 396.73,-64.86 45.48,-2.29 55.81,-58.67 71.76,-88.32 35.79,-66.53 82.48,-84.56 119.79,-82.82 30.17,1.41 57.53,1.14 74.38,-26.07 9.91,-17.87 18.74,-35.65 50.61,-40.95 25.01,-4.16 51.28,12.17 61.43,-14.88 7.47,-19.92 16.24,-43.26 47.45,-57.62 14.66,-6.72 27.97,-9.99 40.44,-13.07 15.16,-3.7 28.74,-7.03 37.04,-16.48 45.71,-52.04 66.21,-114.73 84.81,-171.57 20.26,-61.97 38.46,-117.61 84.17,-152.92 16.88,-13.04 36.92,-21.91 58.02,-26.27 24.41,-5.01 50.3,-3.95 74.47,3.83 24.44,7.86 47.1,22.48 64.69,44.47 13.91,17.38 24.57,39.34 30.25,66.08l3.06 22.34c2,14.53 -0.74,16.89 -12.11,8.48 -19.11,-14.15 -31.86,-4.46 -47.43,-17.65 -14.54,11.76 -14.15,41.6 -34.2,31.49 -6.51,-3.3 9.58,-13.68 -0.19,-32.37 -19.32,-36.94 -62.15,-31.64 -71.61,-3.86 -14.53,42.67 -19.04,141.88 -30.49,211.71 -7,42.58 -13.32,81.16 -20.03,106.85l0 0.09 -0.04 0.13c-27.22,103.64 -102.29,118.5 -157.8,168.65 -31.5,28.44 -18.2,65.31 -25.59,100.82 -5.63,27.19 -48.77,68.16 -115.23,75.59 -5.06,-1.97 54.3,-34.03 76.97,-60.74 16.55,-19.47 18.79,-43.93 18.4,-52.16l0 -0.09c-1.42,-30.31 1.53,-50.03 28.19,-74.09 36.68,-33.12 111.39,-75.28 134.62,-113.28 49.51,-80.98 43.04,-203.77 59.68,-296.16 9.24,-51.34 21.93,-91.41 46.65,-102.19 54.2,-23.64 90.83,43.21 124.49,28.22z"/>
    <path class="fil1" d="M3696.49 1668.94c23.89,54.38 42.31,150.65 30.93,194.99 -11.2,43.57 -28.33,84.47 -47.03,128.83l0.02 0.01 -0.08 0.19 -0.09 0.09c-8.35,19.87 -11.48,42.35 -12.21,64.25 -0.3,8.59 -2.15,21.46 21.07,24.66 0.16,5.02 -21.44,10.64 -22.44,15.55 -3.54,17.54 -12.8,34.12 -16.62,48.69l-2.5 9.39c-7,25.29 20.53,26.32 27.23,26.09l100.84 -8.36c1.87,7.47 55.12,15.61 44.93,-20.52 -4.47,-15.82 -20.78,-34.25 -44,-25.41 -2.62,-12.09 58.58,-21.44 59.62,39.32 0.19,11.43 35.76,10.11 35.74,-1.87 -6.56,-43.74 -18.43,-55.35 -44.29,-44.72 -2.06,-3.8 9.36,-15.06 7.83,-18.66 -3.04,-7.19 -18.81,-7.45 -20.85,-15.59 46.43,-40.26 -11.19,-46.96 -6.04,-59.6 25.88,-63.22 48.46,-104.05 91.85,-146.91 19.95,-19.67 45.05,-42.95 61.17,-69.96 11.79,-19.81 20.65,-44.81 28.94,-99.52 20.28,-63.02 79.12,-250.52 147.16,-272.31 -8.26,9.64 -18.6,26.1 -29,45.42 -4.98,9.25 -9.98,19.18 -14.75,29.35 -20.66,44.01 -37.28,92.44 -31.45,110.15 4.32,13.21 11.68,31.74 9.97,44.06 -0.64,4.76 10.8,19.89 6.84,16.83 -29.08,-22.23 -62.16,19.44 -61.82,42.04 -6.51,96.07 -13.74,70.2 -106.15,167.77 -20.38,21.53 -30.15,46.4 -43.77,70.31 -13.97,24.48 -18.62,60.34 -14.72,92.71 0.82,6.87 2.03,13.45 3.56,19.57 1.51,5.98 3.38,11.69 5.62,16.98 1.22,2.88 2.43,5.4 3.54,7.49l3.77 6.91 0.02 -0.03c11.32,20.71 19.47,35.66 19.99,49.84 1,27.06 -15.7,38.65 -63.64,40.37l-155.17 5.56c-39.16,1.38 -51.75,-6.58 -52.67,-31.51 -0.3,-8.44 1.96,-16.64 5,-27.61 1.41,-5.13 1.96,-6.9 2.49,-8.91 3.39,-12.85 13.65,-31.21 13.05,-51.14 -1.72,-55.69 13.72,-101.57 31.72,-147.68 26.3,-67.39 52.64,-125 26.39,-267.11z"/>
    <path class="fil1" d="M4127.58 1778.51c24.41,58.13 56.38,140.57 23.46,184.09 -12.05,24.44 -33.18,32.29 -24.32,60.95l0.02 -0.02c8.99,18.52 65.31,96.14 40.63,111.52l0.01 0.05c-3.8,2.36 -8.1,3.61 -12.97,3.7 -75.72,1.4 -325.03,56.31 -202.52,-93.1 32.08,-51.34 -16.84,-103.96 -50.28,-140.15l23.92 -25.88c30.26,43.55 77.9,107.8 52.87,163.07 -2.12,4.66 15.77,5.92 12.64,10.96 -1.38,2.18 -23.25,8.13 -24.59,10.59 -45.73,83.72 73.97,57.67 122.43,57.4 -16.8,-15.88 -15.13,-31.75 0.18,-47.62 -8.04,38.81 30.53,54.33 67.48,48.9 14.23,-34.32 -58.15,-58.74 -68.84,-81.52 0,-0.02 5.01,-37.2 1.79,-38.15 -64.07,-18.79 5.56,-16.35 14.49,-20.16 71.64,-30.5 6.29,-170.57 -20.44,-211.61l4.12 -2.63c12.62,4.19 26.37,11.2 39.92,9.61z"/>
    <path class="fil1" d="M4003.99 1764.91c64.01,14.64 164.69,19.71 241.01,-11.61 77.09,-31.64 115.39,-58.22 215.72,-130.07 2.4,-1.71 30.01,-27.56 32.49,-29.35l14.05 27.48c-113.26,79.19 -169.94,111.72 -252.22,145.48 -84.89,34.83 -183.19,28.84 -256.64,12.05l5.59 -13.98z"/>
    <path class="fil0" d="M4060.13 1577.69c15.12,183.46 192.54,105.68 350.36,49.53 -77.65,68.43 -298.95,143.88 -374.99,13.88 0,0 26.25,-65.01 24.63,-63.41z"/>
    <path class="fil1" d="M3966.63 1101.93c114.35,-57.84 224.86,-94.52 352.45,-142.2 -100.57,14.76 -253.25,63.24 -368.42,135.13 -81.38,50.82 -167.02,144.89 -200.16,235.06 55.25,-53.98 98.15,-168.29 216.13,-227.99z"/>
    <path class="fil1" d="M4727.98 1209.4c0.29,14.42 37.17,145.67 37.2,159.84 0.29,137.33 -11.49,264.65 -47.64,393.64 -3.29,11.88 -16.01,57.44 -24.51,101.74 -11.98,62.6 -12.61,110.83 0.21,140.32 31.07,24.34 50.41,41.99 52.8,63.29 2.65,23.55 5.07,34 -8.82,39.53 -0.67,-1.15 -1.33,-2.27 -1.99,-3.39l-233.4 0c1.93,4.39 3.9,8.75 5.88,13.11 -14.22,-1.26 -23.85,-4.43 -25.78,-11.3 -0.07,-0.19 -8.64,-34.32 10.6,-66.78 17.45,-53.25 18.96,-119.63 11.39,-196.53 -5.88,-59.8 -6.74,-137.53 2.51,-185.37 -16.46,-10.7 -40.04,-69.38 -15.69,-178.18 11.68,-52.09 -0.37,-103.7 1.89,-123.78 16.78,39.3 23,109.77 13.68,173.79 -4.84,33.34 -5.07,56.17 8.74,89.31 26.17,38.24 68.28,10.41 64.63,-54.76 24.01,90.56 -36.37,98.03 -54.79,99.67 -9.2,47.38 -3.26,194.63 4.63,256.22 1.4,16.68 4.07,31.6 5.32,46.46 2.04,24.67 26.27,33.61 26.02,37.37 -0.47,6.71 -26.61,3.99 -28.41,11.22 -11.58,11.29 -14.3,23.5 -21.33,37.18 -10.53,17.77 -2.23,35.13 5.18,42.8 12.62,13.04 91.31,5.42 109.26,2.54 74.3,-1.7 47.12,-54.34 25.05,-71.34 18.09,4.86 62.14,33.77 33.28,67.08 33.63,8.35 42.45,2.56 46.73,-8.83 -11.92,-63.67 -51.05,-45.83 -61.66,-59.09 -6.76,-8.5 -9.73,-26.9 -9.97,-50.91 -0.23,-25.43 -22.44,-30.18 -16.1,-32.95 17.71,-7.76 18.99,-21.51 19.74,-28.4 4.09,-37.14 11.26,-77.95 19.5,-114.14 3.7,-16.34 7.62,-31.82 11.47,-45.53 3.9,-14.04 7.76,-26.18 11.33,-35.6l0.09 -0.26 0.02 -0.07c22.67,-60.3 38.76,-264.65 30.48,-348.29l-7.54 -159.61zm-22.94 507.9l0.03 0 -0.03 0z"/>
    <path class="fil1" d="M4814.09 1226.42c70.62,102.8 137.21,219.36 225.11,303.07 43.51,41.46 109.24,102.58 118.08,141.74l0.03 0.17 0.07 0.09c4.2,18.79 3.58,46.83 2.94,75.3 -0.77,33.67 -1.53,66.14 0.57,76.3l4.25 0.38 0.09 0.16c3.06,4.24 5.77,8.66 8.1,13.12 2.31,4.38 4.28,8.82 5.94,13.15 26.83,70 -20.05,61.26 -61.6,63.29 -23.34,1.17 -52.13,2.94 -75.25,2.94 -45.68,0 -84.31,2.45 -87.4,-15.87l-0.03 -0.22 -1.99 -4.89c-7.52,-36.85 14.83,-53.43 27.04,-73.48 4.9,-22.91 -2.86,-65.71 -11.16,-75.17l-0.1 -0.08 -0.03 -0.03 0 0c-1.25,-1.44 0.29,-9.68 -3.03,-12.81 -33.59,-31.71 -75.12,-71.74 -111.86,-102.42 -16.63,-13.85 -42.48,-35.22 -57.99,-38.2 -15.28,-2.95 -32.43,-4.44 -53.79,3.81l-13.69 -15.1c29.33,-11.32 54.13,-14.39 77.73,-9.85 23.43,4.52 44.46,16.33 66.62,34.83 31.56,26.33 64.16,67.57 91.72,92.18 5.17,4.6 20.86,12.85 25.15,16.94 4.22,3.93 9.53,0.48 11.76,3.02l0.1 0.08 0.03 0.05 -0.01 0c9.14,10.52 -5.26,36.6 -3.5,58.07 2.06,25.5 -3.95,26.35 11.52,56.31 -20.12,9.76 -39.78,20.33 -34.02,48.67 7.28,36.08 96.74,18.06 117.46,18.06 31.52,11.68 5.15,-22.83 20.72,-32.98 10.27,44.26 37.27,24.11 45.42,23.48 28.13,-13.86 1.72,-56.04 -40.74,-62.65 26.77,-22.22 15.53,-42.73 -1.02,-50.76 26.61,-4.02 26.6,-92.14 2.06,-123 -43.03,-54.16 -64.11,-80.07 -101.49,-115.68 -12.32,-11.74 -49.25,-61.01 -63.78,-64.03 -24.22,-5.04 -25.8,46.9 -31.58,16.6 -4.69,-24.51 5.99,-38.14 -3.3,-62.31 -23.7,-61.74 -77.53,-131.6 -109.76,-178.74l4.61 -23.54z"/>
    <path class="fil0" d="M4888.56 1153.74c0,0 -65.23,24.21 -72.1,80.49 -6.89,56.28 -64.32,149.91 -64.32,149.91 -17.56,-76.21 50.31,-100.44 46.5,-151.84 -1.76,-24.06 16.31,-51.83 28.7,-63.09l61.22 -15.47z"/>
    <path class="fil0" d="M4734.78 1031.68c-5.9,36.35 -34,73.2 -21.6,106.64 33.74,91.11 6.8,104.1 14.42,154.77 10.48,69.68 12.67,101.42 -46.76,54.98 -32.18,-25.14 -44.78,-72.81 -120.48,-84.74 -142.95,-22.49 -154.12,-79.23 -153.78,-79.53l25.1 -21.42c0.28,12.36 6.18,-7.86 9.55,1.13 12.66,33.91 44.14,46.84 71.68,61.13 62.12,32.31 114.67,33.12 191.53,108.93 11.45,-46.06 5.98,-99.8 -8.34,-174.82 -8.32,-43.76 22.42,-74.77 38.68,-127.07z"/>
    <path class="fil0" d="M4827.74 1981.9c214.56,-164.65 433.14,-76.35 601.04,129.44 6.83,8.35 3.11,13.78 9.81,22.55 -173.78,-204.31 -409.31,-314.61 -612.53,-129.27 -57.32,52.27 -102.54,39.36 -154.17,55.22 72.84,-57.16 102.97,-37.4 155.85,-77.94z"/>
    <path class="fil0" d="M4670.38 2040.73c50.1,-16.36 90.97,76.21 160.73,26.75 -18.33,44.1 -17.02,76.63 0.06,118.24 0.72,1.72 24.45,-179.76 179.23,-221.69 155.55,-42.14 299.02,34.33 419.76,177.3 5.86,6.93 2.65,11.16 8.43,18.44 -128.46,-146.12 -279.86,-224.83 -440.28,-163.22 -105.18,40.39 -140.43,127.14 -157.22,223.74 -4.29,24.63 -55.52,-56.61 -29.39,-125.18 -89.78,17.49 -133.34,-51.75 -141.32,-54.38z"/>
    <path class="fil0" d="M5427.71 2188.05c-48.89,-65.52 -162.83,-149.74 -250.24,-165.45 -76.23,-13.71 -145.03,18.66 -154.31,115.51 -25.56,-13.91 -39.34,8.13 -67.28,-20.87 -4.71,20.84 -15.09,35.7 -29.02,51.4 -4.89,3.7 -10.34,8.28 -16.52,13.79l-23.02 22.21c-24.74,-44.07 -26.31,-91.35 23.72,-153.54 -26.96,53.96 -34.84,96.51 -14.18,112.54 25.58,-5.41 43.7,-35.54 56.67,-71.92 16.13,27.84 38.17,17.4 59.02,25.52 14.4,-94.3 89.85,-121.31 166.39,-107.5 82.04,14.8 213.78,103.02 246.41,171.34 0,0 -1.19,8.12 2.36,6.97z"/>
    <path class="fil1" d="M5384.65 2186.22c-1.95,1.14 -92.51,-28.89 -166.66,-28.99 -57.46,-0.07 -52.55,47.71 -113.55,59.97 -19.6,3.94 -44.6,5.11 -62.9,-3.96 -29.5,-14.61 -36.34,-48.4 0.86,-60.65 24.96,-8.2 41.52,8.67 41.94,35.03 24.44,-3.2 19.7,-67.72 -41.39,-57.23 -34.51,9.43 -44.62,40.93 -34.36,66.65 12.83,11.86 26.11,23.25 39.82,34.15 17.32,4.54 38.35,2.93 55.58,-0.63 54.7,-11.27 57.74,-50.59 114.68,-55.01 50.81,-3.95 108.76,7.49 140.34,14.95 10.96,2.58 -11.88,11.72 12.74,-0.66l12.9 -3.62z"/>
    <path class="fil0" d="M5401.86 2174.7c-54.19,-42.74 -112.8,-84.69 -188.4,-86.61 -37.52,-0.95 -91.95,3.72 -114.97,70.34 -2.39,6.89 -6.25,15.88 -12.14,24.48 -4.46,6.52 -11.71,11.86 -16.47,10.48 20.55,11.05 27.94,-2.55 32.57,-14.01 24,-59.2 56.14,-78.53 111.8,-77.81 75.13,0.94 136.1,38.99 186.84,85.3l0.77 -12.17z"/>
    <path class="fil0" d="M5173.32 2184.65c-27.59,28.11 -27.81,65.99 -14.23,86.97 23.63,36.52 85.04,33.75 87.23,-8.2 6.16,-36.27 -51.92,-57.69 -59.3,-11.27 -3.71,-20.87 10.18,-37.4 28.09,-41.3 41.32,-8.98 64.52,31.23 49.9,66.26 -19.94,47.76 -81,43.75 -106.9,19.62 -28.84,-26.83 -31.69,-77.11 15.21,-112.08z"/>
    <path class="fil0" d="M5435.13 2262.47c5.88,1.16 12.49,-4.58 12.7,-6.89 6.08,-61.61 -25.21,-221.61 -85.58,-247.61 32.66,-21.17 51.98,-4.34 69.67,15.81 21.37,24.35 32.7,124.15 36.97,127.49 0,-7.22 -16.39,-86.23 -11.51,-143.75 1.94,-23.1 18.69,-49.58 36.77,-63.52l0 -13.84c-32.12,20.09 -51.72,43.01 -51.72,75.83 -31.71,-21.79 -56.06,-32.34 -106.45,-3.66 63.71,34.7 119.92,199.05 99.15,260.14z"/>
    <path class="fil0" d="M3811.65 2433.8c268.94,179.24 542.9,83.11 753.34,-140.94 8.57,-9.1 3.91,-15.01 12.3,-24.55 -217.81,222.45 -509.49,339.04 -764.2,137.28 -71.85,-56.91 -124.09,-28.14 -166.79,17.05 68.37,-20.13 99.11,-32.99 165.35,11.16z"/>
    <path class="fil0" d="M3648.82 2421.32c14.36,-58.26 33.8,-119.85 143.26,-86.05 -22.97,-44.05 -19.41,-48.17 -27.55,-95.12 -0.19,-1.02 30.66,43.81 93.2,96.52 45.67,38.46 107.68,84.79 189.45,102.56 164.11,35.66 345.91,-27.33 492.92,-154.31 13.4,-11.59 26.18,-23.48 38.68,-35.54 -1.3,-2.03 -2.61,-4.07 -3.88,-6.12 -13.13,12.5 -26.67,24.82 -41.21,36.62 -151.7,123.18 -328.32,191.57 -511.51,135.45 -55.6,-17.04 -108.08,-53.33 -149.3,-92.56 -56.48,-53.77 -97.12,-110.6 -144.08,-108.58 21.57,51.11 10.03,54.19 29.06,94.77 -112.53,-17.51 -120.19,81.96 -109.04,112.36z"/>
    <path class="fil0" d="M3776.97 2242.59c12.13,-18.83 51.63,16.61 72.7,23.69 -21.11,-44.07 12.8,-53.89 39.56,-60.13 2.29,-0.52 23.43,126.79 201.64,168.88 154.05,36.42 325.1,-36.26 461.73,-169.22 -1.24,-2.16 -2.45,-4.34 -3.66,-6.53 -142.01,129.65 -309.39,206.09 -482.19,148.51 -121.16,-40.37 -157.79,-121.06 -174.02,-167.8 -24.77,2.41 -73,27.43 -55.49,68.04 -39.9,-33.58 -84.66,-35.95 -98.59,-31.06l38.32 25.62z"/>
    <path class="fil0" d="M4526.33 2156.67c-50.33,22.38 -126.43,37.66 -180.35,27.84 -72.36,-13.19 -118.92,-66.84 -105.41,-120.83 -18.72,0.23 -66.79,8.53 -59.85,73.97 4.06,-26.21 20.06,-57.31 44.2,-56.86 -12.52,47.06 38.46,100.58 124.95,114.66 54.31,8.84 128.99,-5.31 179.19,-30.87 0.39,-0.16 0.74,-0.34 1.06,-0.49 -1.26,-2.47 -2.55,-4.93 -3.79,-7.42z"/>
    <path class="fil0" d="M4489.95 2253.06c-26.25,16.02 -65.78,38.29 -96.87,48.76 -78.4,26.32 -180.97,7.93 -222.76,0.08 -16.63,-3.12 -37.69,13.45 -45.45,28.89 -16.16,-2.96 -41.65,-47.41 1.27,-88.84 12.96,3.4 18.99,3.6 19.9,5.99 -9.27,3.45 -16.75,6.45 -22.87,13.09 -14.51,15.74 -13.89,37.32 3.14,42.08 27.87,-31.61 63.84,-16.96 99.17,-7.07 45.86,12.89 113.15,14.03 166.6,-1.47 33.28,-9.65 68.88,-31.79 98.85,-47 5.36,3.43 0.78,4.41 -0.98,5.49z"/>
    <path class="fil0" d="M4127.03 2245.14c-40.85,-10.01 -53.8,-62.04 -76.02,-75.32 50.68,-49.04 155.16,66.3 252.95,70.22 68.95,2.79 151.99,-16.26 233.59,-61.64 1.58,2.98 3.16,5.95 4.78,8.9 -132.42,76.7 -291.12,87.6 -414.59,4.95 -15.05,-10.06 -30.2,-18.73 -47.14,-17.51 25.98,28.17 18.31,43.57 67.24,72.73l-20.81 -2.33z"/>
    <path class="fil0" d="M4219.7 2172.37c-28.05,-19.56 -34.85,-30.26 -98.05,1.67l-18.03 -12.13c59.26,-29.13 77.65,-34.23 116.08,10.46z"/>
    <path class="fil0" d="M4187.89 2124.44c-54.05,-39.83 -217.68,34.45 -330.63,-16.43 49.86,124.99 128.08,110.44 330.63,16.43zm-54.39 12.47c-37.44,-20.16 -165.56,22.55 -243.8,-3.21 34.54,63.31 103.48,50.84 243.8,3.21z"/>
    <path class="fil0" d="M4625.33 2317.07c8.41,154.3 41.64,261.91 145.57,420.25 17.86,27.21 15.08,42.75 19.44,88.79 50.89,4.01 105,-19.32 98.71,-70.69 34.4,17.48 83.09,46.14 123.27,21.2 -1.92,-51.08 -29.61,-81.47 -66.48,-112.92 10.79,-2.07 19.59,-14.23 28.33,-39.2 -14.98,-4.33 -51.57,-7.91 -88.37,-24.78 -54.6,-25.05 -116.57,-71.03 -148.12,-154.51 -5.32,-5.17 -10.6,-10.43 -15.8,-15.7 8.78,91.33 89.56,161.29 151.31,188.48 33.15,14.6 72.51,13.61 81.22,17.57 -6.71,16.62 -20.59,22.26 -36.66,21.7 34.46,32 69.42,62.1 69.9,108.5 -42.14,8.25 -87.37,-18.79 -127.23,-53.11 37.37,86.63 -19.42,89.53 -50.42,98.24 0.82,-33.03 -7.95,-71.64 -22.22,-92.52 -100.74,-147.5 -136.67,-262.06 -145.74,-379.47 -5.65,-7.2 -11.22,-14.49 -16.71,-21.83z"/>
    <path class="fil0" d="M4899.76 2703.19c-109.38,-57.36 -202.8,-148.65 -228.17,-328.36 6.45,7.52 12.99,14.96 19.63,22.29 12.56,150.51 107.76,235.14 208.54,306.07z"/>
    <path class="fil0" d="M4490.4 2450.42c7.18,35.95 -10.4,66.26 -30.23,76.33 -34.53,17.55 -78.46,-14.74 -60.44,-49.24 12.46,-31.96 65.29,-20.61 48.99,20.05 12.5,-14.84 10.02,-34.83 -1.37,-46.71 -26.22,-27.37 -62.18,-6.66 -67.8,28.42 -7.67,47.85 39.2,74.54 69.57,67.98 33.83,-7.28 59.49,-45.99 41.28,-96.83z"/>
    <path class="fil0" d="M4583.34 2256.56c-25.43,27.16 -65.13,76.05 -86.17,135.29 -9.47,26.66 -11.21,55.5 -9.35,86 2.04,33.52 9.56,62.74 15.9,95.17 4.49,22.91 4.32,48.37 -19.86,61.34 27.04,-4.92 32.85,-22.58 33.21,-40.95 0.63,-33.83 -4.08,-68.95 -5.63,-102.8 -1.4,-30.63 -1.66,-59.6 2.82,-81.25 13.88,-67.23 39.63,-107.97 71.43,-149.19 -0.79,-1.21 -1.59,-2.39 -2.35,-3.61z"/>
    <path class="fil0" d="M4611.39 2297.91c-8.94,17.04 -18.01,38.9 -19.9,60.09 -2.75,31.04 12.27,97.12 28.95,121.06 7.04,10.1 0.93,-18.37 1.06,-19.44 -1.62,-4.84 -3.11,-9.59 -4.52,-14.27 -17.54,-58.71 -17.35,-106.03 -3.54,-144.56l-2.05 -2.88z"/>
    <path class="fil0" d="M4644.14 2480.42c-20.48,16.78 -33.44,23.96 -54.68,19.31 13.73,6.58 27.81,19.6 34.36,48.2 -13.2,3.11 -48.69,16.75 -64.14,3.61 2.1,28.86 -8.45,59.16 -24.87,78.43 -16.42,19.26 -37.43,30.65 -53.69,27.93 2.44,-1.06 3.73,-10.21 6.48,-10.4 32.52,-2.36 42.41,-15.71 50.03,-41.2 7.1,-23.71 1.1,-59.1 -7.9,-101.14 26.77,40.16 54.3,35.67 70.07,27.03 -9.24,-31.26 -25.17,-28.7 -40.29,-61.45 20.92,2.59 41.08,24.4 62.76,7.75 -7.52,-13.25 -16.52,-42.04 -11.24,-55.3 11.06,37.95 22.83,50.86 33.11,57.23z"/>
    <path class="fil0" d="M4574.01 2336.51c-16.48,37.44 -31.6,91.47 -12.63,137.56 4.13,10.08 23.53,33.54 23.68,32.46 -1.63,-4.81 -4.79,-24.38 -8.01,-29.08 -21.55,-31.32 -16.87,-94.67 -0.07,-141.98l-2.97 1.04z"/>
    <path class="fil0" d="M4503.57 2351.04c-24.82,22.32 -60.19,51.45 -61.75,91.68 -0.33,8.82 12.06,38.39 12.53,37.63 0.43,-4.11 4.7,-19.59 3.89,-24.13 -5.36,-30.18 19.5,-75.47 47.87,-104.95l-2.54 -0.23z"/>
    <path class="fil0" d="M4540.71 2562.33c53.23,-53.9 93.97,53.2 157.52,26.25 -40.75,94.57 -123.03,50 -157.52,-26.25zm20.7 7.78c24.35,-18.46 81.32,47.59 119.09,33.26 -54.24,45.78 -102.82,5.19 -119.09,-33.26z"/>
    <path class="fil0" d="M4488.4 2089.81c1.46,4.36 -45.89,1.45 -41.45,45.11 4.45,43.64 -31.08,56.73 -31.08,56.73l69.54 -16 42.46 -15.94c-7.63,-15.09 -14.88,-30.4 -21.82,-45.9 -9.89,-14.12 -18.29,-25.85 -17.65,-24z"/>
    <path class="fil0" d="M5444.65 2215.7c-1.14,1.12 -3.89,9.14 -4.7,7.43 -35.51,-74.6 -105.8,-22.02 -81.23,23.56 13.35,24.74 54.71,24.51 58.14,-1.89 3.98,-23.5 -32.97,-34.21 -37.75,-4.14 -2.4,-13.53 6.6,-24.23 18.2,-26.76 26.76,-5.8 41.79,20.26 32.33,42.96 -12.93,30.93 -58.49,30.54 -75.72,10.58 -34.91,-40.41 -10.54,-90.49 40.24,-92.38 42.12,-1.58 47.97,42.5 50.49,40.64z"/>
    <path class="fil0" d="M5320.17 2328.75c18.3,-8.54 35.65,8.51 10.57,13.4 -39.71,7.72 -66.82,-31.68 -48.59,-61.89 12.27,-20.35 48.3,-22.32 54.64,6.39 4,23.51 -35.91,30.2 -40.69,0.13 -2.4,13.51 5.43,25.95 23.46,29.05 26.99,4.61 44.14,-21.41 34.68,-44.1 -12.92,-30.93 -58.53,-30.53 -75.74,-10.6 -34.86,40.4 -12.54,92.95 41.87,91.9 85.27,-1.69 20.64,-57.53 -0.2,-24.28z"/>
    <path class="fil1" d="M5492.95 2396.82l-0.09 0 0 -0.06c-98.2,0 -191.86,-19.5 -277.23,-54.79 -14.24,-5.89 -27.94,-12.07 -41.01,-18.46l0 -0.03c-69.1,-33.76 -131.99,-78.2 -186.48,-131.12 -16.04,-15.57 -25.71,-24.53 -33.69,-25.16l-0.02 0c-7.98,-0.64 -18.37,6.55 -36.83,23.07l-39.49 38.04 -0.14 0.15 -2.13 1.97c-2.29,2.09 -4.49,4.13 -6.15,5.75 -11,10.8 -14.9,21.11 16.42,51.94l0.03 0 0.05 0.06 0 0.03c21.78,21.44 44.73,41.78 68.77,60.86 24.02,19.09 49.08,36.92 75.09,53.4 133.75,84.75 292.58,133.9 462.9,133.9l0 -0.06 0.1 0 0 0.06c118.25,-0.02 230.99,-23.74 333.64,-66.59 16.88,-7.06 33.34,-14.53 49.33,-22.44 83.05,-41.01 158.52,-94.98 223.76,-159.17 31.35,-30.88 27.45,-41.19 16.41,-51.99l-0.02 0c-2.35,-2.32 -4.18,-3.99 -6.11,-5.75l-2.12 -1.97 -0.17 -0.15 -39.46 -38.04c-18.47,-16.52 -28.84,-23.71 -36.84,-23.07l-0.04 0c-7.95,0.63 -17.6,9.57 -33.61,25.1l0.03 0.03 -0.06 0.04 -0.09 0.06c-18.29,17.73 -37.44,34.49 -57.41,50.17 -19.88,15.6 -40.77,30.29 -62.58,43.97 -111.44,69.83 -243.39,110.25 -384.76,110.25zm-0.09 -21.18l0 -0.03 0.09 0c137.23,0 265.19,-39.16 373.22,-106.86 20.85,-13.09 41.14,-27.34 60.72,-42.73 19.45,-15.26 38.04,-31.5 55.65,-48.61l-0.01 -0.02 0.07 -0.07 0.07 -0.03c19.58,-19.01 31.71,-29.97 47.03,-31.2l0 0c15.33,-1.26 29.8,7.69 53.1,28.51l0.29 0.29 39.6 38.17 0 -0.01 2.13 1.97c2.51,2.32 4.98,4.6 6.6,6.18l-0.03 0.02c20.22,19.84 28.71,37.48 -16.36,81.85 -66.84,65.81 -144.21,121.1 -229.39,163.15 -16.72,8.25 -33.59,15.93 -50.54,23.01 -105.17,43.94 -220.78,68.23 -342.05,68.26l0 0.03 -0.1 0 0 -0.03c-174.66,0 -337.44,-50.36 -474.53,-137.21 -26.64,-16.91 -52.34,-35.18 -76.94,-54.72 -24.6,-19.53 -48.14,-40.38 -70.52,-62.4l-0.02 0 -0.07 -0.05 0 -0.04c-45.1,-44.38 -36.59,-62.01 -16.34,-81.87 2.31,-2.29 4.42,-4.2 6.55,-6.18l2.13 -1.97 0 0.01 39.6 -38.17 0.29 -0.29c23.3,-20.82 37.79,-29.77 53.08,-28.51l0 0c15.34,1.23 27.47,12.19 47.04,31.2 52.89,51.36 113.91,94.47 180.96,127.25l0.04 0c13.38,6.54 26.66,12.53 39.76,17.97 82.79,34.22 173.62,53.13 268.88,53.13z"/>
    <path class="fil1" d="M5492.95 2762.37l-0.1 0 0 -0.05c-112.16,-0.02 -220.31,-16.84 -322.05,-48.09 -49.61,-15.22 -97.81,-33.96 -144.3,-55.86 -238.55,-112.44 -429.49,-308.44 -534.55,-549.87l-6.43 -14.73 16.31 0 233.4 0 6.36 0 3.06 5.5 0.01 -0.02c20.72,36.34 43.98,70.97 69.51,103.65 25.61,32.69 53.56,63.55 83.62,92.24 154.42,147.45 364.15,238.13 595.16,238.13l0 -0.04 0.09 0 0 0.04c106.88,-0.01 209.27,-19.47 303.8,-55 30.9,-11.62 60.84,-24.88 89.59,-39.64 148.87,-76.37 272.44,-194.81 354.84,-339.45l3.08 -5.41 6.31 0 233.41 0 16.31 0 -6.42 14.73 -0.03 0.1c-23.47,53.89 -51.18,105.49 -82.69,154.32 -31.46,48.78 -66.88,94.99 -105.76,138.18 -199.58,221.67 -489.66,361.2 -812.53,361.22l0 0.05zm-0.1 -21.18l0 -0.03 0.1 0 0 0.03c316.46,0 600.77,-136.81 796.43,-354.1 37.98,-42.17 72.67,-87.49 103.67,-135.52 28.09,-43.52 53.03,-89.17 74.54,-136.59l-210.65 0c-84.38,145.68 -209.78,265.02 -360.56,342.37 -29.85,15.32 -60.54,28.94 -91.88,40.72 -96.79,36.39 -201.77,56.31 -311.46,56.33l0 0.04 -0.09 0 0 -0.04c-236.88,-0.02 -451.9,-92.95 -610.18,-244.11 -30.76,-29.37 -59.38,-60.95 -85.62,-94.48 -25.03,-31.98 -47.85,-65.69 -68.21,-100.83l-210.63 0c104.29,229.94 288.52,416.43 517.48,524.34 45.36,21.37 92.61,39.72 141.42,54.71 99.8,30.64 205.82,47.16 315.64,47.16z"/>
    <path class="fil0" d="M6497.5 2089.81c-1.48,4.36 45.87,1.45 41.45,45.11 -4.45,43.64 31.08,56.73 31.08,56.73l-69.56 -16 -50.33 -18.92c0,0 48.85,-71.29 47.36,-66.92z"/>
    <path class="fil1" d="M4609.98 2192.3l68.58 -42.11 31.75 49.97 -11.6 7.13 -23.1 -36.36 -15.21 9.34 21.5 33.83 -11.53 7.1 -21.52 -33.84 -18.66 11.46 23.93 37.65 -11.55 7.1 -32.59 -51.27zm61.91 47.82l10.6 11.73c-3.77,3.84 -5.77,7.66 -6.08,11.43 -0.3,3.76 0.98,7.62 3.92,11.56 3.07,4.18 6.31,6.69 9.68,7.49 3.38,0.87 6.26,0.42 8.67,-1.31 1.55,-1.09 2.53,-2.47 2.95,-4.15 0.45,-1.67 0.23,-3.9 -0.6,-6.68 -0.58,-1.91 -2.22,-6.07 -4.84,-12.45 -3.39,-8.2 -4.83,-14.64 -4.35,-19.26 0.68,-6.52 3.61,-11.63 8.78,-15.32 3.34,-2.38 7.13,-3.67 11.41,-3.89 4.26,-0.22 8.45,0.89 12.57,3.28 4.09,2.42 7.95,6.1 11.61,11.04 5.99,8.07 8.65,15.42 8.09,22.07 -0.6,6.66 -3.83,12.23 -9.69,16.72l-10.17 -12.56c2.95,-2.95 4.5,-5.87 4.6,-8.75 0.14,-2.9 -1.16,-6.15 -3.86,-9.79 -2.78,-3.78 -5.75,-6.2 -8.9,-7.19 -2.03,-0.66 -3.89,-0.37 -5.59,0.83 -1.54,1.11 -2.41,2.7 -2.55,4.79 -0.19,2.62 1.28,7.64 4.46,15.04 3.14,7.41 5.02,13.2 5.65,17.37 0.59,4.19 0.14,8.14 -1.41,11.87 -1.56,3.7 -4.39,7.04 -8.51,9.99 -3.75,2.67 -8.02,4.17 -12.79,4.45 -4.8,0.28 -9.39,-0.86 -13.72,-3.48 -4.37,-2.59 -8.62,-6.68 -12.75,-12.27 -6,-8.14 -8.71,-15.74 -8.11,-22.83 0.59,-7.08 4.25,-13.69 10.93,-19.73zm40.43 94l51.45 -42.44 -15.42 -18.05 10.51 -8.64 41.29 48.38 -10.49 8.64 -15.38 -18.03 -51.45 42.45 -10.51 -12.31zm94.41 -13.81l20.74 21.11c4.68,4.74 7.86,8.71 9.57,11.92 2.29,4.3 3.33,8.87 3.1,13.71 -0.2,4.81 -1.56,9.64 -4.05,14.4 -2.5,4.76 -6.46,9.74 -11.94,14.91 -4.76,4.55 -9.47,7.89 -14.08,10.01 -5.63,2.58 -11.06,3.8 -16.27,3.6 -3.96,-0.1 -8.17,-1.34 -12.63,-3.69 -3.31,-1.74 -7.07,-4.76 -11.28,-9.06l-21.31 -21.7 58.15 -55.21zm1.5 20.88l-38.51 36.56 8.45 8.62c3.17,3.22 5.63,5.38 7.42,6.48 2.32,1.39 4.65,2.18 7,2.36 2.34,0.14 5.21,-0.64 8.58,-2.32 3.36,-1.7 7.32,-4.68 11.81,-8.94 4.51,-4.28 7.56,-7.94 9.2,-10.99 1.63,-3.08 2.45,-5.96 2.42,-8.63 -0.04,-2.69 -0.88,-5.36 -2.52,-7.95 -1.21,-1.96 -4.15,-5.28 -8.76,-10.01l-5.09 -5.18zm1.96 93.84l10.36 -11.32 11.51 10.19 -10.37 11.32 -11.5 -10.19zm100.61 -19.66l25.47 19.57c5.05,3.86 8.67,6.96 10.81,9.27 2.13,2.32 3.67,4.89 4.58,7.71 0.91,2.82 1.15,5.77 0.72,8.97 -0.42,3.17 -1.71,6.12 -3.86,8.81 -2.33,2.96 -5.27,5.03 -8.83,6.24 -3.55,1.21 -7.2,1.38 -10.91,0.5 2.98,4.08 4.48,8.28 4.42,12.52 -0.03,4.32 -1.48,8.24 -4.38,11.86 -2.25,2.84 -5.11,5.12 -8.61,6.77 -3.49,1.64 -7.04,2.39 -10.64,2.21 -3.62,-0.18 -7.28,-1.4 -11.02,-3.66 -2.29,-1.43 -7.58,-5.24 -15.83,-11.49l-21.7 -16.64 49.78 -62.64zm4.58 20.3l-11.5 14.49 8.44 6.47c5.01,3.86 8.18,6.18 9.52,6.97 2.39,1.44 4.72,2.03 6.95,1.74 2.25,-0.27 4.16,-1.43 5.79,-3.44 1.54,-1.95 2.25,-3.93 2.13,-5.98 -0.14,-2.04 -1.18,-4 -3.11,-5.9 -1.15,-1.13 -4.77,-4.02 -10.81,-8.66l-7.41 -5.69zm-19.78 24.92l-13.31 16.75 11.9 9.13c4.63,3.55 7.67,5.7 9.13,6.39 2.19,1.14 4.39,1.48 6.66,1.08 2.25,-0.37 4.27,-1.7 6.04,-3.92 1.5,-1.87 2.29,-3.83 2.4,-5.86 0.1,-2.01 -0.47,-4 -1.73,-5.95 -1.29,-1.92 -4.86,-5.17 -10.71,-9.64l-10.38 -7.98zm52.76 78.12l18.55 -28.05 0.68 -54.45 16.03 10.25 -1.44 36.57 33.05 -16.41 15.75 10.09 -50.47 22.76 -18.48 27.97 -13.67 -8.73zm122.96 34.36l5.97 -12.05 31.63 15.18 -14.13 28.46c-4.52,1.42 -10.25,1.87 -17.19,1.31 -6.93,-0.59 -13.4,-2.31 -19.39,-5.16 -7.57,-3.64 -13.43,-8.4 -17.54,-14.23 -4.07,-5.86 -6.1,-12.37 -6.06,-19.57 0.07,-7.18 1.79,-14.23 5.18,-21.07 3.69,-7.43 8.56,-13.29 14.61,-17.55 6.03,-4.26 12.86,-6.47 20.53,-6.61 5.82,-0.15 12.21,1.45 19.14,4.76 9.03,4.34 15.17,9.58 18.38,15.73 3.24,6.14 3.94,12.85 2.14,20.12l-15.88 -4.29c0.7,-4.02 0.14,-7.72 -1.69,-11.11 -1.81,-3.38 -4.82,-6.07 -9.05,-8.1 -6.41,-3.09 -12.5,-3.52 -18.26,-1.36 -5.79,2.21 -10.6,7.22 -14.51,15.09 -4.2,8.47 -5.44,15.74 -3.71,21.84 1.73,6.06 5.7,10.58 11.91,13.56 3.08,1.49 6.46,2.35 10.14,2.65 3.67,0.3 7.04,0.13 10.08,-0.49l4.5 -9.07 -16.8 -8.04zm48.03 10.46c2.95,-7.58 6.56,-13.48 10.88,-17.74 3.19,-3.11 6.86,-5.63 10.99,-7.52 4.15,-1.87 8.27,-2.88 12.37,-2.98 5.49,-0.2 11.28,0.88 17.43,3.21 11.11,4.18 18.69,10.92 22.72,20.23 4.02,9.29 3.67,19.98 -1.04,32.06 -4.69,11.98 -11.65,20.1 -20.92,24.37 -9.26,4.26 -19.46,4.29 -30.53,0.11 -11.23,-4.23 -18.84,-10.97 -22.84,-20.19 -4,-9.22 -3.69,-19.76 0.94,-31.55zm15.89 5.41c-3.28,8.4 -3.78,15.53 -1.55,21.35 2.27,5.81 6.44,9.86 12.51,12.16 6.07,2.29 11.9,2.04 17.47,-0.82 5.57,-2.82 10.05,-8.52 13.41,-17.13 3.33,-8.5 3.89,-15.56 1.76,-21.17 -2.18,-5.65 -6.4,-9.62 -12.66,-11.98 -6.3,-2.38 -12.19,-2.16 -17.72,0.62 -5.45,2.79 -9.87,8.42 -13.22,16.97zm79.54 67.76l-4 -84.32 16.95 5.09 2.04 62.14 36.44 -50.57 16.57 4.99 -51.32 67.67 -16.68 -5zm57 16.42l14.04 -78.26 59.04 10.23 -2.39 13.25 -42.94 -7.45 -3.11 17.35 39.96 6.93 -2.37 13.18 -39.95 -6.91 -3.85 21.27 44.5 7.71 -2.36 13.2 -60.57 -10.5zm78.87 12.77l8.44 -79.03 34.19 3.53c8.61,0.88 14.75,2.24 18.51,4.06 3.74,1.83 6.59,4.66 8.55,8.54 1.96,3.89 2.66,8.13 2.16,12.8 -0.63,5.95 -2.94,10.67 -6.88,14.16 -3.95,3.5 -9.54,5.38 -16.69,5.66 3.29,2.39 5.96,4.89 7.99,7.53 2.01,2.65 4.64,7.26 7.86,13.79l8.18 16.45 -19.43 -2.02 -9.87 -18.42c-3.53,-6.58 -5.98,-10.74 -7.34,-12.5 -1.36,-1.75 -2.88,-3.01 -4.52,-3.8 -1.67,-0.76 -4.35,-1.34 -8.08,-1.73l-3.29 -0.33 -3.52 33 -16.26 -1.69zm21.13 -43.94l12 1.26c7.79,0.79 12.7,0.98 14.7,0.53 2,-0.45 3.64,-1.41 4.91,-2.88 1.27,-1.46 2.03,-3.37 2.28,-5.75 0.3,-2.66 -0.21,-4.88 -1.49,-6.66 -1.25,-1.79 -3.18,-3.03 -5.77,-3.75 -1.3,-0.3 -5.24,-0.81 -11.84,-1.48l-12.64 -1.3 -2.15 20.03zm65.12 52.26l2.82 -79.43 15.89 0.56 31.19 54.18 1.89 -53.06 15.16 0.52 -2.82 79.44 -16.39 -0.58 -30.72 -52.91 -1.84 51.8 -15.18 -0.52zm85.73 1.4l-5.65 -79.3 24.37 -1.66 18.49 53.07 10.6 -55.09 24.44 -1.67 5.65 79.29 -15.14 1.03 -4.41 -62.4 -11.59 63.51 -15.68 1.08 -20.41 -61.32 4.45 62.41 -15.12 1.05zm98.73 -7.53l-14.02 -78.25 59.01 -10.24 2.38 13.23 -42.95 7.47 3.13 17.33 39.96 -6.93 2.36 13.19 -39.96 6.92 3.8 21.32 44.49 -7.72 2.37 13.18 -60.57 10.5zm78.75 -11.82l-20.93 -76.77 15.35 -4.05 45.94 42.86 -13.97 -51.27 14.66 -3.86 20.93 76.77 -15.84 4.18 -45.13 -41.79 13.65 50.07 -14.66 3.86zm100.72 -27.41l-21.86 -62.44 -22.67 7.67 -4.46 -12.7 60.75 -20.58 4.47 12.75 -22.64 7.63 21.86 62.43 -15.45 5.24zm61.88 -63.59c-3.47,-7.35 -5.29,-14.01 -5.42,-20.02 -0.07,-4.42 0.65,-8.74 2.14,-12.99 1.52,-4.22 3.65,-7.83 6.4,-10.81 3.66,-4.02 8.47,-7.36 14.45,-10.1 10.8,-4.94 20.98,-5.62 30.6,-2 9.59,3.6 17.18,11.27 22.75,23 5.52,11.65 6.61,22.19 3.3,31.72 -3.32,9.51 -10.37,16.74 -21.11,21.65 -10.9,5.01 -21.11,5.7 -30.66,2.13 -9.53,-3.59 -17.01,-11.12 -22.45,-22.58zm15 -7.48c3.88,8.17 8.75,13.47 14.56,15.92 5.84,2.44 11.7,2.33 17.6,-0.38 5.89,-2.69 9.75,-7.01 11.55,-12.93 1.79,-5.9 0.72,-13.02 -3.25,-21.37 -3.92,-8.27 -8.69,-13.58 -14.29,-15.96 -5.6,-2.37 -11.46,-2.14 -17.57,0.64 -6.09,2.78 -10.02,7.11 -11.82,12.93 -1.76,5.8 -0.71,12.86 3.22,21.15zm87.98 3.24l-40.41 -68.8 48.01 -27.25 6.84 11.65 -33.87 19.21 9.57 16.27 29.23 -16.57 6.85 11.63 -29.23 16.61 17.18 29.23 -14.17 8.02zm89.95 -53.96l-46.39 -65.08 13.4 -9.2 20.58 28.91 6.42 -47.51 17.97 -12.36 -6.85 42.51 54.6 21.65 -17.31 11.89 -39.97 -18.01 -3.1 18.34 14.01 19.68 -13.36 9.18zm69.69 -49.28l-51.98 -60.86 45.91 -37.87 8.8 10.3 -33.41 27.55 11.51 13.5 31.12 -25.64 8.74 10.25 -31.09 25.63 14.14 16.58 34.59 -28.54 8.76 10.26 -47.09 38.84zm61.24 -50.59l-58.18 -55.21 23.89 -24.31c5.99,-6.11 10.88,-10.05 14.64,-11.82 3.77,-1.79 7.81,-2.24 12.11,-1.37 4.32,0.88 8.18,2.94 11.62,6.22 4.38,4.13 6.74,8.84 7.11,14.06 0.36,5.18 -1.57,10.67 -5.76,16.38 3.95,-1.09 7.61,-1.61 10.96,-1.54 3.39,0.05 8.66,0.85 15.9,2.41l18.22 3.77 -13.57 13.81 -20.87 -3.69c-7.43,-1.32 -12.27,-1.98 -14.51,-2.03 -2.25,-0.01 -4.19,0.38 -5.85,1.18 -1.64,0.83 -3.74,2.54 -6.36,5.2l-2.29 2.34 24.28 23.04 -11.34 11.56zm-22.22 -43.43l8.37 -8.53c5.46,-5.53 8.61,-9.21 9.5,-11.04 0.87,-1.82 1.11,-3.69 0.71,-5.59 -0.4,-1.87 -1.47,-3.63 -3.2,-5.31 -1.96,-1.86 -4.06,-2.83 -6.26,-2.96 -2.22,-0.11 -4.41,0.64 -6.55,2.19 -1.06,0.82 -3.88,3.56 -8.49,8.24l-8.82 9.02 14.74 13.98zm128.76 -71.78l-11.43 13.38 -18.61 -6.28 -20.77 24.33 9.78 16.63 -11.13 13.03 -41.68 -74.8 11.09 -12.99 82.75 26.7zm-43.82 2.44l-30.16 -10.57 15.97 27.17 14.19 -16.6zm52.36 -13.73l-64.88 -46.34 9.6 -12.97 53.85 38.46 23.87 -32.27 11.01 7.88 -33.45 45.24zm80.95 -118.49l-9.42 14.84 -19.33 -3.71 -17.12 26.96 12.05 15.12 -9.18 14.43 -51.88 -68.36 9.15 -14.4 85.73 15.12zm-43.05 8.41l-31.38 -6.32 19.69 24.71 11.69 -18.39z"/>
    <path class="fil1" d="M5066.25 2281.22l54.51 32.77c11.83,7.11 14.53,20.75 8.06,40.91l-2.06 5.43c-8.54,14.23 -21.4,20.39 -38.56,18.55l7.37 35.05 -0.99 1.64 -24.87 -14.95 -11.8 -61.91 0.46 -0.73 30.34 18.23c7.02,4.22 14.07,2.2 21.17,-6.02 4.32,-7.21 3.17,-13.75 -3.51,-19.64l-35.25 -21.2 -39.68 66.06 -2.6 0.66 -14.38 -8.66 -0.63 -2.59 49.81 -82.93 2.61 -0.67zm139.7 183.5l-56.12 -21.56c-5.59,-2.13 -9.44,-5.69 -11.56,-10.63 -2.12,-4.93 -2.13,-10.1 -0.07,-15.48l29.1 -75.8 18.87 7.24 -29.09 75.81 56.12 21.54 29.12 -75.81 18.7 7.19 -29.12 75.81c-2,5.27 -5.4,9.08 -10.12,11.46 -4.74,2.38 -10.02,2.45 -15.83,0.23zm170.44 -39.79l-39.52 -7.67 -15.49 79.7 -19.68 -3.81 15.49 -79.73 -39.35 -7.64 3.86 -19.83 98.55 19.14 -3.86 19.84zm29.07 -14.46l63.51 3.33c13.8,0.73 22.57,11.51 26.33,32.36l0.73 5.74c-0.86,16.57 -9.3,28.06 -25.33,34.48l22.96 27.51 -0.11 1.88 -29 -1.51 -39.46 -49.12 0.06 -0.85 35.37 1.84c8.16,0.43 13.45,-4.66 15.85,-15.25 0.44,-8.41 -3.67,-13.65 -12.34,-15.71l-41.05 -2.15 -4.04 76.95 -2 1.8 -16.73 -0.88 -1.79 -1.99 5.04 -96.63 2 -1.8zm207.03 97.4l-60.06 5.25c-10.68,0.94 -17.49,-2.96 -20.45,-11.72 -0.64,-2.03 -1.07,-4.25 -1.29,-6.67l-5.31 -60.76c-0.46,-5.25 1.02,-10.1 4.47,-14.5 3.42,-4.42 8,-6.87 13.73,-7.37l60.07 -5.26c5.62,-0.47 10.54,1.08 14.73,4.71 4.18,3.62 6.53,8.18 7,13.68l5.32 60.76c1.18,13.42 -4.9,20.72 -18.21,21.88zm-1.75 -20.14l-5.33 -60.74 -60.07 5.24 5.33 60.76 60.07 -5.26zm157.59 -18.08l-12.12 3.48 -83.29 -44.77 18.19 63.43 -19.27 5.53 -27.95 -97.49 11.96 -3.41 83.46 44.71 -18.19 -63.43 19.25 -5.53 27.96 97.48zm58.03 -23.43l-18.71 7.17 -36.33 -94.66 18.71 -7.19 36.33 94.68zm140.8 -73.23l-24.04 13.3 -46.64 -16.8 -10.47 48.47 -24.18 13.41 17.63 -67.66 -66.78 -21.05 24.15 -13.39 46.67 16.79 10.47 -48.45 24.02 -13.33 -17.38 67.71 66.55 21z"/>
    <path class="fil1" d="M5494.05 840.34c125.42,0 238.95,50.82 321.13,132.97 82.27,82.23 133.14,195.8 133.14,321.13 0,125.5 -50.83,239.1 -133.01,321.28 -82.18,82.18 -195.76,133.02 -321.26,133.02 -125.41,-0.11 -238.97,-50.94 -321.14,-133.15 -82.14,-82.18 -132.97,-195.71 -132.97,-321.15 0,-125.4 50.84,-238.94 133,-321.11 82.16,-82.16 195.7,-132.99 321.11,-132.99zm288.25 166.05c-73.72,-73.69 -175.63,-119.29 -288.25,-119.29 -112.49,0 -214.33,45.6 -288.04,119.3 -73.71,73.71 -119.3,175.55 -119.3,288.04 0,112.63 45.58,214.54 119.27,288.27 73.71,73.74 175.58,119.36 288.07,119.36 112.58,-0.1 214.46,-45.69 288.19,-119.42 73.73,-73.73 119.31,-175.62 119.31,-288.21 0,-112.55 -45.56,-214.4 -119.25,-288.05z"/>
    <path class="fil0" d="M5073.05 1241.27l268.24 -1.68c11.41,-8.29 13.18,-16.09 9.9,-27.99l-187.87 -179.72 -10.34 9.47 182.06 179.39 -264.74 5.74 2.75 14.79zm843.05 93.93l-269.13 0.77c-11.43,8.27 -13.18,16.08 -9.9,27.99l197.91 184.28 10.33 -9.44 -192.11 -184 265.65 -4.8 -2.75 -14.8zm-152.26 289.39l-195.71 -194.67c-13.91,-2.2 -20.7,2.07 -26.79,12.81l4.82 274.54 14 0.65 -0.94 -270.28 196.13 189.35 8.49 -12.4zm57.02 -596.49l-184.59 185.66c-2.22,13.95 2.05,20.74 12.8,26.81l264.48 -5.77 0.62 -13.98 -260.17 1.88 179.26 -186.1 -12.4 -8.5zm-589.78 -68.34l189.06 185.88c13.93,2.2 20.71,-2.07 26.76,-12.8l-6.55 -262.89 -13.19 2.34 1.88 255.62 -186.09 -179.26 -11.87 11.11zm311.44 -89.07l-0.21 264.27c8.28,11.4 16.09,13.17 27.97,9.85l183.61 -193.18 -10.4 -7.91 -182.36 184.99 -4.8 -258.34 -13.81 0.32zm-380.64 682.26l190.11 -191.15c2.21,-13.95 -2.06,-20.74 -12.81,-26.81l-264.49 5.75 -0.62 14 260.19 -1.87 -184.78 191.58 12.4 8.5zm283 162.29l1.07 -274.63c-8.28,-11.4 -16.11,-13.18 -28,-9.87l-187.94 196.06 9.46 10.35 187.64 -190.29 2.98 271.13 14.79 -2.75z"/>
    <g>
     <path class="fil0" d="M5437.85 1722.8l0 -398.77 0 398.77zm111.25 -405.12l0 405.12 0 -405.12zm-57.27 -89.28c34.79,0 63.02,28.22 63.02,63.05 0,9.36 -2.09,18.26 -5.75,26.23 -9.94,21.73 -31.83,36.8 -57.27,36.8 -22.9,0 -42.96,-12.18 -53.98,-30.45 -5.76,-9.5 -9.06,-20.69 -9.06,-32.58 0,-34.83 28.21,-63.05 63.04,-63.05z"/>
    </g>
    <path class="fil1" d="M5414.47 1722.79l0 -392.99c-2.41,-4.84 -4.37,-9.93 -5.84,-15.19 -2.09,-7.54 -3.22,-15.34 -3.22,-23.16 0,-23.81 9.67,-45.39 25.31,-61.04 15.62,-15.71 37.24,-25.4 61.11,-25.4 23.85,0 45.46,9.69 61.09,25.32 15.62,15.73 25.3,37.32 25.3,61.12 0,6.23 -0.7,12.39 -2,18.34 -0.92,4.18 -2.18,8.33 -3.74,12.38l0 400.62 -46.77 0 0 -351.86c-10.41,4.47 -21.87,6.94 -33.88,6.94 -10.7,0 -21.03,-2.02 -30.59,-5.67l0 350.59 -46.77 0zm105.43 -459.44c-7.22,-7.13 -17.14,-11.58 -28.07,-11.58 -10.95,0 -20.88,4.45 -28.04,11.62 -7.19,7.13 -11.62,17.08 -11.62,28.06 0,3.89 0.49,7.51 1.39,10.74 0.98,3.54 2.41,6.83 4.21,9.79 3.61,5.84 8.61,10.7 14.53,14.03 5.62,3.27 12.29,5.09 19.53,5.09 7.92,0 15.26,-2.28 21.37,-6.21 6.4,-4.1 11.55,-9.99 14.7,-16.89 1.11,-2.41 2.01,-5.13 2.66,-8.07 0.58,-2.67 0.9,-5.52 0.9,-8.48 0,-10.98 -4.43,-20.93 -11.56,-28.1z"/>
   </g>
   <g id="_1740854268672">
    <path class="fil1" d="M536.65 3922.12c0,9.01 2.26,18.68 6.78,28.93 4.51,10.25 10.86,18.26 19.07,23.99 -5.74,-6.56 -9.24,-13.74 -10.45,-21.54 -1.23,-7.79 -1.86,-14.15 -1.86,-19.09l0 -31.99c0,-33.66 9.84,-59.52 29.55,-77.57 19.7,-18.05 52.53,-27.08 98.49,-27.08 44.3,0 79.41,10.26 105.26,30.77 25.83,20.53 38.76,47.62 38.76,81.25l0 49.24c0,32.84 -13.12,59.52 -39.39,80.04 -26.26,20.51 -61.55,30.77 -105.87,30.77l-103.41 0c-49.24,0 -88.85,-11.29 -118.8,-33.85 -29.95,-22.57 -44.93,-54.38 -44.93,-95.4l0 -357.01c0,-41.06 15.19,-72.84 45.56,-95.42 30.37,-22.57 70.15,-33.88 119.41,-33.88l102.17 0c44.32,0 79.61,10.29 105.87,30.81 26.27,20.51 39.39,47.18 39.39,80l0 49.24c0,33.66 -12.93,60.74 -38.76,81.27 -25.85,20.5 -60.96,30.78 -105.26,30.78 -45.96,0 -78.79,-9.04 -98.49,-27.08 -19.71,-18.08 -29.55,-43.92 -29.55,-77.57l0 -32c0,-4.1 0.82,-10.47 2.45,-19.09 1.65,-8.62 5.36,-16.2 11.1,-22.77 -8.21,5.74 -14.78,13.75 -19.7,23.99 -4.93,10.27 -7.39,19.92 -7.39,28.95l0 321.31zm163.74 1.23c0,-11.5 -1.45,-21.35 -4.33,-29.55 -2.86,-8.21 -7.58,-12.31 -14.15,-12.31 -6.57,0 -11.27,3.87 -14.15,11.7 -2.86,7.79 -4.31,17.84 -4.31,30.16l0 19.69c0,10.67 1.22,20.3 3.69,28.93 2.47,8.62 7.38,12.92 14.77,12.92 12.32,0 18.48,-13.94 18.48,-41.85l0 -19.69zm0 -342.24c0,-27.91 -6.16,-41.86 -18.48,-41.86 -7.39,0 -12.3,4.31 -14.77,12.93 -2.47,8.61 -3.69,18.27 -3.69,28.93l0 19.7c0,12.3 1.45,22.36 4.31,30.16 2.88,7.79 7.58,11.69 14.15,11.69 6.57,0 11.29,-4.11 14.15,-12.31 2.88,-8.21 4.33,-18.05 4.33,-29.54l0 -19.7zm731.39 359.48c0,20.49 -5.32,39.17 -16.02,56 -10.65,16.83 -24.6,30.99 -41.83,42.48 -17.25,11.49 -37.35,20.51 -60.32,27.07 -22.99,6.57 -46.8,9.45 -71.42,8.62 -26.26,-0.82 -51.91,-3.88 -76.94,-9.23 -25.02,-5.34 -44.93,-16.21 -59.7,-32.63 -8.21,11.5 -19.29,21.35 -33.24,29.55 -13.95,8.22 -35.71,12.31 -65.24,12.31 -39.41,0 -70.79,-11.89 -94.17,-35.69 -23.4,-23.8 -35.1,-56.64 -35.1,-98.48l0 -128.05c0,-41.02 14.37,-73.66 43.08,-97.87 28.72,-24.21 68.12,-36.31 118.19,-36.31l16.02 0 0 -98.49c0,-22.98 5.1,-42.86 15.36,-59.71 10.26,-16.83 24.01,-30.78 41.26,-41.86 17.23,-11.07 37.15,-19.47 59.7,-25.21 22.57,-5.76 46.16,-8.62 70.78,-8.62 24.62,0 48.43,2.86 71.42,8.62 22.97,5.74 43.07,14.14 60.32,25.21 17.23,11.08 31.18,25.26 41.83,42.48 10.7,17.23 16.02,36.93 16.02,59.09l0 98.49 16 0c50.06,0 89.65,12.1 118.79,36.31 29.16,24.21 43.72,56.85 43.72,97.87l0 128.05c0,41.84 -11.91,74.88 -35.71,99.09 -23.79,24.21 -63.6,36.31 -119.4,36.31l-19.71 0 0 -89.86 19.71 0c9.03,0 15.99,-4.73 20.92,-14.16 4.92,-9.43 7.38,-21.96 7.38,-37.56l0 -113.25c0,-16.41 -2.46,-29.35 -7.38,-38.78 -4.93,-9.43 -14.36,-14.14 -28.32,-14.14l-16 0 0 172.35zm-129.26 -172.35l-120.66 0 0 153.88c0,42.67 20.12,64.01 60.33,64.01 20.5,0 35.71,-5.76 45.57,-17.24 9.84,-11.5 14.76,-26.67 14.76,-45.54l0 -155.11zm0 -89.88l0 -89.87c0,-19.69 -5.34,-33.65 -16,-41.86 -10.69,-8.18 -25.45,-12.3 -44.33,-12.3 -16.41,0 -30.56,3.91 -42.46,11.69 -11.91,7.79 -17.87,21.96 -17.87,42.47l0 89.87 120.66 0zm-273.3 305.3c10.67,0 17.64,-4.71 20.93,-14.15 3.28,-9.44 4.94,-23.6 4.94,-42.48l0 -158.79 -17.25 0c-13.96,0 -22.98,5.94 -27.08,17.85 -4.11,11.89 -6.16,23.59 -6.16,35.07l0 113.25c0,13.98 1.43,25.66 4.31,35.1 2.87,9.44 9.64,14.15 20.31,14.15zm814.9 91.1c-40.23,-3.29 -71.18,-10.47 -92.94,-21.53 -21.74,-11.09 -37.54,-23.62 -47.39,-37.57 -9.86,-13.94 -15.6,-27.89 -17.23,-41.84 -1.65,-13.96 -2.47,-24.61 -2.47,-32.01l0 -353.32c0,-41.03 15.38,-73.66 46.17,-97.85 30.77,-24.23 73.25,-36.36 127.41,-36.36l130.5 0c20.52,0 40.62,3.31 60.31,9.87 19.7,6.57 36.94,15.61 51.71,27.09 14.77,11.5 26.67,25.45 35.71,41.86 9.02,16.41 13.53,34.88 13.53,55.39l0 353.32c0,20.53 -3.89,38.98 -11.69,55.4 -7.81,16.41 -18.68,30.56 -32.64,42.47 -13.94,11.9 -30.14,20.92 -48.62,27.08 -18.47,6.15 -37.95,9.23 -58.48,9.23 -44.31,0 -80.84,-12.1 -109.53,-36.31 -28.75,-24.21 -43.13,-56.84 -43.13,-97.87l0 -187.13c0,-20.51 2.06,-38.96 6.18,-55.38 4.11,-16.41 11.07,-30.58 20.93,-42.5 9.84,-11.89 23.19,-20.91 40,-27.06 16.83,-6.16 37.96,-9.24 63.41,-9.24 5.72,0 13.12,1.23 22.14,3.69 9.05,2.47 17.25,6.55 24.62,12.31l0 -41.85c0,-16.41 -5.12,-28.94 -15.38,-37.55 -10.25,-8.61 -23.59,-13.35 -40,-14.15l-98.49 0c-20.51,-0.83 -35.29,3.89 -44.32,14.15 -9.02,10.27 -13.54,23.6 -13.54,40.01l0 337.3c0,12.31 1.24,23.82 3.69,34.48 2.46,10.68 12.32,16.42 29.54,17.24l0 88.63zm126.81 -140.35c0,35.31 9.03,52.95 27.07,52.95 16.42,0 24.62,-17.64 24.62,-52.95l0 -171.11c0,-16.41 -2.04,-29.33 -6.14,-38.78 -4.11,-9.42 -10.26,-14.16 -18.48,-14.16 -9.02,0 -15.8,4.74 -20.3,14.16 -4.51,9.45 -6.77,22.37 -6.77,38.78l0 171.11zm742.47 -279.45c0,19.72 -4.1,36.94 -12.31,51.71 -8.22,14.77 -24.63,27.09 -49.26,36.93 18.08,7.4 32.84,19.49 44.33,36.32 11.49,16.82 17.24,34.26 17.24,52.33l0 65.24c0,20.51 -4.71,38.78 -14.16,54.8 -9.43,15.97 -21.95,29.74 -37.54,41.22 -15.6,11.5 -33.45,20.31 -53.56,26.48 -20.1,6.15 -40.83,9.23 -62.15,9.23l-168.66 0c-6.57,0 -12.53,1.83 -17.86,5.54 -5.33,3.69 -8.41,12.93 -9.23,27.69 0,14.78 3.28,24.01 9.85,27.69 6.56,3.71 12.3,5.56 17.24,5.56l328.68 0 0 88.63 -328.68 0c-44.33,0 -81.05,-10.07 -110.19,-30.17 -29.14,-20.11 -43.7,-51.09 -43.7,-92.95 0,-41.02 14.56,-70.37 43.7,-88.02 29.14,-17.63 65.86,-26.47 110.19,-26.47l168.66 0c9.81,0 19.07,-5.33 27.68,-15.99 8.62,-10.69 12.93,-24.2 12.93,-40.62l0 -50.48c0,-16.41 -2.68,-29.13 -8,-38.18 -5.33,-9.02 -17.86,-13.52 -37.54,-13.52l0 -89.87c17.22,0 29.14,-4.51 35.7,-13.54 6.54,-9.04 9.84,-21.75 9.84,-38.16l0 -49.25c0,-16.41 -4.31,-29.33 -12.93,-38.79 -8.61,-9.42 -18.7,-14.13 -30.15,-14.13l-151.45 0c-8.99,0 -17.82,4.3 -26.44,12.91 -8.62,8.61 -13.74,19.91 -15.39,33.86l0 36.92c6.56,-4.09 13.96,-6.98 22.15,-8.61 8.21,-1.65 15.18,-2.47 20.94,-2.47 44.32,0 78.17,12.11 101.54,36.3 23.4,24.24 35.1,56.45 35.1,96.66l0 52.93c0,41.04 -14.56,73.66 -43.69,97.88 -29.14,24.22 -65.88,36.31 -110.19,36.31 -44.31,0 -80.84,-12.09 -109.57,-36.31 -28.72,-24.22 -43.08,-56.84 -43.08,-97.88l0 -214.2c0,-20.51 4.72,-38.98 14.15,-55.39 9.45,-16.41 21.96,-30.36 37.55,-41.86 15.59,-11.48 33.44,-20.52 53.55,-27.09 20.11,-6.56 41.25,-9.87 63.38,-9.87l153.92 0c21.32,0 42.05,3.31 62.15,9.87 20.11,6.57 37.96,15.61 53.56,27.09 15.59,11.5 28.11,25.45 37.54,41.86 9.45,16.41 14.16,34.88 14.16,55.39l0 66.47zm-310.23 103.42c0,-16.43 -2.25,-29.34 -6.76,-38.77 -4.52,-9.45 -11.29,-14.17 -20.32,-14.17 -9.02,0 -15.61,5.53 -19.71,16.61 -4.09,11.09 -6.14,23.21 -6.14,36.33l0 38.17c0,16.41 2.05,29.13 6.14,38.16 4.1,9.02 10.69,13.54 19.71,13.54 9.03,0 15.8,-4.52 20.32,-13.54 4.51,-9.03 6.76,-21.75 6.76,-38.16l0 -38.17zm774.48 163.74c0,9.01 2.26,18.68 6.77,28.93 4.51,10.25 10.88,18.26 19.08,23.99 -5.76,-6.56 -9.23,-13.74 -10.46,-21.54 -1.22,-7.79 -1.84,-14.15 -1.84,-19.09l0 -31.99c0,-33.66 9.83,-59.52 29.53,-77.57 19.7,-18.05 52.53,-27.08 98.49,-27.08 44.32,0 79.41,10.26 105.27,30.77 25.84,20.53 38.75,47.62 38.75,81.25l0 49.24c0,32.84 -13.12,59.52 -39.37,80.04 -26.27,20.51 -61.56,30.77 -105.89,30.77l-103.41 0c-49.24,0 -88.83,-11.29 -118.78,-33.85 -29.95,-22.57 -44.95,-54.38 -44.95,-95.4l0 -357.01c0,-41.06 15.2,-72.84 45.56,-95.42 30.37,-22.57 70.16,-33.88 119.41,-33.88l102.17 0c44.33,0 79.62,10.29 105.89,30.81 26.25,20.51 39.37,47.18 39.37,80l0 49.24c0,33.66 -12.91,60.74 -38.75,81.27 -25.86,20.5 -60.95,30.78 -105.27,30.78 -45.96,0 -78.79,-9.04 -98.49,-27.08 -19.7,-18.08 -29.53,-43.92 -29.53,-77.57l0 -32c0,-4.1 0.81,-10.47 2.45,-19.09 1.65,-8.62 5.35,-16.2 11.08,-22.77 -8.2,5.74 -14.77,13.75 -19.68,23.99 -4.93,10.27 -7.4,19.92 -7.4,28.95l0 321.31zm163.73 1.23c0,-11.5 -1.43,-21.35 -4.31,-29.55 -2.88,-8.21 -7.59,-12.31 -14.16,-12.31 -6.56,0 -11.27,3.87 -14.16,11.7 -2.86,7.79 -4.29,17.84 -4.29,30.16l0 19.69c0,10.67 1.21,20.3 3.67,28.93 2.47,8.62 7.4,12.92 14.78,12.92 12.32,0 18.47,-13.94 18.47,-41.85l0 -19.69zm0 -342.24c0,-27.91 -6.15,-41.86 -18.47,-41.86 -7.38,0 -12.31,4.31 -14.78,12.93 -2.46,8.61 -3.67,18.27 -3.67,28.93l0 19.7c0,12.3 1.43,22.36 4.29,30.16 2.89,7.79 7.6,11.69 14.16,11.69 6.57,0 11.28,-4.11 14.16,-12.31 2.88,-8.21 4.31,-18.05 4.31,-29.54l0 -19.7zm785.57 650c16.4,-0.82 28.52,-3.29 36.3,-7.39 7.82,-4.1 11.71,-8.63 11.71,-13.54l0 -39.39c0,-6.57 -6.35,-11.72 -19.07,-15.39 -12.73,-3.68 -29.78,-5.54 -51.09,-5.54 -20.53,0 -37.13,1.86 -49.86,5.54 -12.72,3.67 -19.09,8.82 -19.09,15.39l0 39.39c0,5.75 4.32,10.66 12.94,14.76 8.62,4.12 20.29,6.17 35.07,6.17l0 73.86c-45.14,0 -82.48,-6.76 -112.03,-20.32 -29.54,-13.53 -44.32,-29.74 -44.32,-48.62l0 -88.63c0,-10.68 4.52,-20.1 13.55,-28.33 9.02,-8.21 21.53,-15.4 37.54,-21.52 16,-6.15 34.88,-10.88 56.64,-14.19 21.75,-3.27 44.93,-4.9 69.56,-4.9 25.44,0 49.03,1.63 70.77,4.9 21.77,3.31 40.63,8.04 56.63,14.19 16.02,6.12 28.52,13.31 37.56,21.52 9.03,8.23 13.53,17.65 13.53,28.33l0 88.63c0,18.06 -14.77,34.06 -44.32,48.01 -29.53,13.97 -66.89,20.93 -112.02,20.93l0 -73.86zm-382.86 0c16.41,-0.82 28.51,-3.29 36.3,-7.39 7.81,-4.1 11.7,-8.63 11.7,-13.54l0 -39.39c0,-6.57 -6.36,-11.72 -19.08,-15.39 -12.72,-3.68 -29.34,-5.54 -49.85,-5.54 -21.34,0 -38.39,1.86 -51.11,5.54 -12.7,3.67 -19.07,8.82 -19.07,15.39l0 39.39c0,5.75 4.29,10.66 12.93,14.76 8.61,4.12 20.31,6.17 35.08,6.17l0 73.86c-45.94,0 -83.28,-6.76 -112.02,-20.32 -28.73,-13.53 -43.09,-29.74 -43.09,-48.62l0 -88.63c0,-21.34 16.61,-38.18 49.87,-50.46 33.24,-12.33 75.69,-18.48 127.41,-18.48 24.63,0 47.81,1.63 69.56,4.9 21.74,3.31 40.62,8.04 56.62,14.19 15.99,6.12 28.74,13.31 38.16,21.52 9.46,8.23 14.17,17.65 14.17,28.33l0 88.63c0,9.03 -4.11,17.65 -12.31,25.85 -8.2,8.21 -19.29,15.6 -33.24,22.16 -13.94,6.57 -30.57,11.71 -49.86,15.41 -19.3,3.66 -40.01,5.52 -62.17,5.52l0 -73.86zm356.99 -781.73c58.29,0 104.65,12.31 139.13,36.95 34.46,24.62 51.68,57.02 51.68,97.25l0 358.23c0,19.71 -4.69,37.95 -14.14,54.78 -9.42,16.83 -21.95,30.99 -37.54,42.48 -15.6,11.49 -33.45,20.51 -53.56,27.07 -20.1,6.57 -41.22,9.85 -63.4,9.85 -21.32,0 -42.04,-3.28 -62.18,-9.85 -20.09,-6.56 -37.94,-15.8 -53.53,-27.69 -15.61,-11.9 -28.11,-26.48 -37.56,-43.71 -9.43,-17.23 -14.14,-36.51 -14.14,-57.86l0 -344.7c0,-16.41 -4.13,-29.33 -12.32,-38.76 -8.22,-9.46 -17.64,-14.17 -28.32,-14.17 -9.84,0 -18.85,4.31 -27.08,12.93 -8.21,8.61 -13.12,20.7 -14.76,36.31l0 481.35 -126.82 0 0 -481.35c-1.64,-15.61 -6.77,-27.7 -15.39,-36.31 -8.62,-8.62 -17.43,-12.93 -26.47,-12.93 -10.65,0 -20.31,4.71 -28.92,14.17 -8.62,9.43 -12.93,22.35 -12.93,38.76l0 342.23c0,35.31 18.07,52.95 54.18,52.95l0 88.63c-60.74,0 -105.87,-12.1 -135.42,-36.31 -29.54,-24.21 -44.33,-56.84 -44.33,-97.87l0 -358.23c0,-20.53 4.72,-39 14.17,-55.41 9.43,-16.42 21.95,-30.36 37.54,-41.84 15.6,-11.5 33.45,-20.55 53.54,-27.11 20.12,-6.57 40.85,-9.84 62.17,-9.84 18.9,0 37.97,2.88 57.27,8.62 19.27,5.74 34.68,15.59 46.16,29.53 12.3,-13.94 28.71,-23.79 49.24,-29.53 20.52,-5.74 39.81,-8.62 57.85,-8.62 20.54,0 41.05,3.27 61.56,9.84 20.5,6.56 38.77,15.61 54.78,27.11 16.01,11.48 28.73,25.64 38.15,42.45 9.46,16.85 13.76,35.09 12.94,54.8l0 344.68c0,16.41 2.86,30.37 8.61,41.86 5.75,11.49 16.43,17.24 32.01,17.24 13.95,0 24.42,-5.55 31.41,-16.63 6.96,-11.07 10.45,-24.82 10.45,-41.23l0 -337.32c0,-16.41 -6.15,-29.33 -18.46,-38.76 -12.31,-9.46 -27.49,-14.17 -45.57,-14.17l0 -89.87zm472.88 784.2c16.41,-0.83 28.33,-3.09 35.71,-6.78 7.4,-3.69 11.09,-8 11.09,-12.92l0 -41.86c0,-6.58 -6.38,-11.49 -19.1,-14.79 -12.72,-3.27 -29.34,-4.93 -49.85,-4.93 -19.71,0 -35.9,1.66 -48.63,4.93 -12.73,3.3 -19.1,8.21 -19.1,14.79l0 41.86c0,5.74 4.33,10.45 12.95,14.15 8.63,3.7 19.9,5.55 33.84,5.55l0 72.61c-45.12,0 -82.3,-6.55 -111.41,-19.68 -29.13,-13.14 -43.71,-29.13 -43.71,-48.01l0 -88.64c0,-21.33 16.85,-37.97 50.48,-49.86 33.65,-11.9 75.51,-17.85 125.58,-17.85 25.43,0 48.85,1.65 70.16,4.93 21.33,3.27 40.02,7.79 56.01,13.52 16.02,5.76 28.53,12.75 37.53,20.94 9.06,8.22 13.56,17.66 13.56,28.32l0 88.64c0,18.04 -14.77,33.85 -44.3,47.39 -29.55,13.56 -66.49,20.3 -110.81,20.3l0 -72.61zm-3.69 -245c16.41,-1.64 27.5,-7.79 33.25,-18.46 5.74,-10.67 8.61,-22.58 8.61,-35.71l0 -342.23c0,-16.41 -5.34,-29.33 -16.01,-38.76 -10.68,-9.46 -25.43,-14.17 -44.31,-14.17 -17.24,0 -31.41,4.71 -42.47,14.17 -11.08,9.43 -16.63,22.35 -16.63,38.76l0 342.23c0,12.31 4.11,24.22 12.31,35.71 8.21,11.49 19.29,17.24 33.23,17.24l0 88.63c-24.61,0 -47.37,-3.69 -68.31,-11.07 -20.92,-7.4 -38.99,-17.23 -54.16,-29.55 -15.2,-12.31 -27.31,-26.48 -36.32,-42.47 -9.04,-16 -13.56,-33.04 -13.56,-51.09l0 -358.23c0,-20.53 4.95,-39 14.79,-55.41 9.84,-16.42 22.97,-30.36 39.4,-41.84 16.4,-11.5 35.89,-20.55 58.46,-27.11 22.58,-6.57 46.98,-9.84 73.26,-9.84 26.26,0 50.67,3.27 73.24,9.84 22.57,6.56 42.28,15.61 59.1,27.11 16.83,11.48 29.95,25.64 39.41,42.45 9.42,16.85 14.13,35.09 14.13,54.8l0 358.23c0,17.22 -4.1,33.85 -12.31,49.85 -8.19,16.01 -19.69,30.16 -34.46,42.47 -14.78,12.33 -32.41,22.37 -52.95,30.16 -20.51,7.82 -43.06,11.7 -67.7,11.7l0 -87.41zm315.28 -710.3l0 51.7c0,19.69 -4.48,37.12 -13.52,52.31 -9.04,15.17 -21.15,27.9 -36.32,38.14 -15.2,10.27 -32.63,17.87 -52.33,22.8 -19.69,4.93 -40.62,7.39 -62.8,7.39 -21.31,0 -41.85,-2.46 -61.53,-7.39 -19.7,-4.93 -37.15,-12.53 -52.32,-22.8 -15.19,-10.24 -27.28,-22.97 -36.32,-38.14 -9.04,-15.19 -13.55,-33.04 -13.55,-53.55l0 -50.46 125.57 0 0 43.08c0,16.41 3.91,28.1 11.7,35.07 7.79,6.99 16.62,10.47 26.45,10.47 10.71,0 19.71,-3.27 27.11,-9.86 7.38,-6.55 11.07,-18.05 11.07,-34.46l0 -44.3 126.79 0z"/>
    <g>
     <path class="fil1" d="M5350.96 3992.3c16.78,-1.66 28.11,-7.97 33.99,-18.86 5.88,-10.93 8.8,-23.11 8.8,-36.54l0 -350.04c0,-16.79 -5.45,-30 -16.36,-39.65 -10.91,-9.68 -26.02,-14.49 -45.33,-14.49 -17.64,0 -32.11,4.81 -43.44,14.49 -11.33,9.65 -17,22.86 -17,39.65l0 350.04c0,12.59 4.22,24.77 12.58,36.54 8.4,11.73 19.76,17.62 34,17.62l0 90.65c-25.19,0 -48.46,-3.77 -69.87,-11.32 -21.41,-7.57 -39.88,-17.63 -55.4,-30.23 -15.54,-12.59 -27.92,-27.08 -37.15,-43.44 -9.24,-16.36 -13.85,-33.79 -13.85,-52.26l0 -366.39c0,-21.01 5.03,-39.89 15.11,-56.68 10.06,-16.79 23.49,-31.05 40.3,-42.8 16.78,-11.77 36.73,-21.01 59.79,-27.72 23.1,-6.72 48.08,-10.07 74.93,-10.07 26.86,0 51.85,3.35 74.9,10.07 23.1,6.71 43.26,15.95 60.46,27.72 17.2,11.75 30.63,26.22 40.3,43.42 9.65,17.24 14.46,35.9 14.46,56.06l0 366.39c0,17.63 -4.19,34.63 -12.57,51 -8.41,16.37 -20.15,30.85 -35.26,43.44 -15.11,12.6 -33.15,22.88 -54.15,30.85 -21,7.99 -44.07,11.96 -69.24,11.96l0 -89.41zm590.67 132.21c0,41.15 -15.54,74.3 -46.59,99.48 -31.06,25.18 -73.02,37.79 -125.92,37.79 -49.52,0 -90.45,-12.39 -122.76,-37.15 -32.33,-24.76 -48.48,-58.13 -48.48,-100.12l0 -119.6c0,-21 4.6,-39.66 13.86,-56.04 9.23,-16.36 21.6,-30.42 37.14,-42.18 15.51,-11.74 33.15,-20.98 52.88,-27.72 19.73,-6.69 39.66,-10.47 59.81,-11.31l-1.26 0c11.75,-1.67 22.44,-8.18 32.12,-19.53 9.64,-11.32 14.47,-24.96 14.47,-40.92l0 -219.06c0,-16.82 -3.78,-30.03 -11.34,-39.68 -7.55,-9.67 -16.36,-14.49 -26.44,-14.49 -9.23,0 -17.42,4.82 -24.56,14.49 -7.12,9.65 -10.69,22.86 -10.69,39.68l0 96.94 -129.68 0 0 -105.78c0,-20.98 4.6,-39.87 13.84,-56.67 9.23,-16.78 21.4,-31.05 36.52,-42.82 15.1,-11.72 32.52,-20.98 52.24,-27.69 19.73,-6.72 40.51,-10.07 62.33,-10.07 21.81,0 42.83,3.35 62.98,10.07 20.13,6.71 37.76,15.97 52.86,27.69 15.12,11.77 27.29,26.25 36.53,43.47 9.21,17.2 13.83,35.87 13.83,56.02l0 235.47c0,15.1 -4.18,30.01 -12.58,44.7 -8.4,14.68 -23.5,28.74 -45.33,42.18 14.27,8.38 25.82,18.05 34.65,28.95 8.8,10.92 15.29,20.98 19.5,30.24 4.21,8.37 6.93,16.14 8.18,23.28 1.26,7.13 1.89,14.07 1.89,20.78l0 119.6zm-129.68 -20.11c-12.61,7.55 -28.13,11.3 -46.61,11.3 -15.09,0 -27.69,-3.34 -37.77,-10.07l0 11.32c0,16.81 3.79,29.84 11.34,39.05 7.55,9.24 17.63,13.86 30.21,13.86 28.53,0 42.83,-17.63 42.83,-52.91l0 -12.55zm-41.56 -78.09c8.39,0 16.16,-2.51 23.29,-7.55 7.13,-5.04 10.7,-13.43 10.7,-25.16 0,-9.27 -2.94,-17.03 -8.82,-23.32 -5.87,-6.29 -14.69,-9.43 -26.44,-9.43 -20.98,0 -31.89,10.49 -32.73,31.45 0,14.27 3.56,23.53 10.69,27.71 7.14,4.2 14.9,6.3 23.31,6.3zm376.42 -101.98c0,9.22 2.31,19.1 6.92,29.59 4.62,10.48 11.13,18.66 19.52,24.53 -5.87,-6.71 -9.45,-14.05 -10.7,-22.02 -1.24,-7.97 -1.89,-14.48 -1.89,-19.53l0 -32.72c0,-34.44 10.08,-60.87 30.23,-79.34 20.14,-18.47 53.73,-27.7 100.72,-27.7 45.33,0 81.22,10.5 107.67,31.48 26.43,21 39.66,48.7 39.66,83.11l0 50.36c0,33.59 -13.43,60.87 -40.29,81.86 -26.86,20.98 -62.96,31.47 -108.29,31.47l-105.78 0c-50.35,0 -90.86,-11.54 -121.51,-34.62 -30.63,-23.09 -45.95,-55.63 -45.95,-97.59l0 -365.14c0,-42 15.53,-74.5 46.58,-97.61 31.07,-23.08 71.77,-34.64 122.14,-34.64l104.52 0c45.33,0 81.43,10.51 108.29,31.51 26.86,20.98 40.29,48.26 40.29,81.83l0 50.36c0,34.43 -13.23,62.13 -39.66,83.11 -26.45,20.98 -62.34,31.5 -107.67,31.5 -46.99,0 -80.58,-9.26 -100.72,-27.7 -20.15,-18.49 -30.23,-44.93 -30.23,-79.34l0 -32.75c0,-4.19 0.85,-10.69 2.52,-19.5 1.68,-8.82 5.47,-16.59 11.33,-23.31 -8.39,5.88 -15.11,14.07 -20.16,24.56 -5.02,10.49 -7.54,20.37 -7.54,29.6l0 328.64zm167.47 1.26c0,-11.76 -1.48,-21.84 -4.42,-30.23 -2.94,-8.39 -7.76,-12.59 -14.47,-12.59 -6.72,0 -11.54,3.97 -14.47,11.96 -2.95,7.97 -4.41,18.26 -4.41,30.86l0 20.14c0,10.91 1.24,20.76 3.78,29.59 2.51,8.81 7.55,13.21 15.1,13.21 12.6,0 18.89,-14.25 18.89,-42.8l0 -20.14zm0 -350.06c0,-28.54 -6.29,-42.81 -18.89,-42.81 -7.55,0 -12.59,4.42 -15.1,13.23 -2.54,8.81 -3.78,18.69 -3.78,29.58l0 20.16c0,12.59 1.46,22.86 4.41,30.86 2.93,7.97 7.75,11.94 14.47,11.94 6.71,0 11.53,-4.19 14.47,-12.59 2.94,-8.39 4.42,-18.46 4.42,-30.21l0 -20.16zm609.58 653.5l-200.19 0c-30.24,0 -57.95,-3.78 -83.12,-11.33 -25.2,-7.55 -47.22,-19.51 -66.1,-35.86 -18.89,-16.4 -33.57,-36.77 -44.08,-61.08 -10.5,-24.36 -15.73,-53.74 -15.73,-88.15l0 -452.04c0,-20.99 5.65,-39.87 16.99,-56.66 11.33,-16.79 26.24,-31.06 44.7,-42.83 18.46,-11.73 39.47,-20.99 62.96,-27.69 23.5,-6.73 47.85,-10.07 73.05,-10.07l0 90.66c-16.8,0 -32.54,4.82 -47.24,14.49 -14.7,9.65 -22.02,22.86 -22.02,39.68l0 438.16c0,37.78 7.32,66.11 22.02,85.01 14.7,18.87 34.21,28.3 58.57,28.3l200.19 0 0 89.41zm216.51 -285.82c0,20.97 -5.24,40.08 -15.75,57.28 -10.47,17.22 -24.77,31.7 -42.8,43.46 -18.05,11.74 -38.83,20.98 -62.33,27.69 -23.51,6.72 -48.27,10.07 -74.31,10.07 -25.99,0 -50.77,-3.35 -74.27,-10.07 -23.51,-6.71 -44.1,-16.17 -61.71,-28.32 -17.61,-12.17 -31.68,-26.66 -42.17,-43.45 -10.49,-16.78 -15.75,-35.69 -15.75,-56.66l0 -85.62 148.59 0 0 78.05c0,15.95 4.21,28.76 12.61,38.42 8.37,9.65 19.27,14.47 32.7,14.47 13.43,0 24.57,-4.82 33.38,-14.47 8.83,-9.66 13.23,-22.47 13.23,-38.42l0 -76.79c0,-15.94 -4.61,-28.97 -13.86,-39.05 -9.23,-10.06 -21.4,-15.95 -36.5,-17.62 -26.04,0 -50.61,-3.36 -73.68,-10.07 -23.08,-6.72 -43.22,-15.95 -60.43,-27.7 -17.2,-11.75 -30.86,-26.23 -40.92,-43.45 -10.08,-17.19 -15.12,-35.87 -15.12,-56.02l0 -90.67c0,-20.98 5.26,-39.87 15.75,-56.64 10.49,-16.8 24.56,-31.29 42.17,-43.46 17.61,-12.17 38.2,-21.62 61.71,-28.35 23.5,-6.7 48.28,-10.05 74.27,-10.05 26.04,0 50.8,3.35 74.31,10.05 23.5,6.73 44.28,16.18 62.33,28.35 18.03,12.17 32.33,26.86 42.8,44.07 10.51,17.2 15.75,35.89 15.75,56.03l0 85.62 -148.58 0 0 -76.81c0,-16.78 -4.4,-30.21 -13.23,-40.29 -8.81,-10.07 -19.95,-15.1 -33.38,-15.1 -13.43,0 -24.33,5.03 -32.7,15.1 -8.4,10.08 -12.61,23.51 -12.61,40.29l0 73.05c0,16.78 3.96,30 11.97,39.65 7.98,9.65 19.08,15.32 33.34,17.02 26.04,0 50.8,3.33 74.31,10.05 23.5,6.71 44.28,16.17 62.33,28.33 18.03,12.17 32.33,26.66 42.8,43.45 10.51,16.78 15.75,35.67 15.75,56.67l0 91.91z"/>
     <path class="fil1" d="M7345.75 3934.4c0,22.65 4.2,37.34 12.59,44.05 8.4,6.72 18.05,10.08 28.96,10.08 10.91,0 20.78,-3.76 29.59,-11.33 8.81,-7.54 13.22,-21.82 13.22,-42.8l0 -346.25c0,-21.02 -4.41,-35.28 -13.22,-42.84 -8.81,-7.54 -18.68,-11.33 -29.59,-11.33 -10.91,0 -20.56,3.55 -28.96,10.71 -8.39,7.13 -12.59,21.61 -12.59,43.46l0 96.94 -129.69 0 0 -105.78c0,-20.98 4.84,-39.87 14.47,-56.67 9.64,-16.78 22.46,-31.05 38.4,-42.82 15.96,-11.72 34.21,-20.98 54.77,-27.69 20.57,-6.72 41.77,-10.07 63.6,-10.07 22.66,0 44.28,3.35 64.85,10.07 20.56,6.71 38.83,15.97 54.77,27.69 15.95,11.77 28.75,26.25 38.4,43.47 9.66,17.2 14.5,35.87 14.5,56.02l0 362.64c0,20.14 -4.84,38.83 -14.5,56.03 -9.65,17.21 -22.45,31.69 -38.4,43.44 -15.94,11.75 -34.21,20.98 -54.77,27.7 -20.57,6.72 -42.19,10.08 -64.85,10.08 -21.83,0 -43.03,-3.17 -63.6,-9.45 -20.56,-6.28 -38.81,-15.52 -54.77,-27.71 -15.94,-12.16 -28.76,-26.64 -38.4,-43.43 -9.63,-16.78 -14.47,-35.68 -14.47,-56.66l0 -100.74 129.69 0 0 93.19zm574.32 -493.6c29.37,0 52.66,2.52 69.88,7.56 17.22,5.03 32.12,13.86 44.71,26.42 14.28,-14.27 31.26,-23.91 50.99,-28.96 19.73,-5.02 40.51,-7.54 62.33,-7.54 19.31,0 37.98,2.94 56.03,8.84 18.05,5.85 34.21,14.27 48.48,25.15 13.43,-11.76 30.43,-20.34 50.99,-25.8 20.57,-5.45 40.91,-8.19 61.05,-8.19 21.85,0 43.24,3.16 64.23,9.46 20.98,6.3 39.45,15.32 55.41,27.04 15.96,11.76 28.75,26.05 38.4,42.85 9.65,16.77 14.49,35.66 14.49,56.64l0 368.94c0,20.97 -5.46,39.88 -16.37,56.66 -10.92,16.79 -25.18,31.06 -42.83,42.82 -17.6,11.74 -38.18,20.78 -61.68,27.06 -23.51,6.28 -47.84,9.45 -73.03,9.45l0 -91.94c18.47,0 33.57,-4.39 45.33,-13.2 11.74,-8.81 17.62,-21.2 17.62,-37.16l0 -353.82c0,-16.78 -4.19,-29.79 -12.6,-39.02 -8.38,-9.24 -18.03,-13.85 -28.97,-13.85 -10.05,0 -19.28,4.19 -27.7,12.58 -8.36,8.41 -13.43,20.15 -15.08,35.28l0 497.35 -130.95 0 0 -496.11c-1.7,-15.95 -6.74,-28.11 -15.13,-36.52 -8.38,-8.39 -17.63,-12.58 -27.69,-12.58 -10.08,0 -19.3,4.19 -27.7,12.58 -8.4,8.41 -13.43,20.57 -15.11,36.52l0 496.11 -130.96 0 0 -484.79c0,-16.78 -4.83,-31.05 -14.48,-42.8 -9.65,-11.76 -24.14,-17.22 -43.45,-16.37l-114.56 0c-9.26,0 -17.64,4.82 -25.19,14.49 -7.56,9.65 -11.35,22.87 -11.35,39.67l0 28.96c8.41,-1.71 16.38,-2.53 23.93,-2.53 45.35,0 82.69,12.59 112.07,37.77 29.4,25.18 44.09,58.76 44.09,100.72l0 192.67c0,42.8 -14.69,76.59 -44.09,101.37 -29.38,24.74 -66.72,37.13 -112.07,37.13 -44.48,0 -81.21,-12.39 -110.17,-37.13 -28.96,-24.78 -43.44,-58.57 -43.44,-101.37l0 -363.9c0,-20.98 4.62,-39.87 13.85,-56.67 9.23,-16.78 21.4,-31.26 36.51,-43.43 15.12,-12.19 32.74,-21.63 52.89,-28.34 20.15,-6.72 41.16,-10.07 62.97,-10.07l118.35 0zm-105.76 318.57c0,-16.8 -1.9,-30.01 -5.68,-39.67 -3.77,-9.65 -10.29,-14.46 -19.52,-14.46 -8.39,0 -14.47,4.81 -18.25,14.46 -3.77,9.66 -5.68,22.87 -5.68,39.67l0 177.53c0,15.96 1.91,28.76 5.68,38.42 3.78,9.64 9.86,14.48 18.25,14.48 9.23,0 15.75,-4.84 19.52,-14.48 3.78,-9.66 5.68,-22.46 5.68,-38.42l0 -177.53zm793.41 -353.83c0,-16.78 -1.48,-29.79 -4.41,-39.02 -2.94,-9.23 -10.3,-13.85 -22.03,-13.85 -10.91,0 -17.85,4.62 -20.78,13.85 -2.94,9.23 -4.42,22.24 -4.42,39.02l0 17.63 -128.43 0 0 -26.44c0,-41.98 14.29,-75.34 42.82,-100.09 28.54,-24.79 65.47,-37.14 110.81,-37.14 44.48,0 81.42,12.35 110.81,37.14 29.37,24.75 44.06,58.11 44.06,100.09l0 678.69 -128.43 0 0 -669.88zm770.74 537.67c0,20.97 -5.44,40.08 -16.36,57.28 -10.91,17.22 -25.2,31.7 -42.82,43.46 -17.63,11.74 -38.2,20.98 -61.69,27.69 -23.49,6.72 -47.85,9.65 -73.04,8.81 -26.86,-0.83 -53.08,-3.98 -78.69,-9.43 -25.61,-5.46 -45.97,-16.59 -61.07,-33.38 -8.4,11.75 -19.74,21.83 -34,30.22 -14.26,8.4 -36.51,12.59 -66.72,12.59 -40.31,0 -72.42,-12.17 -96.32,-36.5 -23.95,-24.35 -35.92,-57.94 -35.92,-100.74l0 -130.96c0,-41.96 14.71,-75.34 44.08,-100.1 29.4,-24.76 69.69,-37.15 120.89,-37.15l16.37 0 0 -100.73c0,-23.51 5.23,-43.84 15.72,-61.07 10.52,-17.22 24.57,-31.49 42.18,-42.81 17.65,-11.33 38.02,-19.92 61.08,-25.81 23.08,-5.88 47.22,-8.81 72.4,-8.81 25.19,0 49.55,2.93 73.04,8.81 23.49,5.89 44.06,14.48 61.69,25.81 17.62,11.32 31.91,25.83 42.82,43.44 10.92,17.63 16.36,37.78 16.36,60.44l0 100.73 16.37 0c51.22,0 91.71,12.39 121.5,37.15 29.83,24.76 44.73,58.14 44.73,100.1l0 130.96c0,42.8 -12.19,76.59 -36.54,101.37 -24.33,24.74 -65.04,37.13 -122.13,37.13l-20.14 0 0 -91.91 20.14 0c9.23,0 16.36,-4.84 21.41,-14.48 5.01,-9.66 7.55,-22.46 7.55,-38.42l0 -115.83c0,-16.79 -2.54,-30.02 -7.55,-39.67 -5.05,-9.65 -14.69,-14.46 -28.97,-14.46l-16.37 0 0 176.27zm-132.23 -176.27l-123.38 0 0 157.39c0,43.64 20.56,65.47 61.7,65.47 20.97,0 36.53,-5.89 46.6,-17.64 10.06,-11.75 15.08,-27.28 15.08,-46.57l0 -158.65zm0 -91.94l0 -91.92c0,-20.14 -5.44,-34.41 -16.34,-42.81 -10.94,-8.37 -26.04,-12.58 -45.34,-12.58 -16.78,0 -31.26,4 -43.43,11.95 -12.19,7.97 -18.27,22.46 -18.27,43.44l0 91.92 123.38 0zm-279.5 312.26c10.9,0 18.03,-4.81 21.39,-14.45 3.36,-9.67 5.05,-24.15 5.05,-43.46l0 -162.41 -17.63 0c-14.27,0 -23.5,6.09 -27.7,18.24 -4.22,12.18 -6.31,24.14 -6.31,35.89l0 115.83c0,14.31 1.47,26.24 4.42,35.91 2.93,9.64 9.86,14.45 20.78,14.45zm745.35 -721.46l0 52.88c0,20.14 -4.62,37.96 -13.85,53.5 -9.22,15.52 -21.62,28.55 -37.13,39.01 -15.55,10.52 -33.39,18.28 -53.53,23.32 -20.15,5.03 -41.55,7.55 -64.21,7.55 -21.85,0 -42.83,-2.52 -62.95,-7.55 -20.16,-5.04 -37.99,-12.8 -53.52,-23.32 -15.55,-10.46 -27.91,-23.49 -37.17,-39.01 -9.24,-15.54 -13.83,-33.78 -13.83,-54.77l0 -51.61 128.44 0 0 44.07c0,16.77 3.99,28.73 11.95,35.87 7.97,7.14 17.01,10.7 27.08,10.7 10.91,0 20.13,-3.35 27.7,-10.08 7.55,-6.7 11.33,-18.47 11.33,-35.25l0 -45.31 129.69 0zm525 175c59.59,0 107.01,12.59 142.29,37.79 35.25,25.19 52.87,58.32 52.87,99.48l0 366.39c0,20.17 -4.81,38.83 -14.47,56.03 -9.65,17.22 -22.46,31.7 -38.4,43.46 -15.96,11.74 -34.22,20.98 -54.78,27.69 -20.55,6.72 -42.2,10.07 -64.85,10.07 -21.82,0 -43.02,-3.35 -63.59,-10.07 -20.56,-6.71 -38.83,-16.17 -54.77,-28.32 -15.94,-12.17 -28.75,-27.08 -38.41,-44.71 -9.66,-17.62 -14.46,-37.34 -14.46,-59.18l0 -352.57c0,-16.79 -4.2,-30 -12.61,-39.65 -8.38,-9.68 -18.06,-14.49 -28.95,-14.49 -10.08,0 -19.31,4.42 -27.7,13.23 -8.41,8.81 -13.43,21.18 -15.12,37.13l0 492.34 -129.68 0 0 -492.34c-1.69,-15.95 -6.94,-28.32 -15.76,-37.13 -8.81,-8.81 -17.82,-13.23 -27.05,-13.23 -10.91,0 -20.78,4.81 -29.6,14.49 -8.81,9.65 -13.23,22.86 -13.23,39.65l0 350.04c0,36.1 18.49,54.16 55.42,54.16l0 90.65c-62.13,0 -108.33,-12.39 -138.51,-37.13 -30.21,-24.78 -45.34,-58.15 -45.34,-100.12l0 -366.39c0,-21.01 4.83,-39.89 14.48,-56.68 9.66,-16.79 22.45,-31.05 38.41,-42.8 15.95,-11.77 34.2,-21.01 54.76,-27.72 20.58,-6.72 41.76,-10.07 63.61,-10.07 19.3,0 38.8,2.94 58.55,8.82 19.72,5.87 35.47,15.94 47.22,30.2 12.59,-14.26 29.37,-24.33 50.36,-30.2 20.98,-5.88 40.71,-8.82 59.18,-8.82 20.99,0 41.98,3.35 62.96,10.07 20.98,6.71 39.64,15.95 56.03,27.72 16.36,11.75 29.38,26.22 39,43.42 9.69,17.24 14.09,35.9 13.24,56.06l0 352.54c0,16.79 2.95,31.06 8.83,42.83 5.87,11.73 16.79,17.62 32.73,17.62 14.27,0 24.98,-5.68 32.11,-17 7.14,-11.33 10.69,-25.4 10.69,-42.18l0 -345.02c0,-16.79 -6.3,-30 -18.87,-39.65 -12.59,-9.68 -28.12,-14.49 -46.59,-14.49l0 -91.92zm346.4 -175l0 52.88c0,20.14 -4.6,37.96 -13.85,53.5 -9.23,15.52 -21.61,28.55 -37.13,39.01 -15.53,10.52 -33.38,18.28 -53.5,23.32 -20.18,5.03 -41.58,7.55 -64.24,7.55 -21.82,0 -42.81,-2.52 -62.95,-7.55 -20.16,-5.04 -38,-12.8 -53.52,-23.32 -15.53,-10.46 -27.91,-23.49 -37.15,-39.01 -9.24,-15.54 -13.85,-33.78 -13.85,-54.77l0 -51.61 128.45 0 0 44.07c0,16.77 3.97,28.73 11.94,35.87 7.97,7.14 17.02,10.7 27.08,10.7 10.93,0 20.15,-3.35 27.7,-10.08 7.54,-6.7 11.35,-18.47 11.35,-35.25l0 -45.31 129.67 0z"/>
    </g>
   </g>
  </g>
 </g>
</svg>
